<svg width="226" height="163" viewBox="0 0 226 163" fill="none" xmlns="http://www.w3.org/2000/svg">
<path d="M166.119 107.191C166.126 114.288 164.445 121.308 161.184 127.801C157.923 134.293 153.154 140.116 147.182 144.896C145.521 146.227 143.775 147.473 141.952 148.628C139.612 150.111 137.149 151.438 134.583 152.597H134.556C134.009 152.849 133.454 153.089 132.893 153.322C132.638 153.432 132.387 153.534 132.127 153.637C130.504 154.29 128.84 154.877 127.134 155.397C125.789 155.791 124.409 156.184 123.015 156.507C114.974 158.386 106.569 158.734 98.3635 157.527C97.3909 157.385 96.4317 157.224 95.477 157.039L94.6702 156.877C92.2349 156.377 89.8393 155.738 87.4989 154.964C86.1393 154.515 84.8067 154.023 83.5009 153.487C82.9944 153.278 82.4879 153.066 81.9904 152.845C81.6498 152.696 81.3137 152.542 80.9775 152.389C71.8578 148.181 64.1748 141.92 58.7153 134.247C53.2558 126.573 50.2159 117.763 49.907 108.718C49.5981 99.6726 52.0312 90.7179 56.9572 82.7706C61.8832 74.8233 69.1251 68.1689 77.9413 63.4888C86.7575 58.8087 96.8313 56.2711 107.131 56.1358C117.431 56.0005 127.586 58.2724 136.558 62.7188C145.529 67.1653 152.995 73.6265 158.189 81.4409C163.383 89.2552 166.12 98.142 166.119 107.191Z" fill="url(#paint0_linear_313_18094)"/>
<path d="M123.23 110.884C126.932 114.231 137.716 127.256 137.716 127.256L131.092 135.788L125.135 118.838L123.23 110.884Z" fill="url(#paint1_linear_313_18094)"/>
<path d="M134.556 152.625C134.009 152.877 133.454 153.117 132.893 153.349C132.638 153.46 132.387 153.562 132.127 153.664C130.504 154.318 128.84 154.905 127.134 155.424C125.789 155.818 124.409 156.212 123.015 156.535C114.974 158.414 106.569 158.761 98.3634 157.554C97.3908 157.413 96.4316 157.251 95.4769 157.066C91.9809 159.185 88.7538 160.976 86.6159 161.791L86.7907 160.48L87.5168 154.995L89.1975 142.234L95.8579 136.576L80.8833 137.596C80.8833 137.596 82.4565 118.421 88.5969 114.475C94.7374 110.53 101.178 106.994 101.178 106.994C101.947 107.439 102.793 107.771 103.684 107.975C105.813 108.492 108.027 108.69 110.232 108.561C112.858 108.455 115.485 106.309 115.61 106.199C115.61 106.199 119.734 106.919 123.23 110.9C124.974 112.949 126.225 115.288 126.91 117.775C127.77 120.685 129.299 127.481 131.038 135.69C132.176 140.974 133.373 146.833 134.556 152.625Z" fill="url(#paint2_linear_313_18094)"/>
<path d="M137.716 127.272L144.108 133.851L166.585 114.251L167.437 110.239L171.919 106.817L169.924 112.034V118.83C169.924 118.83 152.588 143.518 147.81 144.789C142.221 146.282 131.101 135.781 131.101 135.781L137.716 127.272Z" fill="url(#paint3_linear_313_18094)"/>
<path d="M114.382 136.269L119.595 147.294L126.332 144.75L121.392 133.962L114.382 136.269Z" fill="#7E57C2"/>
<path d="M121.643 143.392C120.805 143.998 119.555 143.856 118.004 143.927C115.921 143.975 113.922 144.664 112.357 145.872C110.272 147.412 104.446 151.44 98.619 155.117C97.5613 155.783 96.5035 156.44 95.4816 157.086C91.9856 159.204 88.7585 160.996 86.6205 161.811C86.0584 162.056 85.4515 162.212 84.8277 162.271C81.8337 162.338 81.1927 156.826 81.009 152.428C80.9507 150.967 80.9372 149.632 80.9059 148.668C80.7804 144.809 80.9059 137.643 80.9059 137.643L95.8805 136.619L94.2938 145.73L94.0159 147.341V147.353L98.498 145.896L98.637 145.852L114.548 140.659L115.646 138.994L116.346 140.568H116.413L123.226 139.781C123.226 139.781 123.342 142.167 121.643 143.392Z" fill="url(#paint4_linear_313_18094)"/>
<path d="M118.206 85.929C117.816 84.9919 117.48 84.3541 117.381 84.1651V84.1178C117.381 84.1178 117.036 84.8659 114.436 84.6848C111.837 84.5037 110.976 83.3697 110.976 83.3697C110.976 83.3697 111.792 85.8267 108.695 86.878C105.714 87.8938 104.54 87.2363 104.459 87.189C104.616 87.3386 106.947 89.5278 105.4 91.2642C103.8 93.0636 100.201 92.7092 100.201 92.7092V92.7329C100.654 93.634 101.161 94.5132 101.721 95.367C102.016 95.8159 102.308 96.2293 102.617 96.6152V96.6427C103.411 97.7771 104.483 98.7416 105.754 99.4659C105.195 102.347 103.59 104.992 101.178 107.006C101.99 107.378 102.826 107.705 103.684 107.986C105.356 108.542 107.601 109.093 109.605 108.939C111.926 108.721 114.071 107.75 115.62 106.215L114.593 102.754L113.67 99.6352C122.015 97.7649 119.721 89.6302 118.206 85.929ZM113.204 99.7493L113.352 99.7179L113.589 99.6588C113.243 99.7902 112.878 99.8777 112.504 99.9187C112.697 99.8754 112.894 99.8281 113.101 99.773L113.204 99.7493Z" fill="url(#paint5_linear_313_18094)"/>
<path d="M123.23 84.0155C119.788 86.7953 118.3 86.0117 118.206 85.9369V85.929C117.816 84.9919 117.48 84.3541 117.385 84.1651L117.363 84.1178C117.363 84.1178 117.013 84.8659 114.414 84.6848C111.814 84.5037 110.958 83.3697 110.958 83.3697C110.958 83.3697 111.774 85.8267 108.677 86.878C105.692 87.8938 104.517 87.2363 104.441 87.189C104.598 87.3347 106.929 89.5239 105.382 91.2603C103.782 93.0597 100.183 92.7092 100.183 92.7092V92.729C100.636 93.6314 101.143 94.512 101.703 95.367C102.001 95.8132 102.3 96.2293 102.599 96.6152V96.6427C102.599 96.6427 101.371 98.765 99.1792 98.7217C96.9875 98.6784 96.9382 96.753 96.9382 96.753C96.9382 96.753 95.3874 99.2099 90.596 96.8435C85.8047 94.4771 89.0004 91.0477 89.0004 91.0477C89.0004 91.0477 85.603 88.764 85.603 85.3424C85.603 81.9208 90.8919 79.3181 90.8919 79.3181C90.8919 79.3181 89.0004 75.3453 92.1917 73.1561C95.3829 70.9669 100.179 72.4513 100.179 72.4513C100.179 72.4513 100.085 67.3681 104.97 67.4508C109.856 67.5335 110.963 70.1597 110.963 70.1597C110.963 70.1597 115.355 67.1751 119.703 69.9865C124.05 72.7978 122.262 77.6998 122.262 77.6998C122.262 77.6998 126.82 81.1215 123.23 84.0155Z" fill="url(#paint6_linear_313_18094)"/>
<path opacity="0.15" d="M114.629 102.742C112.545 102.163 108.838 99.9541 108.838 99.9541C110.301 100.09 111.779 100.021 113.217 99.7494L113.365 99.7179L113.652 99.6431H113.692L114.629 102.742Z" fill="black"/>
<path opacity="0.15" d="M97.8794 124.799L95.858 136.611L94.2714 145.723L90.5781 148.42L98.6145 145.856C98.6145 145.856 96.5303 140.628 97.8794 124.799Z" fill="black"/>
<path opacity="0.15" d="M95.4683 157.066C96.4229 157.251 97.3821 157.413 98.3547 157.554C98.404 156.747 98.4937 155.932 98.6192 155.117L95.4683 157.066Z" fill="black"/>
<g filter="url(#filter0_d_313_18094)">
<path d="M76.043 10H52.0774C48.7703 10 46.0894 12.3552 46.0894 15.2604V36.3137C46.0894 39.219 48.7703 41.5741 52.0774 41.5741H76.043C79.3502 41.5741 82.0311 39.219 82.0311 36.3137V15.2604C82.0311 12.3552 79.3502 10 76.043 10Z" fill="#56CCF2"/>
</g>
<path d="M54.7056 29.5502C54.7056 27.6723 56.4267 26.1499 58.5498 26.1499H70.1735C72.2966 26.1499 74.0177 27.6723 74.0177 29.5502V31.818C74.0177 33.696 72.2966 35.2184 70.1735 35.2184H58.5498C56.4267 35.2184 54.7056 33.696 54.7056 31.818V29.5502Z" fill="white"/>
<path fill-rule="evenodd" clip-rule="evenodd" d="M59.4616 26.0947C59.4616 26.0946 59.4616 26.0944 58.6339 26.1499C57.8063 26.2054 57.8063 26.2052 57.8063 26.2049L57.806 26.202L57.8054 26.1948L57.8035 26.17C57.8019 26.1488 57.7997 26.1183 57.7973 26.0793C57.7923 26.0013 57.786 25.8888 57.7805 25.7467C57.7696 25.4627 57.7617 25.0596 57.7734 24.5768C57.7967 23.615 57.8983 22.3187 58.2177 21.0112C58.5346 19.7135 59.0809 18.342 60.04 17.2813C61.0251 16.1919 62.4345 15.4483 64.3579 15.4483C66.2794 15.4483 67.7071 16.1906 68.7249 17.2716C69.7188 18.3272 70.3161 19.6948 70.6825 20.9932C71.0514 22.3006 71.2025 23.5974 71.2626 24.5601C71.2927 25.0433 71.3002 25.4468 71.3001 25.731C71.3 25.8732 71.298 25.9858 71.296 26.064C71.295 26.103 71.294 26.1335 71.2933 26.1548L71.2923 26.1797L71.292 26.1868L71.2919 26.189C71.2919 26.1893 71.2918 26.1903 70.4625 26.1594C69.6333 26.1286 69.6333 26.1288 69.6333 26.1289L69.6334 26.1248L69.6341 26.1069C69.6347 26.0904 69.6356 26.0648 69.6365 26.0308C69.6382 25.9628 69.64 25.8611 69.6401 25.7305C69.6402 25.4691 69.6333 25.0931 69.6051 24.641C69.5484 23.733 69.4068 22.5356 69.0719 21.3488C68.7345 20.1529 68.2168 19.0263 67.4493 18.2112C66.7058 17.4215 65.7257 16.9167 64.3579 16.9167C62.992 16.9167 62.0412 17.419 61.3363 18.1985C60.6055 19.0067 60.1319 20.1271 59.8402 21.3213C59.5509 22.5056 59.455 23.7011 59.433 24.6083C59.422 25.0599 59.4295 25.4354 59.4396 25.6966C59.4446 25.827 59.4503 25.9287 59.4546 25.9966C59.4568 26.0306 59.4586 26.0562 59.4599 26.0727L59.4612 26.0905L59.4616 26.0947Z" fill="white"/>
<g filter="url(#filter1_d_313_18094)">
<path d="M199.985 89.5996H176.02C172.713 89.5996 170.032 91.9548 170.032 94.86V115.913C170.032 118.819 172.713 121.174 176.02 121.174H199.985C203.293 121.174 205.973 118.819 205.973 115.913V94.86C205.973 91.9548 203.293 89.5996 199.985 89.5996Z" fill="#F2C94C"/>
</g>
<path d="M220.21 130.37L222.882 121.273C223.204 120.558 223.144 119.725 222.725 119.063C222.305 118.401 221.583 118.001 220.807 118H218.318L217.488 119.851C216.88 121.18 215.567 122.03 214.123 122.03C212.678 122.03 211.365 121.18 210.757 119.851L209.928 118H207.915C207.038 118 206.221 118.452 205.747 119.2C205.273 119.948 205.206 120.89 205.571 121.698L208.06 130.37L204.326 142.572C203.946 143.843 204.18 145.221 204.957 146.289C205.734 147.358 206.963 147.992 208.272 148H220.027C221.336 147.991 222.563 147.356 223.339 146.288C224.115 145.219 224.349 143.842 223.969 142.572L220.21 130.37Z" fill="white"/>
<g filter="url(#filter2_d_313_18094)">
<path d="M40.1012 89.5996H16.1355C12.8284 89.5996 10.1475 91.9548 10.1475 94.86V115.913C10.1475 118.819 12.8284 121.174 16.1355 121.174H40.1012C43.4083 121.174 46.0892 118.819 46.0892 115.913V94.86C46.0892 91.9548 43.4083 89.5996 40.1012 89.5996Z" fill="#F58A8A"/>
</g>
<path d="M39.46 135.625C37.7167 135.627 36.0099 136.124 34.5382 137.058C33.0665 137.992 31.8906 139.325 31.1475 140.902C30.4043 139.325 29.2284 137.992 27.7567 137.058C26.285 136.124 24.5782 135.627 22.835 135.625H18.0225V136.5C18.0225 141.566 22.1439 145.688 27.21 145.688H35.085C40.151 145.688 44.2725 141.566 44.2725 136.5V135.625H39.46ZM27.21 143.938C23.4047 143.938 20.2579 141.065 19.8236 137.375H22.835C26.6402 137.375 29.7871 140.247 30.2213 143.938H27.21ZM35.085 143.938H32.0736C32.5079 140.247 35.6548 137.375 39.46 137.375H42.4713C42.0371 141.065 38.8902 143.938 35.085 143.938Z" fill="white"/>
<path d="M26.4019 133.37C26.5674 134.354 27.0368 135.262 27.7443 135.965L28.0006 136.222H28.363C29.3608 136.225 30.3345 135.915 31.1473 135.336C31.9601 135.915 32.9337 136.225 33.9315 136.222H34.2939L34.5503 135.966C35.2578 135.262 35.7272 134.355 35.8927 133.371C36.8767 133.205 37.7841 132.736 38.4878 132.028L38.744 131.772V131.409C38.7469 130.412 38.4371 129.438 37.8583 128.625C38.4372 127.812 38.747 126.839 38.7442 125.841V125.478L38.488 125.222C37.7844 124.515 36.8769 124.045 35.8929 123.88C35.7274 122.896 35.258 121.988 34.5505 121.285L34.2942 121.028H33.9317C32.9339 121.025 31.9602 121.335 31.1473 121.914C30.3345 121.335 29.3609 121.025 28.363 121.028H28.0006L27.7443 121.284C27.0368 121.988 26.5674 122.895 26.4019 123.879C25.4179 124.045 24.5104 124.514 23.8068 125.222L23.5505 125.478V125.841C23.5477 126.838 23.8574 127.812 24.4362 128.625C23.8574 129.438 23.5476 130.411 23.5503 131.409V131.772L23.8066 132.028C24.5103 132.736 25.4178 133.205 26.4019 133.37ZM26.1976 128.006C25.7123 127.524 25.404 126.892 25.3226 126.213C25.8605 125.79 26.5255 125.561 27.2098 125.563H28.0848V124.688C28.0828 124.003 28.3118 123.338 28.7347 122.8C29.4141 122.882 30.0461 123.19 30.5284 123.675L31.1473 124.294L31.766 123.675C32.2483 123.19 32.8803 122.881 33.5597 122.8C33.9827 123.338 34.2118 124.003 34.2098 124.688V125.563H35.0848C35.769 125.561 36.4339 125.79 36.9718 126.212C36.8904 126.892 36.5821 127.524 36.0968 128.006L35.4785 128.625L36.0973 129.244C36.5825 129.726 36.8908 130.358 36.9723 131.037C36.4342 131.461 35.7692 131.69 35.0848 131.688H34.2098V132.563C34.2118 133.247 33.9828 133.912 33.5599 134.45C32.8805 134.368 32.2485 134.06 31.7661 133.575L31.1473 132.956L30.5285 133.575C30.0462 134.06 29.4142 134.368 28.7348 134.45C28.3118 133.912 28.0828 133.247 28.0848 132.563V131.688H27.2098C26.5255 131.689 25.8607 131.46 25.3227 131.038C25.4041 130.358 25.7125 129.726 26.1977 129.244L26.816 128.625L26.1976 128.006Z" fill="white"/>
<g filter="url(#filter3_d_313_18094)">
<path d="M160.67 10H136.704C133.397 10 130.716 12.3552 130.716 15.2604V36.3137C130.716 39.219 133.397 41.5741 136.704 41.5741H160.67C163.977 41.5741 166.658 39.219 166.658 36.3137V15.2604C166.658 12.3552 163.977 10 160.67 10Z" fill="#6FCF97"/>
</g>
<path d="M154.412 14.6369C150.643 15.6774 146.606 15.6774 142.837 14.6369C142.419 15.5063 141.2 18.2394 141.2 20.7973C141.2 24.3138 142.479 34.1509 142.479 34.1509C142.479 34.1509 145.111 36.2281 148.627 36.2756C152.139 36.2222 154.77 34.145 154.77 34.145C154.77 34.145 156.053 24.3019 156.053 20.7914C156.053 18.2394 154.831 15.5063 154.412 14.6369Z" fill="white"/>
<defs>
<filter id="filter0_d_313_18094" x="36.0894" y="0" width="65.9419" height="61.5741" filterUnits="userSpaceOnUse" color-interpolation-filters="sRGB">
<feFlood flood-opacity="0" result="BackgroundImageFix"/>
<feColorMatrix in="SourceAlpha" type="matrix" values="0 0 0 0 0 0 0 0 0 0 0 0 0 0 0 0 0 0 127 0" result="hardAlpha"/>
<feOffset dx="5" dy="5"/>
<feGaussianBlur stdDeviation="7.5"/>
<feColorMatrix type="matrix" values="0 0 0 0 0 0 0 0 0 0 0 0 0 0 0 0 0 0 0.15 0"/>
<feBlend mode="normal" in2="BackgroundImageFix" result="effect1_dropShadow_313_18094"/>
<feBlend mode="normal" in="SourceGraphic" in2="effect1_dropShadow_313_18094" result="shape"/>
</filter>
<filter id="filter1_d_313_18094" x="160.032" y="79.5996" width="65.9419" height="61.5741" filterUnits="userSpaceOnUse" color-interpolation-filters="sRGB">
<feFlood flood-opacity="0" result="BackgroundImageFix"/>
<feColorMatrix in="SourceAlpha" type="matrix" values="0 0 0 0 0 0 0 0 0 0 0 0 0 0 0 0 0 0 127 0" result="hardAlpha"/>
<feOffset dx="5" dy="5"/>
<feGaussianBlur stdDeviation="7.5"/>
<feColorMatrix type="matrix" values="0 0 0 0 0 0 0 0 0 0 0 0 0 0 0 0 0 0 0.15 0"/>
<feBlend mode="normal" in2="BackgroundImageFix" result="effect1_dropShadow_313_18094"/>
<feBlend mode="normal" in="SourceGraphic" in2="effect1_dropShadow_313_18094" result="shape"/>
</filter>
<filter id="filter2_d_313_18094" x="0.147461" y="79.5996" width="65.9419" height="61.5741" filterUnits="userSpaceOnUse" color-interpolation-filters="sRGB">
<feFlood flood-opacity="0" result="BackgroundImageFix"/>
<feColorMatrix in="SourceAlpha" type="matrix" values="0 0 0 0 0 0 0 0 0 0 0 0 0 0 0 0 0 0 127 0" result="hardAlpha"/>
<feOffset dx="5" dy="5"/>
<feGaussianBlur stdDeviation="7.5"/>
<feColorMatrix type="matrix" values="0 0 0 0 0 0 0 0 0 0 0 0 0 0 0 0 0 0 0.15 0"/>
<feBlend mode="normal" in2="BackgroundImageFix" result="effect1_dropShadow_313_18094"/>
<feBlend mode="normal" in="SourceGraphic" in2="effect1_dropShadow_313_18094" result="shape"/>
</filter>
<filter id="filter3_d_313_18094" x="120.716" y="0" width="65.9419" height="61.5741" filterUnits="userSpaceOnUse" color-interpolation-filters="sRGB">
<feFlood flood-opacity="0" result="BackgroundImageFix"/>
<feColorMatrix in="SourceAlpha" type="matrix" values="0 0 0 0 0 0 0 0 0 0 0 0 0 0 0 0 0 0 127 0" result="hardAlpha"/>
<feOffset dx="5" dy="5"/>
<feGaussianBlur stdDeviation="7.5"/>
<feColorMatrix type="matrix" values="0 0 0 0 0 0 0 0 0 0 0 0 0 0 0 0 0 0 0.15 0"/>
<feBlend mode="normal" in2="BackgroundImageFix" result="effect1_dropShadow_313_18094"/>
<feBlend mode="normal" in="SourceGraphic" in2="effect1_dropShadow_313_18094" result="shape"/>
</filter>
<linearGradient id="paint0_linear_313_18094" x1="108.238" y1="61.6742" x2="106.704" y2="162.309" gradientUnits="userSpaceOnUse">
<stop stop-color="white" stop-opacity="0"/>
<stop offset="1" stop-color="#64B5F6" stop-opacity="0.6"/>
</linearGradient>
<linearGradient id="paint1_linear_313_18094" x1="118.842" y1="107.502" x2="131.939" y2="133.7" gradientUnits="userSpaceOnUse">
<stop stop-color="#E57373"/>
<stop offset="1" stop-color="#AD1457"/>
</linearGradient>
<linearGradient id="paint2_linear_313_18094" x1="24587.9" y1="30755.9" x2="23269.8" y2="38161.5" gradientUnits="userSpaceOnUse">
<stop stop-color="#E57373"/>
<stop offset="1" stop-color="#AD1457"/>
</linearGradient>
<linearGradient id="paint3_linear_313_18094" x1="178.001" y1="116.601" x2="137.579" y2="143.258" gradientUnits="userSpaceOnUse">
<stop stop-color="#FFF8E1"/>
<stop offset="1" stop-color="#FFCC80"/>
</linearGradient>
<linearGradient id="paint4_linear_313_18094" x1="18918.8" y1="17251.2" x2="16773.6" y2="15604.6" gradientUnits="userSpaceOnUse">
<stop stop-color="#FFF8E1"/>
<stop offset="1" stop-color="#FFCC80"/>
</linearGradient>
<linearGradient id="paint5_linear_313_18094" x1="122.594" y1="89.9387" x2="99.8937" y2="100.58" gradientUnits="userSpaceOnUse">
<stop stop-color="#FFF8E1"/>
<stop offset="1" stop-color="#FFCC80"/>
</linearGradient>
<linearGradient id="paint6_linear_313_18094" x1="117.161" y1="67.3011" x2="93.8989" y2="103.081" gradientUnits="userSpaceOnUse">
<stop stop-color="#FFB74D"/>
<stop offset="1" stop-color="#F4511E"/>
</linearGradient>
</defs>
</svg>
