<svg width="255" height="208" viewBox="0 0 255 208" fill="none" xmlns="http://www.w3.org/2000/svg">
<path d="M188.522 135.763C188.53 144.946 186.606 154.029 182.873 162.431C179.141 170.833 173.682 178.367 166.847 184.552C164.946 186.274 162.947 187.886 160.86 189.382C158.182 191.301 155.363 193.017 152.426 194.517H152.396C151.77 194.844 151.134 195.154 150.492 195.455C150.2 195.598 149.913 195.73 149.615 195.863C147.758 196.708 145.853 197.467 143.9 198.14C142.361 198.649 140.781 199.159 139.186 199.577C129.983 202.008 120.363 202.458 110.97 200.896C109.857 200.713 108.759 200.504 107.666 200.265L106.743 200.056C103.955 199.409 101.214 198.582 98.5348 197.58C96.9787 196.999 95.4534 196.362 93.9588 195.669C93.3791 195.399 92.7994 195.124 92.2299 194.838C91.8401 194.645 91.4553 194.446 91.0706 194.247C80.6323 188.803 71.8385 180.702 65.5897 170.772C59.3409 160.843 55.8615 149.442 55.508 137.738C55.1544 126.034 57.9393 114.447 63.5775 104.163C69.2157 93.8798 77.5046 85.2691 87.5954 79.2132C97.6863 73.1572 109.216 69.8736 121.005 69.6985C132.794 69.5235 144.418 72.4633 154.687 78.2169C164.955 83.9705 173.5 92.3311 179.445 102.443C185.39 112.554 188.523 124.054 188.522 135.763Z" fill="url(#paint0_linear_313_18717)"/>
<path d="M139.432 140.542C143.67 144.873 156.013 161.727 156.013 161.727L148.43 172.767L141.612 150.834L139.432 140.542Z" fill="url(#paint1_linear_313_18717)"/>
<path d="M152.396 194.553C151.77 194.879 151.134 195.19 150.492 195.491C150.2 195.633 149.913 195.766 149.615 195.898C147.758 196.744 145.853 197.503 143.9 198.176C142.361 198.685 140.781 199.195 139.186 199.612C129.983 202.044 120.363 202.493 110.97 200.932C109.857 200.749 108.759 200.54 107.666 200.3C103.665 203.041 99.9713 205.359 97.5243 206.414L97.7243 204.717L98.5554 197.62L100.479 181.108L108.102 173.786L90.9629 175.106C90.9629 175.106 92.7635 150.294 99.7918 145.188C106.82 140.083 114.192 135.508 114.192 135.508C115.071 136.084 116.04 136.513 117.06 136.777C119.497 137.446 122.031 137.703 124.555 137.536C127.561 137.398 130.567 134.622 130.711 134.479C130.711 134.479 135.43 135.411 139.432 140.562C141.428 143.214 142.86 146.24 143.644 149.458C144.629 153.223 146.378 162.017 148.369 172.64C149.672 179.477 151.041 187.058 152.396 194.553Z" fill="url(#paint2_linear_313_18717)"/>
<path d="M156.012 161.747L163.328 170.261L189.055 144.898L190.03 139.706L195.16 135.279L192.877 142.03V150.823C192.877 150.823 173.034 182.769 167.565 184.414C161.168 186.345 148.44 172.757 148.44 172.757L156.012 161.747Z" fill="url(#paint3_linear_313_18717)"/>
<path d="M129.305 173.389L135.271 187.655L142.982 184.363L137.329 170.403L129.305 173.389Z" fill="#7E57C2"/>
<path d="M137.616 182.606C136.657 183.39 135.225 183.207 133.45 183.298C131.066 183.361 128.778 184.251 126.986 185.815C124.601 187.807 117.932 193.02 111.263 197.778C110.052 198.639 108.841 199.49 107.672 200.326C103.67 203.067 99.9766 205.385 97.5295 206.439C96.8862 206.757 96.1915 206.958 95.4775 207.036C92.0506 207.122 91.317 199.989 91.1066 194.298C91.04 192.408 91.0246 190.681 90.9886 189.433C90.845 184.44 90.9886 175.167 90.9886 175.167L108.128 173.842L106.312 185.632L105.994 187.716V187.731L111.124 185.846L111.283 185.79L129.495 179.07L130.752 176.915L131.552 178.952H131.629L139.427 177.934C139.427 177.934 139.56 181.021 137.616 182.606Z" fill="url(#paint4_linear_313_18717)"/>
<path d="M133.681 108.25C133.235 107.038 132.85 106.212 132.737 105.968V105.907C132.737 105.907 132.342 106.875 129.367 106.64C126.391 106.406 125.406 104.939 125.406 104.939C125.406 104.939 126.34 108.118 122.795 109.478C119.384 110.793 118.04 109.942 117.947 109.881C118.127 110.074 120.795 112.907 119.025 115.154C117.193 117.482 113.074 117.024 113.074 117.024V117.054C113.592 118.22 114.173 119.358 114.813 120.463C115.151 121.044 115.485 121.579 115.839 122.078V122.114C116.747 123.581 117.974 124.829 119.43 125.767C118.79 129.495 116.953 132.918 114.192 135.523C115.121 136.005 116.078 136.428 117.06 136.792C118.973 137.51 121.544 138.224 123.837 138.025C126.494 137.743 128.949 136.486 130.721 134.499L129.546 130.021L128.49 125.986C138.042 123.566 135.415 113.04 133.681 108.25ZM127.956 126.133L128.125 126.093L128.397 126.016C128.002 126.186 127.584 126.3 127.156 126.353C127.376 126.297 127.602 126.235 127.838 126.164L127.956 126.133Z" fill="url(#paint5_linear_313_18717)"/>
<path d="M139.432 105.774C135.492 109.371 133.789 108.357 133.681 108.261V108.25C133.235 107.038 132.85 106.212 132.742 105.968L132.717 105.907C132.717 105.907 132.316 106.875 129.341 106.64C126.365 106.406 125.386 104.939 125.386 104.939C125.386 104.939 126.319 108.118 122.774 109.478C119.358 110.793 118.014 109.942 117.926 109.881C118.106 110.069 120.774 112.902 119.004 115.149C117.172 117.477 113.053 117.024 113.053 117.024V117.049C113.571 118.217 114.152 119.356 114.792 120.463C115.134 121.04 115.476 121.579 115.818 122.078V122.114C115.818 122.114 114.412 124.86 111.904 124.804C109.395 124.748 109.339 122.256 109.339 122.256C109.339 122.256 107.564 125.435 102.08 122.373C96.5956 119.311 100.253 114.874 100.253 114.874C100.253 114.874 96.3647 111.919 96.3647 107.491C96.3647 103.064 102.418 99.696 102.418 99.696C102.418 99.696 100.253 94.5552 103.906 91.7224C107.559 88.8897 113.048 90.8104 113.048 90.8104C113.048 90.8104 112.94 84.2329 118.532 84.3399C124.124 84.4469 125.391 87.8452 125.391 87.8452C125.391 87.8452 130.418 83.9833 135.394 87.621C140.371 91.2588 138.324 97.602 138.324 97.602C138.324 97.602 143.541 102.029 139.432 105.774Z" fill="url(#paint6_linear_313_18717)"/>
<path opacity="0.15" d="M129.588 130.006C127.202 129.257 122.959 126.398 122.959 126.398C124.634 126.574 126.326 126.485 127.972 126.134L128.141 126.093L128.469 125.996H128.515L129.588 130.006Z" fill="black"/>
<path opacity="0.15" d="M110.416 158.547L108.103 173.832L106.287 185.622L102.06 189.112L111.258 185.795C111.258 185.795 108.872 179.029 110.416 158.547Z" fill="black"/>
<path opacity="0.15" d="M107.656 200.3C108.749 200.54 109.847 200.748 110.96 200.932C111.016 199.887 111.119 198.833 111.263 197.778L107.656 200.3Z" fill="black"/>
<g filter="url(#filter0_d_313_18717)">
<path d="M85.4225 10H57.992C54.2067 10 51.1382 13.0475 51.1382 16.8068V44.0493C51.1382 47.8086 54.2067 50.8561 57.992 50.8561H85.4225C89.2078 50.8561 92.2763 47.8086 92.2763 44.0493V16.8068C92.2763 13.0475 89.2078 10 85.4225 10Z" fill="#56CCF2"/>
</g>
<rect x="61" y="30.8976" width="22.1043" height="11.7344" rx="4.4" fill="white"/>
<path d="M65.4967 30.8976C65.4967 30.8976 64.5185 18 72.0482 18C79.578 18 79.0355 30.9099 79.0355 30.9099" stroke="white" stroke-width="1.9"/>
<g filter="url(#filter1_d_313_18717)">
<path d="M227.284 113H199.854C196.069 113 193 116.048 193 119.807V147.049C193 150.809 196.069 153.856 199.854 153.856H227.284C231.07 153.856 234.138 150.809 234.138 147.049V119.807C234.138 116.048 231.07 113 227.284 113Z" fill="#F2C94C"/>
</g>
<path d="M220.062 130.37L222.734 121.273C223.056 120.558 222.997 119.725 222.578 119.063C222.158 118.401 221.436 118.001 220.66 118H218.17L217.34 119.851C216.732 121.18 215.419 122.03 213.975 122.03C212.531 122.03 211.218 121.18 210.61 119.851L209.78 118H207.768C206.891 118 206.074 118.452 205.599 119.2C205.125 119.948 205.059 120.89 205.423 121.698L207.913 130.37L204.178 142.572C203.799 143.843 204.033 145.221 204.81 146.289C205.586 147.358 206.815 147.992 208.124 148H219.88C221.188 147.991 222.416 147.356 223.192 146.288C223.968 145.219 224.201 143.842 223.822 142.572L220.062 130.37Z" fill="white"/>
<g filter="url(#filter2_d_313_18717)">
<path d="M44.2844 113H16.8538C13.0685 113 10 116.048 10 119.807V147.049C10 150.809 13.0685 153.856 16.8538 153.856H44.2844C48.0696 153.856 51.1381 150.809 51.1381 147.049V119.807C51.1381 116.048 48.0696 113 44.2844 113Z" fill="#F58A8A"/>
</g>
<path d="M39.3125 135.625C37.5693 135.627 35.8624 136.124 34.3908 137.058C32.9191 137.992 31.7432 139.325 31 140.902C30.2568 139.325 29.0809 137.992 27.6092 137.058C26.1376 136.124 24.4307 135.627 22.6875 135.625H17.875V136.5C17.875 141.566 21.9965 145.688 27.0625 145.688H34.9375C40.0035 145.688 44.125 141.566 44.125 136.5V135.625H39.3125ZM27.0625 143.938C23.2573 143.938 20.1104 141.065 19.6762 137.375H22.6875C26.4927 137.375 29.6396 140.247 30.0738 143.938H27.0625ZM34.9375 143.938H31.9262C32.3604 140.247 35.5073 137.375 39.3125 137.375H42.3238C41.8896 141.065 38.7427 143.938 34.9375 143.938Z" fill="white"/>
<path d="M26.2544 133.37C26.4199 134.354 26.8893 135.262 27.5968 135.965L27.8532 136.222H28.2156C29.2134 136.225 30.187 135.915 30.9998 135.336C31.8126 135.915 32.7862 136.225 33.7841 136.222H34.1465L34.4028 135.966C35.1103 135.262 35.5797 134.355 35.7452 133.371C36.7292 133.205 37.6367 132.736 38.3403 132.028L38.5966 131.772V131.409C38.5994 130.412 38.2897 129.438 37.7108 128.625C38.2897 127.812 38.5995 126.839 38.5968 125.841V125.478L38.3405 125.222C37.6369 124.515 36.7294 124.045 35.7454 123.88C35.5799 122.896 35.1105 121.988 34.403 121.285L34.1467 121.028H33.7843C32.7864 121.025 31.8127 121.335 30.9998 121.914C30.187 121.335 29.2134 121.025 28.2156 121.028H27.8532L27.5968 121.284C26.8893 121.988 26.4199 122.895 26.2544 123.879C25.2704 124.045 24.363 124.514 23.6593 125.222L23.4031 125.478V125.841C23.4002 126.838 23.71 127.812 24.2888 128.625C23.7099 129.438 23.4001 130.411 23.4028 131.409V131.772L23.6591 132.028C24.3628 132.736 25.2704 133.205 26.2544 133.37ZM26.0501 128.006C25.5648 127.524 25.2565 126.892 25.1751 126.213C25.713 125.79 26.378 125.561 27.0623 125.563H27.9373V124.688C27.9353 124.003 28.1643 123.338 28.5872 122.8C29.2666 122.882 29.8986 123.19 30.381 123.675L30.9998 124.294L31.6185 123.675C32.1009 123.19 32.7329 122.881 33.4122 122.8C33.8353 123.338 34.0643 124.003 34.0623 124.688V125.563H34.9373C35.6216 125.561 36.2864 125.79 36.8244 126.212C36.7429 126.892 36.4346 127.524 35.9494 128.006L35.3311 128.625L35.9498 129.244C36.4351 129.726 36.7434 130.358 36.8248 131.037C36.2868 131.461 35.6217 131.69 34.9373 131.688H34.0623V132.563C34.0643 133.247 33.8353 133.912 33.4124 134.45C32.733 134.368 32.101 134.06 31.6187 133.575L30.9998 132.956L30.3811 133.575C29.8987 134.06 29.2667 134.368 28.5873 134.45C28.1644 133.912 27.9353 133.247 27.9373 132.563V131.688H27.0623C26.3781 131.689 25.7132 131.46 25.1753 131.038C25.2567 130.358 25.565 129.726 26.0503 129.244L26.6686 128.625L26.0501 128.006Z" fill="white"/>
<g filter="url(#filter3_d_313_18717)">
<path d="M182.284 10H154.854C151.069 10 148 13.0475 148 16.8068V44.0493C148 47.8086 151.069 50.8561 154.854 50.8561H182.284C186.07 50.8561 189.138 47.8086 189.138 44.0493V16.8068C189.138 13.0475 186.07 10 182.284 10Z" fill="#6FCF97"/>
</g>
<path d="M175.122 16C170.808 17.3464 166.188 17.3464 161.874 16C161.395 17.1251 160 20.6615 160 23.9715C160 28.5217 161.464 41.2507 161.464 41.2507C161.464 41.2507 164.476 43.9386 168.5 44C172.52 43.9309 175.532 41.243 175.532 41.243C175.532 41.243 177 28.5063 177 23.9638C177 20.6615 175.601 17.1251 175.122 16Z" fill="white"/>
<defs>
<filter id="filter0_d_313_18717" x="41.1382" y="0" width="71.1382" height="70.8561" filterUnits="userSpaceOnUse" color-interpolation-filters="sRGB">
<feFlood flood-opacity="0" result="BackgroundImageFix"/>
<feColorMatrix in="SourceAlpha" type="matrix" values="0 0 0 0 0 0 0 0 0 0 0 0 0 0 0 0 0 0 127 0" result="hardAlpha"/>
<feOffset dx="5" dy="5"/>
<feGaussianBlur stdDeviation="7.5"/>
<feColorMatrix type="matrix" values="0 0 0 0 0 0 0 0 0 0 0 0 0 0 0 0 0 0 0.15 0"/>
<feBlend mode="normal" in2="BackgroundImageFix" result="effect1_dropShadow_313_18717"/>
<feBlend mode="normal" in="SourceGraphic" in2="effect1_dropShadow_313_18717" result="shape"/>
</filter>
<filter id="filter1_d_313_18717" x="183" y="103" width="71.1382" height="70.8561" filterUnits="userSpaceOnUse" color-interpolation-filters="sRGB">
<feFlood flood-opacity="0" result="BackgroundImageFix"/>
<feColorMatrix in="SourceAlpha" type="matrix" values="0 0 0 0 0 0 0 0 0 0 0 0 0 0 0 0 0 0 127 0" result="hardAlpha"/>
<feOffset dx="5" dy="5"/>
<feGaussianBlur stdDeviation="7.5"/>
<feColorMatrix type="matrix" values="0 0 0 0 0 0 0 0 0 0 0 0 0 0 0 0 0 0 0.15 0"/>
<feBlend mode="normal" in2="BackgroundImageFix" result="effect1_dropShadow_313_18717"/>
<feBlend mode="normal" in="SourceGraphic" in2="effect1_dropShadow_313_18717" result="shape"/>
</filter>
<filter id="filter2_d_313_18717" x="0" y="103" width="71.1382" height="70.8561" filterUnits="userSpaceOnUse" color-interpolation-filters="sRGB">
<feFlood flood-opacity="0" result="BackgroundImageFix"/>
<feColorMatrix in="SourceAlpha" type="matrix" values="0 0 0 0 0 0 0 0 0 0 0 0 0 0 0 0 0 0 127 0" result="hardAlpha"/>
<feOffset dx="5" dy="5"/>
<feGaussianBlur stdDeviation="7.5"/>
<feColorMatrix type="matrix" values="0 0 0 0 0 0 0 0 0 0 0 0 0 0 0 0 0 0 0.15 0"/>
<feBlend mode="normal" in2="BackgroundImageFix" result="effect1_dropShadow_313_18717"/>
<feBlend mode="normal" in="SourceGraphic" in2="effect1_dropShadow_313_18717" result="shape"/>
</filter>
<filter id="filter3_d_313_18717" x="138" y="0" width="71.1382" height="70.8561" filterUnits="userSpaceOnUse" color-interpolation-filters="sRGB">
<feFlood flood-opacity="0" result="BackgroundImageFix"/>
<feColorMatrix in="SourceAlpha" type="matrix" values="0 0 0 0 0 0 0 0 0 0 0 0 0 0 0 0 0 0 127 0" result="hardAlpha"/>
<feOffset dx="5" dy="5"/>
<feGaussianBlur stdDeviation="7.5"/>
<feColorMatrix type="matrix" values="0 0 0 0 0 0 0 0 0 0 0 0 0 0 0 0 0 0 0.15 0"/>
<feBlend mode="normal" in2="BackgroundImageFix" result="effect1_dropShadow_313_18717"/>
<feBlend mode="normal" in="SourceGraphic" in2="effect1_dropShadow_313_18717" result="shape"/>
</filter>
<linearGradient id="paint0_linear_313_18717" x1="122.273" y1="76.8651" x2="120.029" y2="207.076" gradientUnits="userSpaceOnUse">
<stop stop-color="white" stop-opacity="0"/>
<stop offset="1" stop-color="#64B5F6" stop-opacity="0.6"/>
</linearGradient>
<linearGradient id="paint1_linear_313_18717" x1="134.41" y1="136.165" x2="152.56" y2="168.279" gradientUnits="userSpaceOnUse">
<stop stop-color="#E57373"/>
<stop offset="1" stop-color="#AD1457"/>
</linearGradient>
<linearGradient id="paint2_linear_313_18717" x1="28141.2" y1="39794.5" x2="26229.2" y2="49295.9" gradientUnits="userSpaceOnUse">
<stop stop-color="#E57373"/>
<stop offset="1" stop-color="#AD1457"/>
</linearGradient>
<linearGradient id="paint3_linear_313_18717" x1="202.122" y1="147.94" x2="152.589" y2="176.833" gradientUnits="userSpaceOnUse">
<stop stop-color="#FFF8E1"/>
<stop offset="1" stop-color="#FFCC80"/>
</linearGradient>
<linearGradient id="paint4_linear_313_18717" x1="21652.4" y1="22319.6" x2="18981.7" y2="20506.4" gradientUnits="userSpaceOnUse">
<stop stop-color="#FFF8E1"/>
<stop offset="1" stop-color="#FFCC80"/>
</linearGradient>
<linearGradient id="paint5_linear_313_18717" x1="138.704" y1="113.439" x2="111.662" y2="124.652" gradientUnits="userSpaceOnUse">
<stop stop-color="#FFF8E1"/>
<stop offset="1" stop-color="#FFCC80"/>
</linearGradient>
<linearGradient id="paint6_linear_313_18717" x1="132.486" y1="84.1463" x2="101.053" y2="126.911" gradientUnits="userSpaceOnUse">
<stop stop-color="#FFB74D"/>
<stop offset="1" stop-color="#F4511E"/>
</linearGradient>
</defs>
</svg>
