<svg width="457" height="295" viewBox="0 0 457 295" fill="none" xmlns="http://www.w3.org/2000/svg">
<path opacity="0.1" d="M408.343 293.905C451.031 293.905 464.036 260.091 451.738 218.681C444.782 195.261 428.699 164.637 402.424 150.778C330.519 112.851 340.21 111.03 322.409 70.6618C293.352 4.76304 181.619 2.2201 135.964 49.4416C100.441 86.1837 85.2395 137.98 36.8417 176.143C-21.5771 222.209 -5.64338 294.573 50.4717 294.573L408.343 293.905Z" fill="#3652DD"/>
<path d="M455.531 197.526H5.2793L31.1919 143.955H429.618L455.531 197.526Z" fill="#292A2E"/>
<path d="M455.531 197.526H5.2793L31.1919 143.955H429.618L455.531 197.526Z" fill="white"/>
<path d="M455.531 197.997H5.28199C5.19917 197.997 5.11767 197.977 5.04505 197.939C4.97244 197.901 4.91108 197.846 4.86666 197.778C4.82225 197.711 4.79622 197.634 4.79101 197.555C4.7858 197.476 4.80157 197.396 4.83685 197.324L30.7475 143.754C30.7872 143.673 30.85 143.604 30.9288 143.556C31.0075 143.508 31.0989 143.482 31.1922 143.482H429.618C429.711 143.482 429.803 143.508 429.881 143.556C429.96 143.604 430.023 143.673 430.063 143.754L455.977 197.324C456.012 197.396 456.028 197.475 456.023 197.554C456.018 197.633 455.992 197.71 455.948 197.777C455.904 197.844 455.843 197.9 455.771 197.938C455.699 197.976 455.617 197.997 455.535 197.997H455.531ZM6.05289 197.053H454.757L429.306 144.426H31.5047L6.05289 197.053Z" fill="#292A2E"/>
<path d="M261.542 126.019H217.938V157.678H261.542V126.019Z" fill="#292A2E"/>
<path opacity="0.64" d="M261.542 126.019H217.938V142.932H261.542V126.019Z" fill="#0C0C0C"/>
<path d="M332.35 0.413574H147.131C144.218 0.413574 141.856 2.68172 141.856 5.47963V129.626C141.856 132.424 144.218 134.692 147.131 134.692H332.35C335.263 134.692 337.625 132.424 337.625 129.626V5.47963C337.625 2.68172 335.263 0.413574 332.35 0.413574Z" fill="#292A2E"/>
<path d="M329.746 6.16797H149.736C148.54 6.16797 147.57 7.09902 147.57 8.24752V111.209C147.57 112.358 148.54 113.289 149.736 113.289H329.746C330.942 113.289 331.911 112.358 331.911 111.209V8.24752C331.911 7.09902 330.942 6.16797 329.746 6.16797Z" fill="white"/>
<path d="M270.614 155.076H208.867C207.287 155.076 206.005 156.306 206.005 157.824C206.005 159.341 207.287 160.572 208.867 160.572H270.614C272.194 160.572 273.475 159.341 273.475 157.824C273.475 156.306 272.194 155.076 270.614 155.076Z" fill="#292A2E"/>
<path d="M209.201 23.2792H201.003C200.955 23.2809 200.906 23.2731 200.86 23.2563C200.814 23.2396 200.773 23.2141 200.737 23.1815C200.702 23.1489 200.674 23.1098 200.655 23.0665C200.636 23.0233 200.626 22.9767 200.626 22.9297C200.626 22.8827 200.636 22.8362 200.655 22.793C200.674 22.7497 200.702 22.7106 200.737 22.678C200.773 22.6454 200.814 22.6199 200.86 22.6031C200.906 22.5863 200.955 22.5786 201.003 22.5803H209.201C209.295 22.5836 209.385 22.6219 209.45 22.6871C209.515 22.7522 209.552 22.8392 209.552 22.9297C209.552 23.0202 209.515 23.1072 209.45 23.1724C209.385 23.2376 209.295 23.2758 209.201 23.2792Z" fill="#292A2E"/>
<path d="M195.091 23.2792H191.99C191.941 23.2809 191.892 23.2731 191.846 23.2563C191.801 23.2396 191.759 23.2141 191.724 23.1815C191.688 23.1489 191.66 23.1098 191.641 23.0665C191.622 23.0233 191.612 22.9767 191.612 22.9297C191.612 22.8827 191.622 22.8362 191.641 22.793C191.66 22.7497 191.688 22.7106 191.724 22.678C191.759 22.6454 191.801 22.6199 191.846 22.6031C191.892 22.5863 191.941 22.5786 191.99 22.5803H195.091C195.14 22.5786 195.189 22.5863 195.235 22.6031C195.281 22.6199 195.322 22.6454 195.358 22.678C195.393 22.7106 195.421 22.7497 195.44 22.793C195.459 22.8362 195.469 22.8827 195.469 22.9297C195.469 22.9767 195.459 23.0233 195.44 23.0665C195.421 23.1098 195.393 23.1489 195.358 23.1815C195.322 23.2141 195.281 23.2396 195.235 23.2563C195.189 23.2731 195.14 23.2809 195.091 23.2792Z" fill="#3652DD"/>
<path d="M195.092 29.5858H191.99C191.893 29.5858 191.801 29.549 191.733 29.4834C191.664 29.4178 191.626 29.3289 191.626 29.2361C191.626 29.1434 191.664 29.0545 191.733 28.9889C191.801 28.9233 191.893 28.8865 191.99 28.8865H195.092C195.188 28.8865 195.281 28.9233 195.349 28.9889C195.418 29.0545 195.456 29.1434 195.456 29.2361C195.456 29.3289 195.418 29.4178 195.349 29.4834C195.281 29.549 195.188 29.5858 195.092 29.5858Z" fill="#3652DD"/>
<path d="M195.092 35.8924H191.99C191.893 35.8924 191.801 35.8556 191.733 35.79C191.664 35.7244 191.626 35.6355 191.626 35.5428C191.626 35.45 191.664 35.3611 191.733 35.2955C191.801 35.23 191.893 35.1931 191.99 35.1931H195.092C195.188 35.1931 195.281 35.23 195.349 35.2955C195.418 35.3611 195.456 35.45 195.456 35.5428C195.456 35.6355 195.418 35.7244 195.349 35.79C195.281 35.8556 195.188 35.8924 195.092 35.8924Z" fill="#3652DD"/>
<path d="M195.092 42.1991H191.99C191.893 42.1991 191.801 42.1622 191.733 42.0967C191.664 42.0311 191.626 41.9422 191.626 41.8494C191.626 41.7567 191.664 41.6677 191.733 41.6022C191.801 41.5366 191.893 41.4998 191.99 41.4998H195.092C195.188 41.4998 195.281 41.5366 195.349 41.6022C195.418 41.6677 195.456 41.7567 195.456 41.8494C195.456 41.9422 195.418 42.0311 195.349 42.0967C195.281 42.1622 195.188 42.1991 195.092 42.1991Z" fill="#3652DD"/>
<path d="M195.091 48.505H191.99C191.941 48.5067 191.892 48.499 191.846 48.4822C191.801 48.4654 191.759 48.4399 191.724 48.4073C191.688 48.3747 191.66 48.3356 191.641 48.2923C191.622 48.2491 191.612 48.2026 191.612 48.1556C191.612 48.1086 191.622 48.0621 191.641 48.0188C191.66 47.9755 191.688 47.9364 191.724 47.9038C191.759 47.8712 191.801 47.8457 191.846 47.829C191.892 47.8122 191.941 47.8044 191.99 47.8061H195.091C195.14 47.8044 195.189 47.8122 195.235 47.829C195.281 47.8457 195.322 47.8712 195.358 47.9038C195.393 47.9364 195.421 47.9755 195.44 48.0188C195.459 48.0621 195.469 48.1086 195.469 48.1556C195.469 48.2026 195.459 48.2491 195.44 48.2923C195.421 48.3356 195.393 48.3747 195.358 48.4073C195.322 48.4399 195.281 48.4654 195.235 48.4822C195.189 48.499 195.14 48.5067 195.091 48.505Z" fill="#3652DD"/>
<path d="M195.092 54.8099H191.99C191.893 54.8099 191.801 54.7731 191.733 54.7075C191.664 54.6419 191.626 54.553 191.626 54.4603C191.626 54.3675 191.664 54.2786 191.733 54.213C191.801 54.1474 191.893 54.1106 191.99 54.1106H195.092C195.188 54.1106 195.281 54.1474 195.349 54.213C195.418 54.2786 195.456 54.3675 195.456 54.4603C195.456 54.553 195.418 54.6419 195.349 54.7075C195.281 54.7731 195.188 54.8099 195.092 54.8099Z" fill="#3652DD"/>
<path d="M195.092 61.1187H191.99C191.893 61.1187 191.801 61.0819 191.733 61.0163C191.664 60.9508 191.626 60.8618 191.626 60.7691C191.626 60.6764 191.664 60.5874 191.733 60.5218C191.801 60.4563 191.893 60.4194 191.99 60.4194H195.092C195.188 60.4194 195.281 60.4563 195.349 60.5218C195.418 60.5874 195.456 60.6764 195.456 60.7691C195.456 60.8618 195.418 60.9508 195.349 61.0163C195.281 61.0819 195.188 61.1187 195.092 61.1187Z" fill="#3652DD"/>
<path d="M195.091 67.4247H191.99C191.941 67.4264 191.892 67.4186 191.846 67.4019C191.801 67.3851 191.759 67.3596 191.724 67.327C191.688 67.2944 191.66 67.2553 191.641 67.212C191.622 67.1688 191.612 67.1222 191.612 67.0752C191.612 67.0283 191.622 66.9817 191.641 66.9385C191.66 66.8952 191.688 66.8561 191.724 66.8235C191.759 66.7909 191.801 66.7654 191.846 66.7486C191.892 66.7319 191.941 66.7241 191.99 66.7258H195.091C195.14 66.7241 195.189 66.7319 195.235 66.7486C195.281 66.7654 195.322 66.7909 195.358 66.8235C195.393 66.8561 195.421 66.8952 195.44 66.9385C195.459 66.9817 195.469 67.0283 195.469 67.0752C195.469 67.1222 195.459 67.1688 195.44 67.212C195.421 67.2553 195.393 67.2944 195.358 67.327C195.322 67.3596 195.281 67.3851 195.235 67.4019C195.189 67.4186 195.14 67.4264 195.091 67.4247Z" fill="#3652DD"/>
<path d="M195.092 73.732H191.99C191.893 73.732 191.801 73.6952 191.733 73.6296C191.664 73.564 191.626 73.4751 191.626 73.3824C191.626 73.2896 191.664 73.2007 191.733 73.1351C191.801 73.0696 191.893 73.0327 191.99 73.0327H195.092C195.188 73.0327 195.281 73.0696 195.349 73.1351C195.418 73.2007 195.456 73.2896 195.456 73.3824C195.456 73.4751 195.418 73.564 195.349 73.6296C195.281 73.6952 195.188 73.732 195.092 73.732Z" fill="#3652DD"/>
<path d="M195.092 80.0377H191.99C191.893 80.0377 191.801 80.0009 191.733 79.9353C191.664 79.8697 191.626 79.7808 191.626 79.688C191.626 79.5953 191.664 79.5064 191.733 79.4408C191.801 79.3752 191.893 79.3384 191.99 79.3384H195.092C195.188 79.3384 195.281 79.3752 195.349 79.4408C195.418 79.5064 195.456 79.5953 195.456 79.688C195.456 79.7808 195.418 79.8697 195.349 79.9353C195.281 80.0009 195.188 80.0377 195.092 80.0377Z" fill="#3652DD"/>
<path d="M195.091 86.3443H191.99C191.941 86.3461 191.892 86.3383 191.846 86.3215C191.801 86.3047 191.759 86.2793 191.724 86.2467C191.688 86.214 191.66 86.1749 191.641 86.1317C191.622 86.0884 191.612 86.0419 191.612 85.9949C191.612 85.9479 191.622 85.9014 191.641 85.8582C191.66 85.8149 191.688 85.7758 191.724 85.7432C191.759 85.7106 191.801 85.6851 191.846 85.6683C191.892 85.6515 191.941 85.6438 191.99 85.6455H195.091C195.14 85.6438 195.189 85.6515 195.235 85.6683C195.281 85.6851 195.322 85.7106 195.358 85.7432C195.393 85.7758 195.421 85.8149 195.44 85.8582C195.459 85.9014 195.469 85.9479 195.469 85.9949C195.469 86.0419 195.459 86.0884 195.44 86.1317C195.421 86.1749 195.393 86.214 195.358 86.2467C195.322 86.2793 195.281 86.3047 195.235 86.3215C195.189 86.3383 195.14 86.3461 195.091 86.3443Z" fill="#3652DD"/>
<path d="M195.092 92.6507H191.99C191.893 92.6507 191.801 92.6139 191.733 92.5483C191.664 92.4828 191.626 92.3938 191.626 92.3011C191.626 92.2084 191.664 92.1194 191.733 92.0538C191.801 91.9883 191.893 91.9514 191.99 91.9514H195.092C195.188 91.9514 195.281 91.9883 195.349 92.0538C195.418 92.1194 195.456 92.2084 195.456 92.3011C195.456 92.3938 195.418 92.4828 195.349 92.5483C195.281 92.6139 195.188 92.6507 195.092 92.6507Z" fill="#3652DD"/>
<path d="M195.092 98.9574H191.99C191.893 98.9574 191.801 98.9205 191.733 98.855C191.664 98.7894 191.626 98.7005 191.626 98.6077C191.626 98.515 191.664 98.426 191.733 98.3605C191.801 98.2949 191.893 98.2581 191.99 98.2581H195.092C195.188 98.2581 195.281 98.2949 195.349 98.3605C195.418 98.426 195.456 98.515 195.456 98.6077C195.456 98.7005 195.418 98.7894 195.349 98.855C195.281 98.9205 195.188 98.9574 195.092 98.9574Z" fill="#3652DD"/>
<path d="M195.091 105.263H191.99C191.941 105.265 191.892 105.257 191.846 105.24C191.801 105.224 191.759 105.198 191.724 105.166C191.688 105.133 191.66 105.094 191.641 105.051C191.622 105.007 191.612 104.961 191.612 104.914C191.612 104.867 191.622 104.82 191.641 104.777C191.66 104.734 191.688 104.695 191.724 104.662C191.759 104.63 191.801 104.604 191.846 104.587C191.892 104.57 191.941 104.563 191.99 104.564H195.091C195.14 104.563 195.189 104.57 195.235 104.587C195.281 104.604 195.322 104.63 195.358 104.662C195.393 104.695 195.421 104.734 195.44 104.777C195.459 104.82 195.469 104.867 195.469 104.914C195.469 104.961 195.459 105.007 195.44 105.051C195.421 105.094 195.393 105.133 195.358 105.166C195.322 105.198 195.281 105.224 195.235 105.24C195.189 105.257 195.14 105.265 195.091 105.263Z" fill="#3652DD"/>
<path d="M215.753 29.5858H208.285C208.236 29.5875 208.187 29.5798 208.141 29.563C208.096 29.5462 208.054 29.5207 208.019 29.4881C207.983 29.4555 207.955 29.4164 207.936 29.3731C207.917 29.3299 207.907 29.2834 207.907 29.2364C207.907 29.1894 207.917 29.1429 207.936 29.0996C207.955 29.0564 207.983 29.0173 208.019 28.9846C208.054 28.952 208.096 28.9266 208.141 28.9098C208.187 28.893 208.236 28.8852 208.285 28.887H215.753C215.802 28.8852 215.851 28.893 215.896 28.9098C215.942 28.9266 215.984 28.952 216.019 28.9846C216.054 29.0173 216.082 29.0564 216.101 29.0996C216.12 29.1429 216.13 29.1894 216.13 29.2364C216.13 29.2834 216.12 29.3299 216.101 29.3731C216.082 29.4164 216.054 29.4555 216.019 29.4881C215.984 29.5207 215.942 29.5462 215.896 29.563C215.851 29.5798 215.802 29.5875 215.753 29.5858Z" fill="#292A2E"/>
<path d="M209.201 67.4244H201.003C200.955 67.4262 200.906 67.4184 200.86 67.4016C200.814 67.3848 200.773 67.3594 200.737 67.3267C200.702 67.2941 200.674 67.255 200.655 67.2118C200.636 67.1685 200.626 67.122 200.626 67.075C200.626 67.028 200.636 66.9815 200.655 66.9382C200.674 66.895 200.702 66.8559 200.737 66.8233C200.773 66.7906 200.814 66.7652 200.86 66.7484C200.906 66.7316 200.955 66.7239 201.003 66.7256H209.201C209.295 66.7289 209.385 66.7672 209.45 66.8323C209.515 66.8975 209.552 66.9845 209.552 67.075C209.552 67.1655 209.515 67.2525 209.45 67.3177C209.385 67.3828 209.295 67.4211 209.201 67.4244Z" fill="#292A2E"/>
<path d="M215.753 73.7318H208.285C208.188 73.7318 208.096 73.6949 208.028 73.6294C207.959 73.5638 207.921 73.4749 207.921 73.3821C207.921 73.2894 207.959 73.2005 208.028 73.1349C208.096 73.0693 208.188 73.0325 208.285 73.0325H215.753C215.85 73.0325 215.942 73.0693 216.011 73.1349C216.079 73.2005 216.117 73.2894 216.117 73.3821C216.117 73.4749 216.079 73.5638 216.011 73.6294C215.942 73.6949 215.85 73.7318 215.753 73.7318Z" fill="#292A2E"/>
<path d="M267.803 35.8922H213.379C213.283 35.8922 213.19 35.8554 213.122 35.7898C213.053 35.7242 213.015 35.6353 213.015 35.5425C213.015 35.4498 213.053 35.3609 213.122 35.2953C213.19 35.2297 213.283 35.1929 213.379 35.1929H267.803C267.899 35.1929 267.992 35.2297 268.06 35.2953C268.128 35.3609 268.167 35.4498 268.167 35.5425C268.167 35.6353 268.128 35.7242 268.06 35.7898C267.992 35.8554 267.899 35.8922 267.803 35.8922Z" fill="#292A2E"/>
<path d="M307.177 35.8922H275.682C275.586 35.8922 275.493 35.8554 275.425 35.7898C275.357 35.7242 275.318 35.6353 275.318 35.5425C275.318 35.4498 275.357 35.3609 275.425 35.2953C275.493 35.2297 275.586 35.1929 275.682 35.1929H307.177C307.273 35.1929 307.366 35.2297 307.434 35.2953C307.502 35.3609 307.541 35.4498 307.541 35.5425C307.541 35.6353 307.502 35.7242 307.434 35.7898C307.366 35.8554 307.273 35.8922 307.177 35.8922Z" fill="#0CBC8B"/>
<path d="M324.078 35.8922H314.426C314.329 35.8922 314.236 35.8554 314.168 35.7898C314.1 35.7242 314.062 35.6353 314.062 35.5425C314.062 35.4498 314.1 35.3609 314.168 35.2953C314.236 35.2297 314.329 35.1929 314.426 35.1929H324.079C324.175 35.1929 324.268 35.2297 324.336 35.2953C324.404 35.3609 324.443 35.4498 324.443 35.5425C324.443 35.6353 324.404 35.7242 324.336 35.7898C324.268 35.8554 324.175 35.8922 324.079 35.8922H324.078Z" fill="#292A2E"/>
<path d="M289.642 48.5047H213.379C213.33 48.5065 213.282 48.4987 213.236 48.4819C213.19 48.4651 213.149 48.4397 213.113 48.4071C213.078 48.3745 213.05 48.3354 213.031 48.2921C213.012 48.2488 213.002 48.2023 213.002 48.1553C213.002 48.1083 213.012 48.0618 213.031 48.0186C213.05 47.9753 213.078 47.9362 213.113 47.9036C213.149 47.871 213.19 47.8455 213.236 47.8287C213.282 47.8119 213.33 47.8042 213.379 47.8059H289.642C289.691 47.8042 289.739 47.8119 289.785 47.8287C289.831 47.8455 289.873 47.871 289.908 47.9036C289.943 47.9362 289.971 47.9753 289.99 48.0186C290.009 48.0618 290.019 48.1083 290.019 48.1553C290.019 48.2023 290.009 48.2488 289.99 48.2921C289.971 48.3354 289.943 48.3745 289.908 48.4071C289.873 48.4397 289.831 48.4651 289.785 48.4819C289.739 48.4987 289.691 48.5065 289.642 48.5047Z" fill="#292A2E"/>
<path d="M307.177 48.5047H297.524C297.476 48.5065 297.427 48.4987 297.381 48.4819C297.335 48.4651 297.294 48.4397 297.258 48.4071C297.223 48.3745 297.195 48.3354 297.176 48.2921C297.157 48.2488 297.147 48.2023 297.147 48.1553C297.147 48.1083 297.157 48.0618 297.176 48.0186C297.195 47.9753 297.223 47.9362 297.258 47.9036C297.294 47.871 297.335 47.8455 297.381 47.8287C297.427 47.8119 297.476 47.8042 297.524 47.8059H307.178C307.227 47.8042 307.276 47.8119 307.321 47.8287C307.367 47.8455 307.409 47.871 307.444 47.9036C307.479 47.9362 307.507 47.9753 307.526 48.0186C307.546 48.0618 307.555 48.1083 307.555 48.1553C307.555 48.2023 307.546 48.2488 307.526 48.2921C307.507 48.3354 307.479 48.3745 307.444 48.4071C307.409 48.4397 307.367 48.4651 307.321 48.4819C307.276 48.4987 307.227 48.5065 307.178 48.5047H307.177Z" fill="#3652DD"/>
<path d="M221.577 42.1988H213.379C213.283 42.1988 213.19 42.162 213.122 42.0964C213.053 42.0308 213.015 41.9419 213.015 41.8492C213.015 41.7564 213.053 41.6675 213.122 41.6019C213.19 41.5364 213.283 41.4995 213.379 41.4995H221.577C221.674 41.4995 221.766 41.5364 221.834 41.6019C221.903 41.6675 221.941 41.7564 221.941 41.8492C221.941 41.9419 221.903 42.0308 221.834 42.0964C221.766 42.162 221.674 42.1988 221.577 42.1988Z" fill="#0CBC8B"/>
<path d="M285.339 42.1988H229.458C229.361 42.1988 229.269 42.162 229.2 42.0964C229.132 42.0308 229.094 41.9419 229.094 41.8492C229.094 41.7564 229.132 41.6675 229.2 41.6019C229.269 41.5364 229.361 41.4995 229.458 41.4995H285.339C285.436 41.4995 285.528 41.5364 285.596 41.6019C285.665 41.6675 285.703 41.7564 285.703 41.8492C285.703 41.9419 285.665 42.0308 285.596 42.0964C285.528 42.162 285.436 42.1988 285.339 42.1988Z" fill="#3652DD"/>
<path d="M324.141 42.1988H294.104C294.008 42.1988 293.915 42.162 293.847 42.0964C293.779 42.0308 293.74 41.9419 293.74 41.8492C293.74 41.7564 293.779 41.6675 293.847 41.6019C293.915 41.5364 294.008 41.4995 294.104 41.4995H324.141C324.238 41.4995 324.33 41.5364 324.399 41.6019C324.467 41.6675 324.505 41.7564 324.505 41.8492C324.505 41.9419 324.467 42.0308 324.399 42.0964C324.33 42.162 324.238 42.1988 324.141 42.1988Z" fill="#292A2E"/>
<path d="M267.803 54.8097H213.379C213.283 54.8097 213.19 54.7728 213.122 54.7073C213.053 54.6417 213.015 54.5527 213.015 54.46C213.015 54.3673 213.053 54.2783 213.122 54.2128C213.19 54.1472 213.283 54.1104 213.379 54.1104H267.803C267.899 54.1104 267.992 54.1472 268.06 54.2128C268.128 54.2783 268.167 54.3673 268.167 54.46C268.167 54.5527 268.128 54.6417 268.06 54.7073C267.992 54.7728 267.899 54.8097 267.803 54.8097Z" fill="#292A2E"/>
<path d="M292.618 54.8097H275.684C275.587 54.8097 275.495 54.7728 275.426 54.7073C275.358 54.6417 275.32 54.5527 275.32 54.46C275.32 54.3673 275.358 54.2783 275.426 54.2128C275.495 54.1472 275.587 54.1104 275.684 54.1104H292.618C292.714 54.1104 292.807 54.1472 292.875 54.2128C292.943 54.2783 292.982 54.3673 292.982 54.46C292.982 54.5527 292.943 54.6417 292.875 54.7073C292.807 54.7728 292.714 54.8097 292.618 54.8097Z" fill="#0CBC8B"/>
<path d="M324.078 54.8097H299.865C299.769 54.8097 299.676 54.7728 299.608 54.7073C299.539 54.6417 299.501 54.5527 299.501 54.46C299.501 54.3673 299.539 54.2783 299.608 54.2128C299.676 54.1472 299.769 54.1104 299.865 54.1104H324.078C324.175 54.1104 324.267 54.1472 324.336 54.2128C324.404 54.2783 324.442 54.3673 324.442 54.46C324.442 54.5527 324.404 54.6417 324.336 54.7073C324.267 54.7728 324.175 54.8097 324.078 54.8097Z" fill="#292A2E"/>
<path d="M221.577 61.118H213.379C213.283 61.118 213.19 61.0812 213.122 61.0156C213.053 60.95 213.015 60.8611 213.015 60.7684C213.015 60.6756 213.053 60.5867 213.122 60.5211C213.19 60.4555 213.283 60.4187 213.379 60.4187H221.577C221.674 60.4187 221.766 60.4555 221.834 60.5211C221.903 60.5867 221.941 60.6756 221.941 60.7684C221.941 60.8611 221.903 60.95 221.834 61.0156C221.766 61.0812 221.674 61.118 221.577 61.118Z" fill="#3652DD"/>
<path d="M285.339 61.118H229.458C229.361 61.118 229.269 61.0812 229.2 61.0156C229.132 60.95 229.094 60.8611 229.094 60.7684C229.094 60.6756 229.132 60.5867 229.2 60.5211C229.269 60.4555 229.361 60.4187 229.458 60.4187H285.339C285.436 60.4187 285.528 60.4555 285.596 60.5211C285.665 60.5867 285.703 60.6756 285.703 60.7684C285.703 60.8611 285.665 60.95 285.596 61.0156C285.528 61.0812 285.436 61.118 285.339 61.118Z" fill="#0CBC8B"/>
<path d="M266.347 86.3443H211.924C211.827 86.3443 211.734 86.3075 211.666 86.2419C211.598 86.1763 211.56 86.0874 211.56 85.9947C211.56 85.9019 211.598 85.813 211.666 85.7474C211.734 85.6819 211.827 85.645 211.924 85.645H266.347C266.443 85.645 266.536 85.6819 266.604 85.7474C266.672 85.813 266.711 85.9019 266.711 85.9947C266.711 86.0874 266.672 86.1763 266.604 86.2419C266.536 86.3075 266.443 86.3443 266.347 86.3443Z" fill="#292A2E"/>
<path d="M305.721 86.3443H274.227C274.13 86.3443 274.038 86.3075 273.969 86.2419C273.901 86.1763 273.863 86.0874 273.863 85.9947C273.863 85.9019 273.901 85.813 273.969 85.7474C274.038 85.6819 274.13 85.645 274.227 85.645H305.721C305.818 85.645 305.91 85.6819 305.978 85.7474C306.047 85.813 306.085 85.9019 306.085 85.9947C306.085 86.0874 306.047 86.1763 305.978 86.2419C305.91 86.3075 305.818 86.3443 305.721 86.3443Z" fill="#3652DD"/>
<path d="M234.683 80.0375H211.924C211.827 80.0375 211.734 80.0006 211.666 79.935C211.598 79.8695 211.56 79.7805 211.56 79.6878C211.56 79.5951 211.598 79.5061 211.666 79.4406C211.734 79.375 211.827 79.3381 211.924 79.3381H234.683C234.78 79.3381 234.873 79.375 234.941 79.4406C235.009 79.5061 235.047 79.5951 235.047 79.6878C235.047 79.7805 235.009 79.8695 234.941 79.935C234.873 80.0006 234.78 80.0375 234.683 80.0375Z" fill="#0CBC8B"/>
<path d="M283.882 80.0375H242.561C242.464 80.0375 242.372 80.0006 242.303 79.935C242.235 79.8695 242.197 79.7805 242.197 79.6878C242.197 79.5951 242.235 79.5061 242.303 79.4406C242.372 79.375 242.464 79.3381 242.561 79.3381H283.882C283.978 79.3381 284.071 79.375 284.139 79.4406C284.207 79.5061 284.246 79.5951 284.246 79.6878C284.246 79.7805 284.207 79.8695 284.139 79.935C284.071 80.0006 283.978 80.0375 283.882 80.0375Z" fill="#3652DD"/>
<path d="M322.686 80.0375H292.649C292.552 80.0375 292.46 80.0006 292.391 79.935C292.323 79.8695 292.285 79.7805 292.285 79.6878C292.285 79.5951 292.323 79.5061 292.391 79.4406C292.46 79.375 292.552 79.3381 292.649 79.3381H322.686C322.782 79.3381 322.875 79.375 322.943 79.4406C323.011 79.5061 323.05 79.5951 323.05 79.6878C323.05 79.7805 323.011 79.8695 322.943 79.935C322.875 80.0006 322.782 80.0375 322.686 80.0375Z" fill="#292A2E"/>
<path d="M288.186 98.9566H211.924C211.827 98.9566 211.734 98.9198 211.666 98.8542C211.598 98.7887 211.56 98.6997 211.56 98.607C211.56 98.5142 211.598 98.4253 211.666 98.3597C211.734 98.2942 211.827 98.2573 211.924 98.2573H288.186C288.283 98.2573 288.375 98.2942 288.444 98.3597C288.512 98.4253 288.55 98.5142 288.55 98.607C288.55 98.6997 288.512 98.7887 288.444 98.8542C288.375 98.9198 288.283 98.9566 288.186 98.9566Z" fill="#3652DD"/>
<path d="M310.635 98.9566H296.068C295.971 98.9566 295.879 98.9198 295.81 98.8542C295.742 98.7887 295.704 98.6997 295.704 98.607C295.704 98.5142 295.742 98.4253 295.81 98.3597C295.879 98.2942 295.971 98.2573 296.068 98.2573H310.635C310.731 98.2573 310.824 98.2942 310.892 98.3597C310.96 98.4253 310.999 98.5142 310.999 98.607C310.999 98.6997 310.96 98.7887 310.892 98.8542C310.824 98.9198 310.731 98.9566 310.635 98.9566Z" fill="#292A2E"/>
<path d="M220.121 92.6503H211.923C211.874 92.652 211.826 92.6442 211.78 92.6274C211.734 92.6107 211.693 92.5852 211.657 92.5526C211.622 92.52 211.594 92.4809 211.575 92.4376C211.556 92.3944 211.546 92.3478 211.546 92.3008C211.546 92.2538 211.556 92.2073 211.575 92.1641C211.594 92.1208 211.622 92.0817 211.657 92.0491C211.693 92.0165 211.734 91.991 211.78 91.9742C211.826 91.9574 211.874 91.9497 211.923 91.9514H220.121C220.17 91.9497 220.218 91.9574 220.264 91.9742C220.31 91.991 220.351 92.0165 220.387 92.0491C220.422 92.0817 220.45 92.1208 220.469 92.1641C220.488 92.2073 220.498 92.2538 220.498 92.3008C220.498 92.3478 220.488 92.3944 220.469 92.4376C220.45 92.4809 220.422 92.52 220.387 92.5526C220.351 92.5852 220.31 92.6107 220.264 92.6274C220.218 92.6442 220.17 92.652 220.121 92.6503Z" fill="#3652DD"/>
<path d="M283.881 92.6503H228.001C227.952 92.652 227.903 92.6442 227.858 92.6274C227.812 92.6107 227.77 92.5852 227.735 92.5526C227.7 92.52 227.672 92.4809 227.653 92.4376C227.633 92.3944 227.624 92.3478 227.624 92.3008C227.624 92.2538 227.633 92.2073 227.653 92.1641C227.672 92.1208 227.7 92.0817 227.735 92.0491C227.77 92.0165 227.812 91.991 227.858 91.9742C227.903 91.9574 227.952 91.9497 228.001 91.9514H283.881C283.93 91.9497 283.979 91.9574 284.025 91.9742C284.07 91.991 284.112 92.0165 284.147 92.0491C284.182 92.0817 284.21 92.1208 284.23 92.1641C284.249 92.2073 284.259 92.2538 284.259 92.3008C284.259 92.3478 284.249 92.3944 284.23 92.4376C284.21 92.4809 284.182 92.52 284.147 92.5526C284.112 92.5852 284.07 92.6107 284.025 92.6274C283.979 92.6442 283.93 92.652 283.881 92.6503Z" fill="#292A2E"/>
<path d="M322.685 92.6503H292.648C292.6 92.652 292.551 92.6442 292.505 92.6274C292.459 92.6107 292.418 92.5852 292.382 92.5526C292.347 92.52 292.319 92.4809 292.3 92.4376C292.281 92.3944 292.271 92.3478 292.271 92.3008C292.271 92.2538 292.281 92.2073 292.3 92.1641C292.319 92.1208 292.347 92.0817 292.382 92.0491C292.418 92.0165 292.459 91.991 292.505 91.9742C292.551 91.9574 292.6 91.9497 292.648 91.9514H322.685C322.734 91.9497 322.783 91.9574 322.829 91.9742C322.874 91.991 322.916 92.0165 322.951 92.0491C322.987 92.0817 323.015 92.1208 323.034 92.1641C323.053 92.2073 323.063 92.2538 323.063 92.3008C323.063 92.3478 323.053 92.3944 323.034 92.4376C323.015 92.4809 322.987 92.52 322.951 92.5526C322.916 92.5852 322.874 92.6107 322.829 92.6274C322.783 92.6442 322.734 92.652 322.685 92.6503Z" fill="#0CBC8B"/>
<path d="M266.347 105.263H211.924C211.827 105.263 211.734 105.226 211.666 105.161C211.598 105.095 211.56 105.006 211.56 104.914C211.56 104.821 211.598 104.732 211.666 104.666C211.734 104.601 211.827 104.564 211.924 104.564H266.347C266.443 104.564 266.536 104.601 266.604 104.666C266.672 104.732 266.711 104.821 266.711 104.914C266.711 105.006 266.672 105.095 266.604 105.161C266.536 105.226 266.443 105.263 266.347 105.263Z" fill="#0CBC8B"/>
<path d="M291.161 105.263H274.228C274.131 105.263 274.039 105.226 273.97 105.161C273.902 105.095 273.864 105.006 273.864 104.914C273.864 104.821 273.902 104.732 273.97 104.666C274.039 104.601 274.131 104.564 274.228 104.564H291.161C291.258 104.564 291.351 104.601 291.419 104.666C291.487 104.732 291.526 104.821 291.526 104.914C291.526 105.006 291.487 105.095 291.419 105.161C291.351 105.226 291.258 105.263 291.161 105.263Z" fill="#292A2E"/>
<path d="M322.622 105.263H298.408C298.312 105.263 298.219 105.226 298.151 105.161C298.083 105.095 298.044 105.006 298.044 104.914C298.044 104.821 298.083 104.732 298.151 104.666C298.219 104.601 298.312 104.564 298.408 104.564H322.622C322.718 104.564 322.811 104.601 322.879 104.666C322.947 104.732 322.986 104.821 322.986 104.914C322.986 105.006 322.947 105.095 322.879 105.161C322.811 105.226 322.718 105.263 322.622 105.263H322.622Z" fill="#3652DD"/>
<path d="M187.059 108.708C187.011 108.708 186.964 108.699 186.92 108.682C186.875 108.664 186.835 108.639 186.801 108.606C186.768 108.574 186.741 108.535 186.723 108.493C186.704 108.451 186.695 108.405 186.695 108.359V12.2713C186.695 12.1786 186.733 12.0896 186.801 12.024C186.87 11.9585 186.962 11.9216 187.059 11.9216C187.155 11.9216 187.248 11.9585 187.316 12.024C187.385 12.0896 187.423 12.1786 187.423 12.2713V108.359C187.423 108.405 187.414 108.451 187.395 108.493C187.377 108.535 187.35 108.574 187.316 108.606C187.282 108.639 187.242 108.664 187.198 108.682C187.154 108.699 187.107 108.708 187.059 108.708Z" fill="#292A2E"/>
<path d="M170.411 16.6373H154.646C154.55 16.6373 154.457 16.6005 154.389 16.5349C154.321 16.4693 154.282 16.3804 154.282 16.2876C154.282 16.1949 154.321 16.106 154.389 16.0404C154.457 15.9748 154.55 15.938 154.646 15.938H170.409C170.506 15.938 170.598 15.9748 170.667 16.0404C170.735 16.106 170.773 16.1949 170.773 16.2876C170.773 16.3804 170.735 16.4693 170.667 16.5349C170.598 16.6005 170.506 16.6373 170.409 16.6373H170.411Z" fill="#292A2E"/>
<path d="M165.663 23.5328H154.646C154.597 23.5346 154.548 23.5268 154.503 23.51C154.457 23.4932 154.415 23.4678 154.38 23.4351C154.345 23.4025 154.317 23.3634 154.298 23.3202C154.278 23.2769 154.269 23.2304 154.269 23.1834C154.269 23.1364 154.278 23.0899 154.298 23.0466C154.317 23.0034 154.345 22.9643 154.38 22.9317C154.415 22.899 154.457 22.8736 154.503 22.8568C154.548 22.84 154.597 22.8322 154.646 22.834H165.661C165.755 22.8373 165.844 22.8756 165.909 22.9407C165.975 23.0059 166.011 23.0929 166.011 23.1834C166.011 23.2739 165.975 23.3609 165.909 23.4261C165.844 23.4912 165.755 23.5295 165.661 23.5328H165.663Z" fill="#292A2E"/>
<path d="M175.348 30.4281H154.646C154.55 30.4281 154.457 30.3912 154.389 30.3257C154.321 30.2601 154.282 30.1712 154.282 30.0784C154.282 29.9857 154.321 29.8967 154.389 29.8312C154.457 29.7656 154.55 29.7288 154.646 29.7288H175.346C175.443 29.7288 175.536 29.7656 175.604 29.8312C175.672 29.8967 175.711 29.9857 175.711 30.0784C175.711 30.1712 175.672 30.2601 175.604 30.3257C175.536 30.3912 175.443 30.4281 175.346 30.4281H175.348Z" fill="#292A2E"/>
<path d="M179.21 37.3234H161.928C161.879 37.3251 161.831 37.3173 161.785 37.3005C161.739 37.2838 161.697 37.2583 161.662 37.2257C161.627 37.1931 161.599 37.154 161.58 37.1107C161.561 37.0674 161.551 37.0209 161.551 36.9739C161.551 36.9269 161.561 36.8804 161.58 36.8372C161.599 36.7939 161.627 36.7548 161.662 36.7222C161.697 36.6896 161.739 36.6641 161.785 36.6473C161.831 36.6305 161.879 36.6228 161.928 36.6245H179.21C179.259 36.6228 179.307 36.6305 179.353 36.6473C179.399 36.6641 179.44 36.6896 179.476 36.7222C179.511 36.7548 179.539 36.7939 179.558 36.8372C179.577 36.8804 179.587 36.9269 179.587 36.9739C179.587 37.0209 179.577 37.0674 179.558 37.1107C179.539 37.154 179.511 37.1931 179.476 37.2257C179.44 37.2583 179.399 37.2838 179.353 37.3005C179.307 37.3173 179.259 37.3251 179.21 37.3234Z" fill="#292A2E"/>
<path d="M170.853 44.2186H161.928C161.831 44.2186 161.738 44.1818 161.67 44.1162C161.602 44.0506 161.563 43.9617 161.563 43.8689C161.563 43.7762 161.602 43.6873 161.67 43.6217C161.738 43.5561 161.831 43.5193 161.928 43.5193H170.853C170.95 43.5193 171.042 43.5561 171.11 43.6217C171.179 43.6873 171.217 43.7762 171.217 43.8689C171.217 43.9617 171.179 44.0506 171.11 44.1162C171.042 44.1818 170.95 44.2186 170.853 44.2186Z" fill="#292A2E"/>
<path d="M177.689 51.1141H161.928C161.831 51.1141 161.738 51.0773 161.67 51.0117C161.602 50.9461 161.563 50.8572 161.563 50.7645C161.563 50.6717 161.602 50.5828 161.67 50.5172C161.738 50.4516 161.831 50.4148 161.928 50.4148H177.689C177.785 50.4148 177.878 50.4516 177.946 50.5172C178.015 50.5828 178.053 50.6717 178.053 50.7645C178.053 50.8572 178.015 50.9461 177.946 51.0117C177.878 51.0773 177.785 51.1141 177.689 51.1141Z" fill="#292A2E"/>
<path d="M166.802 58.0089H154.646C154.55 58.0089 154.457 57.9721 154.389 57.9065C154.321 57.8409 154.282 57.752 154.282 57.6592C154.282 57.5665 154.321 57.4776 154.389 57.412C154.457 57.3464 154.55 57.3096 154.646 57.3096H166.8C166.897 57.3096 166.989 57.3464 167.058 57.412C167.126 57.4776 167.164 57.5665 167.164 57.6592C167.164 57.752 167.126 57.8409 167.058 57.9065C166.989 57.9721 166.897 58.0089 166.8 58.0089H166.802Z" fill="#292A2E"/>
<path d="M162.624 64.9044H154.646C154.55 64.9044 154.457 64.8676 154.389 64.802C154.321 64.7364 154.282 64.6475 154.282 64.5547C154.282 64.462 154.321 64.3731 154.389 64.3075C154.457 64.2419 154.55 64.2051 154.646 64.2051H162.622C162.719 64.2051 162.811 64.2419 162.879 64.3075C162.948 64.3731 162.986 64.462 162.986 64.5547C162.986 64.6475 162.948 64.7364 162.879 64.802C162.811 64.8676 162.719 64.9044 162.622 64.9044H162.624Z" fill="#292A2E"/>
<path d="M194.596 15.1584V15.2844L199.147 16.9062C199.212 16.9316 199.267 16.9752 199.306 17.0314C199.345 17.0875 199.365 17.1535 199.365 17.2209V17.3399C199.366 17.3925 199.353 17.4445 199.327 17.491C199.301 17.5375 199.263 17.5769 199.217 17.6055C199.171 17.6367 199.118 17.6562 199.062 17.6624C199.006 17.6685 198.949 17.6609 198.897 17.6404L193.758 15.7105C193.694 15.6859 193.638 15.6435 193.599 15.5887C193.56 15.5339 193.539 15.4692 193.539 15.4028V15.0465C193.539 14.98 193.559 14.9148 193.598 14.8598C193.637 14.8048 193.693 14.7626 193.758 14.7389L198.897 12.8042C198.939 12.7903 198.983 12.7831 199.028 12.783C199.095 12.7844 199.161 12.8038 199.217 12.8391C199.264 12.8691 199.301 12.9098 199.327 12.9575C199.353 13.0051 199.366 13.0582 199.365 13.1119V13.2303C199.366 13.297 199.346 13.3625 199.307 13.4177C199.268 13.4728 199.212 13.5149 199.147 13.538L194.596 15.1584Z" fill="#3652DD"/>
<path d="M203.616 11.3756L200.894 19.381C200.872 19.4479 200.828 19.5063 200.769 19.5478C200.71 19.5893 200.639 19.6117 200.566 19.6117C200.513 19.6125 200.461 19.6008 200.414 19.5776C200.367 19.5544 200.327 19.5204 200.296 19.4787C200.264 19.4373 200.242 19.3893 200.232 19.3384C200.222 19.2875 200.224 19.2351 200.238 19.1851L202.961 11.1869C202.984 11.1191 203.029 11.06 203.089 11.0177C203.149 10.9755 203.222 10.9521 203.296 10.9509C203.349 10.9509 203.401 10.9629 203.447 10.9861C203.494 11.0092 203.535 11.0428 203.565 11.084C203.597 11.1251 203.619 11.1731 203.628 11.2238C203.637 11.2746 203.633 11.3266 203.616 11.3756Z" fill="#3652DD"/>
<path d="M210.302 15.0463V15.4025C210.303 15.4682 210.283 15.5327 210.246 15.5876C210.208 15.6424 210.154 15.6852 210.091 15.7102L204.944 17.6402C204.893 17.6604 204.837 17.6678 204.783 17.6617C204.728 17.6556 204.676 17.6362 204.631 17.6052C204.584 17.5767 204.546 17.5374 204.519 17.491C204.493 17.4446 204.479 17.3926 204.478 17.3396V17.2207C204.477 17.1522 204.498 17.0851 204.539 17.0287C204.579 16.9723 204.637 16.9294 204.704 16.9059L209.254 15.2841V15.1581L204.704 13.5358C204.637 13.5145 204.579 13.4731 204.538 13.4177C204.498 13.3623 204.477 13.2959 204.478 13.2281V13.1097C204.478 13.0557 204.493 13.0026 204.519 12.955C204.546 12.9075 204.584 12.8669 204.631 12.8369C204.687 12.8017 204.753 12.7823 204.82 12.7808C204.862 12.7803 204.904 12.7875 204.944 12.802L210.091 14.7367C210.155 14.7611 210.21 14.804 210.248 14.8594C210.285 14.9148 210.304 14.9801 210.302 15.0463Z" fill="#3652DD"/>
<path d="M23.335 238.261C20.3668 238.261 17.4426 237.572 14.8114 236.253C12.1801 234.933 9.91968 233.023 8.22243 230.685C6.52518 228.346 5.44137 225.648 5.06322 222.821C4.68508 219.993 5.0238 217.12 6.05056 214.445C7.09267 211.729 33.8229 145.46 38.4782 133.943L70.6454 151.922C68.0296 158.398 58.5499 182.945 50.9343 202.719L63.5865 201.398L67.5663 233.75L25.3283 238.158C24.6663 238.227 24.0009 238.261 23.335 238.261Z" fill="#3652DD"/>
<path d="M128.55 120.164C128.437 120.15 125.342 131.338 101.183 129.597C84.4583 128.393 80.3803 117.46 79.9971 117.46C81.8002 117.092 84.7286 116.71 85.5294 116.299C88.1629 114.94 90.0811 113.286 91.047 109.736C91.8022 106.959 92.1869 96.2701 92.1869 90.9077L117.923 96.4617C117.564 102.511 115.053 116.535 123.853 119.017C125.317 119.425 126.894 119.803 128.55 120.164Z" fill="#E98862"/>
<path d="M117.032 108.353C106.887 109.122 93.8538 105.008 91.378 92.0075L89.1444 80.2777C86.6686 67.2775 91.7715 55.4901 104.517 53.2515C117.261 51.0129 128.795 59.878 131.27 72.8782L132.259 78.0717C133.209 83.0594 135.134 106.982 117.032 108.353Z" fill="#E98862"/>
<path d="M69.0074 119.257C59.8903 119.907 50.5939 120.855 43.8853 126.82C35.8059 134.004 34.3417 142.837 39.4962 167.145C43.931 188.061 42.1715 197.201 45.1387 235.796C45.2261 236.933 45.4133 239.285 45.4133 239.285L142.942 239.13C142.942 239.13 152.081 187.923 157.126 164.305C160.963 146.35 171.041 124.553 128.548 120.16C128.438 120.148 94.3599 117.451 69.0074 119.257Z" fill="#3652DD"/>
<path d="M45.4152 239.522C45.3516 239.522 45.2905 239.498 45.2447 239.456C45.1989 239.414 45.1719 239.356 45.1695 239.295L42.113 163.099C42.1117 163.068 42.1169 163.037 42.1281 163.008C42.1393 162.979 42.1563 162.952 42.1783 162.929C42.2002 162.907 42.2266 162.888 42.256 162.875C42.2853 162.862 42.317 162.855 42.3493 162.854C42.3819 162.852 42.4146 162.856 42.4455 162.866C42.4764 162.876 42.5047 162.892 42.5286 162.914C42.5526 162.935 42.5717 162.961 42.5847 162.99C42.5977 163.019 42.6044 163.05 42.6043 163.081L45.6609 239.277C45.6632 239.339 45.6397 239.4 45.5954 239.446C45.5511 239.492 45.4896 239.519 45.4245 239.521L45.4152 239.522Z" fill="#0C0C0C"/>
<path d="M201.912 146.463L208.764 131.701C208.914 131.377 209.133 131.086 209.407 130.848C209.681 130.609 210.004 130.428 210.355 130.316C210.706 130.204 211.077 130.163 211.445 130.196C211.813 130.229 212.17 130.336 212.493 130.509C213.079 130.846 213.514 131.38 213.714 132.008C213.913 132.636 213.862 133.312 213.571 133.906L212.102 137.072L221.48 129.155C222.506 128.258 224.364 127.786 225.337 128.958C225.742 129.386 225.984 129.933 226.023 130.51C226.063 131.087 225.898 131.659 225.555 132.134C225.567 132.141 225.577 132.15 225.586 132.159C225.592 132.167 225.597 132.176 225.602 132.184L227.185 130.8C227.478 130.544 227.828 130.354 228.207 130.244C228.587 130.134 228.987 130.106 229.379 130.163C229.771 130.221 230.145 130.361 230.473 130.575C230.801 130.788 231.076 131.069 231.277 131.398C231.582 131.921 231.691 132.529 231.586 133.12C231.48 133.712 231.167 134.25 230.697 134.646L230.023 135.235C230.032 135.262 230.035 135.289 230.034 135.317C230.586 135.021 231.229 134.922 231.849 135.039C232.469 135.157 233.025 135.482 233.418 135.957C233.833 136.488 234.023 137.151 233.952 137.812C233.88 138.472 233.551 139.083 233.032 139.521L231.359 140.984C231.398 140.979 231.437 140.984 231.474 140.996C231.511 141.009 231.544 141.03 231.57 141.058C231.6 141.092 231.619 141.134 231.624 141.178C232.191 141.045 232.789 141.095 233.324 141.319C233.859 141.544 234.303 141.931 234.586 142.421C234.874 142.942 234.969 143.541 234.858 144.121C234.746 144.7 234.435 145.227 233.973 145.615L219.854 157.96C217.879 159.687 215.412 160.808 212.769 161.179C210.126 161.551 207.428 161.156 205.02 160.045C202.944 159.087 201.339 157.39 200.545 155.313C199.751 153.237 199.832 150.945 200.77 148.925L201.912 146.463Z" fill="#E98862"/>
<g opacity="0.2">
<path d="M216.311 140.013C216.355 140.059 216.415 140.086 216.48 140.089C216.544 140.093 216.607 140.071 216.655 140.03L225.564 132.49C225.612 132.449 225.642 132.39 225.646 132.328C225.65 132.265 225.629 132.204 225.585 132.157C225.542 132.11 225.481 132.081 225.416 132.077C225.351 132.073 225.287 132.094 225.238 132.136L216.331 139.676C216.306 139.696 216.286 139.721 216.272 139.749C216.258 139.777 216.25 139.807 216.248 139.838C216.246 139.869 216.25 139.9 216.26 139.929C216.271 139.959 216.287 139.986 216.308 140.009L216.311 140.013Z" fill="#0C0C0C"/>
</g>
<g opacity="0.2">
<path d="M219.666 143.878C219.709 143.924 219.77 143.951 219.834 143.954C219.898 143.957 219.961 143.936 220.009 143.895L229.951 135.481C229.975 135.46 229.995 135.435 230.009 135.407C230.023 135.38 230.032 135.349 230.034 135.318C230.036 135.287 230.031 135.256 230.021 135.227C230.01 135.198 229.994 135.171 229.973 135.148C229.928 135.102 229.868 135.075 229.804 135.071C229.739 135.067 229.676 135.087 229.626 135.126L219.684 143.541C219.66 143.562 219.64 143.587 219.626 143.615C219.612 143.642 219.604 143.673 219.602 143.704C219.6 143.734 219.604 143.766 219.614 143.795C219.625 143.824 219.641 143.851 219.663 143.874L219.666 143.878Z" fill="#0C0C0C"/>
</g>
<g opacity="0.2">
<path d="M223.273 148.084C223.317 148.13 223.377 148.157 223.442 148.16C223.506 148.163 223.569 148.142 223.617 148.101L231.547 141.389C231.596 141.347 231.626 141.289 231.63 141.227C231.634 141.164 231.612 141.103 231.569 141.056C231.526 141.009 231.465 140.98 231.4 140.976C231.335 140.972 231.271 140.993 231.222 141.035L223.292 147.747C223.268 147.768 223.248 147.793 223.234 147.821C223.22 147.848 223.211 147.879 223.209 147.91C223.207 147.941 223.212 147.972 223.222 148.001C223.233 148.03 223.249 148.057 223.271 148.08L223.273 148.084Z" fill="#0C0C0C"/>
</g>
<path d="M126.437 95.0289C124.69 86.5975 123.889 80.9722 123.981 75.0379C126.441 70.892 125.795 66.1341 125.235 64.0777C125.94 64.4635 126.678 64.7915 127.441 65.0582C127.795 65.1767 128.178 65.1955 128.543 65.1123C128.908 65.0292 129.241 64.8477 129.503 64.589C129.765 64.3304 129.944 64.0054 130.02 63.6523C130.096 63.2992 130.065 62.9325 129.932 62.5955C128.027 57.8598 123.132 48.6573 113.027 45.5736C110.483 44.6228 103.986 43.4218 95.3652 44.5576C88.0306 45.524 71.4247 52.2067 68.8418 71.7551V71.766C68.7563 72.4143 65.5465 89.0101 62.0856 97.6521C57.4332 109.269 50.901 112.879 51.0666 126.282C51.2798 143.524 84.2803 145.818 104.189 144.529C124.098 143.239 135.207 136.953 135.351 124.528C135.508 110.605 129.932 111.898 126.437 95.0289Z" fill="#0A0A0A"/>
<path d="M126.443 89.0502C122.57 89.7306 118.672 86.3024 117.964 82.5826C117.256 78.8629 119.021 75.0378 123.98 75.0378L126.443 89.0502Z" fill="#E98862"/>
<path d="M168.104 235.585C164.208 235.584 160.412 234.398 157.262 232.197C154.112 229.996 151.768 226.893 150.568 223.333L124.97 147.297L160.032 136.409L173.494 176.402L196.76 140.868L227.957 159.707L183.697 227.308C182.039 229.841 179.738 231.929 177.011 233.377C174.284 234.824 171.22 235.584 168.104 235.585Z" fill="#3652DD"/>
<path d="M147.447 214.589C147.432 214.589 147.417 214.588 147.402 214.585C147.338 214.574 147.281 214.539 147.244 214.487C147.207 214.435 147.193 214.372 147.205 214.31L155.907 168.944C155.913 168.913 155.925 168.884 155.943 168.858C155.96 168.832 155.983 168.81 156.009 168.792C156.036 168.775 156.066 168.762 156.098 168.756C156.129 168.749 156.162 168.749 156.193 168.754C156.225 168.76 156.255 168.772 156.283 168.788C156.31 168.805 156.333 168.827 156.351 168.853C156.37 168.878 156.383 168.907 156.389 168.937C156.396 168.967 156.397 168.999 156.391 169.029L147.688 214.398C147.678 214.452 147.648 214.5 147.604 214.535C147.56 214.57 147.504 214.589 147.447 214.589Z" fill="#0C0C0C"/>
<path d="M176.626 187.11C176.572 187.11 176.519 187.092 176.476 187.06C176.433 187.028 176.402 186.984 176.388 186.933L173.489 176.209C173.473 176.149 173.482 176.084 173.515 176.03C173.548 175.976 173.602 175.937 173.665 175.922C173.729 175.906 173.796 175.915 173.852 175.947C173.908 175.978 173.949 176.03 173.965 176.091L176.864 186.815C176.873 186.85 176.874 186.886 176.866 186.921C176.859 186.957 176.843 186.99 176.82 187.018C176.797 187.047 176.767 187.07 176.734 187.086C176.7 187.101 176.663 187.11 176.625 187.11H176.626Z" fill="#0C0C0C"/>
<path d="M373.837 185.311H277.779C277.178 185.311 276.584 185.189 276.036 184.952C275.488 184.715 274.998 184.37 274.599 183.938C274.2 183.506 273.901 182.998 273.721 182.447C273.542 181.896 273.486 181.315 273.558 180.742L276.128 160.143C276.251 159.151 276.749 158.238 277.527 157.575C278.305 156.912 279.31 156.546 280.35 156.546H373.837C374.965 156.546 376.046 156.976 376.843 157.742C377.641 158.508 378.089 159.546 378.089 160.629V181.228C378.089 182.311 377.641 183.349 376.843 184.115C376.046 184.881 374.965 185.311 373.837 185.311Z" fill="#292A2E"/>
<path d="M303.763 185.505L307.871 170.364C307.962 170.032 307.979 169.685 307.922 169.345C307.865 169.006 307.735 168.681 307.54 168.393C307.346 168.104 307.09 167.858 306.791 167.669C306.491 167.48 306.154 167.354 305.801 167.297C302.878 166.767 302.522 170.634 301.969 172.488L299.86 161.058C299.538 157.974 295.222 157.873 294.903 160.945C294.88 160.942 294.856 160.946 294.836 160.956C294.938 155.341 288.465 155.776 289.573 160.697C289.549 160.712 289.529 160.731 289.512 160.752C288.431 158.03 284.001 159.304 284.599 162.191L284.943 164.267C284.922 164.246 284.897 164.23 284.87 164.218C284.842 164.206 284.813 164.2 284.783 164.199C284.753 164.199 284.723 164.204 284.695 164.214C284.667 164.225 284.641 164.24 284.62 164.26C283.133 162.239 279.49 163.722 280.05 166.252L282.958 183.783C284.621 195.121 301.994 198.926 303.763 185.505Z" fill="#E98862"/>
<g opacity="0.2">
<path d="M296.934 172.268C296.295 172.21 294.929 161.542 294.673 161.209C294.663 161.149 294.677 161.088 294.713 161.038C294.749 160.989 294.805 160.955 294.867 160.944C294.929 160.934 294.993 160.948 295.045 160.982C295.096 161.017 295.131 161.07 295.142 161.13L297.13 172.003C297.136 172.032 297.135 172.063 297.128 172.092C297.121 172.122 297.108 172.15 297.09 172.175C297.071 172.199 297.048 172.22 297.021 172.236C296.995 172.252 296.965 172.263 296.934 172.268Z" fill="#0C0C0C"/>
</g>
<g opacity="0.2">
<path d="M291.963 173.243C291.902 173.252 291.839 173.237 291.788 173.202C291.738 173.167 291.704 173.114 291.694 173.054L289.471 160.921C289.46 160.861 289.475 160.8 289.511 160.75C289.547 160.7 289.602 160.667 289.664 160.656C290.316 160.599 291.902 172.72 292.162 172.976C292.168 173.006 292.167 173.037 292.16 173.067C292.154 173.097 292.14 173.125 292.122 173.15C292.103 173.175 292.08 173.196 292.052 173.212C292.025 173.228 291.995 173.239 291.963 173.243Z" fill="#0C0C0C"/>
</g>
<g opacity="0.2">
<path d="M286.588 174.33C286.526 174.339 286.463 174.324 286.413 174.289C286.362 174.254 286.328 174.201 286.318 174.141L284.545 164.462C284.537 164.404 284.552 164.344 284.588 164.296C284.625 164.248 284.679 164.215 284.74 164.205C284.801 164.195 284.863 164.208 284.914 164.241C284.965 164.274 285.001 164.325 285.014 164.384L286.787 174.062C286.793 174.092 286.792 174.123 286.785 174.153C286.778 174.183 286.765 174.212 286.746 174.237C286.728 174.262 286.704 174.283 286.677 174.299C286.65 174.315 286.619 174.326 286.588 174.33Z" fill="#0C0C0C"/>
</g>
<path d="M157.741 239.522H43.5528L36.2959 185.973C36.1502 184.899 36.2449 183.807 36.5736 182.77C36.9023 181.734 37.4574 180.777 38.2018 179.962C38.9463 179.148 39.863 178.496 40.8908 178.049C41.9186 177.602 43.0338 177.371 44.162 177.371H142.344C144.271 177.371 146.133 178.044 147.581 179.265C149.029 180.486 149.966 182.171 150.215 184.006L157.741 239.522Z" fill="white"/>
<path d="M150.81 183.935C150.539 181.961 149.531 180.15 147.974 178.836C146.417 177.522 144.417 176.795 142.344 176.791H44.1624C43.0839 176.791 42.0153 176.988 41.013 177.371C40.589 177.531 40.1797 177.725 39.7896 177.951C38.3591 178.77 37.2095 179.973 36.4822 181.412C35.755 182.851 35.482 184.463 35.6968 186.049L42.9488 239.522H44.1624L36.8957 185.903C36.7609 184.91 36.8481 183.901 37.1516 182.943C37.4551 181.985 37.9678 181.1 38.6555 180.348C39.3432 179.595 40.1901 178.992 41.1398 178.579C42.0894 178.166 43.1198 177.952 44.1624 177.951H142.344C144.123 177.956 145.84 178.579 147.177 179.706C148.514 180.833 149.381 182.388 149.616 184.081L157.133 239.522H158.352L150.81 183.935Z" fill="#292A2E"/>
<path d="M151.08 239.522H36.8909L29.6339 185.973C29.4881 184.899 29.5826 183.807 29.9112 182.77C30.2397 181.734 30.7948 180.776 31.5393 179.962C32.2839 179.148 33.2007 178.496 34.2286 178.049C35.2565 177.602 36.3718 177.371 37.5001 177.371H135.681C137.607 177.371 139.468 178.045 140.915 179.265C142.363 180.486 143.298 182.171 143.547 184.006L151.08 239.522Z" fill="#292A2E"/>
<path d="M144.148 183.935C143.98 182.705 143.524 181.527 142.814 180.491C142.104 179.455 141.159 178.586 140.05 177.951C139.659 177.726 139.25 177.532 138.826 177.371C137.826 176.988 136.759 176.791 135.682 176.791H37.5C36.2856 176.79 35.085 177.038 33.9786 177.519C32.8722 178 31.8853 178.702 31.084 179.578C30.2827 180.455 29.6853 181.485 29.3319 182.601C28.9784 183.717 28.877 184.892 29.0344 186.049L36.2815 239.522H37.5L30.2332 185.903C30.0984 184.91 30.1857 183.901 30.4892 182.943C30.7926 181.985 31.3053 181.1 31.9931 180.348C32.6808 179.595 33.5277 178.992 34.4773 178.579C35.4269 178.166 36.4574 177.952 37.5 177.951H135.681C137.459 177.956 139.176 178.579 140.513 179.706C141.85 180.833 142.717 182.388 142.952 184.081L150.469 239.522H151.688L144.148 183.935Z" fill="#292A2E"/>
<path d="M344.903 122.501C345.016 122.487 346.266 142.41 370.364 140.673C387.048 139.473 392.996 122.473 393.379 122.473C391.58 122.106 388.551 121.572 387.752 121.163C385.125 119.807 381.383 118.396 380.536 113.497C380.048 110.673 380.876 96.2263 380.621 93.3687L355.504 98.858C355.862 104.893 358.367 118.882 349.589 121.357C348.13 121.768 346.555 122.146 344.903 122.501Z" fill="#E98862"/>
<path d="M356.211 108.27C366.324 109.02 379.307 104.898 381.752 91.9372L383.957 80.2422C386.402 67.2808 381.295 55.541 368.588 53.3307C355.881 51.12 344.402 59.9752 341.958 72.9362L340.981 78.1136C340.678 79.8969 340.502 81.698 340.455 83.5043C340.291 88.2773 340.062 95.5371 342.518 100.869C344.842 105.906 349.752 107.791 356.211 108.27Z" fill="#E98862"/>
<path d="M378.891 52.6661C374.876 51.4638 370.712 50.7834 366.51 50.6432C366.102 49.1025 365.195 47.9063 363.86 47.4042C361.639 46.5704 358.924 47.9134 357.118 50.5007C356.115 49.0227 354.754 47.6911 352.951 47.1503C347.977 45.6625 347.73 52.5255 347.73 52.5255C347.73 52.5255 339.842 45.0505 339.596 54.5843C339.298 66.1193 341.504 69.5021 343.114 70.3562C346.294 72.0427 348.663 71.7577 349.921 74.2388C353.732 81.7525 349.997 102.917 354.406 105.567C361.162 109.625 374.999 109.766 379.494 109.458C381.222 109.339 382.839 107.415 383.567 105.904C385.918 101.029 391.16 89.9758 392.619 85.4048C395.312 76.9705 395.109 57.752 378.891 52.6661Z" fill="#0C0C0C"/>
<path d="M351.387 98.0075C355.288 97.6007 357.998 93.2623 357.574 89.5137C357.151 85.7652 353.755 84.0306 349.853 84.4368L348.127 87.1572L348.033 98.3557L351.387 98.0075Z" fill="#E98862"/>
<path d="M416.558 236.397L416.678 236.403C416.678 236.403 416.592 234.166 416.558 236.397Z" fill="#333333"/>
<path d="M310.259 166.584C311.021 175.178 314.727 228.795 315.459 239.381H416.386C416.956 229.833 419.516 188.088 421.678 169.416C423.742 151.6 427.791 142.68 424.823 137.413C419.973 128.805 406.72 123.831 397.683 122.656C392.165 121.939 391.028 121.424 388.778 121.424H349.919C346.224 121.424 322.627 124.844 317.789 128.259C304.402 137.714 308.643 148.372 310.259 166.584Z" fill="#3652DD"/>
<path d="M437.935 238.819C440.904 238.819 443.829 238.13 446.461 236.811C449.092 235.492 451.353 233.581 453.051 231.242C454.748 228.903 455.832 226.205 456.21 223.377C456.588 220.549 456.249 217.675 455.222 215C454.179 212.284 429.735 150.117 425.081 138.597L390.623 152.006C393.239 158.483 402.72 183.032 410.336 202.808L397.683 201.487L393.7 236.673L435.942 238.715C436.604 238.784 437.269 238.819 437.935 238.819Z" fill="#3652DD"/>
<path d="M418.27 169.777L415.791 239.372L416.461 239.394L418.941 169.799L418.27 169.777Z" fill="#0C0C0C"/>
<path d="M295.66 238.819C292.691 238.819 289.767 238.13 287.135 236.811C284.503 235.492 282.243 233.581 280.545 231.242C278.848 228.903 277.764 226.205 277.386 223.377C277.008 220.549 277.347 217.675 278.374 215C279.416 212.285 304.885 149.842 309.539 138.323L342.973 152.008C340.356 158.484 330.876 183.034 323.259 202.81L335.913 201.489L339.895 236.675L297.654 238.716C296.992 238.785 296.326 238.82 295.66 238.819Z" fill="#3652DD"/>
<path d="M323.18 198.684C323.122 198.684 323.065 198.671 323.014 198.646C322.962 198.621 322.917 198.584 322.883 198.539C322.849 198.494 322.826 198.442 322.817 198.387C322.807 198.333 322.812 198.276 322.829 198.223L331.775 171.174C331.789 171.128 331.812 171.086 331.843 171.049C331.873 171.012 331.912 170.982 331.955 170.959C331.999 170.937 332.046 170.923 332.095 170.919C332.144 170.915 332.194 170.92 332.241 170.934C332.288 170.948 332.331 170.972 332.369 171.002C332.406 171.033 332.437 171.071 332.459 171.113C332.481 171.156 332.494 171.202 332.497 171.249C332.5 171.296 332.493 171.343 332.477 171.388L323.532 198.435C323.508 198.507 323.462 198.57 323.399 198.615C323.335 198.66 323.259 198.684 323.18 198.684Z" fill="#0C0C0C"/>
<path d="M437.818 185.973L430.556 239.522H316.371L323.899 184.006C324.148 182.172 325.083 180.487 326.531 179.266C327.978 178.045 329.839 177.371 331.765 177.371H429.947C431.076 177.37 432.191 177.601 433.22 178.048C434.248 178.494 435.165 179.146 435.91 179.961C436.655 180.775 437.211 181.732 437.54 182.769C437.869 183.806 437.963 184.899 437.818 185.973Z" fill="white"/>
<path d="M436.363 179.579C435.776 178.938 435.088 178.389 434.325 177.951C433.933 177.725 433.522 177.531 433.096 177.371C432.094 176.988 431.025 176.791 429.947 176.791H331.765C329.692 176.796 327.693 177.523 326.136 178.837C324.579 180.15 323.571 181.962 323.299 183.935L315.762 239.522H316.98L324.498 184.081C324.731 182.388 325.597 180.833 326.933 179.706C328.269 178.579 329.986 177.955 331.765 177.951H429.947C430.989 177.952 432.02 178.167 432.969 178.58C433.919 178.993 434.766 179.596 435.454 180.348C436.142 181.101 436.655 181.985 436.96 182.943C437.264 183.901 437.352 184.91 437.218 185.903L429.947 239.522H431.165L438.412 186.049C438.57 184.892 438.468 183.717 438.115 182.602C437.761 181.486 437.164 180.456 436.363 179.579Z" fill="#292A2E"/>
<path d="M444.48 185.973L437.218 239.522H323.033L330.561 184.006C330.741 182.678 331.282 181.42 332.13 180.357C332.978 179.294 334.103 178.464 335.391 177.952C336.353 177.566 337.385 177.369 338.427 177.371H436.613C437.742 177.371 438.857 177.603 439.884 178.05C440.912 178.497 441.829 179.149 442.573 179.963C443.317 180.777 443.873 181.734 444.201 182.771C444.53 183.807 444.625 184.899 444.48 185.973Z" fill="#292A2E"/>
<path d="M443.026 179.579C442.224 178.704 441.238 178.003 440.132 177.522C439.027 177.041 437.827 176.792 436.614 176.791H338.427C336.891 176.793 335.383 177.194 334.064 177.951C332.954 178.586 332.008 179.454 331.297 180.491C330.587 181.527 330.13 182.705 329.962 183.935L322.425 239.522H323.643L331.16 184.081C331.394 182.388 332.259 180.833 333.595 179.706C334.931 178.579 336.648 177.955 338.427 177.951H436.614C437.656 177.952 438.687 178.166 439.637 178.579C440.586 178.992 441.433 179.595 442.121 180.348C442.809 181.1 443.321 181.985 443.625 182.943C443.928 183.901 444.015 184.91 443.881 185.903L436.614 239.522H437.827L445.08 186.049C445.235 184.892 445.132 183.717 444.778 182.602C444.424 181.486 443.827 180.456 443.026 179.579Z" fill="#292A2E"/>
<path d="M5.25702 239.853H454.045C454.136 239.853 454.224 239.818 454.288 239.756C454.353 239.694 454.389 239.61 454.389 239.522C454.389 239.435 454.353 239.351 454.288 239.289C454.224 239.227 454.136 239.192 454.045 239.192H5.25702C5.1658 239.192 5.07832 239.227 5.01382 239.289C4.94932 239.351 4.91309 239.435 4.91309 239.522C4.91309 239.61 4.94932 239.694 5.01382 239.756C5.07832 239.818 5.1658 239.853 5.25702 239.853Z" fill="#292A2E"/>
<g opacity="0.65">
<path d="M5.25702 239.853H454.045C454.136 239.853 454.224 239.818 454.288 239.756C454.353 239.694 454.389 239.61 454.389 239.522C454.389 239.435 454.353 239.351 454.288 239.289C454.224 239.227 454.136 239.192 454.045 239.192H5.25702C5.1658 239.192 5.07832 239.227 5.01382 239.289C4.94932 239.351 4.91309 239.435 4.91309 239.522C4.91309 239.61 4.94932 239.694 5.01382 239.756C5.07832 239.818 5.1658 239.853 5.25702 239.853Z" fill="#292A2E"/>
</g>
<path d="M277.236 221.409L278.816 181.512L300.644 180.402L302.63 221.409H277.236Z" fill="#3652DD"/>
</svg>
