<svg width="87" height="118" viewBox="0 0 87 118" fill="none" xmlns="http://www.w3.org/2000/svg">
<path d="M12.3216 117.103L11.8503 114.901C11.7973 114.649 6.44142 89.491 2.97541 63.4422C0.931078 48.0841 -0.0676864 35.4035 0.00409942 25.7544C0.102415 12.5749 2.14363 5.09992 6.42737 2.23079C8.30785 0.97107 11.507 -0.00627631 16.0638 2.48537C31.0858 10.7021 50.1511 36.8768 60.1793 51.7477C66.8679 61.6674 73.2709 72.0949 78.21 81.1075C81.6901 87.4573 85.9738 95.8994 86.6214 100.056C86.8103 101.263 86.6839 103.093 85.0141 104.957C82.5999 107.652 77.5858 109.762 69.2321 111.594C63.1069 112.937 55.237 114.093 45.8393 115.029C29.9294 116.614 14.8653 117.034 14.7155 117.038L12.3216 117.103ZM10.7205 6.26455C10.1727 6.26455 9.88558 6.45766 9.72796 6.56154C7.87558 7.80224 2.32309 15.5186 8.60591 62.756C11.4524 84.1493 15.5832 104.947 16.9565 111.633C21.8005 111.451 33.2955 110.925 45.2713 109.731C73.0742 106.959 79.2853 103.074 80.6664 101.534C81.0487 101.108 81.0175 100.91 81.0034 100.826C80.1966 95.6536 69.7081 75.8404 55.3806 54.5919C38.7871 29.9842 23.4156 12.667 13.2033 7.08241C12.0454 6.44889 11.2573 6.26455 10.7205 6.26455Z" fill="#00227B"/>
</svg>
