<svg width="457" height="295" viewBox="0 0 457 295" fill="none" xmlns="http://www.w3.org/2000/svg">
<path opacity="0.1" d="M408.343 293.902C451.031 293.902 464.036 260.088 451.738 218.677C444.782 195.258 428.699 164.633 402.424 150.774C330.519 112.848 340.21 111.027 322.409 70.6581C293.352 4.75938 181.619 2.21644 135.964 49.4379C100.441 86.18 85.2395 137.976 36.8417 176.14C-21.5771 222.206 -5.64338 294.569 50.4717 294.569L408.343 293.902Z" fill="#367CFF"/>
<path d="M455.531 197.521H5.2793L31.1919 143.95H429.618L455.531 197.521Z" fill="#292A2E"/>
<path d="M455.531 197.521H5.2793L31.1919 143.95H429.618L455.531 197.521Z" fill="white"/>
<path d="M455.531 197.993H5.28199C5.19917 197.993 5.11767 197.973 5.04505 197.935C4.97244 197.897 4.91108 197.841 4.86666 197.774C4.82225 197.707 4.79622 197.63 4.79101 197.551C4.7858 197.471 4.80157 197.392 4.83685 197.32L30.7475 143.75C30.7872 143.668 30.85 143.6 30.9288 143.552C31.0075 143.504 31.0989 143.478 31.1922 143.478H429.618C429.711 143.478 429.803 143.504 429.881 143.552C429.96 143.6 430.023 143.668 430.063 143.75L455.977 197.32C456.012 197.392 456.028 197.471 456.023 197.55C456.018 197.629 455.992 197.706 455.948 197.773C455.904 197.84 455.843 197.895 455.771 197.934C455.699 197.972 455.617 197.993 455.535 197.993H455.531ZM6.05289 197.049H454.757L429.306 144.422H31.5047L6.05289 197.049Z" fill="#292A2E"/>
<path d="M261.542 126.014H217.938V157.673H261.542V126.014Z" fill="#292A2E"/>
<path opacity="0.64" d="M261.542 126.015H217.938V142.928H261.542V126.015Z" fill="#0C0C0C"/>
<path d="M332.35 0.409912H147.131C144.218 0.409912 141.856 2.67806 141.856 5.47596V129.623C141.856 132.42 144.218 134.689 147.131 134.689H332.35C335.263 134.689 337.625 132.42 337.625 129.623V5.47596C337.625 2.67806 335.263 0.409912 332.35 0.409912Z" fill="#292A2E"/>
<path d="M329.746 6.16431H149.736C148.54 6.16431 147.57 7.09535 147.57 8.24386V111.206C147.57 112.354 148.54 113.285 149.736 113.285H329.746C330.942 113.285 331.911 112.354 331.911 111.206V8.24386C331.911 7.09535 330.942 6.16431 329.746 6.16431Z" fill="white"/>
<path d="M270.614 155.072H208.867C207.287 155.072 206.005 156.302 206.005 157.82C206.005 159.337 207.287 160.568 208.867 160.568H270.614C272.194 160.568 273.475 159.337 273.475 157.82C273.475 156.302 272.194 155.072 270.614 155.072Z" fill="#292A2E"/>
<path d="M209.201 23.2745H201.003C200.955 23.2762 200.906 23.2685 200.86 23.2517C200.814 23.2349 200.773 23.2095 200.737 23.1768C200.702 23.1442 200.674 23.1051 200.655 23.0619C200.636 23.0186 200.626 22.9721 200.626 22.9251C200.626 22.8781 200.636 22.8316 200.655 22.7883C200.674 22.7451 200.702 22.706 200.737 22.6734C200.773 22.6407 200.814 22.6153 200.86 22.5985C200.906 22.5817 200.955 22.5739 201.003 22.5757H209.201C209.295 22.579 209.385 22.6173 209.45 22.6824C209.515 22.7476 209.552 22.8346 209.552 22.9251C209.552 23.0156 209.515 23.1026 209.45 23.1678C209.385 23.2329 209.295 23.2712 209.201 23.2745Z" fill="#292A2E"/>
<path d="M195.091 23.2745H191.99C191.941 23.2762 191.892 23.2685 191.846 23.2517C191.801 23.2349 191.759 23.2095 191.724 23.1768C191.688 23.1442 191.66 23.1051 191.641 23.0619C191.622 23.0186 191.612 22.9721 191.612 22.9251C191.612 22.8781 191.622 22.8316 191.641 22.7883C191.66 22.7451 191.688 22.706 191.724 22.6734C191.759 22.6407 191.801 22.6153 191.846 22.5985C191.892 22.5817 191.941 22.5739 191.99 22.5757H195.091C195.14 22.5739 195.189 22.5817 195.235 22.5985C195.281 22.6153 195.322 22.6407 195.358 22.6734C195.393 22.706 195.421 22.7451 195.44 22.7883C195.459 22.8316 195.469 22.8781 195.469 22.9251C195.469 22.9721 195.459 23.0186 195.44 23.0619C195.421 23.1051 195.393 23.1442 195.358 23.1768C195.322 23.2095 195.281 23.2349 195.235 23.2517C195.189 23.2685 195.14 23.2762 195.091 23.2745Z" fill="#367CFF"/>
<path d="M195.092 29.5807H191.99C191.893 29.5807 191.801 29.5438 191.733 29.4783C191.664 29.4127 191.626 29.3237 191.626 29.231C191.626 29.1383 191.664 29.0493 191.733 28.9838C191.801 28.9182 191.893 28.8813 191.99 28.8813H195.092C195.188 28.8813 195.281 28.9182 195.349 28.9838C195.418 29.0493 195.456 29.1383 195.456 29.231C195.456 29.3237 195.418 29.4127 195.349 29.4783C195.281 29.5438 195.188 29.5807 195.092 29.5807Z" fill="#367CFF"/>
<path d="M195.092 35.8873H191.99C191.893 35.8873 191.801 35.8505 191.733 35.7849C191.664 35.7193 191.626 35.6304 191.626 35.5376C191.626 35.4449 191.664 35.356 191.733 35.2904C191.801 35.2248 191.893 35.188 191.99 35.188H195.092C195.188 35.188 195.281 35.2248 195.349 35.2904C195.418 35.356 195.456 35.4449 195.456 35.5376C195.456 35.6304 195.418 35.7193 195.349 35.7849C195.281 35.8505 195.188 35.8873 195.092 35.8873Z" fill="#367CFF"/>
<path d="M195.092 42.1944H191.99C191.893 42.1944 191.801 42.1576 191.733 42.092C191.664 42.0265 191.626 41.9375 191.626 41.8448C191.626 41.752 191.664 41.6631 191.733 41.5975C191.801 41.532 191.893 41.4951 191.99 41.4951H195.092C195.188 41.4951 195.281 41.532 195.349 41.5975C195.418 41.6631 195.456 41.752 195.456 41.8448C195.456 41.9375 195.418 42.0265 195.349 42.092C195.281 42.1576 195.188 42.1944 195.092 42.1944Z" fill="#367CFF"/>
<path d="M195.091 48.5004H191.99C191.941 48.5021 191.892 48.4943 191.846 48.4775C191.801 48.4608 191.759 48.4353 191.724 48.4027C191.688 48.3701 191.66 48.331 191.641 48.2877C191.622 48.2444 191.612 48.1979 191.612 48.1509C191.612 48.1039 191.622 48.0574 191.641 48.0142C191.66 47.9709 191.688 47.9318 191.724 47.8992C191.759 47.8666 191.801 47.8411 191.846 47.8243C191.892 47.8075 191.941 47.7998 191.99 47.8015H195.091C195.14 47.7998 195.189 47.8075 195.235 47.8243C195.281 47.8411 195.322 47.8666 195.358 47.8992C195.393 47.9318 195.421 47.9709 195.44 48.0142C195.459 48.0574 195.469 48.1039 195.469 48.1509C195.469 48.1979 195.459 48.2444 195.44 48.2877C195.421 48.331 195.393 48.3701 195.358 48.4027C195.322 48.4353 195.281 48.4608 195.235 48.4775C195.189 48.4943 195.14 48.5021 195.091 48.5004Z" fill="#367CFF"/>
<path d="M195.092 54.8048H191.99C191.893 54.8048 191.801 54.7679 191.733 54.7024C191.664 54.6368 191.626 54.5479 191.626 54.4551C191.626 54.3624 191.664 54.2735 191.733 54.2079C191.801 54.1423 191.893 54.1055 191.99 54.1055H195.092C195.188 54.1055 195.281 54.1423 195.349 54.2079C195.418 54.2735 195.456 54.3624 195.456 54.4551C195.456 54.5479 195.418 54.6368 195.349 54.7024C195.281 54.7679 195.188 54.8048 195.092 54.8048Z" fill="#367CFF"/>
<path d="M195.092 61.1136H191.99C191.893 61.1136 191.801 61.0768 191.733 61.0112C191.664 60.9456 191.626 60.8567 191.626 60.764C191.626 60.6712 191.664 60.5823 191.733 60.5167C191.801 60.4511 191.893 60.4143 191.99 60.4143H195.092C195.188 60.4143 195.281 60.4511 195.349 60.5167C195.418 60.5823 195.456 60.6712 195.456 60.764C195.456 60.8567 195.418 60.9456 195.349 61.0112C195.281 61.0768 195.188 61.1136 195.092 61.1136Z" fill="#367CFF"/>
<path d="M195.091 67.42H191.99C191.941 67.4218 191.892 67.414 191.846 67.3972C191.801 67.3804 191.759 67.355 191.724 67.3224C191.688 67.2897 191.66 67.2506 191.641 67.2074C191.622 67.1641 191.612 67.1176 191.612 67.0706C191.612 67.0236 191.622 66.9771 191.641 66.9338C191.66 66.8906 191.688 66.8515 191.724 66.8189C191.759 66.7862 191.801 66.7608 191.846 66.744C191.892 66.7272 191.941 66.7195 191.99 66.7212H195.091C195.14 66.7195 195.189 66.7272 195.235 66.744C195.281 66.7608 195.322 66.7862 195.358 66.8189C195.393 66.8515 195.421 66.8906 195.44 66.9338C195.459 66.9771 195.469 67.0236 195.469 67.0706C195.469 67.1176 195.459 67.1641 195.44 67.2074C195.421 67.2506 195.393 67.2897 195.358 67.3224C195.322 67.355 195.281 67.3804 195.235 67.3972C195.189 67.414 195.14 67.4218 195.091 67.42Z" fill="#367CFF"/>
<path d="M195.092 73.7279H191.99C191.893 73.7279 191.801 73.691 191.733 73.6255C191.664 73.5599 191.626 73.471 191.626 73.3782C191.626 73.2855 191.664 73.1965 191.733 73.131C191.801 73.0654 191.893 73.0286 191.99 73.0286H195.092C195.188 73.0286 195.281 73.0654 195.349 73.131C195.418 73.1965 195.456 73.2855 195.456 73.3782C195.456 73.471 195.418 73.5599 195.349 73.6255C195.281 73.691 195.188 73.7279 195.092 73.7279Z" fill="#367CFF"/>
<path d="M195.092 80.0336H191.99C191.893 80.0336 191.801 79.9967 191.733 79.9311C191.664 79.8656 191.626 79.7766 191.626 79.6839C191.626 79.5912 191.664 79.5022 191.733 79.4366C191.801 79.3711 191.893 79.3342 191.99 79.3342H195.092C195.188 79.3342 195.281 79.3711 195.349 79.4366C195.418 79.5022 195.456 79.5912 195.456 79.6839C195.456 79.7766 195.418 79.8656 195.349 79.9311C195.281 79.9967 195.188 80.0336 195.092 80.0336Z" fill="#367CFF"/>
<path d="M195.091 86.3399H191.99C191.941 86.3417 191.892 86.3339 191.846 86.3171C191.801 86.3004 191.759 86.2749 191.724 86.2423C191.688 86.2097 191.66 86.1705 191.641 86.1273C191.622 86.084 191.612 86.0375 191.612 85.9905C191.612 85.9435 191.622 85.897 191.641 85.8538C191.66 85.8105 191.688 85.7714 191.724 85.7388C191.759 85.7062 191.801 85.6807 191.846 85.6639C191.892 85.6471 191.941 85.6394 191.99 85.6411H195.091C195.14 85.6394 195.189 85.6471 195.235 85.6639C195.281 85.6807 195.322 85.7062 195.358 85.7388C195.393 85.7714 195.421 85.8105 195.44 85.8538C195.459 85.897 195.469 85.9435 195.469 85.9905C195.469 86.0375 195.459 86.084 195.44 86.1273C195.421 86.1705 195.393 86.2097 195.358 86.2423C195.322 86.2749 195.281 86.3004 195.235 86.3171C195.189 86.3339 195.14 86.3417 195.091 86.3399Z" fill="#367CFF"/>
<path d="M195.092 92.6456H191.99C191.893 92.6456 191.801 92.6088 191.733 92.5432C191.664 92.4776 191.626 92.3887 191.626 92.296C191.626 92.2032 191.664 92.1143 191.733 92.0487C191.801 91.9831 191.893 91.9463 191.99 91.9463H195.092C195.188 91.9463 195.281 91.9831 195.349 92.0487C195.418 92.1143 195.456 92.2032 195.456 92.296C195.456 92.3887 195.418 92.4776 195.349 92.5432C195.281 92.6088 195.188 92.6456 195.092 92.6456Z" fill="#367CFF"/>
<path d="M195.092 98.9525H191.99C191.893 98.9525 191.801 98.9156 191.733 98.8501C191.664 98.7845 191.626 98.6956 191.626 98.6028C191.626 98.5101 191.664 98.4212 191.733 98.3556C191.801 98.29 191.893 98.2532 191.99 98.2532H195.092C195.188 98.2532 195.281 98.29 195.349 98.3556C195.418 98.4212 195.456 98.5101 195.456 98.6028C195.456 98.6956 195.418 98.7845 195.349 98.8501C195.281 98.9156 195.188 98.9525 195.092 98.9525Z" fill="#367CFF"/>
<path d="M195.091 105.259H191.99C191.941 105.26 191.892 105.253 191.846 105.236C191.801 105.219 191.759 105.194 191.724 105.161C191.688 105.128 191.66 105.089 191.641 105.046C191.622 105.003 191.612 104.956 191.612 104.909C191.612 104.862 191.622 104.816 191.641 104.772C191.66 104.729 191.688 104.69 191.724 104.657C191.759 104.625 191.801 104.599 191.846 104.583C191.892 104.566 191.941 104.558 191.99 104.56H195.091C195.14 104.558 195.189 104.566 195.235 104.583C195.281 104.599 195.322 104.625 195.358 104.657C195.393 104.69 195.421 104.729 195.44 104.772C195.459 104.816 195.469 104.862 195.469 104.909C195.469 104.956 195.459 105.003 195.44 105.046C195.421 105.089 195.393 105.128 195.358 105.161C195.322 105.194 195.281 105.219 195.235 105.236C195.189 105.253 195.14 105.26 195.091 105.259Z" fill="#367CFF"/>
<path d="M215.753 29.5812H208.285C208.236 29.5829 208.187 29.5751 208.141 29.5583C208.096 29.5416 208.054 29.5161 208.019 29.4835C207.983 29.4509 207.955 29.4118 207.936 29.3685C207.917 29.3253 207.907 29.2787 207.907 29.2317C207.907 29.1847 207.917 29.1382 207.936 29.095C207.955 29.0517 207.983 29.0126 208.019 28.98C208.054 28.9474 208.096 28.9219 208.141 28.9051C208.187 28.8884 208.236 28.8806 208.285 28.8823H215.753C215.802 28.8806 215.851 28.8884 215.896 28.9051C215.942 28.9219 215.984 28.9474 216.019 28.98C216.054 29.0126 216.082 29.0517 216.101 29.095C216.12 29.1382 216.13 29.1847 216.13 29.2317C216.13 29.2787 216.12 29.3253 216.101 29.3685C216.082 29.4118 216.054 29.4509 216.019 29.4835C215.984 29.5161 215.942 29.5416 215.896 29.5583C215.851 29.5751 215.802 29.5829 215.753 29.5812Z" fill="#292A2E"/>
<path d="M209.201 67.4203H201.003C200.955 67.422 200.906 67.4142 200.86 67.3975C200.814 67.3807 200.773 67.3552 200.737 67.3226C200.702 67.29 200.674 67.2509 200.655 67.2076C200.636 67.1644 200.626 67.1179 200.626 67.0709C200.626 67.0239 200.636 66.9773 200.655 66.9341C200.674 66.8908 200.702 66.8517 200.737 66.8191C200.773 66.7865 200.814 66.761 200.86 66.7442C200.906 66.7275 200.955 66.7197 201.003 66.7214H209.201C209.295 66.7248 209.385 66.763 209.45 66.8282C209.515 66.8934 209.552 66.9803 209.552 67.0709C209.552 67.1614 209.515 67.2484 209.45 67.3135C209.385 67.3787 209.295 67.417 209.201 67.4203Z" fill="#292A2E"/>
<path d="M215.753 73.7281H208.285C208.188 73.7281 208.096 73.6913 208.028 73.6257C207.959 73.5601 207.921 73.4712 207.921 73.3785C207.921 73.2857 207.959 73.1968 208.028 73.1312C208.096 73.0656 208.188 73.0288 208.285 73.0288H215.753C215.85 73.0288 215.942 73.0656 216.011 73.1312C216.079 73.1968 216.117 73.2857 216.117 73.3785C216.117 73.4712 216.079 73.5601 216.011 73.6257C215.942 73.6913 215.85 73.7281 215.753 73.7281Z" fill="#292A2E"/>
<path d="M267.803 35.888H213.379C213.283 35.888 213.19 35.8512 213.122 35.7856C213.053 35.7201 213.015 35.6311 213.015 35.5384C213.015 35.4456 213.053 35.3567 213.122 35.2911C213.19 35.2256 213.283 35.1887 213.379 35.1887H267.803C267.899 35.1887 267.992 35.2256 268.06 35.2911C268.128 35.3567 268.167 35.4456 268.167 35.5384C268.167 35.6311 268.128 35.7201 268.06 35.7856C267.992 35.8512 267.899 35.888 267.803 35.888Z" fill="#292A2E"/>
<path d="M307.177 35.888H275.682C275.586 35.888 275.493 35.8512 275.425 35.7856C275.357 35.7201 275.318 35.6311 275.318 35.5384C275.318 35.4456 275.357 35.3567 275.425 35.2911C275.493 35.2256 275.586 35.1887 275.682 35.1887H307.177C307.273 35.1887 307.366 35.2256 307.434 35.2911C307.502 35.3567 307.541 35.4456 307.541 35.5384C307.541 35.6311 307.502 35.7201 307.434 35.7856C307.366 35.8512 307.273 35.888 307.177 35.888Z" fill="#0CBC8B"/>
<path d="M324.078 35.888H314.426C314.329 35.888 314.236 35.8512 314.168 35.7856C314.1 35.7201 314.062 35.6311 314.062 35.5384C314.062 35.4456 314.1 35.3567 314.168 35.2911C314.236 35.2256 314.329 35.1887 314.426 35.1887H324.079C324.175 35.1887 324.268 35.2256 324.336 35.2911C324.404 35.3567 324.443 35.4456 324.443 35.5384C324.443 35.6311 324.404 35.7201 324.336 35.7856C324.268 35.8512 324.175 35.888 324.079 35.888H324.078Z" fill="#292A2E"/>
<path d="M289.642 48.5011H213.379C213.33 48.5028 213.282 48.4951 213.236 48.4783C213.19 48.4615 213.149 48.436 213.113 48.4034C213.078 48.3708 213.05 48.3317 213.031 48.2884C213.012 48.2452 213.002 48.1987 213.002 48.1517C213.002 48.1047 213.012 48.0581 213.031 48.0149C213.05 47.9716 213.078 47.9325 213.113 47.8999C213.149 47.8673 213.19 47.8418 213.236 47.8251C213.282 47.8083 213.33 47.8005 213.379 47.8022H289.642C289.691 47.8005 289.739 47.8083 289.785 47.8251C289.831 47.8418 289.873 47.8673 289.908 47.8999C289.943 47.9325 289.971 47.9716 289.99 48.0149C290.009 48.0581 290.019 48.1047 290.019 48.1517C290.019 48.1987 290.009 48.2452 289.99 48.2884C289.971 48.3317 289.943 48.3708 289.908 48.4034C289.873 48.436 289.831 48.4615 289.785 48.4783C289.739 48.4951 289.691 48.5028 289.642 48.5011Z" fill="#292A2E"/>
<path d="M307.177 48.5011H297.524C297.475 48.5028 297.426 48.4951 297.381 48.4783C297.335 48.4615 297.293 48.436 297.258 48.4034C297.223 48.3708 297.195 48.3317 297.175 48.2884C297.156 48.2452 297.146 48.1987 297.146 48.1517C297.146 48.1047 297.156 48.0581 297.175 48.0149C297.195 47.9716 297.223 47.9325 297.258 47.8999C297.293 47.8673 297.335 47.8418 297.381 47.8251C297.426 47.8083 297.475 47.8005 297.524 47.8022H307.178C307.226 47.8005 307.275 47.8083 307.321 47.8251C307.367 47.8418 307.408 47.8673 307.444 47.8999C307.479 47.9325 307.507 47.9716 307.526 48.0149C307.545 48.0581 307.555 48.1047 307.555 48.1517C307.555 48.1987 307.545 48.2452 307.526 48.2884C307.507 48.3317 307.479 48.3708 307.444 48.4034C307.408 48.436 307.367 48.4615 307.321 48.4783C307.275 48.4951 307.226 48.5028 307.178 48.5011H307.177Z" fill="#367CFF"/>
<path d="M221.577 42.1947H213.379C213.283 42.1947 213.19 42.1578 213.122 42.0923C213.053 42.0267 213.015 41.9378 213.015 41.845C213.015 41.7523 213.053 41.6634 213.122 41.5978C213.19 41.5322 213.283 41.4954 213.379 41.4954H221.577C221.674 41.4954 221.766 41.5322 221.834 41.5978C221.903 41.6634 221.941 41.7523 221.941 41.845C221.941 41.9378 221.903 42.0267 221.834 42.0923C221.766 42.1578 221.674 42.1947 221.577 42.1947Z" fill="#0CBC8B"/>
<path d="M285.339 42.1947H229.458C229.361 42.1947 229.269 42.1578 229.2 42.0923C229.132 42.0267 229.094 41.9378 229.094 41.845C229.094 41.7523 229.132 41.6634 229.2 41.5978C229.269 41.5322 229.361 41.4954 229.458 41.4954H285.339C285.436 41.4954 285.528 41.5322 285.596 41.5978C285.665 41.6634 285.703 41.7523 285.703 41.845C285.703 41.9378 285.665 42.0267 285.596 42.0923C285.528 42.1578 285.436 42.1947 285.339 42.1947Z" fill="#367CFF"/>
<path d="M324.141 42.1947H294.104C294.008 42.1947 293.915 42.1578 293.847 42.0923C293.779 42.0267 293.74 41.9378 293.74 41.845C293.74 41.7523 293.779 41.6634 293.847 41.5978C293.915 41.5322 294.008 41.4954 294.104 41.4954H324.141C324.238 41.4954 324.33 41.5322 324.399 41.5978C324.467 41.6634 324.505 41.7523 324.505 41.845C324.505 41.9378 324.467 42.0267 324.399 42.0923C324.33 42.1578 324.238 42.1947 324.141 42.1947Z" fill="#292A2E"/>
<path d="M267.803 54.805H213.379C213.283 54.805 213.19 54.7682 213.122 54.7026C213.053 54.637 213.015 54.5481 213.015 54.4554C213.015 54.3626 213.053 54.2737 213.122 54.2081C213.19 54.1426 213.283 54.1057 213.379 54.1057H267.803C267.899 54.1057 267.992 54.1426 268.06 54.2081C268.128 54.2737 268.167 54.3626 268.167 54.4554C268.167 54.5481 268.128 54.637 268.06 54.7026C267.992 54.7682 267.899 54.805 267.803 54.805Z" fill="#292A2E"/>
<path d="M292.618 54.805H275.684C275.587 54.805 275.495 54.7682 275.426 54.7026C275.358 54.637 275.32 54.5481 275.32 54.4554C275.32 54.3626 275.358 54.2737 275.426 54.2081C275.495 54.1426 275.587 54.1057 275.684 54.1057H292.618C292.714 54.1057 292.807 54.1426 292.875 54.2081C292.943 54.2737 292.982 54.3626 292.982 54.4554C292.982 54.5481 292.943 54.637 292.875 54.7026C292.807 54.7682 292.714 54.805 292.618 54.805Z" fill="#0CBC8B"/>
<path d="M324.078 54.805H299.865C299.769 54.805 299.676 54.7682 299.608 54.7026C299.539 54.637 299.501 54.5481 299.501 54.4554C299.501 54.3626 299.539 54.2737 299.608 54.2081C299.676 54.1426 299.769 54.1057 299.865 54.1057H324.078C324.175 54.1057 324.267 54.1426 324.336 54.2081C324.404 54.2737 324.442 54.3626 324.442 54.4554C324.442 54.5481 324.404 54.637 324.336 54.7026C324.267 54.7682 324.175 54.805 324.078 54.805Z" fill="#292A2E"/>
<path d="M221.577 61.1139H213.379C213.283 61.1139 213.19 61.077 213.122 61.0115C213.053 60.9459 213.015 60.8569 213.015 60.7642C213.015 60.6715 213.053 60.5825 213.122 60.517C213.19 60.4514 213.283 60.4146 213.379 60.4146H221.577C221.674 60.4146 221.766 60.4514 221.834 60.517C221.903 60.5825 221.941 60.6715 221.941 60.7642C221.941 60.8569 221.903 60.9459 221.834 61.0115C221.766 61.077 221.674 61.1139 221.577 61.1139Z" fill="#367CFF"/>
<path d="M285.339 61.1139H229.458C229.361 61.1139 229.269 61.077 229.2 61.0115C229.132 60.9459 229.094 60.8569 229.094 60.7642C229.094 60.6715 229.132 60.5825 229.2 60.517C229.269 60.4514 229.361 60.4146 229.458 60.4146H285.339C285.436 60.4146 285.528 60.4514 285.596 60.517C285.665 60.5825 285.703 60.6715 285.703 60.7642C285.703 60.8569 285.665 60.9459 285.596 61.0115C285.528 61.077 285.436 61.1139 285.339 61.1139Z" fill="#0CBC8B"/>
<path d="M266.347 86.3404H211.924C211.827 86.3404 211.734 86.3036 211.666 86.238C211.598 86.1724 211.56 86.0835 211.56 85.9908C211.56 85.898 211.598 85.8091 211.666 85.7435C211.734 85.678 211.827 85.6411 211.924 85.6411H266.347C266.443 85.6411 266.536 85.678 266.604 85.7435C266.672 85.8091 266.711 85.898 266.711 85.9908C266.711 86.0835 266.672 86.1724 266.604 86.238C266.536 86.3036 266.443 86.3404 266.347 86.3404Z" fill="#292A2E"/>
<path d="M305.721 86.3404H274.227C274.13 86.3404 274.038 86.3036 273.969 86.238C273.901 86.1724 273.863 86.0835 273.863 85.9908C273.863 85.898 273.901 85.8091 273.969 85.7435C274.038 85.678 274.13 85.6411 274.227 85.6411H305.721C305.818 85.6411 305.91 85.678 305.978 85.7435C306.047 85.8091 306.085 85.898 306.085 85.9908C306.085 86.0835 306.047 86.1724 305.978 86.238C305.91 86.3036 305.818 86.3404 305.721 86.3404Z" fill="#367CFF"/>
<path d="M234.683 80.0338H211.924C211.827 80.0338 211.734 79.997 211.666 79.9314C211.598 79.8658 211.56 79.7769 211.56 79.6841C211.56 79.5914 211.598 79.5025 211.666 79.4369C211.734 79.3713 211.827 79.3345 211.924 79.3345H234.683C234.78 79.3345 234.873 79.3713 234.941 79.4369C235.009 79.5025 235.047 79.5914 235.047 79.6841C235.047 79.7769 235.009 79.8658 234.941 79.9314C234.873 79.997 234.78 80.0338 234.683 80.0338Z" fill="#0CBC8B"/>
<path d="M283.882 80.0338H242.561C242.464 80.0338 242.372 79.997 242.303 79.9314C242.235 79.8658 242.197 79.7769 242.197 79.6841C242.197 79.5914 242.235 79.5025 242.303 79.4369C242.372 79.3713 242.464 79.3345 242.561 79.3345H283.882C283.978 79.3345 284.071 79.3713 284.139 79.4369C284.207 79.5025 284.246 79.5914 284.246 79.6841C284.246 79.7769 284.207 79.8658 284.139 79.9314C284.071 79.997 283.978 80.0338 283.882 80.0338Z" fill="#367CFF"/>
<path d="M322.686 80.0338H292.649C292.552 80.0338 292.46 79.997 292.391 79.9314C292.323 79.8658 292.285 79.7769 292.285 79.6841C292.285 79.5914 292.323 79.5025 292.391 79.4369C292.46 79.3713 292.552 79.3345 292.649 79.3345H322.686C322.782 79.3345 322.875 79.3713 322.943 79.4369C323.011 79.5025 323.05 79.5914 323.05 79.6841C323.05 79.7769 323.011 79.8658 322.943 79.9314C322.875 79.997 322.782 80.0338 322.686 80.0338Z" fill="#292A2E"/>
<path d="M288.186 98.9527H211.924C211.827 98.9527 211.734 98.9159 211.666 98.8503C211.598 98.7847 211.56 98.6958 211.56 98.6031C211.56 98.5103 211.598 98.4214 211.666 98.3558C211.734 98.2903 211.827 98.2534 211.924 98.2534H288.186C288.283 98.2534 288.375 98.2903 288.444 98.3558C288.512 98.4214 288.55 98.5103 288.55 98.6031C288.55 98.6958 288.512 98.7847 288.444 98.8503C288.375 98.9159 288.283 98.9527 288.186 98.9527Z" fill="#367CFF"/>
<path d="M310.635 98.9527H296.068C295.971 98.9527 295.879 98.9159 295.81 98.8503C295.742 98.7847 295.704 98.6958 295.704 98.6031C295.704 98.5103 295.742 98.4214 295.81 98.3558C295.879 98.2903 295.971 98.2534 296.068 98.2534H310.635C310.731 98.2534 310.824 98.2903 310.892 98.3558C310.96 98.4214 310.999 98.5103 310.999 98.6031C310.999 98.6958 310.96 98.7847 310.892 98.8503C310.824 98.9159 310.731 98.9527 310.635 98.9527Z" fill="#292A2E"/>
<path d="M220.121 92.6456H211.923C211.874 92.6474 211.826 92.6396 211.78 92.6228C211.734 92.606 211.693 92.5806 211.657 92.5479C211.622 92.5153 211.594 92.4762 211.575 92.433C211.556 92.3897 211.546 92.3432 211.546 92.2962C211.546 92.2492 211.556 92.2027 211.575 92.1594C211.594 92.1162 211.622 92.0771 211.657 92.0444C211.693 92.0118 211.734 91.9864 211.78 91.9696C211.826 91.9528 211.874 91.945 211.923 91.9468H220.121C220.17 91.945 220.218 91.9528 220.264 91.9696C220.31 91.9864 220.351 92.0118 220.387 92.0444C220.422 92.0771 220.45 92.1162 220.469 92.1594C220.488 92.2027 220.498 92.2492 220.498 92.2962C220.498 92.3432 220.488 92.3897 220.469 92.433C220.45 92.4762 220.422 92.5153 220.387 92.5479C220.351 92.5806 220.31 92.606 220.264 92.6228C220.218 92.6396 220.17 92.6474 220.121 92.6456Z" fill="#367CFF"/>
<path d="M283.881 92.6456H228.001C227.952 92.6474 227.903 92.6396 227.858 92.6228C227.812 92.606 227.77 92.5806 227.735 92.5479C227.7 92.5153 227.672 92.4762 227.653 92.433C227.633 92.3897 227.624 92.3432 227.624 92.2962C227.624 92.2492 227.633 92.2027 227.653 92.1594C227.672 92.1162 227.7 92.0771 227.735 92.0444C227.77 92.0118 227.812 91.9864 227.858 91.9696C227.903 91.9528 227.952 91.945 228.001 91.9468H283.881C283.93 91.945 283.979 91.9528 284.025 91.9696C284.07 91.9864 284.112 92.0118 284.147 92.0444C284.182 92.0771 284.21 92.1162 284.23 92.1594C284.249 92.2027 284.259 92.2492 284.259 92.2962C284.259 92.3432 284.249 92.3897 284.23 92.433C284.21 92.4762 284.182 92.5153 284.147 92.5479C284.112 92.5806 284.07 92.606 284.025 92.6228C283.979 92.6396 283.93 92.6474 283.881 92.6456Z" fill="#292A2E"/>
<path d="M322.685 92.6456H292.648C292.6 92.6474 292.551 92.6396 292.505 92.6228C292.459 92.606 292.418 92.5806 292.382 92.5479C292.347 92.5153 292.319 92.4762 292.3 92.433C292.281 92.3897 292.271 92.3432 292.271 92.2962C292.271 92.2492 292.281 92.2027 292.3 92.1594C292.319 92.1162 292.347 92.0771 292.382 92.0444C292.418 92.0118 292.459 91.9864 292.505 91.9696C292.551 91.9528 292.6 91.945 292.648 91.9468H322.685C322.734 91.945 322.783 91.9528 322.829 91.9696C322.874 91.9864 322.916 92.0118 322.951 92.0444C322.987 92.0771 323.015 92.1162 323.034 92.1594C323.053 92.2027 323.063 92.2492 323.063 92.2962C323.063 92.3432 323.053 92.3897 323.034 92.433C323.015 92.4762 322.987 92.5153 322.951 92.5479C322.916 92.5806 322.874 92.606 322.829 92.6228C322.783 92.6396 322.734 92.6474 322.685 92.6456Z" fill="#0CBC8B"/>
<path d="M266.347 105.259H211.924C211.827 105.259 211.734 105.222 211.666 105.157C211.598 105.091 211.56 105.002 211.56 104.909C211.56 104.817 211.598 104.728 211.666 104.662C211.734 104.597 211.827 104.56 211.924 104.56H266.347C266.443 104.56 266.536 104.597 266.604 104.662C266.672 104.728 266.711 104.817 266.711 104.909C266.711 105.002 266.672 105.091 266.604 105.157C266.536 105.222 266.443 105.259 266.347 105.259Z" fill="#0CBC8B"/>
<path d="M291.161 105.259H274.228C274.131 105.259 274.039 105.222 273.97 105.157C273.902 105.091 273.864 105.002 273.864 104.909C273.864 104.817 273.902 104.728 273.97 104.662C274.039 104.597 274.131 104.56 274.228 104.56H291.161C291.258 104.56 291.351 104.597 291.419 104.662C291.487 104.728 291.526 104.817 291.526 104.909C291.526 105.002 291.487 105.091 291.419 105.157C291.351 105.222 291.258 105.259 291.161 105.259Z" fill="#292A2E"/>
<path d="M322.622 105.259H298.408C298.312 105.259 298.219 105.222 298.151 105.157C298.083 105.091 298.044 105.002 298.044 104.909C298.044 104.817 298.083 104.728 298.151 104.662C298.219 104.597 298.312 104.56 298.408 104.56H322.622C322.718 104.56 322.811 104.597 322.879 104.662C322.947 104.728 322.986 104.817 322.986 104.909C322.986 105.002 322.947 105.091 322.879 105.157C322.811 105.222 322.718 105.259 322.622 105.259H322.622Z" fill="#367CFF"/>
<path d="M187.059 108.704C187.011 108.704 186.964 108.695 186.92 108.678C186.875 108.66 186.835 108.635 186.801 108.602C186.768 108.57 186.741 108.531 186.723 108.489C186.704 108.446 186.695 108.401 186.695 108.355V12.2671C186.695 12.1744 186.733 12.0855 186.801 12.0199C186.87 11.9543 186.962 11.9175 187.059 11.9175C187.155 11.9175 187.248 11.9543 187.316 12.0199C187.385 12.0855 187.423 12.1744 187.423 12.2671V108.355C187.423 108.401 187.414 108.446 187.395 108.489C187.377 108.531 187.35 108.57 187.316 108.602C187.282 108.635 187.242 108.66 187.198 108.678C187.154 108.695 187.107 108.704 187.059 108.704Z" fill="#292A2E"/>
<path d="M170.411 16.6327H154.646C154.55 16.6327 154.457 16.5958 154.389 16.5303C154.321 16.4647 154.282 16.3757 154.282 16.283C154.282 16.1903 154.321 16.1013 154.389 16.0358C154.457 15.9702 154.55 15.9333 154.646 15.9333H170.409C170.506 15.9333 170.598 15.9702 170.667 16.0358C170.735 16.1013 170.773 16.1903 170.773 16.283C170.773 16.3757 170.735 16.4647 170.667 16.5303C170.598 16.5958 170.506 16.6327 170.409 16.6327H170.411Z" fill="#292A2E"/>
<path d="M165.663 23.5277H154.646C154.597 23.5294 154.548 23.5217 154.503 23.5049C154.457 23.4881 154.415 23.4626 154.38 23.43C154.345 23.3974 154.317 23.3583 154.298 23.315C154.278 23.2718 154.269 23.2253 154.269 23.1783C154.269 23.1313 154.278 23.0848 154.298 23.0415C154.317 22.9982 154.345 22.9591 154.38 22.9265C154.415 22.8939 154.457 22.8684 154.503 22.8517C154.548 22.8349 154.597 22.8271 154.646 22.8288H165.661C165.755 22.8322 165.844 22.8704 165.909 22.9356C165.975 23.0008 166.011 23.0878 166.011 23.1783C166.011 23.2688 165.975 23.3558 165.909 23.4209C165.844 23.4861 165.755 23.5244 165.661 23.5277H165.663Z" fill="#292A2E"/>
<path d="M175.348 30.4229H154.646C154.55 30.4229 154.457 30.3861 154.389 30.3205C154.321 30.255 154.282 30.166 154.282 30.0733C154.282 29.9806 154.321 29.8916 154.389 29.826C154.457 29.7605 154.55 29.7236 154.646 29.7236H175.346C175.443 29.7236 175.536 29.7605 175.604 29.826C175.672 29.8916 175.711 29.9806 175.711 30.0733C175.711 30.166 175.672 30.255 175.604 30.3205C175.536 30.3861 175.443 30.4229 175.346 30.4229H175.348Z" fill="#292A2E"/>
<path d="M179.21 37.3182H161.928C161.879 37.32 161.831 37.3122 161.785 37.2954C161.739 37.2786 161.697 37.2532 161.662 37.2205C161.627 37.1879 161.599 37.1488 161.58 37.1056C161.561 37.0623 161.551 37.0158 161.551 36.9688C161.551 36.9218 161.561 36.8753 161.58 36.832C161.599 36.7888 161.627 36.7497 161.662 36.7171C161.697 36.6844 161.739 36.659 161.785 36.6422C161.831 36.6254 161.879 36.6177 161.928 36.6194H179.21C179.259 36.6177 179.307 36.6254 179.353 36.6422C179.399 36.659 179.44 36.6844 179.476 36.7171C179.511 36.7497 179.539 36.7888 179.558 36.832C179.577 36.8753 179.587 36.9218 179.587 36.9688C179.587 37.0158 179.577 37.0623 179.558 37.1056C179.539 37.1488 179.511 37.1879 179.476 37.2205C179.44 37.2532 179.399 37.2786 179.353 37.2954C179.307 37.3122 179.259 37.32 179.21 37.3182Z" fill="#292A2E"/>
<path d="M170.853 44.2135H161.928C161.831 44.2135 161.738 44.1766 161.67 44.1111C161.602 44.0455 161.563 43.9566 161.563 43.8638C161.563 43.7711 161.602 43.6821 161.67 43.6166C161.738 43.551 161.831 43.5142 161.928 43.5142H170.853C170.95 43.5142 171.042 43.551 171.11 43.6166C171.179 43.6821 171.217 43.7711 171.217 43.8638C171.217 43.9566 171.179 44.0455 171.11 44.1111C171.042 44.1766 170.95 44.2135 170.853 44.2135Z" fill="#292A2E"/>
<path d="M177.689 51.1097H161.928C161.831 51.1097 161.738 51.0729 161.67 51.0073C161.602 50.9417 161.563 50.8528 161.563 50.7601C161.563 50.6673 161.602 50.5784 161.67 50.5128C161.738 50.4472 161.831 50.4104 161.928 50.4104H177.689C177.785 50.4104 177.878 50.4472 177.946 50.5128C178.015 50.5784 178.053 50.6673 178.053 50.7601C178.053 50.8528 178.015 50.9417 177.946 51.0073C177.878 51.0729 177.785 51.1097 177.689 51.1097Z" fill="#292A2E"/>
<path d="M166.802 58.004H154.646C154.55 58.004 154.457 57.9672 154.389 57.9016C154.321 57.836 154.282 57.7471 154.282 57.6543C154.282 57.5616 154.321 57.4727 154.389 57.4071C154.457 57.3415 154.55 57.3047 154.646 57.3047H166.8C166.897 57.3047 166.989 57.3415 167.058 57.4071C167.126 57.4727 167.164 57.5616 167.164 57.6543C167.164 57.7471 167.126 57.836 167.058 57.9016C166.989 57.9672 166.897 58.004 166.8 58.004H166.802Z" fill="#292A2E"/>
<path d="M162.624 64.8995H154.646C154.55 64.8995 154.457 64.8627 154.389 64.7971C154.321 64.7315 154.282 64.6426 154.282 64.5499C154.282 64.4571 154.321 64.3682 154.389 64.3026C154.457 64.237 154.55 64.2002 154.646 64.2002H162.622C162.719 64.2002 162.811 64.237 162.879 64.3026C162.948 64.3682 162.986 64.4571 162.986 64.5499C162.986 64.6426 162.948 64.7315 162.879 64.7971C162.811 64.8627 162.719 64.8995 162.622 64.8995H162.624Z" fill="#292A2E"/>
<path d="M194.596 15.1542V15.2802L199.147 16.9021C199.212 16.9275 199.267 16.9711 199.306 17.0272C199.345 17.0833 199.365 17.1494 199.365 17.2168V17.3357C199.366 17.3884 199.353 17.4404 199.327 17.4869C199.301 17.5334 199.263 17.5728 199.217 17.6014C199.171 17.6326 199.118 17.6521 199.062 17.6582C199.006 17.6643 198.949 17.6568 198.897 17.6363L193.758 15.7063C193.694 15.6818 193.638 15.6394 193.599 15.5846C193.56 15.5298 193.539 15.465 193.539 15.3987V15.0424C193.539 14.9758 193.559 14.9107 193.598 14.8557C193.637 14.8007 193.693 14.7585 193.758 14.7347L198.897 12.8C198.939 12.7862 198.983 12.779 199.028 12.7788C199.095 12.7802 199.161 12.7997 199.217 12.835C199.264 12.865 199.301 12.9057 199.327 12.9533C199.353 13.001 199.366 13.054 199.365 13.1077V13.2261C199.366 13.2929 199.346 13.3584 199.307 13.4135C199.268 13.4687 199.212 13.5107 199.147 13.5338L194.596 15.1542Z" fill="#367CFF"/>
<path d="M203.616 11.3715L200.894 19.3768C200.872 19.4437 200.828 19.5022 200.769 19.5436C200.71 19.5851 200.639 19.6075 200.566 19.6076C200.513 19.6084 200.461 19.5967 200.414 19.5735C200.367 19.5503 200.327 19.5163 200.296 19.4745C200.264 19.4331 200.242 19.3851 200.232 19.3342C200.222 19.2833 200.224 19.2309 200.238 19.181L202.961 11.1827C202.984 11.1149 203.029 11.0558 203.089 11.0136C203.149 10.9713 203.222 10.948 203.296 10.9468C203.349 10.9467 203.401 10.9588 203.447 10.9819C203.494 11.0051 203.535 11.0386 203.565 11.0798C203.597 11.121 203.619 11.1689 203.628 11.2197C203.637 11.2704 203.633 11.3225 203.616 11.3715Z" fill="#367CFF"/>
<path d="M210.302 15.0421V15.3984C210.303 15.4641 210.283 15.5285 210.246 15.5834C210.208 15.6383 210.154 15.681 210.091 15.706L204.944 17.636C204.893 17.6563 204.837 17.6637 204.783 17.6576C204.728 17.6515 204.676 17.632 204.631 17.6011C204.584 17.5725 204.546 17.5333 204.519 17.4869C204.493 17.4405 204.479 17.3884 204.478 17.3354V17.2165C204.477 17.148 204.498 17.0809 204.539 17.0245C204.579 16.9681 204.637 16.9252 204.704 16.9018L209.254 15.2799V15.1539L204.704 13.5316C204.637 13.5103 204.579 13.469 204.538 13.4136C204.498 13.3582 204.477 13.2917 204.478 13.224V13.1055C204.478 13.0515 204.493 12.9984 204.519 12.9509C204.546 12.9033 204.584 12.8628 204.631 12.8328C204.687 12.7976 204.753 12.7781 204.82 12.7766C204.862 12.7762 204.904 12.7834 204.944 12.7979L210.091 14.7326C210.155 14.757 210.21 14.7998 210.248 14.8552C210.285 14.9106 210.304 14.9759 210.302 15.0421Z" fill="#367CFF"/>
<path d="M23.335 238.257C20.3668 238.257 17.4426 237.568 14.8114 236.248C12.1801 234.929 9.91968 233.019 8.22243 230.68C6.52518 228.342 5.44137 225.644 5.06322 222.816C4.68508 219.989 5.0238 217.116 6.05056 214.441C7.09267 211.725 33.8229 145.456 38.4782 133.939L70.6454 151.917C68.0296 158.393 58.5499 182.941 50.9343 202.715L63.5865 201.394L67.5663 233.746L25.3283 238.154C24.6663 238.223 24.0009 238.257 23.335 238.257Z" fill="#367CFF"/>
<path d="M128.55 120.16C128.437 120.146 125.342 131.334 101.183 129.593C84.4583 128.389 80.3803 117.456 79.9971 117.456C81.8002 117.088 84.7286 116.706 85.5294 116.295C88.1629 114.936 90.0811 113.282 91.047 109.731C91.8022 106.955 92.1869 96.266 92.1869 90.9036L117.923 96.4575C117.564 102.507 115.053 116.531 123.853 119.013C125.317 119.421 126.894 119.799 128.55 120.16Z" fill="#E98862"/>
<path d="M117.032 108.349C106.887 109.118 93.8538 105.004 91.378 92.0039L89.1444 80.274C86.6686 67.2738 91.7715 55.4864 104.517 53.2478C117.261 51.0093 128.795 59.8744 131.27 72.8745L132.259 78.068C133.209 83.0557 135.134 106.978 117.032 108.349Z" fill="#E98862"/>
<path d="M69.0074 119.254C59.8903 119.904 50.5939 120.852 43.8853 126.817C35.8059 134.001 34.3417 142.834 39.4962 167.142C43.931 188.058 42.1715 197.197 45.1387 235.793C45.2261 236.93 45.4133 239.282 45.4133 239.282L142.942 239.126C142.942 239.126 152.081 187.92 157.126 164.302C160.963 146.347 171.041 124.549 128.548 120.157C128.438 120.145 94.3599 117.448 69.0074 119.254Z" fill="#367CFF"/>
<path d="M45.4152 239.518C45.3516 239.518 45.2905 239.494 45.2447 239.452C45.1989 239.409 45.1719 239.352 45.1695 239.291L42.113 163.095C42.1117 163.064 42.1169 163.033 42.1281 163.004C42.1393 162.975 42.1563 162.948 42.1783 162.925C42.2002 162.902 42.2266 162.884 42.256 162.871C42.2853 162.858 42.317 162.851 42.3493 162.85C42.3819 162.847 42.4146 162.851 42.4455 162.862C42.4764 162.872 42.5047 162.888 42.5286 162.91C42.5526 162.931 42.5717 162.957 42.5847 162.986C42.5977 163.014 42.6044 163.045 42.6043 163.077L45.6609 239.273C45.6632 239.335 45.6397 239.396 45.5954 239.442C45.5511 239.488 45.4896 239.515 45.4245 239.517L45.4152 239.518Z" fill="#0C0C0C"/>
<path d="M201.912 146.459L208.764 131.697C208.914 131.373 209.133 131.082 209.407 130.844C209.681 130.605 210.004 130.424 210.355 130.312C210.706 130.2 211.077 130.159 211.445 130.192C211.813 130.226 212.17 130.332 212.493 130.505C213.079 130.842 213.514 131.376 213.714 132.004C213.913 132.632 213.862 133.308 213.571 133.902L212.102 137.068L221.48 129.151C222.506 128.254 224.364 127.782 225.337 128.954C225.742 129.382 225.984 129.929 226.023 130.506C226.063 131.083 225.898 131.655 225.555 132.131C225.567 132.137 225.577 132.146 225.586 132.155C225.592 132.163 225.597 132.172 225.602 132.181L227.185 130.797C227.478 130.54 227.828 130.35 228.207 130.24C228.587 130.13 228.987 130.102 229.379 130.159C229.771 130.217 230.145 130.357 230.473 130.571C230.801 130.784 231.076 131.066 231.277 131.394C231.582 131.917 231.691 132.525 231.586 133.116C231.48 133.708 231.167 134.246 230.697 134.642L230.023 135.231C230.032 135.258 230.035 135.286 230.034 135.313C230.586 135.017 231.229 134.918 231.849 135.036C232.469 135.153 233.025 135.478 233.418 135.953C233.833 136.485 234.023 137.147 233.952 137.808C233.88 138.468 233.551 139.079 233.032 139.517L231.359 140.98C231.398 140.975 231.437 140.98 231.474 140.993C231.511 141.005 231.544 141.027 231.57 141.054C231.6 141.088 231.619 141.13 231.624 141.174C232.191 141.041 232.789 141.091 233.324 141.315C233.859 141.54 234.303 141.927 234.586 142.417C234.874 142.938 234.969 143.537 234.858 144.117C234.746 144.696 234.435 145.223 233.973 145.611L219.854 157.956C217.879 159.683 215.412 160.804 212.769 161.175C210.126 161.547 207.428 161.152 205.02 160.041C202.944 159.083 201.339 157.386 200.545 155.309C199.751 153.233 199.832 150.941 200.77 148.921L201.912 146.459Z" fill="#E98862"/>
<g opacity="0.2">
<path d="M216.311 140.009C216.355 140.055 216.415 140.082 216.48 140.085C216.544 140.088 216.607 140.067 216.655 140.026L225.564 132.486C225.612 132.444 225.642 132.386 225.646 132.324C225.65 132.261 225.629 132.2 225.585 132.153C225.542 132.106 225.481 132.077 225.416 132.073C225.351 132.069 225.287 132.09 225.238 132.132L216.331 139.672C216.306 139.692 216.286 139.717 216.272 139.745C216.258 139.773 216.25 139.803 216.248 139.834C216.246 139.865 216.25 139.896 216.26 139.925C216.271 139.954 216.287 139.981 216.308 140.005L216.311 140.009Z" fill="#0C0C0C"/>
</g>
<g opacity="0.2">
<path d="M219.666 143.874C219.709 143.92 219.77 143.947 219.834 143.95C219.898 143.954 219.961 143.932 220.009 143.891L229.951 135.477C229.975 135.456 229.995 135.431 230.009 135.404C230.023 135.376 230.032 135.345 230.034 135.315C230.036 135.284 230.031 135.253 230.021 135.223C230.01 135.194 229.994 135.167 229.973 135.144C229.928 135.098 229.868 135.071 229.804 135.067C229.739 135.063 229.676 135.083 229.626 135.122L219.684 143.537C219.66 143.558 219.64 143.583 219.626 143.611C219.612 143.638 219.604 143.669 219.602 143.7C219.6 143.731 219.604 143.762 219.614 143.791C219.625 143.82 219.641 143.847 219.663 143.871L219.666 143.874Z" fill="#0C0C0C"/>
</g>
<g opacity="0.2">
<path d="M223.273 148.08C223.317 148.126 223.377 148.153 223.442 148.156C223.506 148.159 223.569 148.138 223.617 148.097L231.547 141.385C231.596 141.343 231.626 141.285 231.63 141.222C231.634 141.16 231.612 141.098 231.569 141.052C231.526 141.005 231.465 140.976 231.4 140.972C231.335 140.968 231.271 140.989 231.222 141.031L223.292 147.743C223.268 147.764 223.248 147.789 223.234 147.816C223.22 147.844 223.211 147.875 223.209 147.905C223.207 147.936 223.212 147.967 223.222 147.997C223.233 148.026 223.249 148.053 223.271 148.076L223.273 148.08Z" fill="#0C0C0C"/>
</g>
<path d="M126.437 95.0253C124.69 86.5938 123.889 80.9686 123.981 75.0343C126.441 70.8884 125.795 66.1305 125.235 64.074C125.94 64.4599 126.678 64.7879 127.441 65.0546C127.795 65.173 128.178 65.1918 128.543 65.1087C128.908 65.0256 129.241 64.844 129.503 64.5854C129.765 64.3267 129.944 64.0018 130.02 63.6486C130.096 63.2955 130.065 62.9289 129.932 62.5919C128.027 57.8561 123.132 48.6536 113.027 45.5699C110.483 44.6191 103.986 43.4182 95.3652 44.554C88.0306 45.5204 71.4247 52.2031 68.8418 71.7514V71.7623C68.7563 72.4106 65.5465 89.0065 62.0856 97.6484C57.4332 109.266 50.901 112.875 51.0666 126.278C51.2798 143.52 84.2803 145.814 104.189 144.525C124.098 143.236 135.207 136.949 135.351 124.524C135.508 110.601 129.932 111.894 126.437 95.0253Z" fill="#0A0A0A"/>
<path d="M126.443 89.047C122.57 89.7274 118.672 86.2993 117.964 82.5795C117.256 78.8597 119.021 75.0347 123.98 75.0347L126.443 89.047Z" fill="#E98862"/>
<path d="M168.104 235.581C164.208 235.58 160.412 234.394 157.262 232.193C154.112 229.992 151.768 226.889 150.568 223.329L124.97 147.293L160.032 136.405L173.494 176.398L196.76 140.864L227.957 159.703L183.697 227.304C182.039 229.837 179.738 231.925 177.011 233.373C174.284 234.82 171.22 235.58 168.104 235.581Z" fill="#367CFF"/>
<path d="M147.447 214.585C147.432 214.585 147.417 214.584 147.402 214.581C147.338 214.57 147.281 214.534 147.244 214.483C147.207 214.431 147.193 214.368 147.205 214.306L155.907 168.94C155.913 168.909 155.925 168.88 155.943 168.854C155.96 168.828 155.983 168.806 156.009 168.788C156.036 168.77 156.066 168.758 156.098 168.752C156.129 168.745 156.162 168.745 156.193 168.75C156.225 168.756 156.255 168.767 156.283 168.784C156.31 168.801 156.333 168.823 156.351 168.848C156.37 168.874 156.383 168.903 156.389 168.933C156.396 168.963 156.397 168.995 156.391 169.025L147.688 214.394C147.678 214.447 147.648 214.496 147.604 214.531C147.56 214.566 147.504 214.585 147.447 214.585Z" fill="#0C0C0C"/>
<path d="M176.626 187.106C176.572 187.106 176.519 187.089 176.476 187.057C176.433 187.025 176.402 186.98 176.388 186.93L173.489 176.206C173.473 176.145 173.482 176.081 173.515 176.027C173.548 175.973 173.602 175.934 173.665 175.918C173.729 175.902 173.796 175.911 173.852 175.943C173.908 175.975 173.949 176.027 173.965 176.087L176.864 186.811C176.873 186.846 176.874 186.883 176.866 186.918C176.859 186.953 176.843 186.986 176.82 187.015C176.797 187.043 176.767 187.066 176.734 187.082C176.7 187.098 176.663 187.106 176.625 187.106H176.626Z" fill="#0C0C0C"/>
<path d="M373.837 185.307H277.779C277.178 185.307 276.584 185.185 276.036 184.948C275.488 184.711 274.998 184.365 274.599 183.934C274.2 183.502 273.901 182.994 273.721 182.443C273.542 181.892 273.486 181.311 273.558 180.737L276.128 160.139C276.251 159.147 276.749 158.233 277.527 157.57C278.305 156.908 279.31 156.541 280.35 156.542H373.837C374.965 156.542 376.046 156.972 376.843 157.738C377.641 158.504 378.089 159.542 378.089 160.625V181.224C378.089 182.307 377.641 183.345 376.843 184.111C376.046 184.877 374.965 185.307 373.837 185.307Z" fill="#292A2E"/>
<path d="M303.763 185.5L307.871 170.36C307.962 170.028 307.979 169.68 307.922 169.341C307.865 169.001 307.735 168.677 307.54 168.388C307.346 168.1 307.09 167.853 306.791 167.665C306.491 167.476 306.154 167.35 305.801 167.293C302.878 166.763 302.522 170.63 301.969 172.484L299.86 161.054C299.538 157.97 295.222 157.869 294.903 160.941C294.88 160.938 294.856 160.941 294.836 160.952C294.938 155.337 288.465 155.771 289.573 160.693C289.549 160.708 289.529 160.726 289.512 160.748C288.431 158.026 284.001 159.3 284.599 162.187L284.943 164.263C284.922 164.242 284.897 164.226 284.87 164.214C284.842 164.202 284.813 164.196 284.783 164.195C284.753 164.194 284.723 164.2 284.695 164.21C284.667 164.22 284.641 164.236 284.62 164.256C283.133 162.235 279.49 163.718 280.05 166.248L282.958 183.779C284.621 195.117 301.994 198.922 303.763 185.5Z" fill="#E98862"/>
<g opacity="0.2">
<path d="M296.934 172.263C296.295 172.205 294.929 161.538 294.673 161.204C294.663 161.144 294.677 161.083 294.713 161.033C294.749 160.984 294.805 160.95 294.867 160.94C294.929 160.929 294.993 160.943 295.045 160.978C295.096 161.013 295.131 161.066 295.142 161.125L297.13 171.998C297.136 172.028 297.135 172.058 297.128 172.088C297.121 172.117 297.108 172.145 297.09 172.17C297.071 172.195 297.048 172.216 297.021 172.232C296.995 172.248 296.965 172.258 296.934 172.263Z" fill="#0C0C0C"/>
</g>
<g opacity="0.2">
<path d="M291.963 173.239C291.902 173.247 291.839 173.233 291.788 173.197C291.738 173.162 291.704 173.109 291.694 173.05L289.471 160.916C289.46 160.856 289.475 160.795 289.511 160.745C289.547 160.696 289.602 160.662 289.664 160.651C290.316 160.594 291.902 172.716 292.162 172.971C292.168 173.001 292.167 173.032 292.16 173.062C292.154 173.092 292.14 173.12 292.122 173.145C292.103 173.17 292.08 173.191 292.052 173.207C292.025 173.223 291.995 173.234 291.963 173.239Z" fill="#0C0C0C"/>
</g>
<g opacity="0.2">
<path d="M286.588 174.326C286.526 174.334 286.463 174.32 286.413 174.284C286.362 174.249 286.328 174.196 286.318 174.137L284.545 164.458C284.537 164.399 284.552 164.339 284.588 164.291C284.625 164.243 284.679 164.211 284.74 164.2C284.801 164.19 284.863 164.203 284.914 164.236C284.965 164.27 285.001 164.321 285.014 164.379L286.787 174.058C286.793 174.088 286.792 174.119 286.785 174.149C286.778 174.179 286.765 174.207 286.746 174.232C286.728 174.257 286.704 174.278 286.677 174.294C286.65 174.31 286.619 174.321 286.588 174.326Z" fill="#0C0C0C"/>
</g>
<path d="M157.741 239.519H43.5528L36.2959 185.97C36.1502 184.896 36.2449 183.804 36.5736 182.767C36.9023 181.731 37.4574 180.773 38.2018 179.959C38.9463 179.145 39.863 178.493 40.8908 178.046C41.9186 177.599 43.0338 177.368 44.162 177.368H142.344C144.271 177.367 146.133 178.041 147.581 179.261C149.029 180.482 149.966 182.168 150.215 184.003L157.741 239.519Z" fill="white"/>
<path d="M150.81 183.931C150.539 181.958 149.531 180.146 147.974 178.832C146.417 177.518 144.417 176.792 142.344 176.787H44.1624C43.0839 176.788 42.0153 176.985 41.013 177.367C40.589 177.527 40.1797 177.722 39.7896 177.948C38.3591 178.767 37.2095 179.97 36.4822 181.408C35.755 182.847 35.482 184.459 35.6968 186.045L42.9488 239.518H44.1624L36.8957 185.899C36.7609 184.906 36.8481 183.897 37.1516 182.939C37.4551 181.981 37.9678 181.097 38.6555 180.344C39.3432 179.592 40.1901 178.989 41.1398 178.575C42.0894 178.162 43.1198 177.948 44.1624 177.948H142.344C144.123 177.952 145.84 178.576 147.177 179.703C148.514 180.83 149.381 182.384 149.616 184.077L157.133 239.518H158.352L150.81 183.931Z" fill="#292A2E"/>
<path d="M151.08 239.519H36.8909L29.6339 185.97C29.4881 184.896 29.5826 183.804 29.9112 182.767C30.2397 181.73 30.7948 180.773 31.5393 179.959C32.2839 179.145 33.2007 178.492 34.2286 178.046C35.2565 177.599 36.3718 177.368 37.5001 177.368H135.681C137.607 177.368 139.468 178.041 140.915 179.262C142.363 180.483 143.298 182.168 143.547 184.003L151.08 239.519Z" fill="#292A2E"/>
<path d="M144.148 183.931C143.98 182.701 143.524 181.524 142.814 180.487C142.104 179.451 141.159 178.583 140.05 177.948C139.659 177.723 139.25 177.528 138.826 177.367C137.826 176.984 136.759 176.787 135.682 176.787H37.5C36.2856 176.786 35.085 177.035 33.9786 177.516C32.8722 177.996 31.8853 178.698 31.084 179.575C30.2827 180.451 29.6853 181.482 29.3319 182.597C28.9784 183.713 28.877 184.889 29.0344 186.045L36.2815 239.518H37.5L30.2332 185.899C30.0984 184.906 30.1857 183.897 30.4892 182.939C30.7926 181.981 31.3053 181.097 31.9931 180.344C32.6808 179.592 33.5277 178.989 34.4773 178.575C35.4269 178.162 36.4574 177.948 37.5 177.948H135.681C137.459 177.952 139.176 178.576 140.513 179.703C141.85 180.83 142.717 182.384 142.952 184.077L150.469 239.518H151.688L144.148 183.931Z" fill="#292A2E"/>
<path d="M344.903 122.497C345.016 122.483 346.266 142.406 370.364 140.669C387.048 139.469 392.996 122.47 393.379 122.47C391.58 122.102 388.551 121.568 387.752 121.159C385.125 119.803 381.383 118.393 380.536 113.493C380.048 110.669 380.876 96.2224 380.621 93.3647L355.504 98.8541C355.862 104.889 358.367 118.878 349.589 121.354C348.13 121.765 346.555 122.142 344.903 122.497Z" fill="#E98862"/>
<path d="M356.211 108.266C366.324 109.015 379.307 104.894 381.752 91.9325L383.957 80.2376C386.402 67.2761 381.295 55.5363 368.588 53.3261C355.881 51.1153 344.402 59.9705 341.958 72.9315L340.981 78.109C340.678 79.8923 340.502 81.6933 340.455 83.4997C340.291 88.2727 340.062 95.5325 342.518 100.865C344.842 105.901 349.752 107.787 356.211 108.266Z" fill="#E98862"/>
<path d="M378.891 52.6619C374.876 51.4596 370.712 50.7793 366.51 50.639C366.102 49.0983 365.195 47.9021 363.86 47.4001C361.639 46.5663 358.924 47.9092 357.118 50.4965C356.115 49.0186 354.754 47.687 352.951 47.1462C347.977 45.6584 347.73 52.5213 347.73 52.5213C347.73 52.5213 339.842 45.0464 339.596 54.5801C339.298 66.1151 341.504 69.498 343.114 70.3521C346.294 72.0385 348.663 71.7535 349.921 74.2347C353.732 81.7483 349.997 102.912 354.406 105.562C361.162 109.621 374.999 109.762 379.494 109.454C381.222 109.335 382.839 107.411 383.567 105.9C385.918 101.025 391.16 89.9717 392.619 85.4006C395.312 76.9663 395.109 57.7478 378.891 52.6619Z" fill="#0C0C0C"/>
<path d="M351.387 98.0031C355.288 97.5963 357.998 93.2579 357.574 89.5094C357.151 85.7608 353.755 84.0262 349.853 84.4324L348.127 87.1528L348.033 98.3513L351.387 98.0031Z" fill="#E98862"/>
<path d="M416.558 236.393L416.678 236.4C416.678 236.4 416.592 234.163 416.558 236.393Z" fill="#333333"/>
<path d="M310.259 166.58C311.021 175.174 314.727 228.791 315.459 239.377H416.386C416.956 229.829 419.516 188.084 421.678 169.412C423.742 151.596 427.791 142.676 424.823 137.409C419.973 128.801 406.72 123.827 397.683 122.652C392.165 121.935 391.028 121.42 388.778 121.42H349.919C346.224 121.42 322.627 124.839 317.789 128.255C304.402 137.71 308.643 148.368 310.259 166.58Z" fill="#367CFF"/>
<path d="M437.935 238.815C440.904 238.815 443.829 238.126 446.461 236.807C449.092 235.487 451.353 233.577 453.051 231.238C454.748 228.899 455.832 226.201 456.21 223.373C456.588 220.545 456.249 217.671 455.222 214.996C454.179 212.28 429.735 150.113 425.081 138.593L390.623 152.002C393.239 158.479 402.72 183.028 410.336 202.804L397.683 201.483L393.7 236.669L435.942 238.711C436.604 238.78 437.269 238.815 437.935 238.815Z" fill="#367CFF"/>
<path d="M418.27 169.772L415.791 239.367L416.461 239.389L418.941 169.794L418.27 169.772Z" fill="#0C0C0C"/>
<path d="M295.66 238.816C292.691 238.815 289.767 238.126 287.135 236.807C284.503 235.488 282.243 233.577 280.545 231.238C278.848 228.899 277.764 226.201 277.386 223.373C277.008 220.545 277.347 217.672 278.374 214.997C279.416 212.281 304.885 149.839 309.539 138.32L342.973 152.004C340.356 158.481 330.876 183.03 323.259 202.806L335.913 201.485L339.895 236.671L297.654 238.713C296.992 238.782 296.326 238.816 295.66 238.816Z" fill="#367CFF"/>
<path d="M323.18 198.68C323.122 198.68 323.065 198.667 323.014 198.642C322.962 198.617 322.917 198.58 322.883 198.535C322.849 198.49 322.826 198.438 322.817 198.383C322.807 198.328 322.812 198.272 322.829 198.219L331.775 171.17C331.789 171.124 331.812 171.082 331.843 171.045C331.873 171.008 331.912 170.978 331.955 170.955C331.999 170.933 332.046 170.919 332.095 170.915C332.144 170.91 332.194 170.916 332.241 170.93C332.288 170.944 332.331 170.968 332.369 170.998C332.406 171.029 332.437 171.067 332.459 171.109C332.481 171.151 332.494 171.198 332.497 171.245C332.5 171.292 332.493 171.339 332.477 171.384L323.532 198.43C323.508 198.503 323.462 198.566 323.399 198.611C323.335 198.656 323.259 198.68 323.18 198.68Z" fill="#0C0C0C"/>
<path d="M437.818 185.97L430.556 239.519H316.371L323.899 184.003C324.148 182.168 325.083 180.484 326.531 179.263C327.978 178.042 329.839 177.368 331.765 177.368H429.947C431.076 177.367 432.191 177.598 433.22 178.045C434.248 178.491 435.165 179.143 435.91 179.958C436.655 180.772 437.211 181.729 437.54 182.766C437.869 183.803 437.963 184.895 437.818 185.97Z" fill="white"/>
<path d="M436.363 179.576C435.776 178.934 435.088 178.385 434.325 177.948C433.933 177.722 433.522 177.528 433.096 177.367C432.094 176.985 431.025 176.788 429.947 176.787H331.765C329.692 176.792 327.693 177.519 326.136 178.833C324.579 180.147 323.571 181.958 323.299 183.931L315.762 239.518H316.98L324.498 184.077C324.731 182.384 325.597 180.829 326.933 179.702C328.269 178.575 329.986 177.952 331.765 177.948H429.947C430.989 177.949 432.02 178.163 432.969 178.576C433.919 178.99 434.766 179.592 435.454 180.345C436.142 181.097 436.655 181.982 436.96 182.939C437.264 183.897 437.352 184.906 437.218 185.899L429.947 239.518H431.165L438.412 186.045C438.57 184.889 438.468 183.714 438.115 182.598C437.761 181.482 437.164 180.452 436.363 179.576Z" fill="#292A2E"/>
<path d="M444.48 185.97L437.218 239.519H323.033L330.561 184.003C330.741 182.675 331.282 181.416 332.13 180.354C332.978 179.291 334.103 178.461 335.391 177.948C336.353 177.563 337.385 177.366 338.427 177.368H436.613C437.742 177.368 438.857 177.6 439.884 178.047C440.912 178.493 441.829 179.146 442.573 179.96C443.317 180.774 443.873 181.731 444.201 182.768C444.53 183.804 444.625 184.896 444.48 185.97Z" fill="#292A2E"/>
<path d="M443.026 179.576C442.224 178.7 441.238 177.999 440.132 177.518C439.027 177.037 437.827 176.788 436.614 176.787H338.427C336.891 176.789 335.383 177.19 334.064 177.948C332.954 178.582 332.008 179.451 331.297 180.487C330.587 181.523 330.13 182.701 329.962 183.931L322.425 239.518H323.643L331.16 184.077C331.394 182.384 332.259 180.829 333.595 179.702C334.931 178.575 336.648 177.952 338.427 177.948H436.614C437.656 177.948 438.687 178.162 439.637 178.575C440.586 178.988 441.433 179.591 442.121 180.344C442.809 181.097 443.321 181.981 443.625 182.939C443.928 183.897 444.015 184.906 443.881 185.899L436.614 239.518H437.827L445.08 186.045C445.235 184.888 445.132 183.713 444.778 182.598C444.424 181.482 443.827 180.452 443.026 179.576Z" fill="#292A2E"/>
<path d="M5.25702 239.849H454.045C454.136 239.849 454.224 239.814 454.288 239.752C454.353 239.69 454.389 239.606 454.389 239.518C454.389 239.431 454.353 239.347 454.288 239.285C454.224 239.223 454.136 239.188 454.045 239.188H5.25702C5.1658 239.188 5.07832 239.223 5.01382 239.285C4.94932 239.347 4.91309 239.431 4.91309 239.518C4.91309 239.606 4.94932 239.69 5.01382 239.752C5.07832 239.814 5.1658 239.849 5.25702 239.849Z" fill="#292A2E"/>
<g opacity="0.65">
<path d="M5.25702 239.849H454.045C454.136 239.849 454.224 239.814 454.288 239.752C454.353 239.69 454.389 239.606 454.389 239.518C454.389 239.431 454.353 239.347 454.288 239.285C454.224 239.223 454.136 239.188 454.045 239.188H5.25702C5.1658 239.188 5.07832 239.223 5.01382 239.285C4.94932 239.347 4.91309 239.431 4.91309 239.518C4.91309 239.606 4.94932 239.69 5.01382 239.752C5.07832 239.814 5.1658 239.849 5.25702 239.849Z" fill="#292A2E"/>
</g>
<path d="M277.236 221.406L278.816 181.509L300.644 180.399L302.63 221.406H277.236Z" fill="#367CFF"/>
</svg>
