<svg width="158" height="99" viewBox="0 0 158 99" fill="none" xmlns="http://www.w3.org/2000/svg">
<path d="M157.839 16.2735L154.346 41.0407L152.36 55.1215L148.123 85.1851C148.123 85.1851 140.379 90.123 127.498 94.0353C122.686 95.4999 117.142 96.8093 111.025 97.6682C101.025 99.0786 89.4628 99.2585 76.9362 96.8561C44.7076 90.6673 25.3661 68.2235 16.9921 56.9386C0.807573 35.1576 -1.68308 29.2687 2.81601 20.0995C6.2508 13.0723 12.1357 11.7891 12.1357 11.7891C12.1357 11.7891 11.8454 6.17378 16.5864 4.17667C30.7952 -1.80591 49.099 14.171 49.099 14.171C49.099 14.171 49.781 -3.01004 59.5891 0.956401C66.3463 3.69092 67.8788 22.3965 67.8788 22.3965C67.8788 22.3965 76.9487 33.3229 91.3573 34.7728C98.887 35.5307 109.307 33.4824 119.655 30.5079C119.775 30.4743 119.897 30.4421 120.017 30.4011C125.532 28.8049 131.011 26.9541 136.028 25.1237C138.279 24.3059 140.435 23.4865 142.458 22.7023C151.5 19.188 157.839 16.2735 157.839 16.2735Z" fill="white"/>
</svg>
