<svg width="59" height="70" viewBox="0 0 59 70" fill="none" xmlns="http://www.w3.org/2000/svg">
<path d="M24.3874 69.4627C20.6686 69.4627 16.3646 68.7004 11.569 65.8634C7.2759 63.3235 4.17507 59.2137 2.3539 53.6481C0.824552 48.9779 0.253393 43.2865 0.699712 37.1898C1.22874 29.9695 3.12324 22.5619 6.03056 16.332C8.25279 11.5726 12.0621 5.40568 17.588 3.05743C33.0048 -3.49428 49.0255 3.47881 49.6996 3.77874L50.2521 4.02455L50.6469 4.46201C58.6962 13.3605 59.1613 25.6548 58.1329 34.3997C56.9749 44.2536 53.2655 54.706 48.4512 61.679C43.6291 68.6624 39.5919 69.309 37.0544 68.6214C35.408 68.1751 33.3278 68.4868 30.9183 68.8482C29.0144 69.1349 26.8265 69.4627 24.3874 69.4627ZM31.8827 5.58858C27.5678 5.58858 23.5681 6.36255 19.9351 7.90757C16.9467 9.17753 13.7741 13.0269 11.235 18.4682C8.61954 24.0689 6.84517 31.0258 6.36608 37.5571C5.52026 49.0891 8.52121 57.7667 14.5996 61.363C20.7279 64.9885 25.4548 64.2789 30.0241 63.5927C32.9782 63.1494 35.7685 62.731 38.6353 63.5079C38.9645 63.562 41.3272 62.7076 44.659 57.2956C52.429 44.6764 57.3573 20.8442 46.7267 8.36845C45.522 7.8988 42.4212 6.79416 38.3637 6.13284C36.1337 5.77 33.9708 5.58858 31.8827 5.58858Z" fill="#00227B"/>
</svg>
