<svg width="29" height="110" viewBox="0 0 29 110" fill="none" xmlns="http://www.w3.org/2000/svg">
<path d="M1.47414 0.861083C5.09619 4.65195 6.75194 9.06463 8.28128 13.4963C9.04907 15.7129 9.80592 17.9339 10.5285 20.1651C10.8905 21.28 11.2619 22.3934 11.585 23.5185C11.9174 24.6407 12.2404 25.7673 12.565 26.8924L13.5138 30.2736C13.8259 31.4016 14.1411 32.5282 14.4345 33.6621L16.1589 40.4655C16.4398 41.6008 16.7473 42.7289 17.0219 43.8657L17.8443 47.2747L18.6886 50.6793C18.9726 51.8132 19.266 52.9456 19.5313 54.0839L21.1574 60.9063C21.4367 62.0417 21.6771 63.1858 21.9346 64.3256L22.6961 67.7477L23.0769 69.4581L23.2673 70.314L23.4452 71.1713L24.1583 74.6023C24.3955 75.7464 24.6406 76.8891 24.898 78.0288C25.1446 79.1715 25.3927 80.3142 25.6518 81.4554C26.7379 86.01 27.5307 90.6231 27.86 95.2963C27.9021 95.88 27.9505 96.4623 27.9801 97.049L28.0597 98.8062C28.1003 99.9796 28.1346 101.152 28.1159 102.332C28.1081 103.51 28.08 104.689 27.9989 105.873C27.9255 107.057 27.821 108.24 27.6306 109.433C27.5947 109.662 27.3653 109.82 27.1203 109.787C26.9533 109.763 26.8222 109.656 26.766 109.519L26.7645 109.513C25.8687 107.282 25.1368 105.04 24.4455 102.799C24.1053 101.678 23.7776 100.555 23.4608 99.4324L23.0051 97.7455C22.8615 97.1822 22.7133 96.6203 22.5634 96.0571C21.9829 93.8054 21.4711 91.5478 21.0107 89.28C20.7891 88.1447 20.5878 87.0064 20.4036 85.8652C20.2055 84.7254 20.0229 83.5842 19.834 82.443C19.6499 81.3003 19.4564 80.1606 19.2598 79.0208C19.0507 77.8825 18.8181 76.7486 18.5825 75.6147L17.8756 72.2131L17.6992 71.363L17.5104 70.5144L17.1327 68.8187L16.3774 65.4258C16.1215 64.2963 15.8827 63.1624 15.6065 62.0358L13.9929 55.2705C13.7338 54.141 13.4311 53.0202 13.1455 51.8966L12.2638 48.53L11.3602 45.1693C11.2136 44.6089 11.0466 44.0515 10.8874 43.4941L10.4021 41.8218L8.45293 35.1354C7.77878 32.913 7.089 30.695 6.43201 28.4681C6.10429 27.3547 5.77658 26.2413 5.45822 25.125L5.22102 24.2881L4.96977 23.4541L4.47509 21.7847C3.81497 19.5594 3.18918 17.3238 2.57276 15.0852L2.1202 13.4027C1.96882 12.8423 1.80185 12.2864 1.64268 11.7275C1.32588 10.6097 1.06059 9.47722 0.860839 8.32577C0.662648 7.17286 0.523759 6.00238 0.4707 4.80557C0.44261 4.20716 0.439482 3.60146 0.46289 2.98696C0.487859 2.37246 0.530001 1.75063 0.645481 1.10834L0.650168 1.08348C0.693863 0.840602 0.938872 0.676736 1.19792 0.717703C1.30872 0.736723 1.40548 0.789391 1.47414 0.861083Z" fill="#00227B"/>
</svg>
