<svg width="57" height="37" viewBox="0 0 57 37" fill="none" xmlns="http://www.w3.org/2000/svg">
<path d="M55.1132 5.97827C54.7933 4.88506 54.1692 3.88841 53.303 3.08757C52.4369 2.28673 51.359 1.70965 50.1767 1.41378C45.8481 0.322266 28.427 0.322266 28.427 0.322266C28.427 0.322266 11.005 0.355305 6.6764 1.44682C5.49402 1.7427 4.41611 2.31982 3.55 3.1207C2.68389 3.92157 2.0598 4.91826 1.73989 6.01152C0.430598 13.1227 -0.077302 23.9584 1.77585 30.7851C2.09579 31.8784 2.71989 32.875 3.58599 33.6758C4.4521 34.4767 5.53 35.0538 6.71235 35.3496C11.0409 36.4411 28.4625 36.4411 28.4625 36.4411C28.4625 36.4411 45.8838 36.4411 50.2122 35.3496C51.3946 35.0538 52.4725 34.4767 53.3387 33.6759C54.2048 32.875 54.829 31.8784 55.1489 30.7851C56.5299 23.6639 56.9554 12.8348 55.1132 5.97827Z" fill="#FF0000"/>
<path d="M22.8818 26.121L37.334 18.3813L22.8818 10.6416V26.121Z" fill="white"/>
</svg>
