<svg width="329" height="96" viewBox="0 0 329 96" fill="none" xmlns="http://www.w3.org/2000/svg">
<path d="M164.495 35.2488C176.801 35.2488 188.635 30.9678 197.878 23.3494C210.681 12.7976 232.234 0.213544 256.023 8.28543C265.569 11.5218 272.073 17.4605 276.512 24.0312C287.941 -0.797473 311.918 -2.28543 322.295 11.7866C322.295 11.7866 304.851 89.8104 299.166 91.5471C291.022 94.0344 271.452 91.4184 271.452 91.4184C271.452 91.4184 203.371 82.7773 164.495 82.7773C125.618 82.7773 57.5373 91.4184 57.5373 91.4184C57.5373 91.4184 37.9679 94.0329 29.8234 91.5471C24.1382 89.8104 6.69434 11.7866 6.69434 11.7866C17.0705 -2.28689 41.0485 -0.797473 52.478 24.0312C56.9146 17.459 63.4206 11.5218 72.9665 8.28543C96.7557 0.213544 118.309 12.7976 131.111 23.3494C140.355 30.9663 152.188 35.2488 164.495 35.2488Z" fill="white"/>
<g opacity="0.35">
<path d="M322.297 11.7827C322.297 11.7827 304.852 89.8094 299.167 91.5461C291.025 94.0348 271.451 91.4203 271.451 91.4203C271.451 91.4203 203.374 82.7763 164.494 82.7763C125.622 82.7763 57.5365 91.4203 57.5365 91.4203C57.5365 91.4203 37.9687 94.0348 29.8288 91.5461C24.1437 89.8094 6.69824 11.7827 6.69824 11.7827C8.40861 9.46665 10.481 7.57048 12.8094 6.13373C18.4024 29.0106 26.3363 58.8811 29.8288 59.9462C37.9702 62.4276 57.5365 59.8131 57.5365 59.8131C57.5365 59.8131 125.622 42.5252 164.494 42.5252C203.374 42.5252 271.451 59.8131 271.451 59.8131C271.451 59.8131 291.025 62.4276 299.167 59.9462C302.659 58.8811 310.593 29.0106 316.186 6.13373C318.514 7.57195 320.587 9.46811 322.297 11.7827Z" fill="#00227B"/>
</g>
<path d="M40.3198 95.2721C36.0501 95.2721 31.8787 94.9721 28.9449 94.0767C26.9442 93.4651 25.262 91.3861 22.105 82.1657C20.2573 76.7683 18.0397 69.2524 15.5163 59.8272C10.9719 42.8582 6.54309 23.8263 4.84988 16.4318C3.96349 12.5605 5.31649 8.55599 8.38298 5.98388C14.2694 1.04301 22.1596 -0.858998 30.0279 0.765035C34.9873 1.7892 39.8126 4.21647 43.9824 7.78495C47.4359 10.7419 50.4384 14.4347 52.9415 18.802C58.0212 12.7243 64.4163 8.35408 72.0037 5.7805C80.6008 2.8631 89.5959 2.28373 98.7407 4.05846C106.124 5.49229 113.632 8.46383 121.054 12.8941C122.377 13.6841 122.766 15.3286 121.924 16.5693C121.083 17.8101 119.328 18.1744 118.004 17.3858C102.728 8.26777 87.9011 6.04825 73.9357 10.7872C66.0596 13.4588 59.6473 18.3924 54.8798 25.4547C54.3164 26.2887 53.3052 26.7613 52.258 26.6852C51.2093 26.6076 50.2917 25.9931 49.8735 25.086C45.0982 14.7112 37.4203 7.74251 28.8075 5.96632C22.7432 4.71537 16.6789 6.16823 12.1705 9.95325C10.6193 11.2539 9.94198 13.3096 10.4023 15.3184C12.0004 22.2973 16.1889 40.3051 20.5522 56.7576C22.9508 65.801 25.0763 73.1589 26.8709 78.6235C29.3834 86.277 30.6958 88.5213 31.1624 89.1475C37.5763 90.833 52.0021 89.4724 57.1394 88.7862C57.1457 88.7847 57.1519 88.7847 57.1582 88.7832C57.8401 88.6969 125.876 80.1173 164.496 80.1173C203.119 80.1173 271.153 88.6969 271.835 88.7832C271.841 88.7847 271.849 88.7847 271.855 88.7862C276.994 89.4724 291.418 90.833 297.832 89.1475C298.291 88.533 299.567 86.353 301.995 79.0127C303.748 73.7192 305.822 66.5852 308.163 57.8096C312.336 42.1618 316.335 25.1358 318.348 16.3806C319.009 13.5115 317.862 10.5707 315.427 8.88811C310.781 5.67662 305.023 4.71831 299.216 6.19018C290.895 8.29849 283.759 15.0097 279.121 25.0875C278.704 25.9931 277.787 26.6091 276.736 26.6867C275.686 26.7642 274.678 26.2901 274.115 25.4562C269.347 18.3953 262.936 13.4603 255.06 10.7887C240.971 6.00874 226.018 8.30582 210.611 17.6155C209.292 18.4114 207.537 18.0558 206.686 16.8195C205.837 15.5847 206.216 13.9373 207.535 13.1399C215.002 8.62769 222.558 5.59031 229.993 4.11113C239.228 2.27348 248.312 2.83676 256.992 5.78197C264.58 8.35555 270.975 12.7273 276.056 18.805C281.388 9.51139 288.963 3.27277 297.735 1.05033C305.14 -0.826818 312.816 0.468024 318.798 4.60272C323.027 7.52598 325.029 12.5883 323.901 17.5014C321.769 26.7774 317.543 44.7485 313.196 60.8821C310.731 70.0308 308.565 77.3199 306.76 82.5446C303.679 91.4593 302.025 93.4768 300.048 94.0796C291.415 96.7161 272.053 94.1894 271.067 94.0577C269.999 93.9231 202.624 85.4415 164.498 85.4415C126.366 85.4415 58.9965 93.9231 57.9291 94.0577C57.2737 94.1411 48.6141 95.2721 40.3198 95.2721Z" fill="#00227B"/>
<path d="M294.111 91.5463H299.167C305.103 91.5463 310.486 88.2822 312.903 83.1994C320.472 67.3087 334.272 32.392 321.346 11.085C320.97 10.4632 320.567 9.86478 320.141 9.29124C320.141 9.29124 307.731 -1.29131 298.816 13.6791C290.489 27.6648 273.009 87.4628 294.111 91.5463Z" fill="#AFAFB2"/>
<g opacity="0.7">
<g opacity="0.7">
<g opacity="0.7">
<g opacity="0.7">
<path opacity="0.7" d="M294.25 23.6495C294.474 23.3144 294.697 22.9984 294.914 22.7043C305.875 7.73399 321.136 18.3165 321.136 18.3165C321.659 18.89 322.156 19.4885 322.615 20.1103C324.146 22.1615 325.37 24.3371 326.326 26.6152C325.708 21.0188 324.165 15.7283 321.346 11.0888C320.97 10.467 320.568 9.86861 320.142 9.29508C320.142 9.29508 307.732 -1.28745 298.817 13.6829C297.464 15.9492 295.877 19.4109 294.25 23.6495Z" fill="white"/>
</g>
</g>
</g>
</g>
<path d="M326.259 28.2085C326.131 28.2085 326.001 28.1982 325.87 28.1778L294.853 23.3232C293.578 23.1242 292.716 21.9932 292.929 20.7964C293.141 19.6011 294.349 18.7934 295.622 18.9924L326.64 23.847C327.915 24.046 328.776 25.1769 328.564 26.3737C328.374 27.4491 327.383 28.2085 326.259 28.2085Z" fill="#00227B"/>
<path d="M326.061 43.9212C325.957 43.9212 325.852 43.9153 325.746 43.9007L289.462 39.3271C288.18 39.1662 287.281 38.0616 287.453 36.8604C287.625 35.6592 288.803 34.8165 290.086 34.9774L326.37 39.551C327.652 39.7119 328.55 40.8165 328.379 42.0177C328.221 43.1209 327.216 43.9212 326.061 43.9212Z" fill="#00227B"/>
<path d="M322.861 59.3114C322.766 59.3114 322.671 59.3056 322.574 59.2953L285.74 55.0685C284.457 54.9207 283.544 53.8264 283.7 52.6237C283.858 51.4211 285.024 50.5637 286.308 50.7115L323.142 54.9383C324.425 55.086 325.338 56.1804 325.182 57.3831C325.037 58.4965 324.027 59.3114 322.861 59.3114Z" fill="#00227B"/>
<path d="M317.02 76.0901C316.949 76.0901 316.878 76.0872 316.806 76.0813L283.875 73.2956C282.587 73.1873 281.639 72.1193 281.754 70.9122C281.87 69.7052 283.009 68.8142 284.296 68.9239L317.227 71.7096C318.515 71.8179 319.465 72.886 319.348 74.093C319.239 75.2327 318.216 76.0901 317.02 76.0901Z" fill="#00227B"/>
<g opacity="0.35">
<g opacity="0.35">
<g opacity="0.35">
<g opacity="0.35">
<path opacity="0.35" d="M294.109 91.5448H299.165C305.102 91.5448 310.484 88.2807 312.901 83.1979C314.858 79.0793 317.238 73.6922 319.463 67.5881C316.428 72.311 310.261 75.306 303.49 75.306H297.463C288.886 73.9131 285.659 66.0271 285.531 55.6903C282.631 73.1377 283.427 89.4775 294.109 91.5448Z" fill="#00227B"/>
</g>
</g>
</g>
</g>
<path d="M299.168 93.7402H294.111C293.952 93.7402 293.795 93.7256 293.639 93.6949C289.551 92.9034 286.463 90.4191 284.458 86.3092C279.731 76.6206 282.028 59.7409 284.789 47.2871C288.163 32.068 293.372 18.3208 296.774 12.6089C299.901 7.35635 303.841 4.33212 308.482 3.62252C315.602 2.53397 321.471 7.45728 321.718 7.66651C321.847 7.77624 321.963 7.9006 322.062 8.03374C322.529 8.65995 322.974 9.32274 323.384 10.0002C329.292 19.7385 330.546 33.0599 327.111 49.5914C324.317 63.0314 319.007 75.772 315.043 84.0926C312.254 89.9538 306.025 93.7402 299.168 93.7402ZM294.366 89.351H299.168C304.177 89.351 308.731 86.5857 310.766 82.3062C314.63 74.1933 319.804 61.7863 322.513 48.7545C325.73 33.2823 324.651 20.9734 319.313 12.1699C319.022 11.69 318.712 11.2218 318.389 10.7741C317.512 10.1026 313.528 7.28464 309.21 7.95913C306.06 8.45219 303.251 10.7361 300.862 14.7493C297.713 20.037 292.616 33.5516 289.374 48.181C285.673 64.8764 285.439 77.7691 288.717 84.4847C290.046 87.2105 291.895 88.8052 294.366 89.351Z" fill="#00227B"/>
<path d="M34.8829 91.5463H29.8267C23.8903 91.5463 18.508 88.2822 16.0907 83.1994C8.52196 67.3087 -5.27805 32.392 7.64804 11.085C8.02414 10.4632 8.42676 9.86478 8.85279 9.29124C8.85279 9.29124 21.2623 -1.29131 30.1778 13.6791C38.5049 27.6648 55.9832 87.4628 34.8829 91.5463Z" fill="#AFAFB2"/>
<g opacity="0.7">
<g opacity="0.7">
<g opacity="0.7">
<g opacity="0.7">
<path opacity="0.7" d="M34.7407 23.6495C34.5175 23.3144 34.2944 22.9984 34.0775 22.7043C23.1161 7.73399 7.85545 18.3165 7.85545 18.3165C7.33266 18.89 6.83485 19.4885 6.37604 20.1103C4.84514 22.1615 3.62166 24.3371 2.66504 26.6152C3.28302 21.0188 4.82641 15.7283 7.64477 11.0888C8.02087 10.467 8.42349 9.86861 8.84952 9.29508C8.84952 9.29508 21.2591 -1.28745 30.1745 13.6829C31.526 15.9492 33.1146 19.4109 34.7407 23.6495Z" fill="white"/>
</g>
</g>
</g>
</g>
<path d="M2.73321 28.2089C1.60961 28.2089 0.618657 27.4481 0.426709 26.3756C0.214473 25.1802 1.07434 24.0493 2.35087 23.8488L33.3685 18.9942C34.6435 18.7952 35.8498 19.6014 36.062 20.7982C36.2743 21.9936 35.4144 23.1246 34.1378 23.325L3.12023 28.1796C2.9907 28.2001 2.86118 28.2089 2.73321 28.2089Z" fill="#00227B"/>
<path d="M2.92926 43.9179C1.77445 43.9179 0.76945 43.1176 0.611834 42.0159C0.440173 40.8147 1.33905 39.7101 2.62027 39.5491L38.9064 34.974C40.1891 34.8116 41.3658 35.6559 41.539 36.8571C41.7107 38.0583 40.8118 39.1629 39.5306 39.3238L3.24449 43.8989C3.13838 43.9121 3.03382 43.9179 2.92926 43.9179Z" fill="#00227B"/>
<path d="M6.1317 59.3113C4.96596 59.3113 3.95628 58.4963 3.81115 57.3829C3.65353 56.1802 4.56646 55.0858 5.8508 54.9381L42.6847 50.7112C43.9674 50.5649 45.1347 51.4193 45.2923 52.6235C45.45 53.8261 44.537 54.9205 43.2527 55.0683L6.41884 59.2952C6.32209 59.3069 6.22533 59.3113 6.1317 59.3113Z" fill="#00227B"/>
<path d="M11.9731 76.0899C10.7746 76.0899 9.75401 75.2325 9.64477 74.0928C9.52929 72.8857 10.4781 71.8192 11.7656 71.7094L44.6964 68.9237C45.9854 68.8154 47.1215 69.705 47.2386 70.912C47.3541 72.1191 46.4052 73.1856 45.1178 73.2954L12.1869 76.0811C12.1151 76.0869 12.0433 76.0899 11.9731 76.0899Z" fill="#00227B"/>
<g opacity="0.35">
<g opacity="0.35">
<g opacity="0.35">
<g opacity="0.35">
<path opacity="0.35" d="M34.8812 91.5448H29.825C23.8887 91.5448 18.5063 88.2807 16.089 83.1979C14.1321 79.0793 11.7522 73.6922 9.52686 67.5881C12.5621 72.311 18.7295 75.306 25.5007 75.306H31.5276C40.1044 73.9131 43.3316 66.0271 43.4596 55.6903C46.3591 73.1377 45.5617 89.4775 34.8812 91.5448Z" fill="#00227B"/>
</g>
</g>
</g>
</g>
<path d="M34.8817 93.7387H29.8255C22.9699 93.7387 16.7386 89.9523 13.9515 84.0911C9.98925 75.772 4.67711 63.0314 1.88372 49.5914C-1.55107 33.0599 -0.29794 19.7385 5.61032 9.99872C6.02075 9.32131 6.46551 8.65998 6.93055 8.03378C7.03043 7.89917 7.14591 7.77627 7.27544 7.66654C7.52201 7.45586 13.3913 2.53401 20.5105 3.62255C25.1516 4.33215 29.092 7.35635 32.2194 12.6089C35.6214 18.3208 40.8305 32.068 44.2044 47.287C46.9651 59.7409 49.2622 76.6206 44.5353 86.3092C42.53 90.419 39.4416 92.9033 35.3545 93.6949C35.1985 93.7241 35.0393 93.7387 34.8817 93.7387ZM10.6025 10.7742C10.2795 11.2204 9.97052 11.6886 9.68025 12.167C4.34003 20.9719 3.26169 33.2794 6.47799 48.7531C9.18712 61.7863 14.3604 74.1919 18.2259 82.3047C20.2624 86.5857 24.8145 89.3509 29.8239 89.3509H34.6257C37.0961 88.8052 38.9469 87.2104 40.2765 84.4832C43.5521 77.7676 43.3196 64.8749 39.6195 48.1795C36.3767 33.5501 31.2799 20.0355 28.1307 14.7479C25.7415 10.7346 22.9325 8.45076 19.7833 7.9577C15.473 7.28467 11.4905 10.0938 10.6025 10.7742Z" fill="#00227B"/>
<path d="M91.9563 89.5425C91.6239 89.5425 91.2868 89.4693 90.9716 89.3142C89.9291 88.8036 89.5265 87.5966 90.0727 86.6192C98.9632 70.6935 99.0943 52.7823 90.4628 33.3861C83.9522 18.7566 74.6294 8.74617 74.5358 8.64668C73.7586 7.82004 73.8429 6.55885 74.7246 5.82877C75.6063 5.10015 76.9515 5.17769 77.7287 6.00433C78.1266 6.42717 87.5508 16.5284 94.3424 31.7357C98.3499 40.7089 100.585 49.5884 100.987 58.1284C101.493 68.8661 99.0896 79.0741 93.8446 88.4701C93.4638 89.1533 92.7225 89.5425 91.9563 89.5425Z" fill="#00227B"/>
<path d="M237.899 89.545C237.131 89.545 236.391 89.1558 236.01 88.474C230.765 79.078 228.362 68.8701 228.868 58.1324C229.27 49.5924 231.505 40.7129 235.513 31.7397C242.304 16.5324 251.728 6.42971 252.126 6.00834C252.905 5.18169 254.25 5.10269 255.132 5.83278C256.014 6.5614 256.098 7.82258 255.319 8.64923C255.225 8.74872 245.903 18.7592 239.392 33.3886C230.761 52.7863 230.892 70.696 239.782 86.6217C240.327 87.5991 239.924 88.8047 238.883 89.3167C238.568 89.4718 238.231 89.545 237.899 89.545Z" fill="#00227B"/>
</svg>
