<svg width="242" height="147" viewBox="0 0 242 147" fill="none" xmlns="http://www.w3.org/2000/svg">
<path d="M216.18 144.339H25.7049C19.5376 144.339 14.5376 139.652 14.5376 133.869C14.5376 130.538 17.4184 127.837 20.9718 127.837H220.913C224.467 127.837 227.348 130.538 227.348 133.869C227.348 139.653 222.348 144.339 216.18 144.339Z" fill="#E6E9FA"/>
<g opacity="0.3">
<g opacity="0.3">
<g opacity="0.3">
<g opacity="0.3">
<path opacity="0.3" d="M227.345 133.871C227.345 135.015 227.146 136.114 226.784 137.145C225.784 135.036 223.534 133.572 220.915 133.572H20.9733C19.199 133.572 17.5885 134.244 16.4243 135.343C15.8703 135.862 15.4162 136.468 15.0978 137.147C14.7358 136.115 14.5376 135.018 14.5376 133.872C14.5376 132.209 15.2539 130.699 16.4259 129.607C17.5901 128.51 19.2005 127.837 20.9749 127.837H220.915C224.47 127.836 227.345 130.536 227.345 133.871Z" fill="white"/>
</g>
</g>
</g>
</g>
<g opacity="0.35">
<g opacity="0.35">
<g opacity="0.35">
<g opacity="0.35">
<path opacity="0.35" d="M227.344 133.87C227.344 136.758 226.096 139.38 224.072 141.269C222.055 143.165 219.259 144.337 216.18 144.337H25.7077C19.5403 144.337 14.5356 139.652 14.5356 133.87C14.5356 132.758 14.8556 131.713 15.422 130.815C17.1106 134.562 21.0853 137.197 25.7061 137.197H216.178C219.259 137.197 222.055 136.027 224.07 134.129C225.078 133.184 225.894 132.06 226.454 130.815C227.026 131.713 227.344 132.758 227.344 133.87Z" fill="#00227B"/>
</g>
</g>
</g>
</g>
<path d="M216.181 147H25.7057C17.9825 147 11.6997 141.11 11.6997 133.869C11.6997 129.076 15.8602 125.175 20.9725 125.175H220.914C226.027 125.175 230.187 129.076 230.187 133.869C230.187 141.108 223.904 147 216.181 147ZM20.971 130.498C18.9891 130.498 17.3755 132.009 17.3755 133.869C17.3755 138.175 21.1114 141.677 25.7041 141.677H216.181C220.774 141.677 224.51 138.175 224.51 133.869C224.51 132.011 222.898 130.498 220.914 130.498H20.971Z" fill="#00227B"/>
<path d="M238.466 9.96172L219.836 127.833H22.0532L21.379 123.568L3.41391 9.96172C2.82558 6.22938 5.91236 2.88184 9.92923 2.88184H231.949C235.976 2.88184 239.055 6.22938 238.466 9.96172Z" fill="#FF66AC"/>
<path d="M238.466 9.96172L219.836 127.833H22.0532L21.379 123.568L3.41391 9.96172C2.82558 6.22938 5.91236 2.88184 9.92923 2.88184H231.949C235.976 2.88184 239.055 6.22938 238.466 9.96172Z" fill="#E6E9FA"/>
<g opacity="0.5">
<g opacity="0.5">
<g opacity="0.5">
<g opacity="0.5">
<path opacity="0.5" d="M10.4368 17.2768C9.84848 13.5444 12.9353 10.1969 16.9521 10.1969H238.429L238.467 9.96131C239.055 6.22896 235.976 2.88141 231.952 2.88141H9.93119C5.91432 2.88141 2.82753 6.22896 3.41586 9.96131L21.3794 123.567L22.0536 127.832H27.9197L10.4368 17.2768Z" fill="white"/>
</g>
</g>
</g>
</g>
<g opacity="0.35">
<g opacity="0.35">
<g opacity="0.35">
<g opacity="0.35">
<path opacity="0.35" d="M225.709 2.88184H210.119C216.03 23.1866 212.769 69.0369 174.632 92.9993C126.757 123.08 40.477 122.889 22.1592 123.568L22.8333 127.833H213.594L232.224 9.96172C232.812 6.22938 229.733 2.88184 225.709 2.88184Z" fill="#00227B"/>
</g>
</g>
</g>
</g>
<path d="M222.282 130.499H19.6036L0.610117 10.3518C0.207494 7.80751 1.00493 5.23247 2.79645 3.2851C4.58797 1.33772 7.18942 0.221375 9.93132 0.221375H231.955C234.698 0.221375 237.298 1.33772 239.09 3.2851C240.881 5.23247 241.679 7.80751 241.276 10.3518L222.282 130.499ZM24.5022 125.175H217.384L235.66 9.57054C235.822 8.54491 235.513 7.54709 234.79 6.76141C234.068 5.97573 233.061 5.5441 231.955 5.5441H9.93132C8.82489 5.5441 7.81832 5.97719 7.09578 6.76141C6.37325 7.54709 6.06426 8.54491 6.22656 9.57054L24.5022 125.175Z" fill="#00227B"/>
<g opacity="0.3">
<g opacity="0.3">
<g opacity="0.3">
<g opacity="0.3">
<path opacity="0.3" d="M37.7963 100.293C30.2931 84.7875 24.8296 58.3188 26.0609 42.7413C27.2921 27.1638 36.9286 31.9305 39.9155 51.8841C47.8634 104.988 41.1452 107.217 37.7963 100.293Z" fill="white"/>
</g>
</g>
</g>
</g>
<path d="M146.783 51.986C147.025 49.9961 147.306 47.9844 146.889 45.9609C146.704 45.7415 146.533 45.5162 146.348 45.2967C145.733 45.0889 145.135 44.8183 144.495 44.6676C139.995 43.5775 135.432 43.1459 130.797 43.5205C124.753 44.0092 119.205 45.7576 114.434 49.3597C112.707 50.6589 111.132 52.1264 109.52 53.55C109.088 53.9363 108.755 54.0972 108.148 53.8368C106.721 53.2281 105.182 52.956 103.62 52.8828C99.4296 52.7043 95.6905 53.9743 92.2027 56.027C88.423 58.2597 85.3768 61.243 82.5397 64.4369C81.3318 65.7903 81.8015 67.2987 83.5993 67.8679C84.7338 68.2146 85.8683 68.5555 87.0029 68.9037C89.7214 69.7289 92.4336 70.5468 95.1443 71.3705C95.1381 71.4495 95.1459 71.4905 95.1334 71.53C95.1115 71.5797 95.0881 71.6368 95.0507 71.6851C93.9193 73.0487 94.1939 74.3099 95.3862 75.495C95.5142 75.6266 95.625 75.7832 95.7373 75.9251C96.3615 76.6947 96.9998 77.4731 97.6615 78.2748C96.7579 78.9288 95.87 79.4848 95.085 80.1564C94.6886 80.4944 94.3391 80.986 94.1892 81.4732C93.9349 82.2589 94.3687 83.0621 95.1147 83.4747C95.9059 83.9209 96.7205 83.9019 97.457 83.4045C98.3918 82.7812 99.2845 82.1052 100.235 81.4249C101.132 82.5339 101.983 83.583 102.836 84.6188C103.815 85.7996 104.489 86.0015 106.006 85.6079C106.282 85.5274 106.555 85.4718 106.881 85.3972C106.903 85.7015 106.928 85.9459 106.942 86.1741C107.136 89.8494 107.314 93.5306 107.529 97.1956C107.627 98.9338 109.091 99.7545 110.765 99.0098C112.278 98.3412 113.788 97.6331 115.271 96.8796C118.687 95.137 121.796 93.0038 124.275 90.1669C127.379 86.5969 129.097 82.61 128.294 77.8988C128.259 77.713 128.425 77.3955 128.596 77.3004C130.12 76.3801 131.683 75.5184 133.208 74.5908C136.654 72.4854 139.424 69.7494 141.59 66.4809C144.533 62.0374 146.157 57.1624 146.783 51.986ZM97.3868 67.8898C94.2485 66.9315 90.9948 65.9366 87.6521 64.9168C91.1056 61.4756 94.7604 58.4704 99.6824 57.2019C101.809 56.6532 104.267 56.7001 105.719 57.2531C102.963 60.7792 100.201 64.3052 97.3868 67.8898ZM123.784 83.0138C122.986 85.4001 121.463 87.3431 119.587 89.0754C117.256 91.2042 114.542 92.7932 111.608 94.2416C111.432 90.8619 111.251 87.5553 111.073 84.3174C115.51 82.6993 119.848 81.1206 124.208 79.5317C124.377 80.6582 124.171 81.8521 123.784 83.0138ZM140.166 60.3856C138.739 63.5444 136.866 66.4208 134.194 68.8028C132.133 70.6302 129.795 72.0962 127.332 73.3998C120.656 76.9332 113.501 79.3693 106.185 81.4293C105.828 81.5259 105.609 81.5083 105.374 81.201C104.863 80.5207 104.291 79.8652 103.751 79.1937C103.715 79.1556 103.702 79.0927 103.651 78.9727C103.838 78.8323 104.038 78.6933 104.239 78.5485C108.414 75.5433 112.609 72.5483 116.785 69.5372C117.991 68.6784 118.044 67.2021 116.927 66.3506C116.146 65.7522 115.118 65.761 114.217 66.396C111.705 68.1927 109.199 69.9893 106.692 71.7933C104.823 73.1335 102.969 74.4679 101.028 75.8637C100.361 75.0473 99.7183 74.3025 99.1378 73.5183C99.0395 73.3779 99.1393 73.0238 99.2735 72.8497C101.499 69.7362 103.706 66.6067 106.021 63.5473C108.312 60.51 110.917 57.7037 113.782 55.1287C116.468 52.6956 119.38 50.5477 122.899 49.2675C125.155 48.4438 127.484 47.8834 129.889 47.642C130.107 47.6128 130.424 47.8176 130.578 48.0063C133.024 50.9706 135.439 53.9392 137.863 56.9137C138.59 57.7988 139.308 58.7015 140.057 59.5765C140.282 59.8398 140.31 60.0652 140.166 60.3856ZM141.616 56.2392C139.2 53.272 136.841 50.3853 134.478 47.4855C134.481 47.4196 134.502 47.3421 134.513 47.2704C137.264 47.5791 140.021 47.8951 142.807 48.2082C142.755 51.0218 142.312 53.5983 141.616 56.2392Z" fill="#00227B"/>
<path d="M140.061 59.5755C139.31 58.7006 138.594 57.7979 137.867 56.9127C135.445 53.9382 133.028 50.9697 130.582 48.0054C130.428 47.8167 130.111 47.6119 129.892 47.6411C127.488 47.8825 125.159 48.4429 122.903 49.2666C119.382 50.5468 116.472 52.6946 113.786 55.1277C110.921 57.7028 108.316 60.509 106.025 63.5464C103.709 66.6071 101.503 69.7367 99.2774 72.8487C99.1432 73.0228 99.0433 73.3768 99.1416 73.5173C99.7206 74.3015 100.364 75.0462 101.031 75.8626C102.973 74.4669 104.827 73.131 106.696 71.7923C109.203 69.9883 111.709 68.1902 114.221 66.395C115.122 65.76 116.149 65.7527 116.93 66.3496C118.048 67.2026 117.996 68.6789 116.788 69.5362C112.612 72.5473 108.418 75.5422 104.243 78.5474C104.042 78.6923 103.84 78.8312 103.655 78.9717C103.706 79.0931 103.719 79.1546 103.755 79.1926C104.295 79.8642 104.867 80.5196 105.378 81.2C105.613 81.5072 105.832 81.5248 106.189 81.4282C113.505 79.3682 120.66 76.9322 127.336 73.3988C129.797 72.0967 132.137 70.6292 134.198 68.8018C136.868 66.4199 138.742 63.5434 140.17 60.3846C140.311 60.0657 140.283 59.8403 140.061 59.5755ZM132.734 64.1053C129.543 66.3599 125.027 65.8083 122.63 62.8573C120.217 59.9106 120.826 55.6793 123.987 53.394C127.091 51.1525 131.609 51.7319 134.029 54.68C136.422 57.6106 135.838 61.9048 132.734 64.1053Z" fill="white"/>
<path d="M141.616 56.2381C139.198 53.2754 136.839 50.3858 134.478 47.4859C134.485 47.4172 134.501 47.3455 134.512 47.2709C137.263 47.5825 140.022 47.8971 142.811 48.2102C142.758 51.0193 142.31 53.5987 141.616 56.2381Z" fill="#DB2C2C"/>
<path d="M105.72 57.2548C102.961 60.7764 100.198 64.3053 97.3878 67.8928C94.2448 66.9286 90.9911 65.9367 87.6499 64.9184C91.1065 61.4728 94.7598 58.4677 99.6818 57.2021C101.809 56.652 104.264 56.7003 105.72 57.2548Z" fill="#DB2C2C"/>
<path d="M119.583 89.0771C117.253 91.2073 114.542 92.7977 111.605 94.2433C111.428 90.8664 111.248 87.5598 111.072 84.3191C115.508 82.7024 119.845 81.1252 124.212 79.5319C124.379 80.6614 124.168 81.8523 123.786 83.0184C122.988 85.4047 121.465 87.3462 119.583 89.0771Z" fill="#DB2C2C"/>
<path d="M134.027 54.6781C131.609 51.73 127.089 51.1521 123.985 53.3921C120.824 55.6789 120.215 59.9087 122.628 62.8554C125.025 65.8064 129.541 66.358 132.732 64.1034C135.838 61.9029 136.421 57.6087 134.027 54.6781ZM130.582 61.6147C128.965 62.7632 126.59 62.4603 125.33 60.946C124.027 59.3849 124.383 57.0908 126.108 55.891C127.723 54.7557 130.143 55.0849 131.359 56.6065C132.629 58.1896 132.28 60.412 130.582 61.6147Z" fill="#00227B"/>
<path d="M130.579 61.6161C128.963 62.7646 126.587 62.4618 125.325 60.9445C124.028 59.3863 124.379 57.0922 126.104 55.8925C127.722 54.7601 130.139 55.0849 131.355 56.605C132.625 58.1896 132.28 60.4149 130.579 61.6161Z" fill="#22A7F0"/>
</svg>
