<svg width="127" height="112" viewBox="0 0 127 112" fill="none" xmlns="http://www.w3.org/2000/svg">
<g clip-path="url(#clip0_301_7666)">
<path opacity="0.1" d="M125.268 111.04C139.734 111.04 144.141 97.4729 139.974 80.8573C137.617 71.4606 132.166 59.1728 123.262 53.612C98.8955 38.3944 102.179 37.6638 96.1473 21.4664C86.3005 -4.9748 48.4366 -5.99512 32.9653 12.952C20.9273 27.6943 15.7758 48.477 -0.625042 63.7897C-20.4219 82.2731 -15.0223 111.308 3.99383 111.308L125.268 111.04Z" fill="#367CFF"/>
<path d="M141.468 95.0165H-11.1123L-2.33111 73.5217H132.686L141.468 95.0165Z" fill="#292A2E"/>
<path d="M141.468 95.0165H-11.1123L-2.33111 73.5217H132.686L141.468 95.0165Z" fill="white"/>
<path d="M141.467 95.2059H-11.1116C-11.1397 95.2059 -11.1673 95.1979 -11.1919 95.1825C-11.2165 95.1672 -11.2373 95.145 -11.2524 95.1181C-11.2674 95.0911 -11.2762 95.0603 -11.278 95.0284C-11.2798 94.9966 -11.2744 94.9647 -11.2625 94.9359L-2.48193 73.4413C-2.46849 73.4087 -2.44718 73.3812 -2.4205 73.3619C-2.39382 73.3426 -2.36286 73.3324 -2.33124 73.3324H132.686C132.718 73.3324 132.749 73.3426 132.775 73.3619C132.802 73.3812 132.823 73.4087 132.837 73.4413L141.619 94.9359C141.631 94.9647 141.636 94.9964 141.634 95.0282C141.632 95.0599 141.624 95.0907 141.609 95.1176C141.594 95.1445 141.573 95.1667 141.549 95.1821C141.524 95.1975 141.497 95.2057 141.469 95.2059H141.467ZM-10.8504 94.8272H141.205L132.581 73.7111H-2.22535L-10.8504 94.8272Z" fill="#292A2E"/>
<path d="M75.7288 66.3253H60.9526V79.0282H75.7288V66.3253Z" fill="#292A2E"/>
<path opacity="0.64" d="M75.729 66.3254H60.9526V73.1116H75.729V66.3254Z" fill="#0C0C0C"/>
<path d="M99.7242 15.9276H36.958C35.9707 15.9276 35.1704 16.8377 35.1704 17.9603V67.7728C35.1704 68.8954 35.9707 69.8055 36.958 69.8055H99.7242C100.711 69.8055 101.512 68.8954 101.512 67.7728V17.9603C101.512 16.8377 100.711 15.9276 99.7242 15.9276Z" fill="#292A2E"/>
<path d="M98.8415 18.2366H37.8402C37.435 18.2366 37.1064 18.6101 37.1064 19.071V60.3832C37.1064 60.8441 37.435 61.2176 37.8402 61.2176H98.8415C99.2468 61.2176 99.5753 60.8441 99.5753 60.3832V19.071C99.5753 18.6101 99.2468 18.2366 98.8415 18.2366Z" fill="white"/>
<path d="M78.8034 77.9841H57.8789C57.3433 77.9841 56.9092 78.4778 56.9092 79.0867C56.9092 79.6957 57.3433 80.1893 57.8789 80.1893H78.8034C79.339 80.1893 79.7731 79.6957 79.7731 79.0867C79.7731 78.4778 79.339 77.9841 78.8034 77.9841Z" fill="#292A2E"/>
<path d="M57.9924 25.102H55.2143C55.1978 25.1027 55.1812 25.0996 55.1657 25.0929C55.1503 25.0861 55.1361 25.0759 55.1242 25.0628C55.1122 25.0498 55.1027 25.0341 55.0963 25.0167C55.0898 24.9994 55.0864 24.9807 55.0864 24.9618C55.0864 24.943 55.0898 24.9243 55.0963 24.907C55.1027 24.8896 55.1122 24.8739 55.1242 24.8608C55.1361 24.8477 55.1503 24.8375 55.1657 24.8308C55.1812 24.824 55.1978 24.8209 55.2143 24.8216H57.9924C58.0243 24.823 58.0545 24.8383 58.0767 24.8645C58.0988 24.8906 58.1112 24.9255 58.1112 24.9618C58.1112 24.9981 58.0988 25.0331 58.0767 25.0592C58.0545 25.0853 58.0243 25.1007 57.9924 25.102Z" fill="#292A2E"/>
<path d="M53.2103 25.102H52.1592C52.1426 25.1027 52.1261 25.0996 52.1106 25.0929C52.0951 25.0861 52.0809 25.0759 52.069 25.0628C52.0571 25.0498 52.0476 25.0341 52.0411 25.0167C52.0346 24.9994 52.0312 24.9807 52.0312 24.9618C52.0312 24.943 52.0346 24.9243 52.0411 24.907C52.0476 24.8896 52.0571 24.8739 52.069 24.8608C52.0809 24.8477 52.0951 24.8375 52.1106 24.8308C52.1261 24.824 52.1426 24.8209 52.1592 24.8216H53.2103C53.2268 24.8209 53.2434 24.824 53.2589 24.8308C53.2743 24.8375 53.2885 24.8477 53.3004 24.8608C53.3124 24.8739 53.3219 24.8896 53.3283 24.907C53.3348 24.9243 53.3382 24.943 53.3382 24.9618C53.3382 24.9807 53.3348 24.9994 53.3283 25.0167C53.3219 25.0341 53.3124 25.0498 53.3004 25.0628C53.2885 25.0759 53.2743 25.0861 53.2589 25.0929C53.2434 25.0996 53.2268 25.1027 53.2103 25.102Z" fill="#367CFF"/>
<path d="M53.2106 27.6325H52.1595C52.1268 27.6325 52.0954 27.6177 52.0723 27.5914C52.0491 27.5651 52.0361 27.5294 52.0361 27.4922C52.0361 27.455 52.0491 27.4193 52.0723 27.393C52.0954 27.3667 52.1268 27.3519 52.1595 27.3519H53.2106C53.2433 27.3519 53.2747 27.3667 53.2979 27.393C53.321 27.4193 53.334 27.455 53.334 27.4922C53.334 27.5294 53.321 27.5651 53.2979 27.5914C53.2747 27.6177 53.2433 27.6325 53.2106 27.6325Z" fill="#367CFF"/>
<path d="M53.2106 30.1629H52.1595C52.1268 30.1629 52.0954 30.1481 52.0723 30.1218C52.0491 30.0955 52.0361 30.0598 52.0361 30.0226C52.0361 29.9854 52.0491 29.9497 52.0723 29.9234C52.0954 29.8971 52.1268 29.8823 52.1595 29.8823H53.2106C53.2433 29.8823 53.2747 29.8971 53.2979 29.9234C53.321 29.9497 53.334 29.9854 53.334 30.0226C53.334 30.0598 53.321 30.0955 53.2979 30.1218C53.2747 30.1481 53.2433 30.1629 53.2106 30.1629Z" fill="#367CFF"/>
<path d="M53.2106 32.6934H52.1595C52.1268 32.6934 52.0954 32.6787 52.0723 32.6523C52.0491 32.626 52.0361 32.5904 52.0361 32.5531C52.0361 32.5159 52.0491 32.4802 52.0723 32.4539C52.0954 32.4276 52.1268 32.4128 52.1595 32.4128H53.2106C53.2433 32.4128 53.2747 32.4276 53.2979 32.4539C53.321 32.4802 53.334 32.5159 53.334 32.5531C53.334 32.5904 53.321 32.626 53.2979 32.6523C53.2747 32.6787 53.2433 32.6934 53.2106 32.6934Z" fill="#367CFF"/>
<path d="M53.2103 35.2237H52.1592C52.1426 35.2244 52.1261 35.2213 52.1106 35.2146C52.0951 35.2078 52.0809 35.1976 52.069 35.1845C52.0571 35.1715 52.0476 35.1558 52.0411 35.1384C52.0346 35.1211 52.0312 35.1024 52.0312 35.0835C52.0312 35.0647 52.0346 35.046 52.0411 35.0287C52.0476 35.0113 52.0571 34.9956 52.069 34.9825C52.0809 34.9694 52.0951 34.9592 52.1106 34.9525C52.1261 34.9458 52.1426 34.9426 52.1592 34.9433H53.2103C53.2268 34.9426 53.2434 34.9458 53.2589 34.9525C53.2743 34.9592 53.2885 34.9694 53.3004 34.9825C53.3124 34.9956 53.3219 35.0113 53.3283 35.0287C53.3348 35.046 53.3382 35.0647 53.3382 35.0835C53.3382 35.1024 53.3348 35.1211 53.3283 35.1384C53.3219 35.1558 53.3124 35.1715 53.3004 35.1845C53.2885 35.1976 53.2743 35.2078 53.2589 35.2146C53.2434 35.2213 53.2268 35.2244 53.2103 35.2237Z" fill="#367CFF"/>
<path d="M53.2106 37.7534H52.1595C52.1268 37.7534 52.0954 37.7386 52.0723 37.7123C52.0491 37.686 52.0361 37.6503 52.0361 37.6131C52.0361 37.5759 52.0491 37.5402 52.0723 37.5139C52.0954 37.4876 52.1268 37.4728 52.1595 37.4728H53.2106C53.2433 37.4728 53.2747 37.4876 53.2979 37.5139C53.321 37.5402 53.334 37.5759 53.334 37.6131C53.334 37.6503 53.321 37.686 53.2979 37.7123C53.2747 37.7386 53.2433 37.7534 53.2106 37.7534Z" fill="#367CFF"/>
<path d="M53.2106 40.2846H52.1595C52.1268 40.2846 52.0954 40.2698 52.0723 40.2435C52.0491 40.2172 52.0361 40.1815 52.0361 40.1443C52.0361 40.1071 52.0491 40.0714 52.0723 40.0451C52.0954 40.0188 52.1268 40.004 52.1595 40.004H53.2106C53.2433 40.004 53.2747 40.0188 53.2979 40.0451C53.321 40.0714 53.334 40.1071 53.334 40.1443C53.334 40.1815 53.321 40.2172 53.2979 40.2435C53.2747 40.2698 53.2433 40.2846 53.2106 40.2846Z" fill="#367CFF"/>
<path d="M53.2103 42.8148H52.1592C52.1426 42.8155 52.1261 42.8124 52.1106 42.8056C52.0951 42.7989 52.0809 42.7887 52.069 42.7756C52.0571 42.7625 52.0476 42.7468 52.0411 42.7295C52.0346 42.7121 52.0312 42.6935 52.0312 42.6746C52.0312 42.6557 52.0346 42.6371 52.0411 42.6197C52.0476 42.6024 52.0571 42.5867 52.069 42.5736C52.0809 42.5605 52.0951 42.5503 52.1106 42.5436C52.1261 42.5368 52.1426 42.5337 52.1592 42.5344H53.2103C53.2268 42.5337 53.2434 42.5368 53.2589 42.5436C53.2743 42.5503 53.2885 42.5605 53.3004 42.5736C53.3124 42.5867 53.3219 42.6024 53.3283 42.6197C53.3348 42.6371 53.3382 42.6557 53.3382 42.6746C53.3382 42.6935 53.3348 42.7121 53.3283 42.7295C53.3219 42.7468 53.3124 42.7625 53.3004 42.7756C53.2885 42.7887 53.2743 42.7989 53.2589 42.8056C53.2434 42.8124 53.2268 42.8155 53.2103 42.8148Z" fill="#367CFF"/>
<path d="M53.2106 45.3457H52.1595C52.1268 45.3457 52.0954 45.3309 52.0723 45.3046C52.0491 45.2783 52.0361 45.2426 52.0361 45.2054C52.0361 45.1682 52.0491 45.1325 52.0723 45.1062C52.0954 45.0798 52.1268 45.0651 52.1595 45.0651H53.2106C53.2433 45.0651 53.2747 45.0798 53.2979 45.1062C53.321 45.1325 53.334 45.1682 53.334 45.2054C53.334 45.2426 53.321 45.2783 53.2979 45.3046C53.2747 45.3309 53.2433 45.3457 53.2106 45.3457Z" fill="#367CFF"/>
<path d="M53.2106 47.8758H52.1595C52.1268 47.8758 52.0954 47.861 52.0723 47.8347C52.0491 47.8084 52.0361 47.7727 52.0361 47.7355C52.0361 47.6983 52.0491 47.6626 52.0723 47.6363C52.0954 47.61 52.1268 47.5952 52.1595 47.5952H53.2106C53.2433 47.5952 53.2747 47.61 53.2979 47.6363C53.321 47.6626 53.334 47.6983 53.334 47.7355C53.334 47.7727 53.321 47.8084 53.2979 47.8347C53.2747 47.861 53.2433 47.8758 53.2106 47.8758Z" fill="#367CFF"/>
<path d="M53.2103 50.4061H52.1592C52.1426 50.4068 52.1261 50.4037 52.1106 50.397C52.0951 50.3902 52.0809 50.38 52.069 50.3669C52.0571 50.3538 52.0476 50.3381 52.0411 50.3208C52.0346 50.3034 52.0312 50.2848 52.0312 50.2659C52.0312 50.2471 52.0346 50.2284 52.0411 50.211C52.0476 50.1937 52.0571 50.178 52.069 50.1649C52.0809 50.1518 52.0951 50.1416 52.1106 50.1349C52.1261 50.1281 52.1426 50.125 52.1592 50.1257H53.2103C53.2268 50.125 53.2434 50.1281 53.2589 50.1349C53.2743 50.1416 53.2885 50.1518 53.3004 50.1649C53.3124 50.178 53.3219 50.1937 53.3283 50.211C53.3348 50.2284 53.3382 50.2471 53.3382 50.2659C53.3382 50.2848 53.3348 50.3034 53.3283 50.3208C53.3219 50.3381 53.3124 50.3538 53.3004 50.3669C53.2885 50.38 53.2743 50.3902 53.2589 50.397C53.2434 50.4037 53.2268 50.4068 53.2103 50.4061Z" fill="#367CFF"/>
<path d="M53.2106 52.9365H52.1595C52.1268 52.9365 52.0954 52.9217 52.0723 52.8954C52.0491 52.8691 52.0361 52.8334 52.0361 52.7962C52.0361 52.759 52.0491 52.7233 52.0723 52.697C52.0954 52.6707 52.1268 52.6559 52.1595 52.6559H53.2106C53.2433 52.6559 53.2747 52.6707 53.2979 52.697C53.321 52.7233 53.334 52.759 53.334 52.7962C53.334 52.8334 53.321 52.8691 53.2979 52.8954C53.2747 52.9217 53.2433 52.9365 53.2106 52.9365Z" fill="#367CFF"/>
<path d="M53.2106 55.467H52.1595C52.1268 55.467 52.0954 55.4522 52.0723 55.4259C52.0491 55.3996 52.0361 55.3639 52.0361 55.3267C52.0361 55.2895 52.0491 55.2538 52.0723 55.2275C52.0954 55.2012 52.1268 55.1864 52.1595 55.1864H53.2106C53.2433 55.1864 53.2747 55.2012 53.2979 55.2275C53.321 55.2538 53.334 55.2895 53.334 55.3267C53.334 55.3639 53.321 55.3996 53.2979 55.4259C53.2747 55.4522 53.2433 55.467 53.2106 55.467Z" fill="#367CFF"/>
<path d="M53.2103 57.9973H52.1592C52.1426 57.998 52.1261 57.9949 52.1106 57.9881C52.0951 57.9814 52.0809 57.9712 52.069 57.9581C52.0571 57.945 52.0476 57.9293 52.0411 57.912C52.0346 57.8946 52.0312 57.876 52.0312 57.8571C52.0312 57.8382 52.0346 57.8196 52.0411 57.8022C52.0476 57.7849 52.0571 57.7692 52.069 57.7561C52.0809 57.743 52.0951 57.7328 52.1106 57.726C52.1261 57.7193 52.1426 57.7162 52.1592 57.7169H53.2103C53.2268 57.7162 53.2434 57.7193 53.2589 57.726C53.2743 57.7328 53.2885 57.743 53.3004 57.7561C53.3124 57.7692 53.3219 57.7849 53.3283 57.8022C53.3348 57.8196 53.3382 57.8382 53.3382 57.8571C53.3382 57.876 53.3348 57.8946 53.3283 57.912C53.3219 57.9293 53.3124 57.945 53.3004 57.9581C53.2885 57.9712 53.2743 57.9814 53.2589 57.9881C53.2434 57.9949 53.2268 57.998 53.2103 57.9973Z" fill="#367CFF"/>
<path d="M60.2119 27.6324H57.6811C57.6646 27.6331 57.648 27.63 57.6325 27.6233C57.6171 27.6165 57.6029 27.6063 57.591 27.5932C57.579 27.5801 57.5695 27.5645 57.5631 27.5471C57.5566 27.5297 57.5532 27.5111 57.5532 27.4922C57.5532 27.4734 57.5566 27.4547 57.5631 27.4373C57.5695 27.42 57.579 27.4043 57.591 27.3912C57.6029 27.3781 57.6171 27.3679 57.6325 27.3612C57.648 27.3544 57.6646 27.3513 57.6811 27.352H60.2119C60.2285 27.3513 60.245 27.3544 60.2605 27.3612C60.276 27.3679 60.2901 27.3781 60.3021 27.3912C60.314 27.4043 60.3235 27.42 60.33 27.4373C60.3365 27.4547 60.3398 27.4734 60.3398 27.4922C60.3398 27.5111 60.3365 27.5297 60.33 27.5471C60.3235 27.5645 60.314 27.5801 60.3021 27.5932C60.2901 27.6063 60.276 27.6165 60.2605 27.6233C60.245 27.63 60.2285 27.6331 60.2119 27.6324Z" fill="#292A2E"/>
<path d="M57.9924 42.8148H55.2143C55.1978 42.8155 55.1812 42.8124 55.1657 42.8056C55.1503 42.7989 55.1361 42.7887 55.1242 42.7756C55.1122 42.7625 55.1027 42.7468 55.0963 42.7295C55.0898 42.7121 55.0864 42.6935 55.0864 42.6746C55.0864 42.6557 55.0898 42.6371 55.0963 42.6197C55.1027 42.6024 55.1122 42.5867 55.1242 42.5736C55.1361 42.5605 55.1503 42.5503 55.1657 42.5436C55.1812 42.5368 55.1978 42.5337 55.2143 42.5344H57.9924C58.0243 42.5357 58.0545 42.5511 58.0767 42.5772C58.0988 42.6034 58.1112 42.6383 58.1112 42.6746C58.1112 42.7109 58.0988 42.7458 58.0767 42.772C58.0545 42.7981 58.0243 42.8135 57.9924 42.8148Z" fill="#292A2E"/>
<path d="M60.2123 45.3457H57.6815C57.6488 45.3457 57.6174 45.3309 57.5942 45.3046C57.5711 45.2783 57.5581 45.2426 57.5581 45.2054C57.5581 45.1682 57.5711 45.1325 57.5942 45.1062C57.6174 45.0798 57.6488 45.0651 57.6815 45.0651H60.2123C60.245 45.0651 60.2764 45.0798 60.2995 45.1062C60.3227 45.1325 60.3357 45.1682 60.3357 45.2054C60.3357 45.2426 60.3227 45.2783 60.2995 45.3046C60.2764 45.3309 60.245 45.3457 60.2123 45.3457Z" fill="#292A2E"/>
<path d="M77.8509 30.1629H59.408C59.3753 30.1629 59.3439 30.1481 59.3208 30.1218C59.2977 30.0955 59.2847 30.0598 59.2847 30.0226C59.2847 29.9854 59.2977 29.9497 59.3208 29.9234C59.3439 29.8971 59.3753 29.8823 59.408 29.8823H77.8509C77.8836 29.8823 77.915 29.8971 77.9381 29.9234C77.9613 29.9497 77.9743 29.9854 77.9743 30.0226C77.9743 30.0598 77.9613 30.0955 77.9381 30.1218C77.915 30.1481 77.8836 30.1629 77.8509 30.1629Z" fill="#292A2E"/>
<path d="M91.194 30.1629H80.5213C80.4886 30.1629 80.4572 30.1481 80.4341 30.1218C80.4109 30.0955 80.3979 30.0598 80.3979 30.0226C80.3979 29.9854 80.4109 29.9497 80.4341 29.9234C80.4572 29.8971 80.4886 29.8823 80.5213 29.8823H91.194C91.2267 29.8823 91.2581 29.8971 91.2812 29.9234C91.3043 29.9497 91.3173 29.9854 91.3173 30.0226C91.3173 30.0598 91.3043 30.0955 91.2812 30.1218C91.2581 30.1481 91.2267 30.1629 91.194 30.1629Z" fill="#0CBC8B"/>
<path d="M96.9211 30.1629H93.6502C93.6175 30.1629 93.5861 30.1481 93.563 30.1218C93.5399 30.0955 93.5269 30.0598 93.5269 30.0226C93.5269 29.9854 93.5399 29.9497 93.563 29.9234C93.5861 29.8971 93.6175 29.8823 93.6502 29.8823H96.9215C96.9542 29.8823 96.9856 29.8971 97.0087 29.9234C97.0318 29.9497 97.0448 29.9854 97.0448 30.0226C97.0448 30.0598 97.0318 30.0955 97.0087 30.1218C96.9856 30.1481 96.9542 30.1629 96.9215 30.1629H96.9211Z" fill="#292A2E"/>
<path d="M85.2513 35.2236H59.4077C59.3911 35.2243 59.3746 35.2212 59.3591 35.2145C59.3436 35.2077 59.3295 35.1975 59.3175 35.1844C59.3056 35.1713 59.2961 35.1556 59.2896 35.1383C59.2831 35.1209 59.2798 35.1023 59.2798 35.0834C59.2798 35.0646 59.2831 35.0459 59.2896 35.0285C59.2961 35.0112 59.3056 34.9955 59.3175 34.9824C59.3295 34.9693 59.3436 34.9591 59.3591 34.9524C59.3746 34.9456 59.3911 34.9425 59.4077 34.9432H85.2513C85.2679 34.9425 85.2844 34.9456 85.2999 34.9524C85.3154 34.9591 85.3295 34.9693 85.3414 34.9824C85.3534 34.9955 85.3629 35.0112 85.3694 35.0285C85.3758 35.0459 85.3792 35.0646 85.3792 35.0834C85.3792 35.1023 85.3758 35.1209 85.3694 35.1383C85.3629 35.1556 85.3534 35.1713 85.3414 35.1844C85.3295 35.1975 85.3154 35.2077 85.2999 35.2145C85.2844 35.2212 85.2679 35.2243 85.2513 35.2236Z" fill="#292A2E"/>
<path d="M91.1934 35.2236H87.9223C87.9058 35.2243 87.8892 35.2212 87.8738 35.2145C87.8583 35.2077 87.8441 35.1975 87.8322 35.1844C87.8202 35.1713 87.8107 35.1556 87.8043 35.1383C87.7978 35.1209 87.7944 35.1023 87.7944 35.0834C87.7944 35.0646 87.7978 35.0459 87.8043 35.0285C87.8107 35.0112 87.8202 34.9955 87.8322 34.9824C87.8441 34.9693 87.8583 34.9591 87.8738 34.9524C87.8892 34.9456 87.9058 34.9425 87.9223 34.9432H91.1937C91.2103 34.9425 91.2268 34.9456 91.2423 34.9524C91.2578 34.9591 91.2719 34.9693 91.2839 34.9824C91.2958 34.9955 91.3053 35.0112 91.3118 35.0285C91.3183 35.0459 91.3216 35.0646 91.3216 35.0834C91.3216 35.1023 91.3183 35.1209 91.3118 35.1383C91.3053 35.1556 91.2958 35.1713 91.2839 35.1844C91.2719 35.1975 91.2578 35.2077 91.2423 35.2145C91.2268 35.2212 91.2103 35.2243 91.1937 35.2236H91.1934Z" fill="#367CFF"/>
<path d="M62.1861 32.6934H59.408C59.3753 32.6934 59.3439 32.6787 59.3208 32.6523C59.2977 32.626 59.2847 32.5904 59.2847 32.5531C59.2847 32.5159 59.2977 32.4802 59.3208 32.4539C59.3439 32.4276 59.3753 32.4128 59.408 32.4128H62.1861C62.2188 32.4128 62.2502 32.4276 62.2733 32.4539C62.2965 32.4802 62.3095 32.5159 62.3095 32.5531C62.3095 32.5904 62.2965 32.626 62.2733 32.6523C62.2502 32.6787 62.2188 32.6934 62.1861 32.6934Z" fill="#0CBC8B"/>
<path d="M83.7936 32.6934H64.8568C64.8241 32.6934 64.7927 32.6787 64.7695 32.6523C64.7464 32.626 64.7334 32.5904 64.7334 32.5531C64.7334 32.5159 64.7464 32.4802 64.7695 32.4539C64.7927 32.4276 64.8241 32.4128 64.8568 32.4128H83.7936C83.8263 32.4128 83.8577 32.4276 83.8809 32.4539C83.904 32.4802 83.917 32.5159 83.917 32.5531C83.917 32.5904 83.904 32.626 83.8809 32.6523C83.8577 32.6787 83.8263 32.6934 83.7936 32.6934Z" fill="#367CFF"/>
<path d="M96.9428 32.6934H86.764C86.7313 32.6934 86.6999 32.6787 86.6768 32.6523C86.6536 32.626 86.6406 32.5904 86.6406 32.5531C86.6406 32.5159 86.6536 32.4802 86.6768 32.4539C86.6999 32.4276 86.7313 32.4128 86.764 32.4128H96.9428C96.9755 32.4128 97.0069 32.4276 97.03 32.4539C97.0532 32.4802 97.0662 32.5159 97.0662 32.5531C97.0662 32.5904 97.0532 32.626 97.03 32.6523C97.0069 32.6787 96.9755 32.6934 96.9428 32.6934Z" fill="#292A2E"/>
<path d="M77.8509 37.7534H59.408C59.3753 37.7534 59.3439 37.7386 59.3208 37.7123C59.2977 37.686 59.2847 37.6503 59.2847 37.6131C59.2847 37.5759 59.2977 37.5402 59.3208 37.5139C59.3439 37.4876 59.3753 37.4728 59.408 37.4728H77.8509C77.8836 37.4728 77.915 37.4876 77.9381 37.5139C77.9613 37.5402 77.9743 37.5759 77.9743 37.6131C77.9743 37.6503 77.9613 37.686 77.9381 37.7123C77.915 37.7386 77.8836 37.7534 77.8509 37.7534Z" fill="#292A2E"/>
<path d="M86.2597 37.7534H80.5213C80.4886 37.7534 80.4572 37.7386 80.4341 37.7123C80.4109 37.686 80.3979 37.6503 80.3979 37.6131C80.3979 37.5759 80.4109 37.5402 80.4341 37.5139C80.4572 37.4876 80.4886 37.4728 80.5213 37.4728H86.2597C86.2925 37.4728 86.3238 37.4876 86.347 37.5139C86.3701 37.5402 86.3831 37.5759 86.3831 37.6131C86.3831 37.6503 86.3701 37.686 86.347 37.7123C86.3238 37.7386 86.2925 37.7534 86.2597 37.7534Z" fill="#0CBC8B"/>
<path d="M96.9214 37.7534H88.7162C88.6834 37.7534 88.652 37.7386 88.6289 37.7123C88.6058 37.686 88.5928 37.6503 88.5928 37.6131C88.5928 37.5759 88.6058 37.5402 88.6289 37.5139C88.652 37.4876 88.6834 37.4728 88.7162 37.4728H96.9214C96.9541 37.4728 96.9855 37.4876 97.0087 37.5139C97.0318 37.5402 97.0448 37.5759 97.0448 37.6131C97.0448 37.6503 97.0318 37.686 97.0087 37.7123C96.9855 37.7386 96.9541 37.7534 96.9214 37.7534Z" fill="#292A2E"/>
<path d="M62.1861 40.2846H59.408C59.3753 40.2846 59.3439 40.2698 59.3208 40.2435C59.2977 40.2172 59.2847 40.1815 59.2847 40.1443C59.2847 40.1071 59.2977 40.0714 59.3208 40.0451C59.3439 40.0188 59.3753 40.004 59.408 40.004H62.1861C62.2188 40.004 62.2502 40.0188 62.2733 40.0451C62.2965 40.0714 62.3095 40.1071 62.3095 40.1443C62.3095 40.1815 62.2965 40.2172 62.2733 40.2435C62.2502 40.2698 62.2188 40.2846 62.1861 40.2846Z" fill="#367CFF"/>
<path d="M83.7936 40.2846H64.8568C64.8241 40.2846 64.7927 40.2698 64.7695 40.2435C64.7464 40.2172 64.7334 40.1815 64.7334 40.1443C64.7334 40.1071 64.7464 40.0714 64.7695 40.0451C64.7927 40.0188 64.8241 40.004 64.8568 40.004H83.7936C83.8263 40.004 83.8577 40.0188 83.8809 40.0451C83.904 40.0714 83.917 40.1071 83.917 40.1443C83.917 40.1815 83.904 40.2172 83.8809 40.2435C83.8577 40.2698 83.8263 40.2846 83.7936 40.2846Z" fill="#0CBC8B"/>
<path d="M77.3571 50.4062H58.9144C58.8817 50.4062 58.8503 50.3914 58.8272 50.3651C58.804 50.3388 58.791 50.3031 58.791 50.2659C58.791 50.2287 58.804 50.193 58.8272 50.1667C58.8503 50.1404 58.8817 50.1256 58.9144 50.1256H77.3571C77.3898 50.1256 77.4212 50.1404 77.4443 50.1667C77.4674 50.193 77.4804 50.2287 77.4804 50.2659C77.4804 50.3031 77.4674 50.3388 77.4443 50.3651C77.4212 50.3914 77.3898 50.4062 77.3571 50.4062Z" fill="#292A2E"/>
<path d="M90.7003 50.4062H80.0277C79.9949 50.4062 79.9636 50.3914 79.9404 50.3651C79.9173 50.3388 79.9043 50.3031 79.9043 50.2659C79.9043 50.2287 79.9173 50.193 79.9404 50.1667C79.9636 50.1404 79.9949 50.1256 80.0277 50.1256H90.7003C90.733 50.1256 90.7644 50.1404 90.7875 50.1667C90.8107 50.193 90.8237 50.2287 90.8237 50.2659C90.8237 50.3031 90.8107 50.3388 90.7875 50.3651C90.7644 50.3914 90.733 50.4062 90.7003 50.4062Z" fill="#367CFF"/>
<path d="M66.6272 47.8758H58.9144C58.8817 47.8758 58.8503 47.861 58.8272 47.8347C58.804 47.8084 58.791 47.7727 58.791 47.7355C58.791 47.6983 58.804 47.6626 58.8272 47.6363C58.8503 47.61 58.8817 47.5952 58.9144 47.5952H66.6272C66.6599 47.5952 66.6913 47.61 66.7144 47.6363C66.7375 47.6626 66.7505 47.6983 66.7505 47.7355C66.7505 47.7727 66.7375 47.8084 66.7144 47.8347C66.6913 47.861 66.6599 47.8758 66.6272 47.8758Z" fill="#0CBC8B"/>
<path d="M83.2993 47.8758H69.2967C69.264 47.8758 69.2326 47.861 69.2095 47.8347C69.1863 47.8084 69.1733 47.7727 69.1733 47.7355C69.1733 47.6983 69.1863 47.6626 69.2095 47.6363C69.2326 47.61 69.264 47.5952 69.2967 47.5952H83.2993C83.3321 47.5952 83.3634 47.61 83.3866 47.6363C83.4097 47.6626 83.4227 47.6983 83.4227 47.7355C83.4227 47.7727 83.4097 47.8084 83.3866 47.8347C83.3634 47.861 83.3321 47.8758 83.2993 47.8758Z" fill="#367CFF"/>
<path d="M96.4491 47.8758H86.2704C86.2376 47.8758 86.2062 47.861 86.1831 47.8347C86.16 47.8084 86.147 47.7727 86.147 47.7355C86.147 47.6983 86.16 47.6626 86.1831 47.6363C86.2062 47.61 86.2376 47.5952 86.2704 47.5952H96.4491C96.4819 47.5952 96.5132 47.61 96.5364 47.6363C96.5595 47.6626 96.5725 47.6983 96.5725 47.7355C96.5725 47.7727 96.5595 47.8084 96.5364 47.8347C96.5132 47.861 96.4819 47.8758 96.4491 47.8758Z" fill="#292A2E"/>
<path d="M84.758 55.467H58.9144C58.8817 55.467 58.8503 55.4522 58.8272 55.4259C58.804 55.3996 58.791 55.3639 58.791 55.3267C58.791 55.2895 58.804 55.2538 58.8272 55.2275C58.8503 55.2012 58.8817 55.1864 58.9144 55.1864H84.758C84.7907 55.1864 84.8221 55.2012 84.8452 55.2275C84.8684 55.2538 84.8814 55.2895 84.8814 55.3267C84.8814 55.3639 84.8684 55.3996 84.8452 55.4259C84.8221 55.4522 84.7907 55.467 84.758 55.467Z" fill="#367CFF"/>
<path d="M92.3649 55.467H87.4286C87.3958 55.467 87.3645 55.4522 87.3413 55.4259C87.3182 55.3996 87.3052 55.3639 87.3052 55.3267C87.3052 55.2895 87.3182 55.2538 87.3413 55.2275C87.3645 55.2012 87.3958 55.1864 87.4286 55.1864H92.3649C92.3977 55.1864 92.429 55.2012 92.4522 55.2275C92.4753 55.2538 92.4883 55.2895 92.4883 55.3267C92.4883 55.3639 92.4753 55.3996 92.4522 55.4259C92.429 55.4522 92.3977 55.467 92.3649 55.467Z" fill="#292A2E"/>
<path d="M61.6924 52.9365H58.9145C58.898 52.9372 58.8814 52.9341 58.8659 52.9274C58.8505 52.9206 58.8363 52.9104 58.8244 52.8973C58.8124 52.8842 58.8029 52.8685 58.7965 52.8512C58.79 52.8338 58.7866 52.8152 58.7866 52.7963C58.7866 52.7774 58.79 52.7588 58.7965 52.7414C58.8029 52.7241 58.8124 52.7084 58.8244 52.6953C58.8363 52.6822 58.8505 52.672 58.8659 52.6653C58.8814 52.6585 58.898 52.6554 58.9145 52.6561H61.6924C61.709 52.6554 61.7255 52.6585 61.741 52.6653C61.7565 52.672 61.7706 52.6822 61.7826 52.6953C61.7945 52.7084 61.804 52.7241 61.8105 52.7414C61.817 52.7588 61.8203 52.7774 61.8203 52.7963C61.8203 52.8152 61.817 52.8338 61.8105 52.8512C61.804 52.8685 61.7945 52.8842 61.7826 52.8973C61.7706 52.9104 61.7565 52.9206 61.741 52.9274C61.7255 52.9341 61.709 52.9372 61.6924 52.9365Z" fill="#367CFF"/>
<path d="M83.2993 52.9365H64.3628C64.3462 52.9372 64.3297 52.9341 64.3142 52.9274C64.2987 52.9206 64.2846 52.9104 64.2726 52.8973C64.2607 52.8842 64.2512 52.8685 64.2447 52.8512C64.2382 52.8338 64.2349 52.8152 64.2349 52.7963C64.2349 52.7774 64.2382 52.7588 64.2447 52.7414C64.2512 52.7241 64.2607 52.7084 64.2726 52.6953C64.2846 52.6822 64.2987 52.672 64.3142 52.6653C64.3297 52.6585 64.3462 52.6554 64.3628 52.6561H83.2993C83.3159 52.6554 83.3324 52.6585 83.3479 52.6653C83.3634 52.672 83.3775 52.6822 83.3894 52.6953C83.4014 52.7084 83.4109 52.7241 83.4174 52.7414C83.4239 52.7588 83.4272 52.7774 83.4272 52.7963C83.4272 52.8152 83.4239 52.8338 83.4174 52.8512C83.4109 52.8685 83.4014 52.8842 83.3894 52.8973C83.3775 52.9104 83.3634 52.9206 83.3479 52.9274C83.3324 52.9341 83.3159 52.9372 83.2993 52.9365Z" fill="#292A2E"/>
<path d="M96.4493 52.9365H86.2705C86.2539 52.9372 86.2374 52.9341 86.2219 52.9274C86.2064 52.9206 86.1923 52.9104 86.1803 52.8973C86.1684 52.8842 86.1589 52.8685 86.1524 52.8512C86.1459 52.8338 86.1426 52.8152 86.1426 52.7963C86.1426 52.7774 86.1459 52.7588 86.1524 52.7414C86.1589 52.7241 86.1684 52.7084 86.1803 52.6953C86.1923 52.6822 86.2064 52.672 86.2219 52.6653C86.2374 52.6585 86.2539 52.6554 86.2705 52.6561H96.4493C96.4659 52.6554 96.4824 52.6585 96.4979 52.6653C96.5134 52.672 96.5275 52.6822 96.5394 52.6953C96.5514 52.7084 96.5609 52.7241 96.5674 52.7414C96.5738 52.7588 96.5772 52.7774 96.5772 52.7963C96.5772 52.8152 96.5738 52.8338 96.5674 52.8512C96.5609 52.8685 96.5514 52.8842 96.5394 52.8973C96.5275 52.9104 96.5134 52.9206 96.4979 52.9274C96.4824 52.9341 96.4659 52.9372 96.4493 52.9365Z" fill="#0CBC8B"/>
<path d="M77.3571 57.9974H58.9144C58.8817 57.9974 58.8503 57.9826 58.8272 57.9563C58.804 57.93 58.791 57.8943 58.791 57.8571C58.791 57.8199 58.804 57.7842 58.8272 57.7579C58.8503 57.7316 58.8817 57.7168 58.9144 57.7168H77.3571C77.3898 57.7168 77.4212 57.7316 77.4443 57.7579C77.4674 57.7842 77.4804 57.8199 77.4804 57.8571C77.4804 57.8943 77.4674 57.93 77.4443 57.9563C77.4212 57.9826 77.3898 57.9974 77.3571 57.9974Z" fill="#0CBC8B"/>
<path d="M85.7661 57.9974H80.0277C79.995 57.9974 79.9636 57.9826 79.9404 57.9563C79.9173 57.93 79.9043 57.8943 79.9043 57.8571C79.9043 57.8199 79.9173 57.7842 79.9404 57.7579C79.9636 57.7316 79.995 57.7168 80.0277 57.7168H85.7661C85.7988 57.7168 85.8302 57.7316 85.8533 57.7579C85.8765 57.7842 85.8895 57.8199 85.8895 57.8571C85.8895 57.8943 85.8765 57.93 85.8533 57.9563C85.8302 57.9826 85.7988 57.9974 85.7661 57.9974Z" fill="#292A2E"/>
<path d="M96.4275 57.9974H88.222C88.1893 57.9974 88.1579 57.9826 88.1348 57.9563C88.1116 57.93 88.0986 57.8943 88.0986 57.8571C88.0986 57.8199 88.1116 57.7842 88.1348 57.7579C88.1579 57.7316 88.1893 57.7168 88.222 57.7168H96.4273C96.46 57.7168 96.4914 57.7316 96.5145 57.7579C96.5377 57.7842 96.5507 57.8199 96.5507 57.8571C96.5507 57.8943 96.5377 57.93 96.5145 57.9563C96.4914 57.9826 96.46 57.9974 96.4273 57.9974H96.4275Z" fill="#367CFF"/>
<path d="M50.4881 59.3796C50.4719 59.3796 50.4559 59.376 50.4409 59.3689C50.426 59.3619 50.4124 59.3516 50.4009 59.3386C50.3894 59.3256 50.3803 59.3101 50.3741 59.2931C50.3679 59.2761 50.3647 59.2579 50.3647 59.2394V20.6852C50.3647 20.648 50.3777 20.6123 50.4009 20.586C50.424 20.5597 50.4554 20.5449 50.4881 20.5449C50.5208 20.5449 50.5522 20.5597 50.5754 20.586C50.5985 20.6123 50.6115 20.648 50.6115 20.6852V59.2394C50.6115 59.2579 50.6083 59.2761 50.6021 59.2931C50.5959 59.3101 50.5868 59.3256 50.5754 59.3386C50.5639 59.3516 50.5503 59.3619 50.5353 59.3689C50.5204 59.376 50.5043 59.3796 50.4881 59.3796Z" fill="#292A2E"/>
<path d="M44.847 22.4371H39.5047C39.472 22.4371 39.4406 22.4223 39.4175 22.396C39.3943 22.3697 39.3813 22.334 39.3813 22.2968C39.3813 22.2596 39.3943 22.2239 39.4175 22.1976C39.4406 22.1713 39.472 22.1565 39.5047 22.1565H44.8464C44.8791 22.1565 44.9105 22.1713 44.9336 22.1976C44.9567 22.2239 44.9697 22.2596 44.9697 22.2968C44.9697 22.334 44.9567 22.3697 44.9336 22.396C44.9105 22.4223 44.8791 22.4371 44.8464 22.4371H44.847Z" fill="#292A2E"/>
<path d="M43.2376 25.2036H39.5044C39.4878 25.2043 39.4713 25.2012 39.4558 25.1944C39.4403 25.1877 39.4262 25.1775 39.4142 25.1644C39.4023 25.1513 39.3928 25.1356 39.3863 25.1183C39.3798 25.1009 39.3765 25.0822 39.3765 25.0634C39.3765 25.0445 39.3798 25.0259 39.3863 25.0085C39.3928 24.9912 39.4023 24.9755 39.4142 24.9624C39.4262 24.9493 39.4403 24.9391 39.4558 24.9323C39.4713 24.9256 39.4878 24.9225 39.5044 24.9232H43.237C43.2689 24.9245 43.2991 24.9399 43.3213 24.966C43.3434 24.9922 43.3558 25.0271 43.3558 25.0634C43.3558 25.0997 43.3434 25.1346 43.3213 25.1608C43.2991 25.1869 43.2689 25.2023 43.237 25.2036H43.2376Z" fill="#292A2E"/>
<path d="M46.5202 27.9704H39.5047C39.472 27.9704 39.4406 27.9556 39.4175 27.9293C39.3943 27.903 39.3813 27.8673 39.3813 27.8301C39.3813 27.7929 39.3943 27.7572 39.4175 27.7309C39.4406 27.7046 39.472 27.6898 39.5047 27.6898H46.5195C46.5522 27.6898 46.5836 27.7046 46.6068 27.7309C46.6299 27.7572 46.6429 27.7929 46.6429 27.8301C46.6429 27.8673 46.6299 27.903 46.6068 27.9293C46.5836 27.9556 46.5522 27.9704 46.5195 27.9704H46.5202Z" fill="#292A2E"/>
<path d="M47.8284 30.7369H41.9721C41.9556 30.7376 41.939 30.7345 41.9236 30.7278C41.9081 30.721 41.8939 30.7108 41.882 30.6977C41.8701 30.6846 41.8606 30.669 41.8541 30.6516C41.8476 30.6342 41.8442 30.6156 41.8442 30.5967C41.8442 30.5779 41.8476 30.5592 41.8541 30.5418C41.8606 30.5245 41.8701 30.5088 41.882 30.4957C41.8939 30.4826 41.9081 30.4724 41.9236 30.4657C41.939 30.4589 41.9556 30.4558 41.9721 30.4565H47.8284C47.845 30.4558 47.8615 30.4589 47.877 30.4657C47.8925 30.4724 47.9067 30.4826 47.9186 30.4957C47.9305 30.5088 47.94 30.5245 47.9465 30.5418C47.953 30.5592 47.9563 30.5779 47.9563 30.5967C47.9563 30.6156 47.953 30.6342 47.9465 30.6516C47.94 30.669 47.9305 30.6846 47.9186 30.6977C47.9067 30.7108 47.8925 30.721 47.877 30.7278C47.8615 30.7345 47.845 30.7376 47.8284 30.7369Z" fill="#292A2E"/>
<path d="M44.9966 33.5037H41.972C41.9393 33.5037 41.9079 33.489 41.8848 33.4626C41.8616 33.4363 41.8486 33.4007 41.8486 33.3634C41.8486 33.3262 41.8616 33.2905 41.8848 33.2642C41.9079 33.2379 41.9393 33.2231 41.972 33.2231H44.9966C45.0294 33.2231 45.0607 33.2379 45.0839 33.2642C45.107 33.2905 45.12 33.3262 45.12 33.3634C45.12 33.4007 45.107 33.4363 45.0839 33.4626C45.0607 33.489 45.0294 33.5037 44.9966 33.5037Z" fill="#292A2E"/>
<path d="M47.3132 36.2705H41.972C41.9393 36.2705 41.9079 36.2557 41.8848 36.2294C41.8616 36.2031 41.8486 36.1674 41.8486 36.1302C41.8486 36.093 41.8616 36.0573 41.8848 36.031C41.9079 36.0047 41.9393 35.9899 41.972 35.9899H47.3132C47.3459 35.9899 47.3773 36.0047 47.4004 36.031C47.4235 36.0573 47.4365 36.093 47.4365 36.1302C47.4365 36.1674 47.4235 36.2031 47.4004 36.2294C47.3773 36.2557 47.3459 36.2705 47.3132 36.2705Z" fill="#292A2E"/>
<path d="M43.6241 39.0371H39.5047C39.472 39.0371 39.4406 39.0223 39.4175 38.996C39.3943 38.9697 39.3813 38.934 39.3813 38.8968C39.3813 38.8596 39.3943 38.8239 39.4175 38.7976C39.4406 38.7713 39.472 38.7565 39.5047 38.7565H43.6234C43.6561 38.7565 43.6875 38.7713 43.7107 38.7976C43.7338 38.8239 43.7468 38.8596 43.7468 38.8968C43.7468 38.934 43.7338 38.9697 43.7107 38.996C43.6875 39.0223 43.6561 39.0371 43.6234 39.0371H43.6241Z" fill="#292A2E"/>
<path d="M42.2082 41.8038H39.5047C39.472 41.8038 39.4406 41.789 39.4175 41.7627C39.3943 41.7364 39.3813 41.7007 39.3813 41.6635C39.3813 41.6263 39.3943 41.5906 39.4175 41.5643C39.4406 41.538 39.472 41.5232 39.5047 41.5232H42.2075C42.2402 41.5232 42.2716 41.538 42.2948 41.5643C42.3179 41.5906 42.3309 41.6263 42.3309 41.6635C42.3309 41.7007 42.3179 41.7364 42.2948 41.7627C42.2716 41.789 42.2402 41.8038 42.2075 41.8038H42.2082Z" fill="#292A2E"/>
<path d="M53.0429 21.8437V21.8943L54.5848 22.545C54.6069 22.5552 54.6257 22.5727 54.6389 22.5953C54.6521 22.6178 54.659 22.6443 54.6588 22.6713V22.719C54.6591 22.7402 54.6547 22.761 54.6459 22.7797C54.6372 22.7983 54.6244 22.8141 54.6088 22.8256C54.5932 22.8381 54.5751 22.846 54.5561 22.8484C54.5371 22.8509 54.5179 22.8479 54.5003 22.8396L52.7587 22.0653C52.7369 22.0554 52.7182 22.0384 52.705 22.0164C52.6918 21.9944 52.6847 21.9684 52.6846 21.9418V21.7989C52.6844 21.7722 52.6914 21.746 52.7046 21.7239C52.7179 21.7019 52.7367 21.685 52.7587 21.6754L54.5003 20.8991C54.5145 20.8936 54.5295 20.8907 54.5445 20.8906C54.5674 20.8912 54.5896 20.899 54.6088 20.9132C54.6245 20.9252 54.6373 20.9415 54.646 20.9606C54.6548 20.9798 54.6591 21.0011 54.6588 21.0226V21.0701C54.6593 21.0969 54.6524 21.1232 54.6392 21.1453C54.6259 21.1674 54.6069 21.1843 54.5848 21.1936L53.0429 21.8437Z" fill="#367CFF"/>
<path d="M56.0997 20.326L55.1771 23.5381C55.1697 23.5649 55.1549 23.5884 55.1349 23.605C55.115 23.6217 55.0908 23.6307 55.0661 23.6307C55.0482 23.631 55.0305 23.6263 55.0145 23.617C54.9986 23.6077 54.9849 23.5941 54.9747 23.5773C54.9637 23.5607 54.9562 23.5414 54.9528 23.521C54.9494 23.5006 54.9501 23.4796 54.955 23.4595L55.8776 20.2503C55.8856 20.2231 55.9008 20.1994 55.9211 20.1824C55.9415 20.1655 55.9659 20.1561 55.9912 20.1556C56.009 20.1556 56.0266 20.1605 56.0425 20.1697C56.0584 20.179 56.072 20.1925 56.0824 20.209C56.0933 20.2255 56.1006 20.2448 56.1036 20.2651C56.1066 20.2855 56.1053 20.3064 56.0997 20.326Z" fill="#367CFF"/>
<path d="M58.3652 21.7989V21.9418C58.3655 21.9682 58.3589 21.9941 58.3462 22.0161C58.3334 22.0381 58.3152 22.0553 58.2937 22.0653L56.5495 22.8397C56.5322 22.8478 56.5134 22.8508 56.4948 22.8483C56.4763 22.8459 56.4586 22.8381 56.4434 22.8257C56.4277 22.8142 56.4147 22.7985 56.4056 22.7798C56.3966 22.7612 56.3918 22.7403 56.3916 22.7191V22.6714C56.3913 22.6439 56.3985 22.617 56.4122 22.5943C56.4259 22.5717 56.4455 22.5545 56.4682 22.5451L58.01 21.8943V21.8438L56.4682 21.1928C56.4455 21.1843 56.4258 21.1677 56.412 21.1455C56.3982 21.1232 56.3911 21.0966 56.3916 21.0694V21.0219C56.3917 21.0002 56.3965 20.9789 56.4055 20.9598C56.4146 20.9407 56.4276 20.9245 56.4434 20.9124C56.4625 20.8983 56.4847 20.8905 56.5075 20.8899C56.5218 20.8897 56.5361 20.8926 56.5495 20.8984L58.2937 21.6747C58.3154 21.6845 58.334 21.7017 58.3468 21.7239C58.3595 21.7462 58.366 21.7723 58.3652 21.7989Z" fill="#367CFF"/>
<path d="M-4.99406 111.361C-5.99992 111.361 -6.99085 111.085 -7.88251 110.555C-8.77418 110.026 -9.54019 109.26 -10.1154 108.321C-10.6905 107.383 -11.0578 106.3 -11.1859 105.166C-11.3141 104.031 -11.1993 102.878 -10.8514 101.805C-10.4982 100.716 -1.43995 74.1259 0.137632 69.5048L11.0384 76.7184C10.1519 79.3168 6.93948 89.1662 4.35873 97.1005L8.64627 96.5703L9.99492 109.551L-4.31857 111.32C-4.54291 111.348 -4.7684 111.361 -4.99406 111.361Z" fill="#367CFF"/>
<path d="M30.661 63.9762C30.6227 63.9705 29.5738 68.4596 21.387 67.761C15.7193 67.2782 14.3374 62.8913 14.2075 62.8913C14.8186 62.7436 15.8109 62.5902 16.0823 62.4255C16.9747 61.8802 17.6248 61.2164 17.9521 59.7919C18.208 58.6778 18.3384 54.389 18.3384 52.2374L27.0596 54.4659C26.9381 56.8932 26.0873 62.5202 29.0693 63.5161C29.5655 63.6799 30.0999 63.8313 30.661 63.9762Z" fill="#E98862"/>
<path d="M26.758 59.2369C23.32 59.5455 18.9034 57.8947 18.0644 52.6785L17.3075 47.972C16.4685 42.7559 18.1978 38.0263 22.5168 37.1281C26.8356 36.2299 30.744 39.7869 31.5829 45.0031L31.918 47.0869C32.2399 49.0882 32.8924 58.6867 26.758 59.2369Z" fill="#E98862"/>
<path d="M10.4834 63.6125C7.3938 63.8732 4.24346 64.2536 1.97007 66.647C-0.767854 69.5294 -1.26402 73.0736 0.482726 82.827C1.98555 91.2192 1.38932 94.8864 2.39481 110.372C2.42445 110.829 2.48788 111.772 2.48788 111.772L35.5381 111.71C35.5381 111.71 38.635 91.1639 40.3448 81.6875C41.645 74.4832 45.0602 65.7372 30.6605 63.9747C30.6232 63.97 19.0748 62.8877 10.4834 63.6125Z" fill="#367CFF"/>
<path d="M2.48825 111.867C2.46671 111.867 2.446 111.858 2.43047 111.841C2.41495 111.824 2.40582 111.8 2.405 111.776L1.3692 81.2032C1.36878 81.1907 1.37052 81.1783 1.37431 81.1666C1.37811 81.155 1.38389 81.1443 1.39133 81.1351C1.39877 81.126 1.40772 81.1187 1.41766 81.1135C1.42761 81.1083 1.43835 81.1054 1.44929 81.1049C1.46033 81.1039 1.47143 81.1055 1.48188 81.1096C1.49234 81.1138 1.50194 81.1203 1.51006 81.1289C1.51818 81.1374 1.52465 81.1478 1.52906 81.1594C1.53348 81.1709 1.53574 81.1834 1.5357 81.196L2.5715 111.769C2.57231 111.794 2.56433 111.818 2.54931 111.837C2.53429 111.855 2.51347 111.866 2.49141 111.867L2.48825 111.867Z" fill="#0C0C0C"/>
<path d="M55.5213 74.5284L57.8433 68.6055C57.8943 68.4753 57.9686 68.3587 58.0614 68.263C58.1543 68.1673 58.2636 68.0946 58.3825 68.0496C58.5014 68.0046 58.6272 67.9883 58.7519 68.0016C58.8767 68.0149 58.9976 68.0576 59.1071 68.127C59.3058 68.2623 59.4532 68.4766 59.5207 68.7286C59.5883 68.9805 59.5711 69.2519 59.4725 69.4902L58.9747 70.7603L62.1525 67.5836C62.5003 67.2239 63.1299 67.0346 63.4595 67.5049C63.5968 67.6765 63.6788 67.8959 63.6923 68.1274C63.7057 68.3588 63.6498 68.5886 63.5336 68.7793C63.5375 68.782 63.541 68.7853 63.5441 68.7891C63.5461 68.7924 63.5479 68.7958 63.5494 68.7993L64.0859 68.244C64.1853 68.1412 64.3036 68.0649 64.4322 68.0207C64.5609 67.9765 64.6965 67.9655 64.8294 67.9884C64.9622 68.0114 65.0889 68.0678 65.2002 68.1534C65.3114 68.2391 65.4045 68.352 65.4725 68.4837C65.576 68.6937 65.613 68.9377 65.5772 69.1749C65.5415 69.4121 65.4351 69.6282 65.276 69.7869L65.0478 70.0234C65.0506 70.0341 65.0519 70.0452 65.0514 70.0563C65.2383 69.9374 65.4562 69.8979 65.6663 69.9449C65.8764 69.9919 66.065 70.1223 66.1983 70.3129C66.3387 70.5263 66.4032 70.7921 66.3789 71.0572C66.3546 71.3223 66.2433 71.5672 66.0672 71.7431L65.5003 72.3301C65.5135 72.3282 65.5268 72.3299 65.5393 72.3351C65.5517 72.3402 65.5629 72.3487 65.5719 72.3598C65.582 72.3735 65.5884 72.3903 65.5902 72.4081C65.7825 72.3546 65.9848 72.3745 66.1662 72.4646C66.3476 72.5547 66.4979 72.7101 66.594 72.9068C66.6914 73.1158 66.7238 73.356 66.6861 73.5886C66.6483 73.8212 66.5426 74.0325 66.3861 74.1882L61.6017 79.1414C60.9324 79.8343 60.0963 80.2842 59.2007 80.4332C58.305 80.5823 57.3907 80.4238 56.5748 79.978C55.8712 79.5938 55.3271 78.9127 55.0582 78.0796C54.7892 77.2464 54.8165 76.3268 55.1344 75.5162L55.5213 74.5284Z" fill="#E98862"/>
<g opacity="0.2">
<path d="M60.4012 71.9407C60.4159 71.9589 60.4364 71.9699 60.4582 71.9712C60.48 71.9724 60.5014 71.9639 60.5177 71.9475L63.5365 68.9221C63.5531 68.9055 63.5632 68.882 63.5646 68.857C63.566 68.8319 63.5586 68.8072 63.5439 68.7883C63.5293 68.7695 63.5087 68.758 63.4867 68.7564C63.4646 68.7548 63.4429 68.7633 63.4263 68.7799L60.4077 71.8053C60.3995 71.8135 60.3927 71.8235 60.3879 71.8346C60.3831 71.8458 60.3803 71.8579 60.3796 71.8704C60.3789 71.8828 60.3803 71.8952 60.3839 71.907C60.3874 71.9188 60.393 71.9296 60.4002 71.939L60.4012 71.9407Z" fill="#0C0C0C"/>
</g>
<g opacity="0.2">
<path d="M61.5375 73.4912C61.5522 73.5095 61.5727 73.5205 61.5945 73.5218C61.6163 73.523 61.6377 73.5145 61.654 73.4981L65.023 70.1218C65.0312 70.1136 65.0379 70.1036 65.0427 70.0925C65.0475 70.0813 65.0503 70.0691 65.051 70.0567C65.0517 70.0443 65.0502 70.0319 65.0467 70.0201C65.0431 70.0083 65.0375 69.9975 65.0303 69.9882C65.0153 69.97 64.9949 69.9591 64.973 69.9575C64.9512 69.9559 64.9296 69.9638 64.9128 69.9797L61.5438 73.3561C61.5356 73.3643 61.5289 73.3743 61.5241 73.3854C61.5193 73.3966 61.5165 73.4088 61.5158 73.4212C61.5151 73.4336 61.5166 73.446 61.5201 73.4578C61.5237 73.4696 61.5292 73.4804 61.5365 73.4897L61.5375 73.4912Z" fill="#0C0C0C"/>
</g>
<g opacity="0.2">
<path d="M62.7606 75.179C62.7754 75.1972 62.7959 75.2082 62.8177 75.2095C62.8395 75.2108 62.8608 75.2022 62.8772 75.1858L65.5645 72.4925C65.581 72.4759 65.5911 72.4524 65.5925 72.4274C65.5939 72.4023 65.5864 72.3777 65.5718 72.3588C65.5572 72.34 65.5366 72.3285 65.5145 72.327C65.4925 72.3254 65.4708 72.3339 65.4543 72.3505L62.767 75.0438C62.7588 75.052 62.7521 75.062 62.7472 75.0732C62.7424 75.0843 62.7396 75.0965 62.7389 75.1089C62.7383 75.1213 62.7397 75.1337 62.7433 75.1455C62.7468 75.1573 62.7524 75.1681 62.7596 75.1774L62.7606 75.179Z" fill="#0C0C0C"/>
</g>
<path d="M29.9453 53.8909C29.3532 50.5079 29.0816 48.2508 29.1128 45.8697C29.9466 44.2062 29.7275 42.2972 29.5378 41.472C29.7768 41.6269 30.0268 41.7585 30.2853 41.8655C30.4054 41.913 30.535 41.9205 30.6588 41.8872C30.7827 41.8538 30.8955 41.781 30.9842 41.6772C31.0728 41.5734 31.1336 41.443 31.1593 41.3014C31.185 41.1597 31.1747 41.0126 31.1294 40.8773C30.4841 38.9772 28.8252 35.2848 25.4008 34.0475C24.5389 33.666 22.3372 33.1841 19.4157 33.6398C16.9302 34.0276 11.3028 36.709 10.4275 44.5525V44.5569C10.3985 44.817 9.31079 51.4759 8.13797 54.9434C6.56138 59.6046 4.34777 61.053 4.40388 66.4309C4.47614 73.3488 15.6593 74.2694 22.4058 73.7521C29.1524 73.2348 32.9171 70.7123 32.9659 65.727C33.019 60.1405 31.1294 60.6592 29.9453 53.8909Z" fill="#0A0A0A"/>
<path d="M29.9471 51.492C28.6345 51.7651 27.3137 50.3895 27.0738 48.897C26.8338 47.4045 27.4319 45.8698 29.1124 45.8698L29.9471 51.492Z" fill="#E98862"/>
<path d="M44.0649 110.287C42.7447 110.287 41.4585 109.811 40.3909 108.928C39.3233 108.045 38.5292 106.8 38.1226 105.372L29.4478 74.863L41.3295 70.4943L45.8916 86.5411L53.7759 72.2833L64.3478 79.8425L49.3491 106.967C48.7871 107.983 48.0075 108.821 47.0834 109.401C46.1593 109.982 45.1208 110.287 44.0649 110.287Z" fill="#367CFF"/>
<path d="M37.0648 101.863C37.0596 101.863 37.0545 101.863 37.0494 101.862C37.0277 101.857 37.0085 101.843 36.9961 101.822C36.9836 101.801 36.9788 101.776 36.9828 101.751L39.9317 83.5484C39.9337 83.5362 39.9378 83.5245 39.9437 83.5141C39.9497 83.5036 39.9574 83.4946 39.9664 83.4876C39.9754 83.4805 39.9855 83.4755 39.9962 83.4729C40.0069 83.4703 40.018 83.4701 40.0287 83.4724C40.0395 83.4746 40.0497 83.4793 40.0589 83.486C40.0681 83.4928 40.076 83.5015 40.0822 83.5118C40.0884 83.522 40.0928 83.5336 40.0951 83.5457C40.0974 83.5579 40.0975 83.5704 40.0956 83.5827L37.1465 101.786C37.1429 101.808 37.1327 101.827 37.1178 101.841C37.1029 101.855 37.0841 101.863 37.0648 101.863Z" fill="#0C0C0C"/>
<path d="M46.9528 90.8373C46.9344 90.8373 46.9165 90.8303 46.9019 90.8175C46.8873 90.8047 46.8769 90.7867 46.8722 90.7665L45.8899 86.4636C45.8843 86.4393 45.8875 86.4135 45.8987 86.3919C45.9099 86.3702 45.9282 86.3545 45.9496 86.3482C45.9709 86.3419 45.9936 86.3456 46.0127 86.3583C46.0317 86.371 46.0455 86.3918 46.051 86.4161L47.0334 90.7189C47.0366 90.7329 47.0369 90.7476 47.0343 90.7618C47.0317 90.7759 47.0264 90.7892 47.0186 90.8006C47.0108 90.8121 47.0008 90.8213 46.9893 90.8277C46.9779 90.834 46.9654 90.8373 46.9526 90.8373H46.9528Z" fill="#0C0C0C"/>
<path d="M113.783 90.1158H81.2315C81.0278 90.1158 80.8264 90.0667 80.6406 89.9717C80.4549 89.8767 80.2889 89.738 80.1537 89.5648C80.0185 89.3915 79.9171 89.1876 79.8563 88.9666C79.7955 88.7455 79.7765 88.5123 79.8007 88.2823L80.6717 80.0175C80.7137 79.6195 80.8824 79.2528 81.1461 78.9868C81.4097 78.7208 81.75 78.574 82.1024 78.574H113.783C114.165 78.574 114.532 78.7467 114.802 79.0539C115.072 79.3612 115.224 79.7779 115.224 80.2125V88.4775C115.224 88.912 115.072 89.3287 114.802 89.6359C114.532 89.9431 114.165 90.1158 113.783 90.1158Z" fill="#292A2E"/>
<path d="M90.0369 90.1934L91.429 84.1186C91.4597 83.9851 91.4655 83.8458 91.4462 83.7095C91.4269 83.5733 91.3829 83.4432 91.3169 83.3274C91.2509 83.2116 91.1644 83.1127 91.0629 83.037C90.9615 82.9614 90.8472 82.9106 90.7276 82.8879C89.737 82.6751 89.6163 84.2269 89.4289 84.9706L88.7141 80.3843C88.605 79.1472 87.1425 79.1067 87.0343 80.3392C87.0265 80.3378 87.0185 80.3393 87.0116 80.3436C87.0461 78.0905 84.8526 78.2649 85.2281 80.2395C85.2201 80.2455 85.2132 80.2531 85.2076 80.2618C84.8413 79.1695 83.34 79.6806 83.5426 80.8391L83.6591 81.6722C83.6521 81.6638 83.6437 81.657 83.6344 81.6523C83.6251 81.6476 83.6151 81.6451 83.6049 81.6448C83.5947 81.6446 83.5846 81.6466 83.5751 81.6508C83.5656 81.655 83.5569 81.6613 83.5496 81.6693C83.0459 80.8584 81.8112 81.4533 82.0011 82.4685L82.9865 89.5025C83.5501 94.0518 89.4375 95.5784 90.0369 90.1934Z" fill="#E98862"/>
<g opacity="0.2">
<path d="M87.7227 84.8821C87.5062 84.859 87.0434 80.5788 86.9568 80.4449C86.9531 80.4209 86.9579 80.3963 86.9702 80.3764C86.9825 80.3565 87.0012 80.343 87.0223 80.3388C87.0434 80.3346 87.065 80.3401 87.0825 80.354C87.1 80.368 87.1119 80.3893 87.1156 80.4133L87.7893 84.7757C87.7911 84.7877 87.7909 84.8 87.7885 84.8118C87.7862 84.8237 87.7818 84.8349 87.7756 84.8448C87.7694 84.8547 87.7615 84.8631 87.7524 84.8695C87.7433 84.8759 87.7332 84.8802 87.7227 84.8821Z" fill="#0C0C0C"/>
</g>
<g opacity="0.2">
<path d="M86.0381 85.2737C86.0171 85.2773 85.9958 85.2713 85.9787 85.2572C85.9616 85.243 85.9501 85.2217 85.9467 85.198L85.1936 80.3294C85.1899 80.3055 85.1947 80.2809 85.207 80.261C85.2193 80.241 85.238 80.2275 85.259 80.2232C85.48 80.2003 86.0174 85.0639 86.1055 85.1664C86.1075 85.1785 86.1072 85.1909 86.1049 85.2029C86.1025 85.2149 86.0981 85.2263 86.0918 85.2363C86.0855 85.2463 86.0775 85.2548 86.0683 85.2612C86.059 85.2676 86.0488 85.2719 86.0381 85.2737Z" fill="#0C0C0C"/>
</g>
<g opacity="0.2">
<path d="M84.2164 85.7097C84.1955 85.7133 84.1741 85.7073 84.157 85.6932C84.1399 85.679 84.1284 85.6577 84.125 85.634L83.5242 81.7504C83.5213 81.7268 83.5265 81.7028 83.5388 81.6836C83.5511 81.6643 83.5695 81.6512 83.5901 81.6471C83.6107 81.643 83.632 81.6482 83.6493 81.6616C83.6666 81.6749 83.6787 81.6954 83.6829 81.7187L84.2838 85.6022C84.2858 85.6143 84.2856 85.6267 84.2832 85.6388C84.2809 85.6508 84.2764 85.6621 84.2701 85.6722C84.2638 85.6822 84.2558 85.6907 84.2466 85.6972C84.2374 85.7036 84.2271 85.7079 84.2164 85.7097Z" fill="#0C0C0C"/>
</g>
<path d="M40.5534 111.867H1.85766L-0.601536 90.3814C-0.650883 89.9503 -0.618797 89.5121 -0.507418 89.0962C-0.396039 88.6803 -0.207929 88.2962 0.0443554 87.9696C0.29664 87.6429 0.607295 87.3812 0.955589 87.2019C1.30388 87.0226 1.6818 86.9298 2.06412 86.9298H35.3358C35.9888 86.9296 36.6196 87.1997 37.1104 87.6896C37.6013 88.1794 37.9185 88.8557 38.0031 89.592L40.5534 111.867Z" fill="white"/>
<path d="M38.2043 89.5634C38.1123 88.7716 37.7709 88.0447 37.2433 87.5175C36.7157 86.9904 36.0378 86.6988 35.3355 86.6969H2.06386C1.69837 86.6973 1.33625 86.7763 0.996596 86.9298C0.852907 86.9941 0.714225 87.072 0.582012 87.1627C0.097272 87.4913 -0.292328 87.974 -0.538773 88.5513C-0.785218 89.1286 -0.877738 89.7753 -0.804931 90.4116L1.65261 111.867H2.06386L-0.398672 90.3531C-0.444343 89.9548 -0.414774 89.5499 -0.311935 89.1655C-0.209096 88.7812 -0.0353527 88.4262 0.1977 88.1242C0.430753 87.8223 0.717756 87.5803 1.03956 87.4145C1.36136 87.2487 1.71056 87.1628 2.06386 87.1627H35.3355C35.9383 87.1645 36.5202 87.4146 36.9732 87.8668C37.4263 88.319 37.7199 88.9426 37.7997 89.6221L40.3471 111.867H40.7601L38.2043 89.5634Z" fill="#292A2E"/>
<path d="M38.2961 111.867H-0.400078L-2.85928 90.3814C-2.90871 89.9502 -2.87668 89.5121 -2.76533 89.0961C-2.65399 88.6802 -2.46588 88.2961 -2.21358 87.9694C-1.96128 87.6427 -1.65059 87.381 -1.30226 87.2017C-0.953924 87.0224 -0.575965 86.9297 -0.193619 86.9298H33.0775C33.7304 86.9298 34.3609 87.2 34.8514 87.6899C35.3419 88.1798 35.6589 88.8559 35.7432 89.592L38.2961 111.867Z" fill="#292A2E"/>
<path d="M35.9467 89.5634C35.8898 89.0699 35.7353 88.5975 35.4948 88.1817C35.2543 87.7659 34.934 87.4175 34.5581 87.1627C34.4257 87.0723 34.287 86.9945 34.1435 86.9298C33.8045 86.7762 33.4429 86.6971 33.0779 86.6969H-0.193734C-0.605264 86.6967 -1.01209 86.7964 -1.38703 86.9893C-1.76198 87.1822 -2.0964 87.4638 -2.36795 87.8155C-2.6395 88.1671 -2.84193 88.5806 -2.96171 89.0283C-3.08149 89.476 -3.11586 89.9476 -3.06252 90.4116L-0.606653 111.867H-0.193734L-2.65627 90.3531C-2.70194 89.9548 -2.67237 89.5499 -2.56953 89.1655C-2.46669 88.7812 -2.29295 88.4262 -2.05989 88.1242C-1.82684 87.8223 -1.53984 87.5803 -1.21803 87.4145C-0.896232 87.2487 -0.547032 87.1628 -0.193734 87.1627H33.0774C33.6802 87.1645 34.2621 87.4146 34.7152 87.8668C35.1682 88.319 35.4618 88.9426 35.5416 89.6221L38.0891 111.867H38.502L35.9467 89.5634Z" fill="#292A2E"/>
<path d="M103.979 64.914C104.017 64.9083 104.44 72.9022 112.607 72.2053C118.26 71.7236 120.276 64.9028 120.406 64.9028C119.796 64.7555 118.77 64.5412 118.499 64.3769C117.609 63.8331 116.341 63.267 116.054 61.3011C115.888 60.1679 116.169 54.3715 116.083 53.2249L107.571 55.4274C107.692 57.8488 108.541 63.4618 105.566 64.4551C105.072 64.62 104.538 64.7714 103.979 64.914Z" fill="#E98862"/>
<path d="M107.81 59.2039C111.237 59.5047 115.637 57.8509 116.465 52.6504L117.212 47.9579C118.041 42.7573 116.31 38.0468 112.004 37.16C107.698 36.273 103.808 39.826 102.98 45.0265L102.649 47.1039C102.546 47.8194 102.487 48.5421 102.47 49.2668C102.415 51.1819 102.337 54.0949 103.17 56.2343C103.957 58.2551 105.621 59.0117 107.81 59.2039Z" fill="#E98862"/>
<path d="M115.496 36.8934C114.136 36.411 112.724 36.138 111.3 36.0818C111.162 35.4636 110.855 34.9836 110.402 34.7822C109.649 34.4476 108.73 34.9865 108.118 36.0246C107.778 35.4316 107.316 34.8973 106.705 34.6803C105.02 34.0833 104.936 36.837 104.936 36.837C104.936 36.837 102.263 33.8378 102.18 37.6631C102.079 42.2914 102.826 43.6487 103.372 43.9914C104.45 44.6681 105.252 44.5537 105.679 45.5492C106.97 48.564 105.704 57.0559 107.199 58.1192C109.488 59.7475 114.177 59.8043 115.7 59.6804C116.286 59.6327 116.834 58.8608 117.081 58.2547C117.877 56.2985 119.654 51.8636 120.148 50.0295C121.061 46.6453 120.992 38.9341 115.496 36.8934Z" fill="#0C0C0C"/>
<path d="M106.175 55.0862C107.497 54.923 108.416 53.1823 108.272 51.6782C108.128 50.1741 106.978 49.4781 105.655 49.6412L105.07 50.7327L105.039 55.226L106.175 55.0862Z" fill="#E98862"/>
<path d="M92.2385 82.6017C92.4967 86.0501 93.7523 107.563 94.0003 111.811H128.202C128.396 107.98 129.263 91.2299 129.996 83.7379C130.695 76.5896 132.067 73.0106 131.061 70.8972C129.418 67.4434 124.927 65.4474 121.864 64.976C119.994 64.6882 119.609 64.4818 118.847 64.4818H105.678C104.426 64.4818 96.4294 65.8537 94.7902 67.2243C90.2536 71.0178 91.6907 75.2943 92.2385 82.6017Z" fill="#367CFF"/>
<path d="M135.505 111.585C136.511 111.585 137.502 111.309 138.394 110.78C139.286 110.25 140.052 109.484 140.627 108.545C141.202 107.607 141.57 106.524 141.698 105.389C141.826 104.255 141.711 103.102 141.363 102.028C141.009 100.939 132.726 75.9947 131.149 71.3723L119.472 76.7526C120.358 79.3513 123.571 89.2016 126.152 97.1364L121.864 96.6063L120.514 110.724L134.829 111.543C135.054 111.571 135.279 111.585 135.505 111.585Z" fill="#367CFF"/>
<path d="M87.2909 111.585C86.2849 111.585 85.2938 111.309 84.402 110.779C83.5102 110.25 82.744 109.484 82.1688 108.545C81.5936 107.607 81.2263 106.524 81.0982 105.389C80.9701 104.255 81.085 103.102 81.4331 102.028C81.7863 100.939 90.4171 75.8843 91.994 71.2625L103.324 76.7532C102.437 79.3518 99.2246 89.2021 96.6437 97.1369L100.932 96.6068L102.281 110.725L87.9666 111.544C87.7422 111.572 87.5166 111.585 87.2909 111.585Z" fill="#367CFF"/>
<path d="M96.617 95.4816C96.5973 95.4816 96.578 95.4763 96.5605 95.4662C96.543 95.4561 96.5278 95.4415 96.5162 95.4234C96.5046 95.4054 96.4969 95.3845 96.4938 95.3625C96.4907 95.3404 96.4921 95.3179 96.4981 95.2966L99.5296 84.4434C99.5342 84.4251 99.5419 84.4081 99.5524 84.3933C99.5629 84.3785 99.5759 84.3663 99.5906 84.3573C99.6053 84.3483 99.6215 84.3428 99.6381 84.3411C99.6547 84.3393 99.6715 84.3414 99.6874 84.3471C99.7033 84.3529 99.7181 84.3622 99.7308 84.3745C99.7435 84.3869 99.7538 84.402 99.7613 84.419C99.7688 84.436 99.7732 84.4545 99.7742 84.4734C99.7753 84.4924 99.773 84.5114 99.7675 84.5293L96.736 95.3814C96.7282 95.4104 96.7124 95.4357 96.691 95.4537C96.6696 95.4717 96.6436 95.4815 96.617 95.4816Z" fill="#0C0C0C"/>
<path d="M135.465 90.3814L133.004 111.867H94.3096L96.8605 89.592C96.9449 88.8559 97.2619 88.1799 97.7524 87.69C98.2429 87.2002 98.8734 86.93 99.5262 86.9298H132.798C133.18 86.9296 133.558 87.0221 133.907 87.2013C134.255 87.3805 134.566 87.6422 134.819 87.9689C135.071 88.2956 135.259 88.6798 135.371 89.0958C135.482 89.5118 135.514 89.9501 135.465 90.3814Z" fill="white"/>
<path d="M134.972 87.8159C134.773 87.5585 134.54 87.3381 134.281 87.1627C134.148 87.072 134.009 86.9941 133.865 86.9298C133.525 86.7763 133.163 86.6973 132.798 86.6969H99.5261C98.8238 86.6991 98.1461 86.9907 97.6186 87.5179C97.091 88.045 96.7495 88.7718 96.6573 89.5634L94.103 111.867H94.516L97.0634 89.6221C97.1426 88.9427 97.4358 88.3189 97.8887 87.8666C98.3416 87.4144 98.9234 87.1642 99.5261 87.1627H132.798C133.151 87.163 133.5 87.249 133.822 87.4149C134.144 87.5807 134.431 87.8226 134.664 88.1245C134.897 88.4264 135.071 88.7813 135.174 89.1655C135.277 89.5498 135.307 89.9547 135.262 90.3531L132.798 111.867H133.211L135.667 90.4116C135.72 89.9477 135.685 89.4762 135.566 89.0285C135.446 88.5809 135.244 88.1675 134.972 87.8159Z" fill="#292A2E"/>
<path d="M137.723 90.3814L135.262 111.867H96.5674L99.1183 89.5921C99.1794 89.0593 99.3628 88.5542 99.6501 88.1277C99.9375 87.7013 100.319 87.3684 100.755 87.1627C101.081 87.0081 101.431 86.9289 101.784 86.9298H135.057C135.439 86.9299 135.817 87.0228 136.166 87.2021C136.514 87.3814 136.824 87.6431 137.077 87.9698C137.329 88.2964 137.517 88.6805 137.629 89.0963C137.74 89.5122 137.772 89.9503 137.723 90.3814Z" fill="#292A2E"/>
<path d="M137.23 87.8159C136.958 87.4647 136.624 87.1832 136.249 86.9903C135.875 86.7974 135.468 86.6973 135.057 86.6969H101.784C101.263 86.6978 100.752 86.8587 100.305 87.1627C99.9289 87.4174 99.6084 87.7657 99.3676 88.1815C99.1268 88.5974 98.9721 89.0698 98.9149 89.5634L96.3608 111.867H96.7736L99.321 89.6221C99.4002 88.9427 99.6934 88.3189 100.146 87.8666C100.599 87.4143 101.181 87.1642 101.784 87.1627H135.057C135.41 87.1628 135.759 87.2487 136.081 87.4145C136.403 87.5803 136.69 87.8222 136.923 88.1242C137.156 88.4261 137.33 88.7811 137.433 89.1655C137.536 89.5499 137.565 89.9548 137.519 90.3531L135.057 111.867H135.468L137.926 90.4116C137.978 89.9476 137.944 89.4761 137.824 89.0285C137.704 88.5809 137.501 88.1675 137.23 87.8159Z" fill="#292A2E"/>
<path d="M-11.1198 112H140.964C140.995 112 141.025 111.986 141.047 111.961C141.068 111.936 141.081 111.903 141.081 111.868C141.081 111.832 141.068 111.799 141.047 111.774C141.025 111.749 140.995 111.735 140.964 111.735H-11.1198C-11.1507 111.735 -11.1803 111.749 -11.2022 111.774C-11.224 111.799 -11.2363 111.832 -11.2363 111.868C-11.2363 111.903 -11.224 111.936 -11.2022 111.961C-11.1803 111.986 -11.1507 112 -11.1198 112Z" fill="#292A2E"/>
<g opacity="0.65">
<path d="M-11.1198 112H140.964C140.995 112 141.025 111.986 141.047 111.961C141.068 111.936 141.081 111.903 141.081 111.868C141.081 111.832 141.068 111.799 141.047 111.774C141.025 111.749 140.995 111.735 140.964 111.735H-11.1198C-11.1507 111.735 -11.1803 111.749 -11.2022 111.774C-11.224 111.799 -11.2363 111.832 -11.2363 111.868C-11.2363 111.903 -11.224 111.936 -11.2022 111.961C-11.1803 111.986 -11.1507 112 -11.1198 112Z" fill="#292A2E"/>
</g>
<path d="M81.0474 104.6L81.5828 88.5912L88.9796 88.1461L89.6526 104.6H81.0474Z" fill="#367CFF"/>
</g>
<defs>
<clipPath id="clip0_301_7666">
<rect width="127" height="112" fill="white"/>
</clipPath>
</defs>
</svg>
