<svg width="43" height="46" viewBox="0 0 43 46" fill="none" xmlns="http://www.w3.org/2000/svg">
<path d="M7.82141 34.6947C4.93928 31.7274 2.97207 27.8324 2.44715 23.4162C1.17269 12.6967 8.86385 2.97768 19.6264 1.70832C30.3889 0.438948 40.1469 8.09941 41.4213 18.819C42.6958 29.5385 35.0046 39.2575 24.2421 40.5269C21.2489 40.8801 18.3338 40.54 15.6566 39.6378L7.23973 43.5925L7.82141 34.6947Z" fill="#FF0068"/>
<g opacity="0.5">
<path opacity="0.5" d="M20.0705 5.44113C10.0171 6.62691 2.64519 15.1863 2.75626 25.0463C2.6024 24.3743 2.4798 23.6892 2.39588 22.9902C1.12142 12.2706 8.81261 2.55166 19.5752 1.28229C30.3377 0.012922 40.0957 7.67338 41.3702 18.393C41.4541 19.0961 41.4969 19.7934 41.5051 20.4859C39.305 10.8677 30.1271 4.25535 20.0705 5.44113Z" fill="white"/>
</g>
<path d="M7.23937 45.0267C6.9547 45.0267 6.67166 44.9431 6.42895 44.7784C6.00769 44.4924 5.7691 44.0064 5.80201 43.4992L6.3442 35.2217C3.3765 31.9774 1.53845 27.9677 1.01682 23.5843C0.355314 18.0192 1.90868 12.5312 5.39143 8.12979C8.87419 3.7292 13.8692 0.942167 19.4566 0.283309C25.0439 -0.37555 30.554 1.17162 34.9722 4.64046C39.3904 8.1093 42.1886 13.0843 42.8501 18.6494C43.5116 24.2145 41.9583 29.7025 38.4755 34.1031C34.9928 38.5037 29.9978 41.2907 24.4104 41.9496C21.469 42.2962 18.5598 42.0356 15.755 41.1752L7.85315 44.8882C7.65816 44.9816 7.44836 45.0267 7.23937 45.0267ZM21.9471 3.00561C21.2362 3.00561 20.5187 3.0474 19.7955 3.13263C14.9725 3.70134 10.6604 6.10733 7.65323 9.90642C4.64685 13.7055 3.30492 18.4437 3.87674 23.2475C4.34818 27.2154 6.07022 30.8293 8.85609 33.6974C9.1383 33.9883 9.28476 34.3842 9.25761 34.7882L8.83388 41.2579L15.0408 38.3414C15.3781 38.1832 15.764 38.1611 16.117 38.2799C18.6856 39.1461 21.3621 39.4231 24.0722 39.1035C34.0293 37.9292 41.1701 28.9051 39.991 18.9887C38.8976 9.79087 31.0262 3.00561 21.9471 3.00561Z" fill="#00227B"/>
<g opacity="0.3">
<path opacity="0.3" d="M7.67286 34.5357C13.911 37.785 21.5718 38.1095 28.3472 34.7308C35.8615 30.9841 40.3686 23.6416 40.8318 15.8459C41.1009 16.8064 41.3 17.7979 41.4209 18.819C42.6954 29.5386 35.0042 39.2576 24.2416 40.5269C21.2484 40.8801 18.3334 40.54 15.6561 39.6378L7.23926 43.5926L7.82176 34.6947C7.77075 34.6423 7.72304 34.5882 7.67286 34.5357Z" fill="#00227B"/>
</g>
<path d="M15.7276 15.6289C17.4258 13.9375 20.1796 14.2407 21.8778 15.9321L22.1419 16.1952L22.406 15.9321C24.1042 14.2407 26.8579 13.9375 28.5561 15.6289C30.2543 17.3203 30.2543 20.0631 28.5561 21.7545L28.292 22.0176L22.9531 27.3351C22.5055 27.7809 21.7799 27.7809 21.3315 27.3351L15.9926 22.0176L15.7285 21.7545C14.0295 20.0623 14.0295 17.3203 15.7276 15.6289Z" fill="white"/>
</svg>
