<svg width="10" height="24" viewBox="0 0 10 24" fill="none" xmlns="http://www.w3.org/2000/svg">
<path d="M9.43362 2.16837C9.49916 2.91601 9.38056 3.59635 9.22139 4.18597C9.1418 4.4903 9.04348 4.75365 8.94361 5.02432C8.84217 5.27744 8.73137 5.53495 8.62213 5.76465C8.17425 6.70981 7.69048 7.49256 7.23012 8.25191C6.76819 9.00686 6.32344 9.72524 5.90989 10.4451L5.60714 10.9864C5.51195 11.1678 5.41051 11.3478 5.31844 11.5307L5.05002 12.0808L4.7941 12.6368L4.56157 13.2015L4.34621 13.7751C4.27287 13.9667 4.21825 14.1628 4.1527 14.3574C4.08404 14.552 4.03254 14.751 3.97636 14.9485C3.761 15.7444 3.5753 16.5637 3.46762 17.4079C3.35058 18.2507 3.27567 19.1154 3.25382 19.9947C3.23042 20.4365 3.23978 20.8784 3.2351 21.329C3.2273 21.5543 3.24758 21.7767 3.24914 22.0035C3.25382 22.2303 3.26163 22.457 3.26007 22.6867V22.7029C3.26007 22.8799 3.10714 23.0233 2.91675 23.0233C2.7841 23.0233 2.67018 22.953 2.614 22.8492C2.15832 22.0211 1.74633 21.1607 1.42798 20.2624C1.09246 19.367 0.852133 18.4335 0.67579 17.4781C0.329347 15.5673 0.337148 13.5454 0.717923 11.5702L0.875541 10.8328C0.936402 10.5899 1.00351 10.3485 1.06749 10.1042C1.13615 9.86276 1.21262 9.62575 1.28441 9.38434C1.35931 9.14585 1.44827 8.91321 1.53098 8.67765C1.87274 7.74128 2.29565 6.85173 2.73104 6.01777C3.16488 5.18527 3.6268 4.39959 4.00133 3.71779C4.39615 3.02721 4.61931 2.46685 4.7504 2.16399L5.02505 1.53046C5.50258 0.431681 6.83998 -0.0964855 8.01196 0.35122C8.84061 0.670174 9.36339 1.38854 9.43362 2.16837Z" fill="#00227B"/>
</svg>
