<svg width="57" height="36" viewBox="0 0 57 36" fill="none" xmlns="http://www.w3.org/2000/svg">
<path d="M55.1132 5.85939C54.7933 4.79539 54.1692 3.82536 53.303 3.04592C52.4369 2.26648 51.359 1.70481 50.1767 1.41685C45.8481 0.354492 28.427 0.354492 28.427 0.354492C28.427 0.354492 11.005 0.386649 6.6764 1.449C5.49402 1.73698 4.41611 2.29868 3.55 3.07816C2.68389 3.85764 2.0598 4.8277 1.73989 5.89175C0.430598 12.8129 -0.077302 23.3592 1.77585 30.0035C2.09579 31.0675 2.71989 32.0375 3.58599 32.817C4.4521 33.5964 5.53 34.1581 6.71235 34.4461C11.0409 35.5084 28.4625 35.5084 28.4625 35.5084C28.4625 35.5084 45.8838 35.5084 50.2122 34.4461C51.3946 34.1581 52.4725 33.5965 53.3387 32.817C54.2048 32.0376 54.829 31.0675 55.1489 30.0035C56.5299 23.0725 56.9554 12.5327 55.1132 5.85939Z" fill="#FF0000"/>
<path d="M22.8818 25.4643L37.334 17.9314L22.8818 10.3984V25.4643Z" fill="white"/>
</svg>
