<svg width="192" height="167" viewBox="0 0 192 167" fill="none" xmlns="http://www.w3.org/2000/svg">
<path d="M151.005 5.18491C170.011 5.18491 185.56 19.7632 185.56 37.5822V129.377C185.56 147.196 170.011 161.774 151.005 161.774H40.1897C21.1837 161.774 5.63431 147.196 5.63431 129.377V37.5822C5.63431 19.7632 21.1837 5.18491 40.1897 5.18491H151.005ZM151.005 0.0640869H40.1897C34.8073 0.0640869 29.5748 1.06192 24.6372 3.02831C19.8775 4.92448 15.6 7.63267 11.9234 11.0812C8.24668 14.5282 5.35653 18.54 3.33405 23.001C1.23666 27.6302 0.172363 32.536 0.172363 37.5822V129.377C0.172363 134.423 1.23666 139.329 3.33405 143.958C5.35653 148.42 8.24512 152.431 11.9234 155.878C15.6 159.325 19.8791 162.034 24.6372 163.93C29.5748 165.897 34.8073 166.895 40.1897 166.895H151.006C156.389 166.895 161.621 165.897 166.559 163.93C171.319 162.034 175.596 159.326 179.273 155.878C182.949 152.431 185.84 148.419 187.862 143.958C189.959 139.329 191.024 134.423 191.024 129.377V37.5822C191.024 32.536 189.959 27.6302 187.862 23.001C185.84 18.5386 182.951 14.5282 179.273 11.0812C175.596 7.63414 171.317 4.92448 166.559 3.02831C161.621 1.06192 156.387 0.0640869 151.005 0.0640869Z" fill="#00227B"/>
</svg>
