<svg width="27" height="111" viewBox="0 0 27 111" fill="none" xmlns="http://www.w3.org/2000/svg">
<path d="M2.35527 110.46C2.06657 109.858 1.86838 109.259 1.68267 108.658C1.49696 108.055 1.35807 107.46 1.23479 106.86C0.985102 105.66 0.850894 104.468 0.775987 103.278C0.741655 102.683 0.71824 102.089 0.7198 101.496C0.721361 100.903 0.746337 100.314 0.775987 99.7242L0.882104 97.9553C0.914876 97.3657 0.953886 96.7761 1.00538 96.1879C1.20045 93.8353 1.39085 91.4797 1.68423 89.1387C1.81688 87.9653 1.96513 86.7949 2.11182 85.6229C2.18361 85.0377 2.28036 84.4554 2.36463 83.8701L2.62837 82.1188L3.17924 78.6206C3.37275 77.456 3.59747 76.2972 3.80815 75.1355C4.23886 72.8136 4.6446 70.4887 5.13618 68.1785C5.61371 65.8654 6.05066 63.5464 6.53912 61.2376C7.03537 58.9303 7.51914 56.6201 7.99667 54.3084C8.11839 53.7305 8.22764 53.1511 8.36028 52.5761L8.75355 50.8497L9.5385 47.3968L10.3235 43.9439C10.3906 43.6556 10.4514 43.3674 10.5216 43.0807L10.737 42.2218L11.1677 40.5027L12.889 33.6276C13.0279 33.0541 13.184 32.4835 13.3385 31.9129C13.4883 31.3408 13.6412 30.7702 13.7848 30.1981C14.075 29.0525 14.3622 27.9069 14.6384 26.7584C14.9209 25.6114 15.1971 24.4614 15.4889 23.3158C15.7698 22.1672 16.1225 21.0377 16.4752 19.9068C16.8357 18.7787 17.218 17.6565 17.6191 16.5387C18.0217 15.4224 18.4493 14.3119 18.8815 13.2043L19.5495 11.5481C19.6618 11.2731 19.7867 11.0009 19.9084 10.7273C20.0317 10.4552 20.1503 10.1816 20.2782 9.90946C20.7823 8.82238 21.2926 7.73969 21.8357 6.66725C22.3725 5.59188 22.9328 4.52528 23.5211 3.46893C24.1094 2.41258 24.7196 1.36354 25.3969 0.336451C25.5264 0.138933 25.8026 0.0774936 26.0133 0.200393C26.1569 0.283789 26.2333 0.431558 26.2255 0.580793V0.586651C25.9446 5.41485 24.9802 10.0089 24.0283 14.6016C23.7833 15.7472 23.5336 16.8913 23.2589 18.0296C22.9827 19.1664 22.6862 20.2974 22.371 21.4225C21.7124 23.6669 21.0507 25.9098 20.361 28.1484C20.0161 29.2676 19.6805 30.3883 19.3482 31.5105C19.1796 32.0709 19.022 32.6342 18.8613 33.196C18.7036 33.7593 18.5413 34.3211 18.4071 34.8903L16.7046 41.6922L16.2785 43.3923L16.0663 44.2424C15.9961 44.5262 15.9352 44.8115 15.8697 45.0953L15.0925 48.5116L14.3154 51.928L13.9268 53.6369C13.7973 54.206 13.688 54.7795 13.5679 55.3501C11.5735 64.4783 10.233 73.7163 8.92989 82.9352L8.42426 86.391C8.26665 87.544 8.10903 88.6969 7.93737 89.8484L6.93237 96.7585C6.74979 97.91 6.6031 99.0614 6.43768 100.213C6.35185 100.788 6.26134 101.364 6.14742 101.938C6.03506 102.511 5.92426 103.085 5.78693 103.657C5.51383 104.801 5.17519 105.942 4.77413 107.081C4.57438 107.65 4.33561 108.22 4.09061 108.788C3.83936 109.356 3.56626 109.926 3.22918 110.493L3.22605 110.498C3.09497 110.718 2.80002 110.797 2.56594 110.674C2.46763 110.621 2.3974 110.545 2.35527 110.46Z" fill="#00227B"/>
</svg>
