<svg width="23" height="66" viewBox="0 0 23 66" fill="none" xmlns="http://www.w3.org/2000/svg">
<path d="M2.8152 65.6853C2.0989 65.6853 1.40757 65.3136 1.06737 64.6713C0.586716 63.7672 0.979976 62.6698 1.9444 62.2192C9.8143 58.5483 15.192 47.0923 17.4922 29.0889C19.276 15.1369 18.5347 2.16073 18.5269 2.03198C18.4676 1.02391 19.29 0.160676 20.3652 0.103615C21.4358 0.0465546 22.3612 0.819072 22.4221 1.82714C22.4299 1.95882 23.1898 15.2115 21.3718 29.4752C20.2966 37.9158 18.5409 45.0776 16.1533 50.7617C13.0634 58.1181 8.86704 63.0751 3.68287 65.4936C3.40353 65.6238 3.10702 65.6853 2.8152 65.6853Z" fill="#00227B"/>
</svg>
