<svg width="57" height="37" viewBox="0 0 57 37" fill="none" xmlns="http://www.w3.org/2000/svg">
<path d="M55.1132 6.3064C54.7933 5.21318 54.1692 4.21654 53.303 3.4157C52.4369 2.61486 51.359 2.03777 50.1767 1.7419C45.8481 0.650391 28.427 0.650391 28.427 0.650391C28.427 0.650391 11.005 0.68343 6.6764 1.77494C5.49402 2.07083 4.41611 2.64795 3.55 3.44882C2.68389 4.2497 2.0598 5.24639 1.73989 6.33964C0.430598 13.4508 -0.077302 24.2866 1.77585 31.1133C2.09579 32.2065 2.71989 33.2031 3.58599 34.004C4.4521 34.8048 5.53 35.3819 6.71235 35.6778C11.0409 36.7693 28.4625 36.7693 28.4625 36.7693C28.4625 36.7693 45.8838 36.7693 50.2122 35.6778C51.3946 35.3819 52.4725 34.8048 53.3387 34.004C54.2048 33.2032 54.829 32.2065 55.1489 31.1133C56.5299 23.992 56.9554 13.1629 55.1132 6.3064Z" fill="#FF0000"/>
<path d="M22.8818 26.4492L37.334 18.7094L22.8818 10.9697V26.4492Z" fill="white"/>
</svg>
