<svg width="149" height="75" viewBox="0 0 149 75" fill="none" xmlns="http://www.w3.org/2000/svg">
<path opacity="0.35" d="M16.9871 32.9394C25.3688 44.2213 44.7072 66.6695 76.9327 72.857C97.1185 76.7283 114.807 73.8841 127.499 70.0317C140.38 66.1238 148.122 61.1829 148.122 61.1829L148.69 37.4589C148.69 37.4589 139.914 29.5289 131.739 32.7623C121.917 36.6468 125.065 49.8513 111.037 53.5236C72.0403 63.7331 40.3611 45.0801 30.1675 36.8912C16.0258 25.5317 12.3366 18.3772 10.3469 15.4247C6.22859 9.31626 3.04817 4.51585 1.25509 0.217285C-0.572317 7.48886 3.32907 14.5512 16.9871 32.9394Z" fill="#00227B"/>
</svg>
