<svg width="163" height="105" viewBox="0 0 163 105" fill="none" xmlns="http://www.w3.org/2000/svg">
<path d="M98.3802 104.363C91.6511 104.363 84.95 103.73 78.3645 102.464C63.8778 99.6828 50.3619 93.4208 38.1942 83.8492C30.3633 77.6896 23.1177 70.1562 16.6601 61.4625C8.77927 50.8507 3.76988 43.5615 1.48523 37.7062C-0.704232 32.0953 -0.487315 27.5422 2.23117 21.9883C4.90753 16.5192 8.95405 14.0042 11.3994 12.9259C11.7989 10.1138 13.3548 6.46633 17.4216 4.75451C28.976 -0.111731 42.3094 7.4188 48.909 12.0539C48.973 11.7393 49.0448 11.4174 49.1212 11.0912C50.2152 6.49121 52.1034 3.36897 54.733 1.8137C56.3482 0.858302 59.0432 0.0316541 62.7183 1.51962C66.4465 3.02953 69.1666 7.47587 71.0361 15.1117C71.9927 19.024 72.4531 22.6964 72.6263 24.3234C74.6332 26.4536 82.4766 34.0032 93.6626 35.1283C114.083 37.1795 158.143 17.0884 158.586 16.885C159.526 16.4534 160.643 16.5412 161.492 17.1147C162.341 17.6868 162.786 18.6524 162.65 19.6239L152.94 88.5326C152.834 89.2846 152.393 89.9576 151.723 90.3834C151.399 90.5911 143.611 95.5115 130.663 99.478C123.079 101.801 115.276 103.314 107.474 103.977C104.441 104.234 101.408 104.363 98.3802 104.363ZM14.7921 17.3766C14.4254 17.4702 10.0917 18.6875 7.39038 24.2063C3.75272 31.6388 4.64692 35.971 21.3183 58.4192C36.9926 79.5229 57.1113 92.9496 79.5021 97.2482C99.9033 101.165 117.623 97.87 128.897 94.4171C138.454 91.4895 145.044 87.9971 147.482 86.6028L156.339 23.7484C151.712 25.7294 144.144 28.8414 135.649 31.8261C116.742 38.4685 102.41 41.3596 93.0571 40.4203C77.6279 38.8709 68.0398 27.5173 67.6388 27.0345C67.297 26.6219 67.091 26.1244 67.0489 25.6036C67.0458 25.5597 66.6603 21.0168 65.4868 16.2442C63.5096 8.19863 61.1437 6.67848 60.4665 6.40488C58.7717 5.71869 58.0398 6.1503 57.7636 6.31271C55.3775 7.7202 54.0854 13.5696 53.9293 17.2727C53.8856 18.3115 53.199 19.2333 52.1737 19.6298C51.1468 20.0263 49.9702 19.8273 49.1571 19.1177C48.9886 18.9714 32.0612 4.4224 19.7469 9.60905C16.9098 10.8044 16.9613 14.4094 16.9691 14.6684C17.0533 15.9823 16.1638 17.1045 14.7921 17.3766Z" fill="#00227B"/>
</svg>
