<svg width="187" height="65" viewBox="0 0 187 65" fill="none" xmlns="http://www.w3.org/2000/svg">
<path d="M52.7713 44.2166C42.083 48.2737 25.5411 47.4251 14.2646 46.1449C7.50111 45.3783 2.75233 39.5259 3.74953 33.2068C4.65933 27.4408 10.0729 23.2476 16.2824 23.5197C26.8302 23.9835 42.6526 24.2 52.673 22.1166" fill="white"/>
<g opacity="0.35">
<g opacity="0.35">
<g opacity="0.35">
<g opacity="0.35">
<path opacity="0.35" d="M52.7739 44.2182C42.0825 48.2812 25.5406 47.4238 14.264 46.1524C7.50056 45.3843 2.75335 39.529 3.75054 33.2143C3.94873 31.9253 4.381 30.7153 4.9943 29.6107C6.7749 32.7988 10.1473 35.1485 14.264 35.6167C25.5203 36.8969 42.0341 37.7455 52.7271 33.7088L52.7739 44.2182Z" fill="#00227B"/>
</g>
</g>
</g>
</g>
<path d="M31.521 49.8656C25.3365 49.8656 19.1879 49.3872 13.9226 48.7903C9.89011 48.3323 6.31175 46.4127 3.84608 43.3842C1.37571 40.3497 0.344187 36.5983 0.94032 32.8206C1.48339 29.378 3.35918 26.2631 6.22124 24.0494C9.08642 21.8329 12.7069 20.7019 16.4148 20.8658C31.9533 21.5476 44.6109 21.0706 52.0563 19.5226C53.5514 19.2125 57.2655 19.2008 59.4581 25.8095C61.685 32.5236 61.4384 43.8026 53.8369 46.6878C47.5682 49.0653 39.5157 49.8656 31.521 49.8656ZM15.7063 26.1709C11.1276 26.1709 7.2356 29.2975 6.55832 33.5976C6.18847 35.9414 6.8283 38.2707 8.36076 40.1536C9.88855 42.0308 12.1061 43.2203 14.6061 43.5041C30.7313 45.333 43.9087 44.7112 51.7068 41.7513C54.0226 40.872 54.6874 37.3533 54.8669 35.8814C55.4911 30.7314 53.8198 25.9734 52.7726 24.8219C42.6103 26.8249 27.2966 26.6713 16.1511 26.1812C16.0012 26.1738 15.853 26.1709 15.7063 26.1709Z" fill="#00227B"/>
<path d="M134.527 44.2166C145.216 48.2737 161.757 47.4251 173.034 46.1449C179.797 45.3783 184.546 39.5259 183.549 33.2068C182.639 27.4408 177.226 23.2476 171.016 23.5197C160.468 23.9835 144.646 24.2 134.626 22.1166" fill="white"/>
<g opacity="0.35">
<g opacity="0.35">
<g opacity="0.35">
<g opacity="0.35">
<path opacity="0.35" d="M173.031 46.1526C161.754 47.424 145.214 48.2814 134.521 44.2184L134.568 33.6109C145.259 37.6476 161.773 36.799 173.031 35.5188C177.129 35.0594 180.482 32.7272 182.272 29.5567C182.903 30.6701 183.346 31.8977 183.554 33.213C184.543 39.5292 179.796 45.3845 173.031 46.1526Z" fill="#00227B"/>
</g>
</g>
</g>
</g>
<path d="M155.778 49.8664C147.783 49.8664 139.732 49.0661 133.462 46.6871C125.86 43.8019 125.614 32.523 127.841 25.8088C130.032 19.2015 133.747 19.2117 135.242 19.5219C142.689 21.0713 155.347 21.5483 170.884 20.865C174.595 20.7026 178.212 21.8336 181.077 24.0487C183.939 26.2624 185.815 29.3773 186.358 32.82C186.954 36.5977 185.921 40.349 183.453 43.3835C180.987 46.4121 177.409 48.3317 173.376 48.7896C168.111 49.3865 161.961 49.8664 155.778 49.8664ZM134.528 24.8227C133.48 25.9741 131.809 30.7321 132.433 35.8822C132.611 37.3541 133.276 40.8728 135.593 41.7521C143.391 44.712 156.569 45.3352 172.694 43.5049C175.193 43.2211 177.412 42.0316 178.939 40.1544C180.472 38.2714 181.112 35.9437 180.742 33.5983C180.043 29.1608 175.92 25.9741 171.151 26.1819C160.002 26.672 144.69 26.8242 134.528 24.8227Z" fill="#00227B"/>
<path d="M138.658 14.815V50.2306C138.658 56.8013 132.922 62.1796 125.913 62.1796H56.3451C49.346 62.1796 43.6094 56.8013 43.6094 50.2306V14.815C43.6094 8.24426 49.346 2.87469 56.3451 2.87469H125.913C130.039 2.87469 133.722 4.73869 136.058 7.60781C137.687 9.61224 138.658 12.1127 138.658 14.815Z" fill="white"/>
<g opacity="0.35">
<g opacity="0.35">
<g opacity="0.35">
<g opacity="0.35">
<path opacity="0.35" d="M138.656 14.8176V50.2333C138.656 56.804 132.922 62.1794 125.914 62.1794H56.3474C49.339 62.1794 43.6055 56.804 43.6055 50.2333V36.9864C54.0534 46.9735 74.6013 53.2428 93.4465 53.3365C99.5015 53.3672 104.386 48.877 104.818 43.2133C104.823 43.1563 104.828 43.0992 104.832 43.0436C105.296 38.075 109.661 34.0515 114.967 33.693C121.009 33.2848 126.111 37.4692 126.708 42.9076C135.83 32.3499 133.158 13.9997 136.059 7.61041C137.69 9.61778 138.656 12.1138 138.656 14.8176Z" fill="#00227B"/>
</g>
</g>
</g>
</g>
<path d="M125.916 64.8419H56.3465C47.7572 64.8419 40.769 58.2902 40.769 50.2373V14.8174C40.769 6.7645 47.7572 0.212769 56.3465 0.212769H125.916C134.505 0.212769 141.494 6.7645 141.494 14.8174V50.2373C141.494 58.2902 134.505 64.8419 125.916 64.8419ZM56.3465 5.5355C50.8877 5.5355 46.4463 9.69946 46.4463 14.8174V50.2373C46.4463 55.3552 50.8877 59.5192 56.3465 59.5192H125.916C131.375 59.5192 135.816 55.3552 135.816 50.2373V14.8174C135.816 9.69946 131.375 5.5355 125.916 5.5355H56.3465Z" fill="#00227B"/>
<path d="M115.777 42.8251C121.845 42.8251 126.763 38.2135 126.763 32.5249C126.763 26.8362 121.845 22.2247 115.777 22.2247C109.709 22.2247 104.791 26.8362 104.791 32.5249C104.791 38.2135 109.709 42.8251 115.777 42.8251Z" fill="#22A7F0"/>
<g opacity="0.7">
<g opacity="0.7">
<g opacity="0.7">
<g opacity="0.7">
<path opacity="0.7" d="M126.763 32.5257C126.763 33.2309 126.691 33.9156 126.549 34.5843C125.535 29.8746 121.096 26.331 115.78 26.331C110.455 26.331 106.017 29.8746 105.002 34.5843C104.86 33.9156 104.789 33.2324 104.789 32.5257C104.789 26.8343 109.709 22.2285 115.78 22.2285C121.841 22.2285 126.763 26.8343 126.763 32.5257Z" fill="white"/>
</g>
</g>
</g>
</g>
<g opacity="0.35">
<g opacity="0.35">
<g opacity="0.35">
<g opacity="0.35">
<path opacity="0.35" d="M126.76 32.5226C126.76 38.2097 121.843 42.8199 115.777 42.8199C109.711 42.8199 104.793 38.2097 104.793 32.5226C104.793 31.2073 105.057 29.952 105.547 28.7961C107.13 32.6382 111.115 35.3581 115.778 35.3581C120.441 35.3581 124.425 32.6382 126.009 28.7961C126.496 29.952 126.76 31.2059 126.76 32.5226Z" fill="#00227B"/>
</g>
</g>
</g>
</g>
<path d="M115.777 44.8188C108.545 44.8188 102.662 39.3029 102.662 32.523C102.662 25.743 108.545 20.2272 115.777 20.2272C123.009 20.2272 128.892 25.743 128.892 32.523C128.892 39.3029 123.009 44.8188 115.777 44.8188ZM115.777 24.2199C110.894 24.2199 106.921 27.945 106.921 32.523C106.921 37.101 110.894 40.826 115.777 40.826C120.66 40.826 124.633 37.101 124.633 32.523C124.633 27.945 120.66 24.2199 115.777 24.2199Z" fill="#00227B"/>
<path d="M84.6459 64.1743C83.4693 64.1743 82.5173 63.2804 82.5173 62.1787V37.9206L68.605 28.1003V2.87225C68.605 1.76907 69.5585 0.876587 70.7336 0.876587C71.9087 0.876587 72.8622 1.77054 72.8622 2.87225V26.1076L86.7745 35.9279V62.1787C86.7745 63.2804 85.821 64.1743 84.6459 64.1743Z" fill="#00227B"/>
</svg>
