<svg width="57" height="38" viewBox="0 0 57 38" fill="none" xmlns="http://www.w3.org/2000/svg">
<path d="M55.1132 6.58277C54.7933 5.48955 54.1692 4.4929 53.303 3.69206C52.4369 2.89123 51.359 2.31414 50.1767 2.01827C45.8481 0.926758 28.427 0.926758 28.427 0.926758C28.427 0.926758 11.005 0.959797 6.6764 2.05131C5.49402 2.3472 4.41611 2.92431 3.55 3.72519C2.68389 4.52606 2.0598 5.52276 1.73989 6.61601C0.430598 13.7272 -0.077302 24.5629 1.77585 31.3896C2.09579 32.4828 2.71989 33.4795 3.58599 34.2803C4.4521 35.0812 5.53 35.6583 6.71235 35.9541C11.0409 37.0456 28.4625 37.0456 28.4625 37.0456C28.4625 37.0456 45.8838 37.0456 50.2122 35.9541C51.3946 35.6583 52.4725 35.0812 53.3387 34.2804C54.2048 33.4795 54.829 32.4829 55.1489 31.3896C56.5299 24.2684 56.9554 13.4393 55.1132 6.58277Z" fill="#FF0000"/>
<path d="M22.8818 26.7265L37.334 18.9868L22.8818 11.2471V26.7265Z" fill="white"/>
</svg>
