<svg width="262" height="208" viewBox="0 0 262 208" fill="none" xmlns="http://www.w3.org/2000/svg">
<path d="M237.854 124.502C236.653 124.623 235.574 123.809 235.445 122.682L228.711 63.933C228.582 62.8064 229.451 61.7954 230.652 61.674C243.257 60.404 254.573 68.9543 255.927 80.7717L258.226 100.806C259.58 112.623 250.459 123.232 237.854 124.502Z" fill="white"/>
<path d="M237.616 125.021C236.996 125.021 236.399 124.824 235.91 124.454C235.342 124.026 234.988 123.416 234.91 122.737L228.176 63.9876C228.098 63.3088 228.307 62.6416 228.764 62.1105C229.222 61.5794 229.872 61.2458 230.597 61.1726C243.479 59.8749 255.082 68.6432 256.466 80.7196L258.762 100.754C259.433 106.603 257.633 112.347 253.694 116.928C249.757 121.509 244.152 124.378 237.912 125.007L237.855 124.504L237.912 125.007C237.814 125.016 237.714 125.021 237.616 125.021ZM233.123 62.0549C232.326 62.0549 231.522 62.0944 230.712 62.1763C230.274 62.2202 229.88 62.4221 229.604 62.7425C229.328 63.0644 229.201 63.4668 229.248 63.8779L235.982 122.627C236.029 123.038 236.244 123.407 236.588 123.666C236.931 123.925 237.36 124.043 237.799 123.999C243.752 123.399 249.099 120.662 252.856 116.292C256.614 111.921 258.331 106.441 257.691 100.859L255.395 80.8249C254.159 70.0639 244.418 62.0549 233.123 62.0549Z" fill="#00227B"/>
<g opacity="0.35">
<g opacity="0.35">
<g opacity="0.35">
<g opacity="0.35">
<path opacity="0.35" d="M257.149 91.411L258.229 100.807C259.582 112.62 250.462 123.232 237.856 124.506C236.654 124.629 235.576 123.807 235.446 122.682L233.65 107.065C234.068 107.742 234.886 108.158 235.768 108.076L237.253 107.922C247.213 106.92 255.003 100.08 257.149 91.411Z" fill="#00227B"/>
</g>
</g>
</g>
</g>
<path d="M237.612 127.331C236.433 127.331 235.297 126.956 234.365 126.253C233.285 125.438 232.609 124.276 232.461 122.984L225.727 64.2351C225.579 62.9432 225.977 61.6732 226.846 60.6608C227.715 59.6483 228.954 59.0148 230.332 58.8758C244.562 57.442 257.385 67.1306 258.914 80.4725L261.21 100.507C261.951 106.969 259.963 113.316 255.612 118.378C251.261 123.439 245.069 126.61 238.174 127.303C237.988 127.321 237.8 127.331 237.612 127.331ZM237.538 121.704H237.536C237.536 121.704 237.536 121.704 237.538 121.704ZM231.788 64.4078L238.344 121.609C243.318 120.918 247.765 118.536 250.94 114.845C254.284 110.955 255.812 106.077 255.242 101.108L252.947 81.0738C251.799 71.0721 242.399 63.7406 231.788 64.4078Z" fill="#00227B"/>
<path d="M23.8177 82.5133C25.0194 82.3919 26.0977 83.2068 26.2272 84.3334L32.961 143.082C33.0906 144.209 32.2213 145.22 31.0197 145.341C18.4151 146.611 7.09947 138.061 5.7449 126.244L3.44932 106.21C2.09164 94.3922 11.2131 83.7833 23.8177 82.5133Z" fill="white"/>
<path d="M28.5481 145.973C16.7097 145.974 6.49896 137.579 5.20681 126.299L2.91123 106.264C1.52702 94.1881 10.8794 83.3085 23.7603 82.0108L23.818 82.5141L23.7603 82.0108C25.2538 81.8601 26.6021 82.8784 26.7628 84.28L33.4966 143.029C33.6574 144.431 32.5712 145.693 31.0762 145.844C30.2288 145.93 29.383 145.973 28.5481 145.973ZM24.0521 83.0071C23.9928 83.0071 23.9351 83.0101 23.8742 83.0159C11.5848 84.2537 2.66154 94.6343 3.98333 106.156L6.27892 126.19C7.59915 137.712 18.6698 146.078 30.9607 144.84C31.8643 144.75 32.5213 143.986 32.4245 143.139L25.6907 84.3897C25.6002 83.5967 24.8823 83.0071 24.0521 83.0071Z" fill="#00227B"/>
<g opacity="0.35">
<g opacity="0.35">
<g opacity="0.35">
<g opacity="0.35">
<path opacity="0.35" d="M31.0991 126.783L32.9655 143.082C33.0966 144.208 32.2195 145.219 31.0195 145.341C24.4027 146.005 18.1355 143.967 13.4819 140.166C9.27936 136.733 6.39233 131.855 5.74782 126.246L4.78027 117.804C9.20757 124.85 17.7703 129.206 27.012 128.277L29.2982 128.045C30.1315 127.961 30.7916 127.456 31.0991 126.783Z" fill="#00227B"/>
</g>
</g>
</g>
</g>
<path d="M28.5469 148.282C15.4663 148.283 4.18655 139.009 2.75864 126.544L0.463059 106.51C-1.06629 93.1684 9.26773 81.1476 23.4985 79.7138C26.3418 79.4271 28.9074 81.3642 29.2132 84.0314L35.947 142.782C36.2529 145.451 34.1867 147.853 31.3403 148.14C30.4024 148.236 29.4692 148.282 28.5469 148.282ZM23.3299 85.4096C12.8118 86.8727 5.28675 95.9088 6.43219 105.91L8.72777 125.945C9.87478 135.946 19.2756 143.276 29.8858 142.611L23.3299 85.4096Z" fill="#00227B"/>
<path d="M130.847 204.196C190.161 204.196 238.244 159.115 238.244 103.506C238.244 47.8962 190.161 2.8158 130.847 2.8158C71.5327 2.8158 23.4492 47.8962 23.4492 103.506C23.4492 159.115 71.5327 204.196 130.847 204.196Z" fill="white"/>
<path d="M130.743 204.704C117.575 204.704 104.712 202.49 92.4472 198.108C79.4056 193.45 67.5906 186.547 57.3269 177.596C47.0631 168.643 38.8702 158.091 32.9728 146.233C26.8679 133.955 23.5065 120.808 22.9806 107.155C22.4547 93.5033 24.7971 80.1628 29.9422 67.5041C34.911 55.2771 42.2737 44.2 51.8212 34.5773C61.3687 24.9545 72.6266 17.2718 85.2764 11.7428C98.3726 6.01917 112.396 2.86767 126.957 2.37461C141.519 1.88155 155.748 4.07765 169.25 8.90146C182.292 13.5599 194.107 20.4628 204.37 29.414C214.634 38.3667 222.827 48.9185 228.724 60.7768C234.829 73.0551 238.191 86.2025 238.717 99.8546C239.243 113.507 236.9 126.847 231.755 139.506C226.786 151.733 219.423 162.81 209.874 172.433C200.325 182.055 189.071 189.737 176.422 195.266C163.326 200.989 149.303 204.141 134.741 204.634C133.404 204.681 132.071 204.704 130.743 204.704ZM130.898 3.31977C129.599 3.31977 128.304 3.34172 126.995 3.38561C68.1119 5.37834 21.935 51.912 24.0589 107.117C25.0873 133.86 37.1629 158.627 58.0603 176.854C77.9902 194.239 103.672 203.69 130.751 203.692C132.065 203.692 133.379 203.67 134.699 203.624C163.223 202.66 189.64 191.339 209.082 171.746C228.523 152.154 238.664 126.636 237.635 99.8941C235.56 45.9148 188.053 3.31977 130.898 3.31977Z" fill="#00227B"/>
<g opacity="0.35">
<g opacity="0.35">
<g opacity="0.35">
<g opacity="0.35">
<path opacity="0.35" d="M236.613 85.9797C237.471 90.5065 237.997 95.1446 238.179 99.8747C240.31 155.447 193.994 202.123 134.719 204.132C75.4446 206.129 25.6598 162.706 23.5171 107.135C23.4547 105.537 23.4329 103.936 23.4531 102.358C32.573 151.096 78.8545 187.293 133.088 185.46C190.659 183.509 235.998 139.428 236.613 85.9797Z" fill="#00227B"/>
</g>
</g>
</g>
</g>
<path d="M130.743 207.013C117.273 207.013 104.116 204.748 91.571 200.267C78.2329 195.502 66.1464 188.442 55.6501 179.286C45.1538 170.13 36.7736 159.337 30.7421 147.208C24.4967 134.649 21.0588 121.2 20.522 107.238C19.9852 93.2754 22.3806 79.6291 27.6444 66.6808C32.7271 54.1757 40.2568 42.8441 50.0228 33.0033C59.7887 23.1626 71.2978 15.3043 84.2364 9.65094C97.6322 3.79565 111.977 0.572457 126.869 0.0691532C141.763 -0.43415 156.317 1.81169 170.128 6.7467C183.466 11.512 195.552 18.5714 206.049 27.7274C216.545 36.8835 224.925 47.6767 230.957 59.8057C237.202 72.3649 240.64 85.8136 241.177 99.7759C241.714 113.738 239.318 127.384 234.054 140.333C228.972 152.838 221.442 164.169 211.676 174.01C201.91 183.851 190.398 191.708 177.461 197.363C164.065 203.218 149.72 206.441 134.828 206.944C133.464 206.99 132.1 207.013 130.743 207.013ZM130.899 5.63036C129.63 5.63036 128.364 5.65231 127.086 5.69474C69.5594 7.64065 24.4468 53.1018 26.5223 107.036C27.5273 133.162 39.3251 157.357 59.7403 175.166C79.2114 192.15 104.3 201.385 130.757 201.385C132.039 201.385 133.325 201.363 134.614 201.319C162.481 200.377 188.288 189.316 207.283 170.175C226.278 151.035 236.185 126.106 235.178 99.9793C233.148 47.2421 186.735 5.63036 130.899 5.63036Z" fill="#00227B"/>
<path d="M237.934 102.471C239.01 122.148 233.193 140.745 222.368 156.419C214.251 168.171 179.425 189.728 135.102 192.23C94.0044 194.551 55.4727 175.794 46.1187 164.882C33.6405 150.326 25.8299 132.384 24.7547 112.707C21.9098 60.6337 68.4503 36.7546 127.322 33.9279C186.191 31.1013 235.09 50.398 237.934 102.471Z" fill="#3949AB"/>
<path d="M127.968 194.365C107.532 194.365 89.759 189.589 77.9612 185.323C63.022 179.921 49.8899 172.373 44.5075 166.094C31.2974 150.684 23.7537 132.257 22.6909 112.805C21.9856 99.8974 24.2562 88.1854 29.4357 77.9935C34.3124 68.4015 41.7922 60.0911 51.6705 53.2907C69.7168 40.8661 95.8389 33.5023 127.212 31.9968C158.587 30.4913 185.374 35.3136 204.68 45.9445C215.246 51.7632 223.594 59.3142 229.49 68.3898C235.754 78.0315 239.288 89.4656 239.992 102.373C241.055 121.825 235.557 140.877 224.096 157.472C219.335 164.366 207.508 172.816 193.233 179.523C180.694 185.415 160.451 192.738 135.223 194.161C132.773 194.299 130.351 194.365 127.968 194.365ZM138.291 35.5946C134.737 35.5946 131.117 35.6823 127.425 35.8594C96.8579 37.3269 71.5083 44.4331 54.1127 56.4085C34.6916 69.7797 25.5062 88.6887 26.8124 112.607C27.8298 131.241 35.0615 148.899 47.7238 163.671C51.491 168.066 62.0591 175.428 79.4468 181.715C92.2387 186.34 112.254 191.584 134.976 190.3C159.507 188.915 179.193 181.794 191.387 176.065C207.728 168.386 217.356 160.117 220.637 155.369C231.623 139.462 236.893 121.204 235.876 102.571C234.569 78.6519 223.371 60.7217 202.593 49.2803C186.231 40.2706 164.157 35.5946 138.291 35.5946Z" fill="#00227B"/>
<g opacity="0.5">
<g opacity="0.5">
<g opacity="0.5">
<g opacity="0.5">
<path d="M216.553 98.7082C217.893 88.9477 212.865 80.297 205.321 79.3864C197.778 78.4758 190.576 85.65 189.235 95.4105C187.895 105.171 192.923 113.822 200.467 114.732C208.011 115.643 215.213 108.469 216.553 98.7082Z" fill="white"/>
</g>
</g>
</g>
</g>
<g opacity="0.5">
<g opacity="0.5">
<g opacity="0.5">
<g opacity="0.5">
<path d="M195.206 134.987C196.476 130.629 194.272 126.269 190.284 125.247C186.296 124.226 182.034 126.929 180.764 131.286C179.494 135.643 181.697 140.004 185.685 141.026C189.673 142.047 193.936 139.344 195.206 134.987Z" fill="white"/>
</g>
</g>
</g>
</g>
<g opacity="0.35">
<path d="M214.55 54.8888C228.217 65.9205 236.788 81.5566 237.933 102.47C239.008 122.152 233.189 140.747 222.371 156.422C214.252 168.173 179.422 189.729 135.099 192.237C119.45 193.125 104.176 190.951 90.7368 187.312C145.149 183.142 187.563 156.7 197.629 142.124C211.371 122.231 218.751 98.625 217.382 73.6559C217.023 66.9812 216.051 60.7324 214.55 54.8888Z" fill="#00227B"/>
</g>
<path d="M30.3551 70.6273C29.7496 70.6273 29.141 70.4503 28.6198 70.083C27.3932 69.2169 27.1107 67.6119 27.9456 66.4282C32.4025 59.5634 38.0939 53.2897 44.8605 47.7826C51.4491 42.4218 59.1115 37.7414 67.6337 33.8715C75.978 30.0836 85.2009 27.0491 95.0448 24.8516C104.8 22.6745 115.213 21.308 126 20.79C136.609 20.2809 147.004 20.6247 156.896 21.8098C166.879 23.0066 176.37 25.0652 185.105 27.9255C194.042 30.8532 202.219 34.6338 209.41 39.1621C216.803 43.8176 223.196 49.2925 228.418 55.436C229.329 56.3826 229.423 57.8326 228.569 58.886C227.605 60.0769 225.793 60.3081 224.523 59.4039L224.22 59.1932L223.992 58.9211C204.658 36.0735 169.048 24.1464 126.295 26.1991C83.3048 28.2635 49.2409 43.9771 32.8364 69.3105L32.7615 69.4261L32.6632 69.5475C32.0982 70.2542 31.2321 70.6273 30.3551 70.6273Z" fill="#00227B"/>
<g opacity="0.5">
<g opacity="0.5">
<g opacity="0.5">
<g opacity="0.5">
<path d="M50.3839 142.536C50.3839 142.536 30.376 91.9921 58.7875 70.1028C87.1989 48.2135 129.688 46.2574 128.835 48.8587C128.835 48.8587 82.3846 61.7925 65.8849 97.5358C53.1616 125.099 50.3839 142.536 50.3839 142.536Z" fill="white"/>
</g>
</g>
</g>
</g>
</svg>
