<svg width="144" height="83" viewBox="0 0 144 83" fill="none" xmlns="http://www.w3.org/2000/svg">
<g opacity="0.35">
<path d="M143.05 50.7619C140.593 53.3969 138.011 55.8988 135.32 58.2485C128.933 63.8244 121.934 68.5692 114.446 72.3293C101.798 78.6908 87.7669 82.2579 72.99 82.3237C58.5533 82.3837 44.8126 79.0961 32.3578 73.1208C24.2023 69.2012 16.6008 64.1375 9.72346 58.1022C6.30272 55.0941 3.05832 51.8533 0.0136719 48.4004C5.52868 46.8042 11.0078 44.9534 16.025 43.1231C22.2563 29.0496 29.5238 14.6367 37.9992 0.223755H106.993C113.998 12.1406 120.18 24.0517 125.631 35.7827C130.827 38.6241 136.811 43.9746 143.05 50.7619Z" fill="#00227B"/>
</g>
</svg>
