<svg width="39" height="22" viewBox="0 0 39 22" fill="none" xmlns="http://www.w3.org/2000/svg">
<path d="M28.3477 10.3546C30.5584 10.1811 32.2604 9.12238 32.2651 7.83968C32.2651 6.57557 30.6154 5.52745 28.4522 5.32916" stroke="#C06EF3" stroke-width="2.5" stroke-linecap="round" stroke-linejoin="round"/>
<path d="M31.2646 13.3234C33.4056 13.5022 34.9 13.921 34.9 14.7841C34.9 15.378 34.1964 15.764 33.0586 16.0066" stroke="#C06EF3" stroke-width="2.5" stroke-linecap="round" stroke-linejoin="round"/>
<path fill-rule="evenodd" clip-rule="evenodd" d="M18.838 13.6894C13.7446 13.6894 9.39453 14.1205 9.39453 15.8423C9.39453 17.5632 13.7177 18.0067 18.838 18.0067C23.9313 18.0067 28.2798 17.58 28.2798 15.8573C28.2798 14.1347 23.9583 13.6894 18.838 13.6894Z" stroke="#C06EF3" stroke-width="2.5" stroke-linecap="round" stroke-linejoin="round"/>
<path fill-rule="evenodd" clip-rule="evenodd" d="M18.8373 11.2321C22.1795 11.2321 24.8894 9.71926 24.8894 7.85143C24.8894 5.98448 22.1795 4.47073 18.8373 4.47073C15.4951 4.47073 12.7852 5.98448 12.7852 7.85143C12.7725 9.71218 15.4618 11.2259 18.7929 11.2321H18.8373Z" stroke="#C06EF3" stroke-width="2.5" stroke-linecap="round" stroke-linejoin="round"/>
<path d="M9.32567 10.3546C7.11338 10.1811 5.41296 9.12238 5.4082 7.83968C5.4082 6.57557 7.05791 5.52745 9.22108 5.32916" stroke="#C06EF3" stroke-width="2.5" stroke-linecap="round" stroke-linejoin="round"/>
<path d="M6.40883 13.3234C4.26784 13.5022 2.77344 13.921 2.77344 14.7841C2.77344 15.378 3.47706 15.764 4.6149 16.0066" stroke="#C06EF3" stroke-width="2.5" stroke-linecap="round" stroke-linejoin="round"/>
</svg>
