<svg width="67" height="9" viewBox="0 0 67 9" fill="none" xmlns="http://www.w3.org/2000/svg">
<path d="M63.838 8.05811C62.7371 8.05811 61.8891 7.80566 61.2938 7.30076C60.6985 6.79585 60.4009 6.07456 60.4009 5.13688C60.4009 4.22806 60.6741 3.51398 61.2204 2.99465C61.7749 2.47532 62.5333 2.21565 63.4955 2.21565C64.4251 2.21565 65.1386 2.46089 65.636 2.95137C66.1416 3.44185 66.3944 4.13789 66.3944 5.03951C66.3944 5.13327 66.3903 5.23786 66.3821 5.35327C66.3821 5.46868 66.378 5.55884 66.3699 5.62375H61.1348V4.70411H65.3669L65.159 4.98541C65.159 4.37231 65.0203 3.9179 64.7431 3.62217C64.4658 3.31923 64.05 3.16776 63.4955 3.16776C62.9084 3.16776 62.4599 3.32644 62.15 3.64381C61.8483 3.96118 61.6974 4.4228 61.6974 5.02869V5.35327C61.6974 5.93751 61.8687 6.3739 62.2112 6.66241C62.5618 6.94372 63.0878 7.08437 63.789 7.08437C64.1315 7.08437 64.4944 7.05552 64.8776 6.99781C65.269 6.9329 65.6156 6.84995 65.9173 6.74897L66.0886 7.69025C65.7787 7.80566 65.424 7.89582 65.0244 7.96074C64.633 8.02565 64.2375 8.05811 63.838 8.05811Z" fill="#4A99D3"/>
<path d="M55.9688 7.94992V2.32385H57.2408L57.2531 3.40578H57.2775C57.4814 3.15333 57.726 2.94055 58.0114 2.76744C58.305 2.58712 58.6312 2.45007 58.9899 2.3563C59.3569 2.26254 59.7361 2.21565 60.1275 2.21565V3.24349C59.6056 3.24349 59.1286 3.33365 58.6964 3.51398C58.2724 3.6943 57.934 3.93593 57.6812 4.23887C57.4284 4.54182 57.302 4.87722 57.302 5.24508V7.94992H55.9688Z" fill="#4A99D3"/>
<path d="M51.3736 8.05811C50.3624 8.05811 49.5796 7.80566 49.0251 7.30076C48.4706 6.78864 48.1934 6.06735 48.1934 5.13688C48.1934 4.20642 48.4706 3.48873 49.0251 2.98383C49.5796 2.47171 50.3624 2.21565 51.3736 2.21565C52.3847 2.21565 53.1675 2.47171 53.722 2.98383C54.2765 3.48873 54.5538 4.20642 54.5538 5.13688C54.5538 6.06735 54.2765 6.78864 53.722 7.30076C53.1675 7.80566 52.3847 8.05811 51.3736 8.05811ZM51.3736 7.08437C51.977 7.08437 52.4377 6.91847 52.7557 6.58668C53.0738 6.25488 53.2328 5.77162 53.2328 5.13688C53.2328 4.50215 53.0738 4.01888 52.7557 3.68709C52.4377 3.35529 51.977 3.18939 51.3736 3.18939C50.7783 3.18939 50.3176 3.35529 49.9914 3.68709C49.6734 4.01888 49.5144 4.50215 49.5144 5.13688C49.5144 5.77162 49.6734 6.25488 49.9914 6.58668C50.3176 6.91847 50.7783 7.08437 51.3736 7.08437Z" fill="#4A99D3"/>
<path d="M38.0273 7.94992V2.32385H39.2627L39.275 2.99465H39.2994C39.5278 2.74941 39.805 2.55827 40.1312 2.42122C40.4574 2.28418 40.8365 2.21565 41.2687 2.21565C41.6927 2.21565 42.0515 2.28418 42.3451 2.42122C42.6386 2.55105 42.8466 2.74219 42.9689 2.99465H42.9934C43.2298 2.72777 43.5071 2.53302 43.8251 2.4104C44.1513 2.28057 44.5305 2.21565 44.9626 2.21565C45.6558 2.21565 46.1613 2.37794 46.4794 2.70252C46.7974 3.01989 46.9564 3.5248 46.9564 4.21724V7.94992H45.6598V4.48772C45.6598 4.04052 45.5742 3.71233 45.403 3.50316C45.2317 3.29398 44.9586 3.18939 44.5835 3.18939C44.1431 3.18939 43.7925 3.31923 43.5316 3.57889C43.2706 3.83134 43.1401 4.17035 43.1401 4.59591V7.94992H41.8436V4.37953C41.8436 3.99724 41.7498 3.70512 41.5623 3.50316C41.3747 3.29398 41.1097 3.18939 40.7672 3.18939C40.4981 3.18939 40.2535 3.25071 40.0333 3.37332C39.8132 3.49594 39.6378 3.66545 39.5074 3.88183C39.385 4.09101 39.3239 4.32904 39.3239 4.59591V7.94992H38.0273Z" fill="#4A99D3"/>
<path d="M27.1455 7.94992V2.32385H28.4054L28.4176 2.99465H28.4421C28.6948 2.73498 29.0006 2.54023 29.3594 2.4104C29.7182 2.28057 30.1341 2.21565 30.607 2.21565C31.3899 2.21565 31.9647 2.39958 32.3317 2.76744C32.7068 3.1353 32.8944 3.70873 32.8944 4.48772V7.94992H31.5733V4.70411C31.5733 4.18478 31.4633 3.80249 31.2431 3.55725C31.0311 3.31201 30.6967 3.18939 30.2401 3.18939C29.8976 3.18939 29.5918 3.25071 29.3227 3.37332C29.0536 3.49594 28.8416 3.66184 28.6867 3.87102C28.5399 4.08019 28.4665 4.32182 28.4665 4.59591V7.94992H27.1455Z" fill="#4A99D3"/>
<path d="M21.8184 7.94992V2.32385H23.0904L23.1027 3.40578H23.1271C23.331 3.15333 23.5756 2.94055 23.861 2.76744C24.1546 2.58712 24.4808 2.45007 24.8396 2.3563C25.2065 2.26254 25.5857 2.21565 25.9771 2.21565V3.24349C25.4552 3.24349 24.9782 3.33365 24.546 3.51398C24.122 3.6943 23.7836 3.93593 23.5308 4.23887C23.278 4.54182 23.1516 4.87722 23.1516 5.24508V7.94992H21.8184Z" fill="#4A99D3"/>
<path d="M16.5495 8.05811C15.9135 8.05811 15.412 7.90664 15.045 7.6037C14.6781 7.29354 14.4946 6.87519 14.4946 6.34865C14.4946 5.69228 14.7882 5.18737 15.3753 4.83394C15.9624 4.47329 16.7982 4.29297 17.8828 4.29297H18.8001C18.8001 4.00445 18.7594 3.78085 18.6778 3.62217C18.5963 3.46349 18.4536 3.35169 18.2497 3.28677C18.054 3.22185 17.7808 3.18939 17.4302 3.18939C17.0143 3.18939 16.5903 3.22546 16.1581 3.29759C15.7341 3.36972 15.3305 3.47791 14.9472 3.62217L14.7637 2.65925C15.1714 2.5222 15.6199 2.41401 16.1092 2.33466C16.6066 2.25532 17.104 2.21565 17.6014 2.21565C18.2375 2.21565 18.7349 2.28418 19.0937 2.42122C19.4606 2.55827 19.7216 2.78908 19.8765 3.11366C20.0396 3.43824 20.1212 3.86741 20.1212 4.40116V7.94992H18.8613L18.8491 7.30076H18.8246C18.6044 7.52436 18.2783 7.70828 17.8461 7.85254C17.4221 7.98959 16.9899 8.05811 16.5495 8.05811ZM17.0143 7.10601C17.3405 7.10601 17.6381 7.05191 17.9072 6.94372C18.1845 6.83552 18.4006 6.69126 18.5555 6.51094C18.7186 6.33062 18.8001 6.12866 18.8001 5.90506V5.18016H18.0662C17.316 5.18016 16.7534 5.26671 16.3783 5.43982C16.0032 5.61293 15.8156 5.87621 15.8156 6.22964C15.8156 6.50373 15.9176 6.72012 16.1214 6.8788C16.3334 7.03027 16.6311 7.10601 17.0143 7.10601Z" fill="#4A99D3"/>
<path d="M11.0416 8.05811C9.94072 8.05811 9.09267 7.80566 8.4974 7.30076C7.90213 6.79585 7.60449 6.07456 7.60449 5.13688C7.60449 4.22806 7.87766 3.51398 8.42401 2.99465C8.97851 2.47532 9.73686 2.21565 10.6991 2.21565C11.6287 2.21565 12.3422 2.46089 12.8396 2.95137C13.3452 3.44185 13.598 4.13789 13.598 5.03951C13.598 5.13327 13.5939 5.23786 13.5857 5.35327C13.5857 5.46868 13.5817 5.55884 13.5735 5.62375H8.33839V4.70411H12.5705L12.3626 4.98541C12.3626 4.37231 12.224 3.9179 11.9467 3.62217C11.6695 3.31923 11.2536 3.16776 10.6991 3.16776C10.112 3.16776 9.66347 3.32644 9.35361 3.64381C9.0519 3.96118 8.90104 4.4228 8.90104 5.02869V5.35327C8.90104 5.93751 9.07228 6.3739 9.41477 6.66241C9.7654 6.94372 10.2914 7.08437 10.9926 7.08437C11.3351 7.08437 11.698 7.05552 12.0812 6.99781C12.4727 6.9329 12.8192 6.84995 13.1209 6.74897L13.2922 7.69025C12.9823 7.80566 12.6276 7.89582 12.228 7.96074C11.8366 8.02565 11.4411 8.05811 11.0416 8.05811Z" fill="#4A99D3"/>
<path d="M0.976562 7.94979V0.051651H2.35873V6.86785H7.21467V7.94979H0.976562Z" fill="#4A99D3"/>
</svg>
