<svg width="76" height="12" viewBox="0 0 76 12" fill="none" xmlns="http://www.w3.org/2000/svg">
<path d="M72.1401 11.14C70.8801 11.14 69.9094 10.8134 69.2281 10.16C68.5467 9.50668 68.2061 8.57335 68.2061 7.36002C68.2061 6.18402 68.5187 5.26002 69.1441 4.58802C69.7787 3.91602 70.6467 3.58002 71.7481 3.58002C72.8121 3.58002 73.6287 3.89735 74.1981 4.53202C74.7767 5.16668 75.0661 6.06735 75.0661 7.23402C75.0661 7.35535 75.0614 7.49068 75.0521 7.64002C75.0521 7.78935 75.0474 7.90602 75.0381 7.99002H69.0461V6.80002H73.8901L73.6521 7.16402C73.6521 6.37068 73.4934 5.78268 73.1761 5.40002C72.8587 5.00802 72.3827 4.81202 71.7481 4.81202C71.0761 4.81202 70.5627 5.01735 70.2081 5.42802C69.8627 5.83868 69.6901 6.43602 69.6901 7.22002V7.64002C69.6901 8.39602 69.8861 8.96068 70.2781 9.33402C70.6794 9.69802 71.2814 9.88002 72.0841 9.88002C72.4761 9.88002 72.8914 9.84268 73.3301 9.76802C73.7781 9.68402 74.1747 9.57668 74.5201 9.44602L74.7161 10.664C74.3614 10.8134 73.9554 10.93 73.4981 11.014C73.0501 11.098 72.5974 11.14 72.1401 11.14Z" fill="#4A99D3"/>
<path d="M63.1328 11V3.72002H64.5888L64.6028 5.12002H64.6308C64.8641 4.79335 65.1441 4.51802 65.4708 4.29402C65.8068 4.06068 66.1801 3.88335 66.5908 3.76202C67.0108 3.64068 67.4448 3.58002 67.8928 3.58002V4.91002C67.2955 4.91002 66.7495 5.02668 66.2548 5.26002C65.7695 5.49335 65.3821 5.80602 65.0928 6.19802C64.8035 6.59002 64.6588 7.02402 64.6588 7.50002V11H63.1328Z" fill="#4A99D3"/>
<path d="M57.8734 11.14C56.7161 11.14 55.8201 10.8134 55.1854 10.16C54.5507 9.49735 54.2334 8.56402 54.2334 7.36002C54.2334 6.15602 54.5507 5.22735 55.1854 4.57402C55.8201 3.91135 56.7161 3.58002 57.8734 3.58002C59.0307 3.58002 59.9267 3.91135 60.5614 4.57402C61.1961 5.22735 61.5134 6.15602 61.5134 7.36002C61.5134 8.56402 61.1961 9.49735 60.5614 10.16C59.9267 10.8134 59.0307 11.14 57.8734 11.14ZM57.8734 9.88002C58.5641 9.88002 59.0914 9.66535 59.4554 9.23602C59.8194 8.80668 60.0014 8.18135 60.0014 7.36002C60.0014 6.53868 59.8194 5.91335 59.4554 5.48402C59.0914 5.05468 58.5641 4.84002 57.8734 4.84002C57.1921 4.84002 56.6647 5.05468 56.2914 5.48402C55.9274 5.91335 55.7454 6.53868 55.7454 7.36002C55.7454 8.18135 55.9274 8.80668 56.2914 9.23602C56.6647 9.66535 57.1921 9.88002 57.8734 9.88002Z" fill="#4A99D3"/>
<path d="M42.5977 11V3.72002H44.0117L44.0257 4.58802H44.0537C44.315 4.27068 44.6323 4.02335 45.0057 3.84602C45.379 3.66868 45.813 3.58002 46.3077 3.58002C46.793 3.58002 47.2037 3.66868 47.5397 3.84602C47.8757 4.01402 48.1137 4.26135 48.2537 4.58802H48.2817C48.5523 4.24268 48.8697 3.99068 49.2337 3.83202C49.607 3.66402 50.041 3.58002 50.5357 3.58002C51.329 3.58002 51.9077 3.79002 52.2717 4.21002C52.6357 4.62068 52.8177 5.27402 52.8177 6.17002V11H51.3337V6.52002C51.3337 5.94135 51.2357 5.51668 51.0397 5.24602C50.8437 4.97535 50.531 4.84002 50.1017 4.84002C49.5977 4.84002 49.1963 5.00802 48.8977 5.34402C48.599 5.67068 48.4497 6.10935 48.4497 6.66002V11H46.9657V6.38002C46.9657 5.88535 46.8583 5.50735 46.6437 5.24602C46.429 4.97535 46.1257 4.84002 45.7337 4.84002C45.4257 4.84002 45.1457 4.91935 44.8937 5.07802C44.6417 5.23668 44.441 5.45602 44.2917 5.73602C44.1517 6.00668 44.0817 6.31468 44.0817 6.66002V11H42.5977Z" fill="#4A99D3"/>
<path d="M30.1426 11V3.72002H31.5846L31.5986 4.58802H31.6266C31.9159 4.25202 32.2659 4.00002 32.6766 3.83202C33.0872 3.66402 33.5632 3.58002 34.1046 3.58002C35.0006 3.58002 35.6586 3.81802 36.0786 4.29402C36.5079 4.77002 36.7226 5.51202 36.7226 6.52002V11H35.2106V6.80002C35.2106 6.12802 35.0846 5.63335 34.8326 5.31602C34.5899 4.99868 34.2072 4.84002 33.6846 4.84002C33.2926 4.84002 32.9426 4.91935 32.6346 5.07802C32.3266 5.23668 32.0839 5.45135 31.9066 5.72202C31.7386 5.99268 31.6546 6.30535 31.6546 6.66002V11H30.1426Z" fill="#4A99D3"/>
<path d="M24.0449 11V3.72002H25.5009L25.5149 5.12002H25.5429C25.7763 4.79335 26.0563 4.51802 26.3829 4.29402C26.7189 4.06068 27.0923 3.88335 27.5029 3.76202C27.9229 3.64068 28.3569 3.58002 28.8049 3.58002V4.91002C28.2076 4.91002 27.6616 5.02668 27.1669 5.26002C26.6816 5.49335 26.2943 5.80602 26.0049 6.19802C25.7156 6.59002 25.5709 7.02402 25.5709 7.50002V11H24.0449Z" fill="#4A99D3"/>
<path d="M18.0146 11.14C17.2866 11.14 16.7126 10.944 16.2926 10.552C15.8726 10.1507 15.6626 9.60935 15.6626 8.92802C15.6626 8.07868 15.9986 7.42535 16.6706 6.96802C17.3426 6.50135 18.2993 6.26802 19.5406 6.26802H20.5906C20.5906 5.89468 20.5439 5.60535 20.4506 5.40002C20.3573 5.19468 20.1939 5.05002 19.9606 4.96602C19.7366 4.88202 19.4239 4.84002 19.0226 4.84002C18.5466 4.84002 18.0613 4.88668 17.5666 4.98002C17.0813 5.07335 16.6193 5.21335 16.1806 5.40002L15.9706 4.15402C16.4373 3.97668 16.9506 3.83668 17.5106 3.73402C18.0799 3.63135 18.6493 3.58002 19.2186 3.58002C19.9466 3.58002 20.5159 3.66868 20.9266 3.84602C21.3466 4.02335 21.6453 4.32202 21.8226 4.74202C22.0093 5.16202 22.1026 5.71735 22.1026 6.40802V11H20.6606L20.6466 10.16H20.6186C20.3666 10.4494 19.9933 10.6874 19.4986 10.874C19.0133 11.0514 18.5186 11.14 18.0146 11.14ZM18.5466 9.90802C18.9199 9.90802 19.2606 9.83802 19.5686 9.69802C19.8859 9.55802 20.1333 9.37135 20.3106 9.13802C20.4973 8.90468 20.5906 8.64335 20.5906 8.35402V7.41602H19.7506C18.8919 7.41602 18.2479 7.52802 17.8186 7.75202C17.3893 7.97602 17.1746 8.31668 17.1746 8.77402C17.1746 9.12868 17.2913 9.40868 17.5246 9.61402C17.7673 9.81002 18.1079 9.90802 18.5466 9.90802Z" fill="#4A99D3"/>
<path d="M11.7104 11.14C10.4504 11.14 9.4797 10.8134 8.79837 10.16C8.11703 9.50668 7.77637 8.57335 7.77637 7.36002C7.77637 6.18402 8.08903 5.26002 8.71437 4.58802C9.34903 3.91602 10.217 3.58002 11.3184 3.58002C12.3824 3.58002 13.199 3.89735 13.7684 4.53202C14.347 5.16668 14.6364 6.06735 14.6364 7.23402C14.6364 7.35535 14.6317 7.49068 14.6224 7.64002C14.6224 7.78935 14.6177 7.90602 14.6084 7.99002H8.61637V6.80002H13.4604L13.2224 7.16402C13.2224 6.37068 13.0637 5.78268 12.7464 5.40002C12.429 5.00802 11.953 4.81202 11.3184 4.81202C10.6464 4.81202 10.133 5.01735 9.77837 5.42802C9.43303 5.83868 9.26037 6.43602 9.26037 7.22002V7.64002C9.26037 8.39602 9.45637 8.96068 9.84837 9.33402C10.2497 9.69802 10.8517 9.88002 11.6544 9.88002C12.0464 9.88002 12.4617 9.84268 12.9004 9.76802C13.3484 9.68402 13.745 9.57668 14.0904 9.44602L14.2864 10.664C13.9317 10.8134 13.5257 10.93 13.0684 11.014C12.6204 11.098 12.1677 11.14 11.7104 11.14Z" fill="#4A99D3"/>
<path d="M0.189941 11V0.780029H1.77194V9.60003H7.32994V11H0.189941Z" fill="#4A99D3"/>
</svg>
