<svg width="35" height="35" viewBox="0 0 35 35" fill="none" xmlns="http://www.w3.org/2000/svg">
<rect x="0.5" y="0.5" width="34" height="34" stroke="#367CFF"/>
<path fill-rule="evenodd" clip-rule="evenodd" d="M4.375 15.1668C4.375 11.9002 4.375 10.2668 5.01083 9.0185C5.57009 7.92093 6.46244 7.02858 7.56 6.46933C8.80833 5.8335 10.4417 5.8335 13.7083 5.8335H21.2917C24.5583 5.8335 26.1917 5.8335 27.44 6.46933C28.5376 7.02858 29.4299 7.92093 29.9892 9.0185C30.625 10.2668 30.625 11.9002 30.625 15.1668V16.9168C30.625 20.1835 30.625 21.8168 29.9892 23.0652C29.4299 24.1627 28.5376 25.0551 27.44 25.6143C26.1917 26.2502 24.5583 26.2502 21.2917 26.2502H10.8121C10.4253 26.2502 10.0545 26.4039 9.78104 26.6775L6.86437 29.5941C5.94562 30.5129 4.375 29.8625 4.375 28.5631V18.9585V15.1668ZM13.125 11.6668C12.7382 11.6668 12.3673 11.8205 12.0938 12.094C11.8203 12.3675 11.6667 12.7384 11.6667 13.1252C11.6667 13.5119 11.8203 13.8829 12.0938 14.1564C12.3673 14.4298 12.7382 14.5835 13.125 14.5835H21.875C22.2618 14.5835 22.6327 14.4298 22.9062 14.1564C23.1797 13.8829 23.3333 13.5119 23.3333 13.1252C23.3333 12.7384 23.1797 12.3675 22.9062 12.094C22.6327 11.8205 22.2618 11.6668 21.875 11.6668H13.125ZM13.125 17.5002C12.7382 17.5002 12.3673 17.6538 12.0938 17.9273C11.8203 18.2008 11.6667 18.5717 11.6667 18.9585C11.6667 19.3453 11.8203 19.7162 12.0938 19.9897C12.3673 20.2632 12.7382 20.4168 13.125 20.4168H17.5C17.8868 20.4168 18.2577 20.2632 18.5312 19.9897C18.8047 19.7162 18.9583 19.3453 18.9583 18.9585C18.9583 18.5717 18.8047 18.2008 18.5312 17.9273C18.2577 17.6538 17.8868 17.5002 17.5 17.5002H13.125Z" fill="#367CFF"/>
</svg>
