<svg width="20" height="20" viewBox="0 0 20 20" fill="none" xmlns="http://www.w3.org/2000/svg">
<path d="M18.3485 11.0817L15.0827 12.93L12.1535 10.0192L15.106 7.085L18.3485 8.92C18.5399 9.02821 18.6991 9.18529 18.8098 9.37519C18.9206 9.56508 18.979 9.78099 18.979 10.0008C18.979 10.2207 18.9206 10.4366 18.8098 10.6265C18.6991 10.8164 18.5399 10.9735 18.3485 11.0817ZM1.11433 0.769997C1.05278 0.920217 1.02108 1.08099 1.021 1.24333V18.7575C1.021 18.9383 1.0585 19.1067 1.12433 19.2575L10.4202 10.0183L1.11433 0.769997ZM11.2868 9.1575L14.0018 6.45916L2.87516 0.162497C2.63658 0.0256902 2.3589 -0.0268515 2.08683 0.0133298L11.2868 9.1575ZM11.2868 10.88L2.12016 19.9908C2.3685 20.0208 2.63016 19.9775 2.87516 19.8383L13.9785 13.555L11.2868 10.88Z" fill="white"/>
</svg>
