<svg width="52" height="52" viewBox="0 0 52 52" fill="none" xmlns="http://www.w3.org/2000/svg">
<g clip-path="url(#clip0_301_5374)">
<path d="M51.1615 17.6432L34.5475 9.28849V25.9978L51.1615 17.6453V17.6432ZM17.693 34.3568V17.6432L0.838504 9.28849V26L17.6952 34.3568H17.693ZM0.396504 8.57566C0.517814 8.49931 0.656869 8.45578 0.800055 8.44933C0.943241 8.44287 1.08565 8.47371 1.21334 8.53882L17.693 16.7093L34.1748 8.53882C34.2912 8.48049 34.4195 8.45012 34.5497 8.45012C34.6798 8.45012 34.8082 8.48049 34.9245 8.53882L51.5385 16.8957C51.6772 16.9652 51.7938 17.0719 51.8753 17.2039C51.9568 17.3359 52 17.488 52 17.6432V34.3482C51.9999 34.5036 51.9567 34.6559 51.8752 34.7882C51.7938 34.9206 51.6772 35.0277 51.5385 35.0978L34.9245 43.4612C34.7966 43.5247 34.6546 43.5547 34.5119 43.5483C34.3692 43.5419 34.2304 43.4993 34.1087 43.4246C33.987 43.3498 33.8862 43.2454 33.8159 43.121C33.7456 42.9967 33.7081 42.8565 33.7068 42.7137V27.352L18.0657 35.1087C17.9496 35.1653 17.8222 35.1948 17.693 35.1948C17.5639 35.1948 17.4364 35.1653 17.3203 35.1087L0.465838 26.7497C0.326171 26.6804 0.208591 26.5735 0.126303 26.4411C0.0440141 26.3086 0.000277275 26.1559 4.37897e-06 26V9.28849C-0.00045834 9.14567 0.0357574 9.00512 0.105183 8.8803C0.174608 8.75549 0.274918 8.65059 0.396504 8.57566Z" fill="#E57300"/>
</g>
<defs>
<clipPath id="clip0_301_5374">
<rect width="52" height="52" fill="white"/>
</clipPath>
</defs>
</svg>
