<svg width="18" height="11" viewBox="0 0 18 11" fill="none" xmlns="http://www.w3.org/2000/svg">
<path d="M1.36138 10.2294C1.66565 10.5223 2.07723 10.6867 2.50625 10.6867C2.93527 10.6867 3.34685 10.5223 3.65111 10.2294L9.48099 4.66168L15.2297 10.2294C15.5339 10.5223 15.9455 10.6867 16.3745 10.6867C16.8036 10.6867 17.2151 10.5223 17.5194 10.2294C17.6716 10.0831 17.7924 9.90919 17.8749 9.71753C17.9573 9.52587 17.9998 9.3203 17.9998 9.11267C17.9998 8.90505 17.9573 8.69947 17.8749 8.50781C17.7924 8.31616 17.6716 8.1422 17.5194 7.99599L10.634 1.32737C10.483 1.17995 10.3034 1.06295 10.1055 0.9831C9.90763 0.903252 9.69537 0.862142 9.48099 0.862142C9.26662 0.862142 9.05436 0.903252 8.85647 0.9831C8.65858 1.06295 8.47897 1.17995 8.32801 1.32737L1.36138 7.99599C1.20918 8.1422 1.08837 8.31615 1.00592 8.50781C0.923477 8.69947 0.881029 8.90504 0.881029 9.11267C0.881029 9.3203 0.923477 9.52587 1.00592 9.71753C1.08837 9.90919 1.20918 10.0831 1.36138 10.2294Z" fill="white"/>
</svg>
