<svg width="21" height="15" viewBox="0 0 21 15" fill="none" xmlns="http://www.w3.org/2000/svg">
<g clip-path="url(#clip0_313_18520)">
<path d="M13.4058 0.760037C13.2367 0.932101 13.1419 1.16374 13.1419 1.40504C13.1419 1.64633 13.2367 1.87797 13.4058 2.05004L17.6558 6.33004H1.55583C1.42763 6.31662 1.29805 6.33028 1.17547 6.37015C1.0529 6.41002 0.940067 6.4752 0.844297 6.56147C0.748527 6.64774 0.671953 6.75317 0.619538 6.87093C0.567124 6.98868 0.540039 7.11614 0.540039 7.24504C0.540039 7.37393 0.567124 7.50139 0.619538 7.61915C0.671953 7.73691 0.748527 7.84233 0.844297 7.9286C0.940067 8.01487 1.0529 8.08005 1.17547 8.11992C1.29805 8.15979 1.42763 8.17346 1.55583 8.16004H17.6558L13.3958 12.5C13.229 12.6733 13.1358 12.9045 13.1358 13.145C13.1358 13.3856 13.229 13.6168 13.3958 13.79C13.4785 13.8729 13.5767 13.9386 13.6848 13.9835C13.7929 14.0283 13.9088 14.0514 14.0258 14.0514C14.1429 14.0514 14.2588 14.0283 14.3669 13.9835C14.475 13.9386 14.5732 13.8729 14.6558 13.79L20.3958 7.90004C20.4738 7.81382 20.5379 7.71598 20.5858 7.61004C20.634 7.49973 20.6578 7.38037 20.6558 7.26004C20.6568 7.14149 20.6343 7.02393 20.5897 6.9141C20.5451 6.80427 20.4792 6.70433 20.3958 6.62004L14.6558 0.780037C14.4972 0.617711 14.2825 0.522126 14.0558 0.512832C13.829 0.503538 13.6072 0.581237 13.4358 0.730037L13.4058 0.760037Z" fill="black"/>
</g>
<defs>
<clipPath id="clip0_313_18520">
<rect width="20" height="13.5" fill="white" transform="translate(0.65625 0.5)"/>
</clipPath>
</defs>
</svg>
