<svg width="139" height="125" viewBox="0 0 139 125" fill="none" xmlns="http://www.w3.org/2000/svg">
<g clip-path="url(#clip0_301_8852)">
<path d="M139 125H0C1.52309 118.843 4.33575 113.62 8.3008 112.07C14.101 109.806 20.2392 116.03 26.0269 113.69C29.3149 112.362 31.9034 108.491 34.6234 105.277C44.8849 93.1485 58.9472 89.5639 71.0898 95.9833C77.4368 99.3372 83.2207 105.202 89.7226 107.697C98.1301 110.922 106.923 108.247 115.568 107.807C123.988 107.377 136.054 112.816 139 125Z" fill="#F3F5FD"/>
<path d="M121.784 94.009C121.114 97.2277 118.801 100.088 119.492 102.455C119.755 103.355 120.019 104.296 120.14 105.257C120.219 105.83 120.232 106.421 120.179 107.002C119.93 109.509 118.45 111.174 117.074 112.47C116.989 112.55 116.903 112.631 116.817 112.712C115.514 113.951 114.148 115.377 113.729 117.663C113.497 118.933 113.599 120.29 113.503 121.604C113.412 122.81 113.153 123.97 112.746 125H103.959C103.179 123.637 103.244 121.346 103.837 119.739C104.473 118.02 105.546 116.851 106.515 115.579C107.352 114.48 108.168 113.157 108.487 111.544C108.538 111.288 108.575 111.027 108.599 110.762C108.677 109.889 108.635 105.428 109.59 102.683C111.066 98.443 113.461 99.4871 114.193 97.0949C114.474 96.1786 114.716 84.9186 119.381 86.9988C119.836 87.1916 120.261 87.5292 120.631 87.9911C121.001 88.453 121.308 89.0294 121.533 89.6853C121.758 90.3412 121.896 91.0627 121.939 91.8061C121.982 92.5494 121.93 93.2989 121.784 94.009Z" fill="#DEE8F5"/>
<path d="M130.318 111.615C130.184 111.761 130.04 111.883 129.889 111.977C128.63 112.726 125.129 112.643 124.617 114.613C124.376 115.539 124.319 116.562 124.112 117.51C123.644 119.66 122.409 121.271 121.026 121.878C120.529 122.095 120.014 122.196 119.522 122.439C118.571 122.908 117.783 123.853 117.091 125H105.743C105.738 123.807 105.923 122.631 106.281 121.582C106.639 120.533 107.158 119.644 107.791 118.997C109.053 117.736 110.647 117.5 111.886 116.182C112.702 115.312 113.29 114.055 113.756 112.666C114.052 111.757 114.314 110.821 114.54 109.862C114.887 108.436 115.249 106.906 116.036 106.023C116.411 105.603 116.855 105.367 117.3 105.183C118.438 104.711 119.312 104.989 120.14 105.258C121.146 105.583 122.084 105.894 123.344 104.833C125.578 102.951 128.845 93.5633 132.111 102.483C133.42 106.059 131.613 110.241 130.318 111.615Z" fill="#5E75E8"/>
<path d="M17.5688 94.009C18.239 97.2277 20.5523 100.088 19.8615 102.455C19.5987 103.355 19.3348 104.296 19.2133 105.257C19.1344 105.83 19.1213 106.421 19.1746 107.002C19.4238 109.509 20.9035 111.174 22.2794 112.47C22.3643 112.55 22.4501 112.631 22.536 112.712C23.8397 113.951 25.2052 115.377 25.6241 117.663C25.8566 118.933 25.754 120.29 25.8503 121.604C25.9416 122.81 26.2002 123.97 26.6074 125H35.3943C36.1744 123.637 36.1095 121.346 35.5157 119.739C34.8805 118.02 33.8067 116.851 32.8382 115.579C32.0014 114.48 31.1856 113.157 30.8663 111.544C30.8155 111.288 30.7781 111.027 30.7543 110.762C30.6768 109.889 30.7187 105.428 29.7637 102.683C28.2864 98.443 25.8918 99.4871 25.1601 97.0949C24.8794 96.1786 24.6375 84.9186 19.9723 86.9988C19.5174 87.1916 19.092 87.5293 18.7221 87.9911C18.3522 88.453 18.0454 89.0294 17.8205 89.6853C17.5957 90.3412 17.4574 91.0628 17.4141 91.8061C17.3708 92.5494 17.4235 93.2989 17.5688 94.009Z" fill="#DEE8F5"/>
<path d="M9.03545 111.615C9.16943 111.761 9.31348 111.883 9.46481 111.977C10.7235 112.726 14.2243 112.643 14.7363 114.613C14.9772 115.539 15.0347 116.562 15.2411 117.51C15.7091 119.66 16.9448 121.271 18.3271 121.878C18.8245 122.095 19.3394 122.196 19.8319 122.439C20.7827 122.908 21.5702 123.853 22.2623 125H33.6106C33.6156 123.807 33.4305 122.631 33.0725 121.582C32.7144 120.533 32.195 119.644 31.5624 118.997C30.3005 117.736 28.7067 117.5 27.4679 116.182C26.6511 115.312 26.0636 114.055 25.5976 112.666C25.3012 111.757 25.0394 110.821 24.8136 109.862C24.467 108.436 24.1046 106.906 23.3172 106.023C22.9423 105.603 22.4983 105.367 22.0532 105.183C20.916 104.711 20.0416 104.989 19.2133 105.258C18.2077 105.583 17.2698 105.893 16.0093 104.832C13.7746 102.95 10.5073 93.5623 7.2423 102.482C5.93368 106.059 7.74014 110.241 9.03545 111.615Z" fill="#5569CB"/>
<path d="M106.901 25.6288C106.138 25.236 105.315 25.236 104.552 25.6288C104.113 25.861 103.721 26.2748 103.417 26.8274C103.028 27.5566 102.742 28.5664 102.77 29.5336C102.79 30.0339 102.89 30.518 103.06 30.9405C103.231 31.363 103.466 31.71 103.744 31.9491C104.236 32.3494 104.977 32.4324 105.409 31.7918C105.738 31.304 105.721 30.4662 105.509 29.8849C105.17 28.9558 104.43 28.5781 103.787 28.7074C103.421 28.7907 103.069 28.9899 102.752 29.2931C102.435 29.5964 102.16 29.9975 101.942 30.4727C101.737 30.9223 101.589 31.4302 101.505 31.9688C101.427 32.4686 101.395 33.042 101.519 33.5306C101.541 33.6459 101.591 33.7433 101.657 33.8029C101.723 33.8625 101.801 33.8797 101.875 33.8511C102.012 33.7912 102.136 33.5181 102.077 33.2868C102.041 33.1566 102.021 33.017 102.017 32.875C102.012 32.6998 102.021 32.5243 102.043 32.3525C102.095 31.9556 102.188 31.5755 102.32 31.2284C102.587 30.5367 102.999 30.0165 103.484 29.7596C103.948 29.5137 104.496 29.5161 104.868 30.0734C104.937 30.1723 104.994 30.2914 105.035 30.4242C105.04 30.4392 105.057 30.5064 105.037 30.4272C105.046 30.4631 105.054 30.4997 105.061 30.5373C105.065 30.5606 105.069 30.5845 105.073 30.6078C105.077 30.6393 105.084 30.7866 105.08 30.6524C105.081 30.689 105.101 30.9054 105.079 30.9261C105.073 30.9323 105.097 30.7957 105.083 30.8759C105.081 30.8899 105.081 30.9047 105.078 30.9184C105.073 30.9574 105.066 30.9958 105.058 31.0334C105.021 31.129 104.965 31.2027 104.899 31.2435C104.941 31.212 104.855 31.2675 104.856 31.2672C104.838 31.2759 104.82 31.283 104.801 31.2899C104.748 31.312 104.694 31.3253 104.639 31.3295C104.545 31.34 104.45 31.3361 104.357 31.3177C104.256 31.2894 104.158 31.243 104.065 31.1793C103.86 31.0212 103.685 30.7789 103.559 30.4776C103.433 30.1762 103.36 29.8269 103.348 29.4659C103.354 29.0553 103.412 28.6509 103.52 28.2772C103.562 28.1256 103.611 27.9785 103.666 27.8367C103.713 27.7101 103.767 27.5894 103.826 27.4756C103.886 27.3626 103.951 27.2559 104.02 27.1559C104.053 27.1072 104.087 27.0603 104.123 27.0151C104.191 26.9267 104.078 27.0643 104.15 26.9827C104.171 26.9578 104.193 26.9334 104.215 26.9097C104.291 26.8276 104.371 26.7529 104.453 26.6859C104.496 26.6512 104.539 26.6186 104.582 26.5876C104.592 26.581 104.633 26.5543 104.585 26.5856C104.613 26.5676 104.641 26.5504 104.669 26.5338C104.858 26.4269 105.053 26.3493 105.252 26.3024C105.335 26.2814 105.191 26.311 105.275 26.2978C105.3 26.2939 105.325 26.289 105.35 26.2852C105.399 26.2778 105.449 26.272 105.499 26.2679C105.597 26.2597 105.694 26.2577 105.792 26.2619C105.887 26.2657 105.981 26.2749 106.075 26.2896C106.095 26.2929 106.235 26.3211 106.156 26.3028C106.199 26.3128 106.243 26.3231 106.286 26.3351C106.442 26.3773 106.596 26.4366 106.747 26.5126C107.103 26.6927 107.255 25.8071 106.901 25.6277L106.901 25.6288Z" fill="#3652DD"/>
<path d="M51.6258 8.79834C52.3642 8.37763 53.1344 9.22834 53.4817 10.2701C53.8237 11.2968 53.744 12.7635 53.0748 13.4204C52.7905 13.6995 52.3923 13.7931 52.1442 13.4348C51.8856 13.0612 51.9014 12.5956 52.157 12.2219C52.2169 12.1369 52.2821 12.0618 52.3517 11.9979C52.3922 11.9592 52.4336 11.9225 52.4758 11.8889C52.4913 11.8766 52.507 11.8648 52.5227 11.8532C52.5656 11.8217 52.4603 11.8889 52.5381 11.8429C52.6006 11.8055 52.6645 11.774 52.7294 11.7485C52.7602 11.7368 52.7912 11.7263 52.8225 11.7171C52.8406 11.7117 52.8586 11.707 52.8767 11.7024C52.8172 11.7174 52.9055 11.6982 52.91 11.6976C53.057 11.6761 53.2051 11.68 53.3516 11.7092C53.4006 11.7189 53.3125 11.6991 53.3615 11.712C53.3808 11.7172 53.4002 11.7223 53.4193 11.7278C53.4531 11.7376 53.4867 11.7488 53.5201 11.7613C53.6019 11.7917 53.6825 11.8291 53.7617 11.8735C53.7843 11.886 53.8523 11.9274 53.8519 11.9271C53.8278 11.9114 53.8726 11.9419 53.8718 11.9414C53.8899 11.9545 53.9079 11.9679 53.9258 11.9817C54.0018 12.0402 54.0756 12.1057 54.1467 12.1779C54.2686 12.3 54.3789 12.4491 54.4742 12.6206C54.5679 12.7873 54.6456 12.975 54.7047 13.1776C54.7164 13.2149 54.7264 13.2536 54.7345 13.2932C54.7521 13.3706 54.7677 13.4495 54.782 13.5292C54.8137 13.7002 54.8374 13.8745 54.853 14.051C54.9036 14.6997 54.8383 15.358 54.6646 15.9509C54.4909 16.5438 54.2157 17.0475 53.8704 17.4047C53.7326 17.5413 53.5763 17.6238 53.4144 17.6455C53.2525 17.6671 53.0897 17.6273 52.9394 17.5293C52.8978 17.4975 52.8578 17.4607 52.8197 17.4192C52.7741 17.3707 52.8412 17.4532 52.8149 17.4143C52.808 17.4042 52.801 17.3945 52.7944 17.3838C52.7858 17.3695 52.7781 17.3545 52.7698 17.34C52.8452 17.4722 52.7785 17.3646 52.7832 17.3613C52.7767 17.3448 52.7708 17.3276 52.7655 17.31C52.7817 17.3498 52.7782 17.3896 52.7706 17.3232C52.7687 17.3075 52.7524 17.1739 52.7577 17.2491C52.7626 17.3198 52.7588 17.2044 52.7585 17.1816C52.7582 17.1588 52.7605 17.1369 52.7609 17.1144C52.7609 17.1319 52.7463 17.214 52.7597 17.1327C52.7686 17.0787 52.7751 17.0247 52.786 16.9714C52.7916 16.9445 52.8211 16.8374 52.7982 16.9148C52.8134 16.8634 52.83 16.8131 52.8478 16.764C52.867 16.7118 52.8875 16.6613 52.91 16.6121C52.9122 16.6069 52.9422 16.5454 52.9199 16.5908C52.9329 16.5649 52.9466 16.5397 52.9604 16.515C53.0802 16.3017 53.2202 16.1194 53.3754 15.9744C53.4232 15.9288 53.4717 15.8849 53.5214 15.8451C53.5382 15.8315 53.6161 15.779 53.5526 15.8186C53.6136 15.7805 53.6759 15.748 53.7392 15.7214C53.8673 15.6606 54.0005 15.6318 54.1342 15.636C54.2097 15.6341 54.2853 15.6386 54.3605 15.6493C54.3859 15.6502 54.4112 15.6555 54.4359 15.6651C54.4817 15.6784 54.5272 15.6934 54.5724 15.7123C54.723 15.7667 54.8649 15.8698 54.9892 16.015C55.2185 16.309 55.3799 16.715 55.4484 17.1697C55.526 17.6434 55.5331 18.1394 55.4691 18.6182C55.4094 19.0919 55.2785 19.5357 55.0875 19.912C54.9907 20.0984 54.8767 20.2606 54.7495 20.3933C54.4386 20.7147 54.7284 21.5104 55.0417 21.1858C55.7588 20.444 56.1433 19.0526 56.0868 17.7117C56.0664 17.0314 55.922 16.3751 55.6712 15.8222C55.4005 15.2571 55.002 14.8807 54.5596 14.7723C53.7249 14.5554 52.8326 15.0826 52.3704 16.2441C52.1875 16.7035 52.0968 17.3317 52.2837 17.8246C52.5209 18.45 53.0938 18.627 53.5157 18.5446C54.0347 18.4438 54.4619 17.9467 54.7871 17.3157C55.1481 16.6423 55.3746 15.8138 55.4376 14.9357C55.4942 14.1185 55.3961 13.2932 55.1557 12.5648C54.9535 12.008 54.6559 11.5536 54.2974 11.254C53.6114 10.6695 52.7239 10.557 52.0433 11.22C51.5981 11.6538 51.2493 12.4188 51.4163 13.2796C51.4955 13.6669 51.6514 14.0034 51.861 14.239C52.0705 14.4746 52.3224 14.5966 52.5792 14.587C53.6808 14.5574 54.3749 12.7305 54.2466 11.1256C54.1131 9.46104 53.2541 7.96982 52.1845 7.78133C51.9437 7.73902 51.7 7.78383 51.4717 7.91239C51.3988 7.9474 51.3371 8.02553 51.2995 8.1306C51.2618 8.23568 51.2511 8.35966 51.2696 8.47691C51.2905 8.59368 51.3396 8.6927 51.4062 8.75264C51.4729 8.81259 51.5517 8.82866 51.6257 8.7974L51.6258 8.79834Z" fill="#3652DD"/>
<path d="M83.7888 21.0696C84.6321 20.9439 85.4249 20.3761 86.0418 19.4561C86.3963 18.9081 86.6434 18.2094 86.7533 17.4441C86.8903 16.4982 86.8358 15.3756 86.4941 14.5523C86.3345 14.1848 86.1246 13.8793 85.88 13.6586C85.6354 13.4379 85.3625 13.3077 85.0817 13.2779C84.5451 13.2418 83.8597 13.6188 83.6295 14.4568C83.4455 15.127 83.6733 15.9223 84.0378 16.3122C84.6162 16.9307 85.3708 16.788 85.9435 16.2307C86.2547 15.9126 86.5222 15.4981 86.73 15.0122C86.9378 14.5263 87.0815 13.9789 87.1527 13.4028C87.2777 12.3836 87.2023 11.1191 86.716 10.3558C86.6049 10.1812 86.3984 10.2529 86.3091 10.4317C86.2632 10.5283 86.2426 10.6493 86.2515 10.7694C86.2604 10.8895 86.2981 10.9996 86.3569 11.0767C86.3135 11.0086 86.3775 11.1178 86.3803 11.124C86.3926 11.1487 86.4043 11.1741 86.4155 11.1999C86.4372 11.2465 86.4557 11.2967 86.4706 11.3496C86.5178 11.5107 86.5538 11.6795 86.5779 11.853C86.6252 12.2218 86.6354 12.6001 86.6081 12.9739C86.5461 13.7897 86.3025 14.5437 85.9212 15.1003C85.5613 15.6195 85.0696 15.971 84.587 15.7287C84.4896 15.6856 84.3994 15.6093 84.3227 15.5051C84.308 15.4856 84.2935 15.4653 84.2796 15.4442C84.3243 15.5117 84.2653 15.4171 84.2604 15.4074C84.2498 15.3864 84.2397 15.3654 84.23 15.3445C84.2201 15.3224 84.1698 15.1808 84.2071 15.2973C84.182 15.2186 84.171 15.1177 84.1437 15.0435C84.1453 15.0477 84.152 15.1509 84.1465 15.0568C84.1414 15.0094 84.1403 14.9611 84.1431 14.9132C84.1571 14.7614 84.1381 14.9281 84.1546 14.8468C84.1568 14.8358 84.1862 14.739 84.1688 14.788C84.1831 14.7525 84.1989 14.7184 84.2159 14.686C84.2225 14.6717 84.268 14.5951 84.2337 14.6479C84.3046 14.5452 84.3845 14.4592 84.471 14.3927C84.6448 14.2446 84.8406 14.174 85.0377 14.1882C84.9968 14.1858 85.0601 14.1925 85.0694 14.1942C85.0945 14.1987 85.1196 14.2022 85.1446 14.208C85.195 14.2192 85.245 14.2349 85.2943 14.2552C85.2602 14.2409 85.3092 14.2626 85.3122 14.264C85.342 14.2798 85.3718 14.2955 85.4003 14.3145C85.4545 14.3492 85.5075 14.3882 85.5592 14.4314C85.7458 14.5921 85.906 14.8198 86.0271 15.0963C86.2874 15.7257 86.2816 16.6085 86.1806 17.306C86.1683 17.3904 86.1607 17.4318 86.1525 17.4751C86.1372 17.5506 86.1205 17.6252 86.1022 17.6988C86.0664 17.842 86.0247 17.9813 85.9775 18.1159C85.9323 18.2452 86.0073 18.0451 85.9576 18.1696C85.9475 18.1949 85.9373 18.2201 85.9269 18.2451C85.9009 18.3071 85.8737 18.3678 85.8454 18.4273C85.7837 18.5564 85.717 18.6794 85.6456 18.7953C85.6327 18.8162 85.6197 18.837 85.6065 18.8573C85.6498 18.7902 85.5807 18.8939 85.5719 18.9064C85.5343 18.9595 85.4959 19.0111 85.4566 19.061C85.3716 19.169 85.2829 19.2696 85.1909 19.3623C85.1492 19.4046 85.1067 19.4441 85.0642 19.4843C85.0518 19.496 84.9997 19.542 85.0505 19.4978C85.0272 19.5181 85.0035 19.5376 84.9798 19.5569C84.8865 19.6327 84.7914 19.702 84.6943 19.7649C84.5227 19.8749 84.3467 19.9669 84.1675 20.0403C84.1518 20.0469 84.0991 20.0653 84.162 20.0428C84.14 20.0507 84.1179 20.0585 84.0958 20.0661C84.0531 20.0805 84.0102 20.0936 83.9668 20.1056C83.8874 20.1276 83.8075 20.1448 83.7271 20.1573C83.3555 20.2157 83.4167 21.1284 83.7875 21.0699L83.7888 21.0696Z" fill="#3652DD"/>
<path d="M59.8661 -0.000576491L58.9478 0.935425L60.3462 4.38314L61.2645 3.44713L59.8661 -0.000576491Z" fill="#3652DD"/>
<path d="M78.01 30.1473L76.4307 33.9272L77.3409 34.8829L78.9202 31.1029L78.01 30.1473Z" fill="#3652DD"/>
<path d="M26.8826 11.0767L25.4985 14.4354L26.4126 15.3819L27.7966 12.0232L26.8826 11.0767Z" fill="#3652DD"/>
<path d="M113.675 45.6061L112.615 46.0209L113.292 50.3715L114.352 49.9567L113.675 45.6061Z" fill="#3652DD"/>
<path d="M115.86 11.0596L114.961 12.0417L116.627 15.8724L117.525 14.8903L115.86 11.0596Z" fill="#3652DD"/>
<path d="M35.9664 28.296L33.9253 32.1268L34.7594 33.2436L36.8004 29.4127L35.9664 28.296Z" fill="#3652DD"/>
<path d="M52.7234 56.0042L50.751 59.2142L51.533 60.4218L53.5055 57.2118L52.7234 56.0042Z" fill="#3652DD"/>
<path d="M95.224 51.9092L94.3057 52.8452L95.7041 56.2929L96.6224 55.3569L95.224 51.9092Z" fill="#3652DD"/>
<path d="M120.31 28.3166C120.535 26.0046 120.089 24.4379 119.378 23.4707C118.676 22.5168 116.316 21.2868 115.141 23.8988C114.374 25.6032 114.551 26.3157 114.113 29.2262C113.675 32.1367 112.995 32.2971 112.009 35.7208C111.235 38.4064 114.005 40.559 116.533 41.0055C119.061 41.4521 120.736 40.9335 121.113 38.43C121.653 34.8374 119.867 32.8474 120.31 28.3166Z" fill="#0F1011"/>
<path d="M118.228 34.3758C118.228 34.3758 117.531 33.5536 118.018 30.3204L116.495 29.4781C116.495 29.4781 116.387 32.4568 115.504 33.196L118.228 34.3758Z" fill="#E98862"/>
<g opacity="0.15">
<path d="M115.885 32.6602L117.34 31.3982L116.319 31.1324C116.235 31.6801 116.088 32.1982 115.885 32.6602Z" fill="black"/>
</g>
<path d="M119.03 29.267C118.825 30.2341 118.392 31.0921 117.808 31.2779C117.169 31.5103 116.504 31.4913 115.87 31.2225C114.176 30.5818 115.114 24.4799 116.045 23.477C116.976 22.4742 119.293 23.8167 119.389 25.8967C119.439 26.9724 119.225 28.3466 119.03 29.267Z" fill="#E98862"/>
<path d="M116.672 27.907C116.751 27.907 116.815 27.8049 116.815 27.679C116.815 27.5531 116.751 27.451 116.672 27.451C116.592 27.451 116.528 27.5531 116.528 27.679C116.528 27.8049 116.592 27.907 116.672 27.907Z" fill="#0F1011"/>
<path d="M115.564 27.4882C115.644 27.4882 115.708 27.3861 115.708 27.2602C115.708 27.1343 115.644 27.0322 115.564 27.0322C115.485 27.0322 115.42 27.1343 115.42 27.2602C115.42 27.3861 115.485 27.4882 115.564 27.4882Z" fill="#0F1011"/>
<path d="M115.752 26.8054C115.749 26.8055 115.746 26.8051 115.742 26.8043L115.365 26.7202C115.356 26.7187 115.347 26.7143 115.34 26.7073C115.332 26.7004 115.325 26.6909 115.319 26.6796C115.313 26.6683 115.309 26.6553 115.307 26.6414C115.305 26.6275 115.304 26.613 115.305 26.5987C115.307 26.5845 115.31 26.5708 115.314 26.5585C115.319 26.5461 115.325 26.5354 115.333 26.527C115.34 26.5185 115.348 26.5125 115.357 26.5092C115.366 26.506 115.375 26.5056 115.384 26.5081L115.761 26.5923C115.778 26.5961 115.793 26.61 115.804 26.631C115.815 26.6521 115.82 26.6787 115.819 26.7057C115.818 26.7327 115.81 26.758 115.798 26.7765C115.785 26.795 115.769 26.8053 115.752 26.8054H115.752Z" fill="#0F1011"/>
<path d="M117.028 27.3465C117.02 27.3466 117.011 27.3438 117.003 27.3385L116.646 27.1066C116.637 27.1015 116.629 27.0938 116.623 27.0839C116.616 27.074 116.611 27.0622 116.608 27.0491C116.604 27.036 116.602 27.0218 116.602 27.0075C116.602 26.9932 116.604 26.9791 116.607 26.9658C116.611 26.9526 116.616 26.9406 116.622 26.9305C116.628 26.9204 116.636 26.9125 116.644 26.9071C116.653 26.9017 116.662 26.8991 116.671 26.8993C116.68 26.8995 116.689 26.9026 116.697 26.9083L117.054 27.1404C117.069 27.1498 117.081 27.1668 117.088 27.1887C117.096 27.2105 117.098 27.2358 117.095 27.2602C117.092 27.2846 117.084 27.3065 117.072 27.3223C117.059 27.338 117.044 27.3466 117.028 27.3465Z" fill="#0F1011"/>
<path d="M116.434 29.4374C116.434 29.4374 115.901 29.3974 115.553 29.1041C115.553 29.1041 115.503 29.6528 115.913 29.8077C116.323 29.9627 116.434 29.4374 116.434 29.4374Z" fill="white"/>
<path d="M118.125 26.4119C117.795 28.715 117.729 31.0934 117.93 33.4336C117.93 33.4336 119.444 30.4573 119.895 27.7806C120.317 25.2714 119.276 23.476 118.503 22.9976C115.562 21.1766 115.03 24.6472 115.03 24.6472C115.118 25.8927 118.372 27.3968 118.372 27.3968" fill="#0F1011"/>
<path d="M117.296 28.8248C117.276 28.9489 117.272 29.0778 117.284 29.2043C117.296 29.3307 117.324 29.4521 117.366 29.5615C117.408 29.6708 117.463 29.7659 117.528 29.8412C117.593 29.9165 117.667 29.9705 117.746 30.0002C117.824 30.0299 117.905 30.0346 117.985 30.014C118.065 29.9934 118.141 29.948 118.209 29.8804C118.278 29.8128 118.337 29.7243 118.384 29.6201C118.431 29.5159 118.464 29.398 118.482 29.2732C118.502 29.1497 118.506 29.0211 118.494 28.895C118.482 28.7689 118.454 28.6479 118.412 28.5393C118.37 28.4306 118.314 28.3366 118.249 28.2626C118.183 28.1887 118.109 28.1364 118.03 28.109C117.603 27.9822 117.373 28.3056 117.296 28.8248Z" fill="#E98862"/>
<g opacity="0.15">
<path d="M115.927 28.7765C115.92 28.7765 115.912 28.7738 115.906 28.7686L115.58 28.5188C115.573 28.5139 115.568 28.5069 115.563 28.4984C115.559 28.4898 115.555 28.4798 115.554 28.4691C115.552 28.4584 115.551 28.4472 115.552 28.4362C115.553 28.4252 115.556 28.4147 115.56 28.4053L115.862 27.6659C115.869 27.6483 115.88 27.636 115.893 27.6316C115.906 27.6273 115.919 27.6312 115.93 27.6425C115.941 27.6538 115.949 27.6716 115.952 27.692C115.955 27.7125 115.952 27.7338 115.945 27.7513L115.674 28.416L115.949 28.6272C115.959 28.6349 115.967 28.6479 115.972 28.664C115.977 28.68 115.978 28.6982 115.976 28.7156C115.973 28.7329 115.967 28.7484 115.958 28.7595C115.95 28.7706 115.939 28.7766 115.927 28.7766L115.927 28.7765Z" fill="black"/>
</g>
<path d="M130.295 69.5785L121.868 72.013C121.619 72.0852 121.361 72.0433 121.126 71.8922C120.891 71.7411 120.688 71.4871 120.54 71.1597L120.477 71.0181L116.751 62.7285L120.076 59.6858L122.398 67.752L129.987 66.3112L130.295 69.5785Z" fill="#E98862"/>
<path d="M131.856 73.2266C131.869 73.313 131.871 73.4028 131.862 73.4903C131.852 73.5778 131.831 73.6612 131.8 73.7353C131.769 73.8094 131.729 73.8726 131.682 73.9209C131.635 73.9692 131.582 74.0016 131.527 74.0162C131.45 74.0362 131.371 74.0211 131.3 73.9727C131.228 73.9243 131.167 73.8445 131.123 73.7429L129.754 70.3172C129.727 70.2508 129.71 70.1761 129.704 70.0983C129.697 70.0205 129.702 69.9414 129.716 69.8664C129.861 69.2653 129.88 68.6064 129.772 67.9865C129.674 67.5085 129.494 67.0837 129.252 66.7603C129.228 66.7327 129.21 66.6951 129.2 66.652C129.19 66.6088 129.187 66.5619 129.193 66.5166C129.199 66.4714 129.213 66.4298 129.233 66.3966C129.253 66.3633 129.279 66.3399 129.307 66.3291L130.459 65.8789C130.493 65.8657 130.528 65.8632 130.563 65.8716C130.598 65.88 130.631 65.8991 130.661 65.9279C130.691 65.9567 130.717 65.9946 130.737 66.0394C130.758 66.0842 130.773 66.135 130.781 66.1889L131.856 73.2266Z" fill="#C1D8ED"/>
<path d="M111.995 73.3773L115.048 92.0432L113.048 92.9742L109.252 74.6722L111.995 73.3773Z" fill="#E98862"/>
<path d="M110.883 95.691C110.83 95.7197 110.774 95.7307 110.718 95.7233C110.662 95.7159 110.608 95.6903 110.558 95.6481C110.509 95.6059 110.466 95.5479 110.431 95.4779C110.396 95.4079 110.371 95.3273 110.357 95.2412C110.338 95.122 110.34 94.9965 110.364 94.8795C110.388 94.7624 110.433 94.6586 110.493 94.5804L112.522 92.1102C112.562 92.0626 112.607 92.0291 112.655 92.0119C112.704 91.9947 112.754 91.9943 112.802 92.0106C113.193 92.1856 113.608 92.1571 113.988 91.9294C114.28 91.7328 114.53 91.4102 114.712 90.9985C114.727 90.9592 114.749 90.9276 114.775 90.9074C114.801 90.8872 114.831 90.8792 114.86 90.8843C114.889 90.8895 114.916 90.9076 114.939 90.9365C114.961 90.9655 114.978 91.004 114.988 91.0477L115.374 92.8256C115.385 92.8781 115.39 92.9336 115.388 92.9889C115.386 93.0443 115.377 93.0985 115.361 93.1483C115.346 93.1981 115.324 93.2426 115.298 93.2792C115.272 93.3158 115.241 93.3438 115.208 93.3617L110.883 95.691Z" fill="#C1D8ED"/>
<path d="M111.182 49.3451C111.182 49.3451 108.56 62.7352 107.843 66.5575C106.221 75.2037 109.252 81.6593 109.252 81.6593C109.252 81.6593 113.351 82.5862 115.389 78.281C119.159 70.3185 123.983 75.8603 124.19 67.0349C121.446 66.2141 118.368 50.4416 118.368 50.4416L111.182 49.3451Z" fill="#262626"/>
<path d="M20.7534 35.6716C20.7534 35.6716 21.4999 34.9675 21.2259 31.672L22.7952 31.0828C22.7952 31.0828 22.7094 34.0633 23.5396 34.9427L20.7534 35.6716Z" fill="#E98862"/>
<g opacity="0.15">
<path d="M23.1963 34.3478L21.8311 32.855L22.8639 32.7573C22.9112 33.3157 23.024 33.8551 23.1963 34.3478Z" fill="black"/>
</g>
<path d="M20.2877 30.4591C20.4286 31.4544 20.8038 32.3786 21.3724 32.6588C22.0473 32.9919 22.5394 32.9796 23.3041 32.92C24.3474 32.8385 24.2593 31.1163 24.2346 29.3757C24.2098 27.6282 24.0641 25.7632 23.6329 25.1872C22.7721 24.0375 20.3801 24.9949 20.1492 27.0481C20.03 28.11 20.1537 29.5117 20.2877 30.4591Z" fill="#E98862"/>
<path d="M24.6934 26.1156C24.6934 26.1156 25.1161 25.931 24.978 25.2647C24.8866 24.8227 24.5276 24.95 24.5276 24.95C24.5276 24.95 24.8673 24.8241 24.8525 24.3495C24.8433 24.0505 24.6827 23.5554 24.2546 23.879C23.7523 24.2587 23.166 24.2607 22.7176 24.1769C22.4632 24.1092 22.206 24.072 21.9482 24.0655H21.9469C21.6512 24.0803 21.3585 24.1658 21.0788 24.3189C20.2956 24.7581 19.1275 25.982 19.4629 28.5239C19.8371 31.3608 20.7175 32.3882 21.1005 32.709C21.1232 32.7283 21.1483 32.7392 21.1741 32.7409C21.1998 32.7425 21.2254 32.7348 21.249 32.7185C21.2726 32.7021 21.2935 32.6774 21.3102 32.6464C21.3269 32.6153 21.3389 32.5786 21.3453 32.5391C21.4347 31.995 21.5746 30.6325 21.4371 27.8563C23.875 27.4756 24.5763 27.3631 24.5763 27.3631C24.5763 27.3631 25.1527 27.3522 25.1321 26.6865C25.1116 26.0208 24.6934 26.1156 24.6934 26.1156Z" fill="#0F1011"/>
<path d="M22.7366 29.4923C22.816 29.4923 22.8804 29.3903 22.8804 29.2644C22.8804 29.1384 22.816 29.0364 22.7366 29.0364C22.6572 29.0364 22.5928 29.1384 22.5928 29.2644C22.5928 29.3903 22.6572 29.4923 22.7366 29.4923Z" fill="#0F1011"/>
<path d="M23.865 29.2567C23.9444 29.2567 24.0088 29.1547 24.0088 29.0288C24.0088 28.9029 23.9444 28.8008 23.865 28.8008C23.7856 28.8008 23.7212 28.9029 23.7212 29.0288C23.7212 29.1547 23.7856 29.2567 23.865 29.2567Z" fill="#0F1011"/>
<path d="M23.715 28.5462C23.6975 28.5457 23.6807 28.5345 23.6683 28.5149C23.6559 28.4953 23.6488 28.4688 23.6484 28.441C23.6481 28.4132 23.6546 28.3863 23.6666 28.366C23.6785 28.3457 23.695 28.3335 23.7125 28.332L24.0932 28.3099C24.111 28.3091 24.1283 28.3195 24.1413 28.3389C24.1542 28.3582 24.1619 28.3848 24.1625 28.413C24.1632 28.4412 24.1568 28.4687 24.1447 28.4895C24.1327 28.5102 24.116 28.5226 24.0982 28.524L23.7175 28.5462H23.715Z" fill="#0F1011"/>
<path d="M22.4106 28.8761C22.3944 28.876 22.3787 28.8667 22.3665 28.8498C22.3542 28.8329 22.3462 28.8096 22.3439 28.7842C22.3416 28.7587 22.3452 28.7328 22.354 28.7111C22.3627 28.6895 22.3761 28.6735 22.3917 28.6662L22.7625 28.4932C22.7795 28.4859 22.7977 28.4895 22.8131 28.5032C22.8285 28.517 22.8399 28.5397 22.8449 28.5666C22.8499 28.5935 22.848 28.6224 22.8397 28.6471C22.8313 28.6718 22.8172 28.6904 22.8004 28.6988L22.4297 28.8711C22.4235 28.8742 22.4171 28.8759 22.4106 28.8761Z" fill="#0F1011"/>
<path d="M22.0064 29.8799C22.0181 30.0067 22.0138 30.1359 21.9938 30.26C21.9737 30.3842 21.9383 30.5007 21.8895 30.6029C21.8408 30.7051 21.7797 30.791 21.7098 30.8554C21.64 30.9199 21.5627 30.9616 21.4826 30.9783C21.4024 30.995 21.321 30.9863 21.243 30.9526C21.165 30.919 21.092 30.8611 21.0283 30.7823C20.9645 30.7035 20.9113 30.6054 20.8717 30.4937C20.8321 30.382 20.8069 30.2589 20.7975 30.1317C20.7857 30.0055 20.79 29.8769 20.8102 29.7534C20.8303 29.63 20.8659 29.5142 20.9149 29.413C20.9639 29.3118 21.0252 29.2273 21.0952 29.1644C21.1652 29.1016 21.2425 29.0617 21.3224 29.0472C21.7555 28.9916 21.9624 29.3508 22.0064 29.8799Z" fill="#E98862"/>
<g opacity="0.15">
<path d="M23.4111 30.4776C23.3995 30.4775 23.3883 30.4709 23.3794 30.459C23.3705 30.4471 23.3646 30.4307 23.3626 30.4125C23.3606 30.3944 23.3626 30.3757 23.3684 30.3597C23.3742 30.3438 23.3833 30.3315 23.3942 30.3252L23.6821 30.1601L23.4554 29.4546C23.4521 29.4454 23.45 29.4352 23.4493 29.4246C23.4485 29.4141 23.4491 29.4034 23.4511 29.3933C23.453 29.3831 23.4562 29.3737 23.4605 29.3655C23.4648 29.3574 23.4701 29.3507 23.476 29.3459C23.482 29.341 23.4885 29.3382 23.4952 29.3375C23.5019 29.3367 23.5086 29.3382 23.5149 29.3416C23.5212 29.3451 23.527 29.3506 23.532 29.3578C23.5369 29.3649 23.5409 29.3735 23.5437 29.3832L23.796 30.1681C23.7993 30.1781 23.8011 30.189 23.8015 30.2002C23.8018 30.2114 23.8007 30.2226 23.7981 30.233C23.7955 30.2434 23.7916 30.2529 23.7865 30.2607C23.7814 30.2685 23.7754 30.2745 23.7687 30.2783L23.4282 30.4735C23.4227 30.4765 23.4169 30.4779 23.4111 30.4776Z" fill="black"/>
</g>
<path d="M22.8584 31.0526C22.8584 31.0526 23.3914 31.0998 23.7566 30.8649C23.7566 30.8649 23.7709 31.4187 23.3531 31.506C22.9352 31.5933 22.8584 31.0526 22.8584 31.0526Z" fill="white"/>
<path d="M26.8898 20.6491L27.9444 19.8265C27.9444 19.8265 27.9271 17.4162 26.5802 16.3609C26.1335 16.0112 25.8764 16.8049 25.969 17.0352C26.2751 17.7966 26.624 18.486 26.6685 19.2585C26.4908 19.0452 26.237 18.7766 26.1754 18.8998C26.0135 19.2239 26.8898 20.6491 26.8898 20.6491Z" fill="#E98862"/>
<path d="M9.39711 70.0443C9.33647 70.0204 9.15187 69.9472 7.41211 68.8989L8.15272 65.8105C8.89005 66.2547 9.77744 66.778 9.92533 66.849C9.9159 66.8444 9.90796 66.8414 9.9018 66.8389L9.39711 70.0443Z" fill="#E98862"/>
<path d="M5.91799 72.5084C5.90238 72.5937 5.89803 72.6832 5.90523 72.7714C5.91243 72.8595 5.93101 72.9443 5.95982 73.0205C5.98863 73.0967 6.02705 73.1627 6.07267 73.2143C6.11829 73.266 6.17014 73.3021 6.22498 73.3205C6.30097 73.3461 6.37999 73.3367 6.45274 73.2935C6.52548 73.2503 6.58892 73.175 6.63557 73.0765L8.1014 69.7526C8.12962 69.6881 8.14872 69.6148 8.15741 69.5375C8.16609 69.4602 8.16415 69.3809 8.15172 69.3049C8.02407 68.694 8.02348 68.0344 8.15003 67.423C8.26099 66.9526 8.45314 66.5411 8.70455 66.2354C8.72861 66.2095 8.74753 66.1732 8.75908 66.1308C8.77064 66.0885 8.77436 66.0418 8.76982 65.9962C8.76527 65.9506 8.75264 65.908 8.73341 65.8734C8.71417 65.8387 8.68912 65.8135 8.66117 65.8006L7.52297 65.2683C7.4894 65.2526 7.45421 65.2476 7.41942 65.2535C7.38462 65.2594 7.35091 65.2762 7.32021 65.3028C7.28951 65.3295 7.26243 65.3655 7.24053 65.4087C7.21862 65.452 7.20232 65.5017 7.19257 65.555L5.91799 72.5084Z" fill="#C1D8ED"/>
<path d="M17.9194 80.426L17.5645 77.1703C18.3419 76.9573 19.2737 76.6912 19.4237 76.6327C19.4138 76.6363 19.4063 76.6401 19.4003 76.6429L19.9951 79.8096C19.9352 79.8379 19.753 79.924 17.9194 80.426Z" fill="#E98862"/>
<path d="M17.7928 84.739C17.8068 84.825 17.8318 84.9056 17.8663 84.9756C17.9008 85.0456 17.9441 85.1036 17.9934 85.146C18.0426 85.1883 18.0969 85.2141 18.1527 85.2217C18.2086 85.2293 18.2648 85.2186 18.318 85.1902C18.3916 85.1508 18.4566 85.079 18.5053 84.983C18.554 84.8871 18.5844 84.7711 18.5929 84.6486L18.7866 80.6051C18.7902 80.5269 18.7831 80.4483 18.7657 80.3748C18.7484 80.3012 18.7212 80.2345 18.6861 80.1792C18.3802 79.7564 18.168 79.1891 18.0806 78.5609C18.025 78.0665 18.0582 77.5573 18.1763 77.0914C18.1887 77.0496 18.1934 77.0031 18.1897 76.9573C18.1861 76.9115 18.1743 76.8682 18.1557 76.8327C18.1371 76.7971 18.1126 76.7706 18.0849 76.7563C18.0572 76.742 18.0275 76.7405 17.9993 76.752L16.8491 77.2125C16.8152 77.2261 16.7833 77.2502 16.7553 77.2834C16.7272 77.3165 16.7036 77.3582 16.6857 77.4059C16.6678 77.4536 16.6561 77.5064 16.6511 77.5613C16.6462 77.6162 16.6481 77.6722 16.6568 77.7259L17.7928 84.739Z" fill="#C1D8ED"/>
<path d="M29.2003 74.4393L29.1903 74.3062C28.9294 70.8681 27.4762 54.1079 27.3046 52.3363H19.7903C19.7903 52.3363 16.8663 67.4853 16.7532 67.9051L9.56956 65.4771L8.66797 71.1204L17.5122 75.2436C17.9816 75.4621 18.4845 75.4124 18.9331 75.103C19.3817 74.7936 19.7475 74.2444 19.9667 73.551C19.9667 73.551 23.1776 60.5487 23.242 60.3092L25.2242 72.7289L18.5187 75.7543L19.524 81.3534L27.8816 77.5826C28.3013 77.3928 28.6646 76.9722 28.9063 76.3961C29.148 75.82 29.2522 75.1263 29.2003 74.4393Z" fill="#262626"/>
<path d="M12.9855 23.5065L11.8612 24.0498C11.8612 24.0498 10.9108 21.9426 11.4382 19.7124C11.6129 18.9729 12.1428 19.2733 12.175 19.5417C12.2801 20.4289 12.246 21.6405 12.547 22.2521C12.5846 21.9038 12.6538 21.4327 12.7519 21.4557C13.01 21.5164 12.9855 23.5065 12.9855 23.5065Z" fill="#E98862"/>
<path d="M112.123 17.2214L111.021 16.5749C111.021 16.5749 110.882 14.1746 112.153 12.9055C112.574 12.4848 112.882 13.2325 112.805 13.4768C112.55 14.2838 112.247 15.0265 112.253 15.8022C112.416 15.561 112.651 15.2525 112.72 15.365C112.902 15.6609 112.123 17.2214 112.123 17.2214Z" fill="#E98862"/>
<path d="M125.499 21.9715L126.672 22.0862C126.672 22.0862 127.287 19.6869 126.448 17.7115C126.17 17.057 125.698 17.544 125.706 17.8168C125.734 18.7185 125.944 19.8843 125.741 20.5901C125.654 20.2651 125.518 19.8324 125.425 19.8909C125.183 20.0445 125.499 21.9715 125.499 21.9715Z" fill="#E98862"/>
<path d="M127.361 21.5954L126.143 31.7246C126.114 31.9672 126.052 32.1969 125.962 32.3981C125.872 32.5993 125.755 32.7672 125.62 32.8903L120.998 37.1118C121.058 39.6258 119.483 42.4941 119.195 45.1138C118.838 48.3707 119.607 50.0856 119.356 51.7376C118.96 54.3354 110.977 51.4953 110.731 49.889C110.477 48.2355 111.438 47.5226 111.953 42.4802C112.198 40.0793 112.064 37.0789 112.462 35.0068L108.754 27.5334C108.645 27.3133 108.571 27.0544 108.54 26.7791C108.508 26.5038 108.52 26.2205 108.573 25.9538L110.636 15.6641L112.699 16.7025L110.809 26.1268L114.019 32.5964C114.304 32.5328 114.593 32.5339 114.877 32.5996C114.939 32.6122 115.038 32.6358 115.166 32.6672C115.099 33.5279 118.429 34.4435 118.595 33.5924C119.018 33.7018 119.427 33.9214 119.805 34.2422L124.111 30.3104L125.235 20.9537L127.361 21.5954Z" fill="#367CFF"/>
<path d="M78.1954 110.414C70.7417 105.11 70.0363 83.6942 70.3855 81.6596C70.5145 80.907 70.2874 80.7119 69.9504 80.764C69.5005 80.6811 68.6658 81.3512 68.3939 81.5821C68.1221 81.3509 67.2874 80.6808 66.8375 80.764C66.5 80.7119 66.2733 80.907 66.4024 81.6596C66.7515 83.6942 66.0458 105.11 58.5925 110.414C57.0264 111.528 57.5658 112.855 57.5658 112.855H79.2222C79.2222 112.855 79.7615 111.528 78.1954 110.414Z" fill="#242F93"/>
<g opacity="0.09">
<path d="M79.2215 112.856H77.8319C77.8319 112.856 78.3719 111.528 76.8057 110.415C69.352 105.111 69.6388 83.6945 69.9882 81.6602C70.0894 81.0686 69.9703 80.8216 69.75 80.7681C69.8162 80.7553 69.8831 80.7543 69.9495 80.7649C70.2869 80.713 70.5142 80.9081 70.3852 81.6602C70.0358 83.6945 70.7415 105.111 78.1952 110.415C79.7618 111.528 79.2215 112.856 79.2215 112.856Z" fill="black"/>
</g>
<path d="M98.1793 55.2322C96.0088 60.5832 93.3826 62.0779 90.4518 63.3963C87.5705 64.6928 85.0823 65.8114 83.5072 70.0138C83.1218 71.0114 82.8365 72.098 82.6616 73.2345V73.2376C82.6211 73.5092 82.5894 73.784 82.5667 74.0608C82.5405 74.4229 82.4595 74.7697 82.3306 75.0715C82.2208 75.3264 82.0718 75.5326 81.8977 75.6707C81.7235 75.8087 81.5301 75.874 81.3355 75.8604C80.75 75.8604 80.4077 75.4848 80.2089 75.0179C80.0315 74.5879 79.9596 74.0698 80.0068 73.5616C80.016 73.4529 80.0262 73.3439 80.0375 73.2345C80.2388 71.3548 80.6635 69.5529 81.289 67.9244C83.3881 62.3217 86.7666 60.8019 89.747 59.4598C92.4805 58.231 94.3662 57.0699 96.0088 53.0201C96.8256 51.0031 97.6961 46.3727 96.6549 42.6926C95.8441 39.8291 94.5171 38.1504 92.7117 37.7004C87.7828 36.4732 85.4674 44.085 85.3712 44.4092C85.2232 44.8905 84.9621 45.2607 84.6439 45.4403C84.3257 45.6198 83.9758 45.5944 83.6692 45.3695C83.3627 45.1445 83.1241 44.738 83.0045 44.2372C82.885 43.7365 82.8941 43.1813 83.0299 42.6911C83.6349 40.7785 84.4441 39.0464 85.4218 37.5714C87.5924 34.2988 90.2523 32.9473 93.1116 33.66C95.7577 34.3177 97.8519 36.931 99.0091 41.0186C100.328 45.6789 99.5759 51.7897 98.1793 55.2322Z" fill="#3652DD"/>
<path d="M38.6129 55.2322C40.7836 60.5832 43.6082 62.0779 46.5391 63.3963C49.4203 64.6928 51.9085 65.8114 53.4836 70.0138C53.869 71.0114 54.1543 72.098 54.3292 73.2345V73.2376C54.3698 73.5092 54.4015 73.784 54.4241 74.0608C54.4503 74.4229 54.5313 74.7697 54.6602 75.0715C54.77 75.3264 54.919 75.5326 55.0931 75.6707C55.2672 75.8087 55.4607 75.874 55.6552 75.8604C56.2408 75.8604 56.5831 75.4848 56.782 75.0179C56.9593 74.5878 57.0312 74.0698 56.984 73.5616C56.9748 73.4529 56.9646 73.3439 56.9534 73.2345C56.752 71.3548 56.3273 69.5529 55.7019 67.9244C53.6027 62.3217 50.2242 60.8019 47.2438 59.4598C44.5104 58.231 42.4261 57.0699 40.7836 53.0201C39.9667 51.0031 39.2948 46.3727 40.3359 42.6926C41.1468 39.8291 42.4738 38.1504 44.2791 37.7004C49.2079 36.4732 51.5234 44.085 51.6197 44.4092C51.7676 44.8905 52.0287 45.2607 52.347 45.4403C52.6652 45.6198 53.0151 45.5944 53.3216 45.3695C53.6281 45.1445 53.8668 44.738 53.9864 44.2372C54.1059 43.7365 54.0968 43.1813 53.961 42.6911C53.356 40.7785 52.5468 39.0464 51.5691 37.5714C49.3985 34.2988 46.7386 32.9473 43.8792 33.66C41.2332 34.3177 39.139 36.931 37.9817 41.0186C36.663 45.6789 37.2165 51.7897 38.6129 55.2322Z" fill="#3652DD"/>
<path d="M84.9066 31.1937C84.8558 30.4872 84.6427 29.835 84.3079 29.3617C83.9732 28.8883 83.5402 28.6267 83.0916 28.627H53.8731C53.4246 28.6267 52.9916 28.8883 52.6569 29.3617C52.3221 29.835 52.109 30.4872 52.0582 31.1937C51.5881 37.7793 50.7481 55.439 54.3202 65.1828C58.7694 77.3192 65.5218 81.6595 66.9763 81.6595H69.9881C71.4425 81.6595 78.195 77.3192 82.6441 65.1828C86.2165 55.4393 85.3768 37.7793 84.9066 31.1937Z" fill="#3652DD"/>
<g opacity="0.09">
<path d="M84.9062 31.1937C84.8554 30.4872 84.6423 29.835 84.3075 29.3617C83.9728 28.8883 83.5398 28.6267 83.0913 28.627H77.2385C77.2385 28.627 78.2337 52.8457 76.3709 64.982C74.5082 77.1183 69.9361 81.6595 69.9882 81.6595C71.4426 81.6595 78.1951 77.3192 82.6442 65.1828C86.2161 55.4393 85.3764 37.7793 84.9062 31.1937Z" fill="black"/>
</g>
<path d="M79.2221 112.855H57.5752V121.056H79.2221V112.855Z" fill="#0F1011"/>
<path d="M80.5409 121.056H56.2563V123.028H80.5409V121.056Z" fill="#0F1011"/>
<path d="M81.7888 123.028H55.0083V125H81.7888V123.028Z" fill="#0F1011"/>
<path d="M73.0046 59.6058L68.4656 55.8217L63.923 59.6058L64.7922 51.5946L61.1187 45.9191L66.1941 44.7526L68.4656 37.462L70.7314 44.7526L75.8087 45.9191L72.1353 51.5946L73.0046 59.6058Z" fill="white"/>
<path d="M30.675 27.8422L28.2709 18.8711L26.2792 20.2124L28.4199 28.201L25.095 34.3132C24.812 34.2296 24.523 34.2099 24.2365 34.2547C24.175 34.2625 24.0757 34.2798 23.9467 34.3019C23.8751 34.3146 23.7924 34.3299 23.7037 34.3462L23.5814 33.3174L20.3139 34.0158L20.4042 35.0033C19.7041 35.1689 19.1231 35.5667 18.7208 36.0993L14.0622 32.1105L13.3046 22.7829L11.1582 23.2211L11.9866 33.4209C12.0086 33.6909 12.0708 33.9486 12.168 34.173C12.2652 34.3973 12.3947 34.5817 12.5457 34.7111L18.0257 39.4023C18.2551 41.6587 19.3839 44.1795 19.5666 46.448C19.8306 49.7268 19.0138 51.3851 19.2172 53.0529C19.5388 55.6755 27.5939 53.4116 27.8857 51.8257C28.1865 50.1894 27.2466 49.4104 26.8764 44.3349C26.7 41.9199 26.9198 38.9314 26.5813 36.8334L30.4984 29.633C30.6304 29.3904 30.7169 29.0941 30.7481 28.7776C30.7793 28.4611 30.754 28.137 30.675 27.8422Z" fill="#367CFF"/>
<path d="M118.595 33.5922C118.429 34.4434 117.334 35.6612 116.145 35.2034C115.254 34.8619 115.099 33.5277 115.166 32.6671C115.858 32.8402 117.407 33.2634 118.592 33.5907C118.593 33.5906 118.593 33.5907 118.594 33.5909C118.595 33.5912 118.595 33.5916 118.595 33.5922Z" fill="#E98862"/>
</g>
<defs>
<clipPath id="clip0_301_8852">
<rect width="139" height="125" fill="white"/>
</clipPath>
</defs>
</svg>
