<svg width="136" height="118" viewBox="0 0 136 118" fill="none" xmlns="http://www.w3.org/2000/svg">
<g clip-path="url(#clip0_301_7814)">
<path d="M98.5693 82.2268L106.214 66.437L117.853 61.6194L136 69.0118L124.488 92.7848L98.5693 82.2268Z" fill="#F4F4F4"/>
<path opacity="0.05" d="M126.676 79.5324L108.122 71.9263C107.941 71.8522 107.729 71.9265 107.648 72.0923L107.648 72.0924C107.567 72.2582 107.648 72.4527 107.829 72.5268L126.383 80.1329C126.564 80.207 126.776 80.1327 126.857 79.9669L126.857 79.9668C126.938 79.801 126.857 79.6065 126.676 79.5324Z" fill="#292A2E"/>
<path opacity="0.05" d="M125.117 82.9463L106.563 75.3402C106.382 75.2661 106.17 75.3405 106.09 75.5063L106.09 75.5064C106.009 75.6722 106.09 75.8666 106.271 75.9407L124.825 83.5469C125.005 83.621 125.218 83.5466 125.298 83.3808L125.298 83.3807C125.379 83.2149 125.298 83.0204 125.117 82.9463Z" fill="#292A2E"/>
<path opacity="0.05" d="M115.785 83.2341L104.971 78.8321C104.884 78.7965 104.785 78.794 104.696 78.8251C104.608 78.8563 104.536 78.9185 104.497 78.9981C104.478 79.0375 104.467 79.08 104.466 79.1232C104.465 79.1664 104.473 79.2094 104.489 79.2497C104.506 79.29 104.532 79.327 104.564 79.3583C104.596 79.3897 104.635 79.4149 104.678 79.4325L115.492 83.8346C115.579 83.8702 115.678 83.8727 115.767 83.8415C115.856 83.8104 115.927 83.7481 115.966 83.6685C116.005 83.5889 116.008 83.4984 115.974 83.4169C115.94 83.3355 115.872 83.2697 115.785 83.2341Z" fill="#292A2E"/>
<path opacity="0.4" d="M117.853 61.6194L114.093 69.638L106.214 66.437L117.853 61.6194Z" fill="white"/>
<path d="M6.09411 43.4896L1.85107 26.6567L7.99223 16.3878L27.3378 12.2855L33.7248 37.6297L6.09411 43.4896Z" fill="#F4F4F4"/>
<path opacity="0.05" d="M26.7852 25.8338L6.97397 29.9904C6.78097 30.0309 6.6603 30.2072 6.70445 30.3843L6.70448 30.3844C6.74863 30.5614 6.94087 30.6721 7.13387 30.6316L26.9451 26.475C27.1381 26.4346 27.2588 26.2582 27.2147 26.0812L27.2146 26.0811C27.1705 25.904 26.9782 25.7933 26.7852 25.8338Z" fill="#292A2E"/>
<path opacity="0.05" d="M27.7774 29.4214L7.96616 33.5779C7.77316 33.6184 7.65249 33.7948 7.69663 33.9718L7.69667 33.9719C7.74081 34.1489 7.93306 34.2596 8.12606 34.2191L27.9373 30.0626C28.1303 30.0221 28.251 29.8457 28.2069 29.6687L28.2068 29.6686C28.1627 29.4916 27.9704 29.3809 27.7774 29.4214Z" fill="#292A2E"/>
<path opacity="0.05" d="M20.51 34.7988L8.98345 37.2467C8.89072 37.2661 8.81019 37.3185 8.75958 37.3924C8.70897 37.4662 8.69242 37.5555 8.71357 37.6406C8.72403 37.6827 8.74344 37.7225 8.77069 37.7578C8.79795 37.793 8.83251 37.823 8.8724 37.846C8.9123 37.869 8.95674 37.8845 9.00319 37.8918C9.04965 37.899 9.0972 37.8977 9.14312 37.8881L20.6696 35.4402C20.7624 35.4207 20.8429 35.3683 20.8935 35.2944C20.9441 35.2205 20.9607 35.1313 20.9395 35.0462C20.9183 34.9611 20.8611 34.8873 20.7806 34.8409C20.7 34.7945 20.6027 34.7794 20.51 34.7988Z" fill="#292A2E"/>
<path opacity="0.4" d="M7.99223 16.3878L10.2446 24.8687L1.85107 26.6567L7.99223 16.3878Z" fill="white"/>
<path d="M98.2063 95.0907H20.6901C19.6438 95.0906 18.6404 94.7094 17.9006 94.0308C17.1608 93.3522 16.7452 92.4318 16.7451 91.4722L19.4439 11.2089H104.7L102.152 91.4722C102.152 91.9474 102.049 92.4179 101.851 92.857C101.653 93.296 101.362 93.6949 100.996 94.0309C100.63 94.367 100.195 94.6335 99.716 94.8153C99.2374 94.9971 98.7243 95.0907 98.2063 95.0907Z" fill="#292A2E"/>
<path opacity="0.9" d="M98.2063 95.0907H20.6901C19.6438 95.0906 18.6404 94.7094 17.9006 94.0308C17.1608 93.3522 16.7452 92.4318 16.7451 91.4722L19.4439 11.2089H104.7L102.152 91.4722C102.152 91.9474 102.049 92.4179 101.851 92.857C101.653 93.296 101.362 93.6949 100.996 94.0309C100.63 94.367 100.195 94.6335 99.716 94.8153C99.2374 94.9971 98.7243 95.0907 98.2063 95.0907Z" fill="white"/>
<path d="M98.2064 95.228H20.6903C19.6046 95.2269 18.5637 94.8309 17.796 94.1267C17.0283 93.4226 16.5964 92.4678 16.5952 91.472L19.294 11.0713H104.85L102.301 91.472C102.3 92.4678 101.868 93.4226 101.101 94.1267C100.333 94.8309 99.2921 95.2269 98.2064 95.228ZM19.5937 11.3463L16.8949 91.472C16.8961 92.3949 17.2963 93.2798 18.0078 93.9324C18.7194 94.5849 19.6841 94.952 20.6903 94.953H98.2064C99.2126 94.9519 100.177 94.5848 100.889 93.9323C101.6 93.2797 102 92.3949 102.001 91.472L104.55 11.3463H19.5937Z" fill="#292A2E"/>
<path d="M101.055 3.25037H23.5389C22.4532 3.25146 21.4123 3.64755 20.6446 4.35173C19.8769 5.05591 19.4451 6.01068 19.4439 7.00654L19.2939 11.3464H104.85L105.15 7.00654C105.149 6.01068 104.717 5.05591 103.949 4.35173C103.182 3.64755 102.141 3.25146 101.055 3.25037Z" fill="#0C0C0C"/>
<path d="M102.554 3.25037H24.1385C23.0528 3.25146 22.0119 3.64755 21.2442 4.35173C20.4765 5.05591 20.0446 6.01068 20.0435 7.00654V11.3464H106.649V7.00654C106.648 6.01068 106.216 5.05591 105.449 4.35173C104.681 3.64755 103.64 3.25146 102.554 3.25037Z" fill="#292A2E"/>
<path d="M20.1934 11.2081H106.499V92.8474C106.499 93.8071 106.084 94.7274 105.344 95.406C104.604 96.0846 103.601 96.4659 102.554 96.4659H24.1386C23.0924 96.4659 22.0889 96.0846 21.3491 95.406C20.6093 94.7274 20.1937 93.8071 20.1937 92.8474V11.2081H20.1934Z" fill="white"/>
<path d="M102.554 96.6032H24.1385C23.0528 96.6022 22.0119 96.2061 21.2442 95.5019C20.4765 94.7978 20.0447 93.8431 20.0435 92.8472V11.0713H106.649V92.8472C106.648 93.8431 106.216 94.7978 105.449 95.5019C104.681 96.2061 103.64 96.6022 102.554 96.6032ZM20.3432 11.3463V92.8472C20.3443 93.7701 20.7446 94.655 21.4561 95.3076C22.1676 95.9602 23.1323 96.3272 24.1385 96.3282H102.554C103.56 96.3271 104.525 95.9601 105.236 95.3075C105.948 94.6549 106.348 93.7701 106.349 92.8472V11.3463H20.3432Z" fill="#292A2E"/>
<path d="M35.4812 28.1626H26.8663C26.3862 28.1621 25.9258 27.987 25.5863 27.6756C25.2467 27.3641 25.0557 26.9419 25.0552 26.5015V18.5994C25.0557 18.1589 25.2467 17.7367 25.5863 17.4253C25.9258 17.1139 26.3862 16.9387 26.8663 16.9382H35.4812C35.9613 16.9387 36.4216 17.1139 36.7612 17.4253C37.1007 17.7367 37.2916 18.159 37.2922 18.5994V26.5015C37.2916 26.9419 37.1007 27.3641 36.7612 27.6755C36.4216 27.9869 35.9613 28.1621 35.4812 28.1626ZM26.8663 17.2133C26.4657 17.2137 26.0815 17.3598 25.7982 17.6197C25.5149 17.8795 25.3555 18.2319 25.355 18.5994V26.5015C25.3555 26.869 25.5149 27.2213 25.7982 27.4812C26.0815 27.741 26.4657 27.8872 26.8663 27.8876H35.4812C35.8818 27.8871 36.2659 27.741 36.5492 27.4811C36.8325 27.2213 36.9919 26.869 36.9923 26.5015V18.5994C36.9919 18.2319 36.8325 17.8796 36.5492 17.6197C36.2659 17.3599 35.8818 17.2137 35.4812 17.2133H26.8663Z" fill="#292A2E"/>
<path d="M35.4812 43.818H26.8663C26.3862 43.8175 25.9258 43.6423 25.5863 43.3309C25.2467 43.0195 25.0557 42.5972 25.0552 42.1568V34.2548C25.0556 33.8143 25.2465 33.3919 25.5861 33.0804C25.9256 32.7688 26.3861 32.5935 26.8663 32.593H35.4812C35.9614 32.5935 36.4217 32.7687 36.7612 33.0802C37.1007 33.3916 37.2917 33.8139 37.2922 34.2543V42.1563C37.2918 42.5968 37.1009 43.0191 36.7614 43.3307C36.4218 43.6422 35.9614 43.8174 35.4812 43.818ZM26.8663 32.8681C26.4657 32.8685 26.0815 33.0147 25.7982 33.2746C25.5149 33.5344 25.3555 33.8868 25.355 34.2543V42.1563C25.3555 42.5238 25.5149 42.8761 25.7982 43.1359C26.0815 43.3958 26.4657 43.542 26.8663 43.5424H35.4812C35.8818 43.542 36.266 43.3958 36.5493 43.1359C36.8326 42.8761 36.9919 42.5237 36.9923 42.1563V34.2548C36.9921 33.8872 36.8328 33.5348 36.5495 33.2748C36.2662 33.0148 35.882 32.8685 35.4812 32.8681H26.8663Z" fill="#292A2E"/>
<path d="M35.4812 59.4734H26.8663C26.3862 59.4729 25.9258 59.2978 25.5863 58.9863C25.2467 58.6749 25.0557 58.2527 25.0552 57.8122V49.9103C25.0557 49.4699 25.2467 49.0476 25.5863 48.7362C25.9258 48.4248 26.3862 48.2496 26.8663 48.2491H35.4812C35.9613 48.2497 36.4216 48.4248 36.7612 48.7362C37.1007 49.0477 37.2916 49.4699 37.2922 49.9103V57.8122C37.2916 58.2527 37.1007 58.6749 36.7612 58.9863C36.4216 59.2977 35.9613 59.4729 35.4812 59.4734ZM26.8663 48.5242C26.4657 48.5246 26.0815 48.6708 25.7982 48.9306C25.5149 49.1905 25.3555 49.5428 25.355 49.9103V57.8122C25.3555 58.1798 25.5149 58.5321 25.7982 58.7919C26.0815 59.0518 26.4657 59.1979 26.8663 59.1983H35.4812C35.8818 59.1979 36.266 59.0518 36.5493 58.7919C36.8326 58.5321 36.9919 58.1797 36.9923 57.8122V49.9103C36.9919 49.5428 36.8326 49.1905 36.5493 48.9306C36.266 48.6708 35.8818 48.5246 35.4812 48.5242H26.8663Z" fill="#292A2E"/>
<path d="M35.4812 74.9137H26.8663C26.3862 74.9132 25.9258 74.738 25.5863 74.4266C25.2467 74.1152 25.0557 73.6929 25.0552 73.2525V65.3511C25.0557 64.9107 25.2467 64.4884 25.5863 64.177C25.9258 63.8655 26.3862 63.6903 26.8663 63.6898H35.4812C35.9614 63.6903 36.4217 63.8655 36.7612 64.177C37.1007 64.4884 37.2917 64.9107 37.2922 65.3511V73.2531C37.2915 73.6934 37.1004 74.1155 36.7609 74.4267C36.4215 74.738 35.9612 74.9131 35.4812 74.9137ZM26.8663 63.9643C26.4656 63.9647 26.0815 64.1109 25.7982 64.3708C25.5148 64.6307 25.3555 64.983 25.355 65.3506V73.2525C25.3555 73.62 25.5149 73.9723 25.7982 74.2322C26.0815 74.492 26.4657 74.6382 26.8663 74.6386H35.4812C35.8818 74.6382 36.2659 74.492 36.5492 74.2321C36.8325 73.9723 36.9919 73.62 36.9923 73.2525V65.3511C36.9919 64.9836 36.8326 64.6312 36.5493 64.3713C36.266 64.1115 35.8819 63.9653 35.4812 63.9649L26.8663 63.9643Z" fill="#292A2E"/>
<path d="M35.4812 90.3539H26.8663C26.3862 90.3534 25.9258 90.1782 25.5863 89.8668C25.2467 89.5553 25.0557 89.1331 25.0552 88.6926V80.7907C25.0557 80.3502 25.2467 79.928 25.5863 79.6165C25.9258 79.3051 26.3862 79.1299 26.8663 79.1294H35.4812C35.9614 79.1299 36.4217 79.3051 36.7612 79.6165C37.1007 79.928 37.2917 80.3502 37.2922 80.7907V88.6926C37.2917 89.1331 37.1007 89.5553 36.7612 89.8668C36.4217 90.1782 35.9614 90.3534 35.4812 90.3539ZM26.8663 79.4044C26.4657 79.4049 26.0815 79.5511 25.7982 79.8109C25.5149 80.0708 25.3555 80.4232 25.355 80.7907V88.6926C25.3555 89.0601 25.5149 89.4125 25.7982 89.6724C26.0815 89.9322 26.4657 90.0784 26.8663 90.0789H35.4812C35.8819 90.0784 36.266 89.9322 36.5493 89.6724C36.8326 89.4125 36.9919 89.0601 36.9923 88.6926V80.7907C36.9919 80.4232 36.8326 80.0708 36.5493 79.811C36.266 79.5511 35.8819 79.4049 35.4812 79.4044H26.8663Z" fill="#292A2E"/>
<path d="M29.6411 25.7118C29.4861 25.712 29.3371 25.6569 29.2256 25.5582L26.7146 23.3441C26.6569 23.2942 26.6107 23.2344 26.5784 23.168C26.5461 23.1016 26.5285 23.03 26.5265 22.9574C26.5246 22.8847 26.5384 22.8124 26.5671 22.7447C26.5958 22.6769 26.6388 22.6151 26.6937 22.5627C26.7487 22.5103 26.8143 22.4684 26.887 22.4394C26.9597 22.4105 27.0379 22.395 27.1171 22.3939C27.1963 22.3928 27.275 22.4061 27.3486 22.4331C27.4222 22.4601 27.4892 22.5001 27.5458 22.551L29.6309 24.3893L34.8587 19.552C34.9139 19.4999 34.9798 19.4583 35.0527 19.4296C35.1256 19.401 35.2039 19.3859 35.2832 19.3852C35.3624 19.3845 35.4411 19.3982 35.5145 19.4255C35.588 19.4529 35.6548 19.4933 35.7111 19.5445C35.7674 19.5957 35.8121 19.6566 35.8426 19.7237C35.873 19.7908 35.8887 19.8628 35.8887 19.9356C35.8886 20.0083 35.8729 20.0803 35.8423 20.1473C35.8117 20.2144 35.7669 20.2753 35.7106 20.3264L30.0681 25.5489C30.0123 25.6007 29.9458 25.6418 29.8724 25.6697C29.7991 25.6977 29.7205 25.712 29.6411 25.7118Z" fill="#367CFF"/>
<path d="M29.6409 41.367C29.486 41.3671 29.337 41.3121 29.2255 41.2134L26.7144 38.9993C26.5997 38.8982 26.5335 38.7594 26.5304 38.6136C26.5272 38.4677 26.5874 38.3266 26.6976 38.2215C26.8078 38.1163 26.9591 38.0556 27.1182 38.0527C27.2772 38.0498 27.431 38.1049 27.5456 38.2061L29.6307 40.0443L34.8585 35.2074C34.9708 35.1055 35.1225 35.0484 35.2805 35.0485C35.4385 35.0486 35.59 35.1058 35.7023 35.2078C35.8145 35.3098 35.8783 35.4483 35.8798 35.5933C35.8813 35.7382 35.8205 35.8778 35.7104 35.9817L30.0679 41.2042C30.0121 41.256 29.9456 41.297 29.8723 41.325C29.7989 41.3529 29.7203 41.3672 29.6409 41.367Z" fill="#367CFF"/>
<path d="M29.6409 57.0226C29.486 57.0227 29.337 56.9677 29.2255 56.8691L26.7144 54.655C26.5997 54.5539 26.5335 54.4151 26.5304 54.2692C26.5272 54.1234 26.5874 53.9823 26.6976 53.8771C26.8078 53.7719 26.9591 53.7112 27.1182 53.7083C27.2772 53.7054 27.431 53.7606 27.5456 53.8617L29.6307 55.7L34.8585 50.8628C34.9708 50.7609 35.1225 50.7038 35.2805 50.7039C35.4385 50.7039 35.59 50.7612 35.7023 50.8632C35.8145 50.9652 35.8783 51.1037 35.8798 51.2487C35.8813 51.3936 35.8205 51.5332 35.7104 51.6371L30.0679 56.8596C30.0121 56.9114 29.9456 56.9525 29.8723 56.9805C29.799 57.0085 29.7203 57.0228 29.6409 57.0226Z" fill="#367CFF"/>
<path opacity="0.5" d="M100.022 20.1038H42.001C41.7699 20.1038 41.5825 20.2756 41.5825 20.4876C41.5825 20.6996 41.7699 20.8714 42.001 20.8714H100.022C100.253 20.8714 100.441 20.6996 100.441 20.4876C100.441 20.2756 100.253 20.1038 100.022 20.1038Z" fill="#262626"/>
<path opacity="0.5" d="M76.0334 24.2294H42.001C41.7699 24.2294 41.5825 24.4012 41.5825 24.6132C41.5825 24.8252 41.7699 24.997 42.001 24.997H76.0334C76.2645 24.997 76.4519 24.8252 76.4519 24.6132C76.4519 24.4012 76.2645 24.2294 76.0334 24.2294Z" fill="#262626"/>
<path opacity="0.5" d="M100.022 35.7592H42.001C41.7699 35.7592 41.5825 35.931 41.5825 36.143C41.5825 36.355 41.7699 36.5268 42.001 36.5268H100.022C100.253 36.5268 100.441 36.355 100.441 36.143C100.441 35.931 100.253 35.7592 100.022 35.7592Z" fill="#262626"/>
<path opacity="0.5" d="M76.0334 39.8848H42.001C41.7699 39.8848 41.5825 40.0566 41.5825 40.2686C41.5825 40.4806 41.7699 40.6524 42.001 40.6524H76.0334C76.2645 40.6524 76.4519 40.4806 76.4519 40.2686C76.4519 40.0566 76.2645 39.8848 76.0334 39.8848Z" fill="#262626"/>
<path opacity="0.5" d="M100.022 51.4144H42.001C41.7699 51.4144 41.5825 51.5863 41.5825 51.7983C41.5825 52.0102 41.7699 52.1821 42.001 52.1821H100.022C100.253 52.1821 100.441 52.0102 100.441 51.7983C100.441 51.5863 100.253 51.4144 100.022 51.4144Z" fill="#262626"/>
<path opacity="0.5" d="M76.0334 55.5402H42.001C41.7699 55.5402 41.5825 55.712 41.5825 55.924C41.5825 56.136 41.7699 56.3078 42.001 56.3078H76.0334C76.2645 56.3078 76.4519 56.136 76.4519 55.924C76.4519 55.712 76.2645 55.5402 76.0334 55.5402Z" fill="#262626"/>
<path opacity="0.5" d="M100.022 66.8547H42.001C41.7699 66.8547 41.5825 67.0266 41.5825 67.2386C41.5825 67.4505 41.7699 67.6224 42.001 67.6224H100.022C100.253 67.6224 100.441 67.4505 100.441 67.2386C100.441 67.0266 100.253 66.8547 100.022 66.8547Z" fill="#262626"/>
<path opacity="0.5" d="M76.0334 70.9805H42.001C41.7699 70.9805 41.5825 71.1523 41.5825 71.3643C41.5825 71.5763 41.7699 71.7481 42.001 71.7481H76.0334C76.2645 71.7481 76.4519 71.5763 76.4519 71.3643C76.4519 71.1523 76.2645 70.9805 76.0334 70.9805Z" fill="#262626"/>
<path opacity="0.5" d="M100.022 82.2949H42.001C41.7699 82.2949 41.5825 82.4668 41.5825 82.6788C41.5825 82.8907 41.7699 83.0626 42.001 83.0626H100.022C100.253 83.0626 100.441 82.8907 100.441 82.6788C100.441 82.4668 100.253 82.2949 100.022 82.2949Z" fill="#262626"/>
<path opacity="0.5" d="M76.0334 86.4207H42.001C41.7699 86.4207 41.5825 86.5925 41.5825 86.8045C41.5825 87.0165 41.7699 87.1883 42.001 87.1883H76.0334C76.2645 87.1883 76.4519 87.0165 76.4519 86.8045C76.4519 86.5925 76.2645 86.4207 76.0334 86.4207Z" fill="#262626"/>
<path d="M30.5641 8.20091e-08C29.6246 0.000982838 28.7239 0.343747 28.0596 0.953095C27.3953 1.56244 27.0216 2.38862 27.0205 3.25036H27.3204C27.3203 2.6794 27.4993 2.12047 27.8361 1.64028C28.1729 1.16009 28.6532 0.778932 29.2197 0.542286C29.7862 0.305639 30.415 0.223503 31.031 0.305679C31.647 0.387854 32.2242 0.630872 32.6937 1.00573C33.1633 1.38058 33.5053 1.87145 33.679 2.41973C33.8527 2.96802 33.8508 3.55057 33.6734 4.09787C33.496 4.64517 33.1507 5.13409 32.6786 5.50629C32.2066 5.87849 31.6277 6.11824 31.0112 6.19694C30.9593 6.09874 30.8707 6.02082 30.7616 5.9773C30.6525 5.93378 30.53 5.92752 30.4163 5.95965C30.3025 5.99179 30.2051 6.0602 30.1416 6.1525C30.0781 6.24481 30.0527 6.35491 30.07 6.4629C30.0873 6.57089 30.1462 6.66962 30.236 6.74124C30.3258 6.81286 30.4406 6.85263 30.5596 6.85337C30.6786 6.8541 30.7939 6.81574 30.8848 6.74523C30.9756 6.67473 31.0359 6.57673 31.0548 6.46896C31.9435 6.35516 32.752 5.93633 33.3172 5.29703C33.8823 4.65772 34.162 3.84556 34.0997 3.02449C34.0374 2.20343 33.6378 1.43461 32.9816 0.873258C32.3254 0.311902 31.4614 -0.000184701 30.5641 8.20091e-08Z" fill="#F4F4F4"/>
<path d="M99.6722 3.25036C99.6722 2.38831 99.2988 1.56157 98.6343 0.95201C97.9697 0.342448 97.0684 0 96.1286 0C95.1887 0 94.2874 0.342448 93.6229 0.95201C92.9583 1.56157 92.585 2.38831 92.585 3.25036H92.8848C92.8847 2.6794 93.0638 2.12047 93.4006 1.64028C93.7374 1.16009 94.2177 0.778932 94.7842 0.542286C95.3507 0.305639 95.9794 0.223503 96.5954 0.305679C97.2114 0.387854 97.7886 0.630872 98.2582 1.00573C98.7277 1.38058 99.0697 1.87145 99.2435 2.41973C99.4172 2.96802 99.4152 3.55057 99.2378 4.09787C99.0604 4.64517 98.7151 5.13409 98.2431 5.50629C97.771 5.87849 97.1922 6.11824 96.5757 6.19694C96.5237 6.09874 96.4352 6.02082 96.3261 5.9773C96.2169 5.93378 96.0944 5.92752 95.9807 5.95965C95.867 5.99179 95.7696 6.0602 95.7061 6.1525C95.6426 6.24481 95.6172 6.35491 95.6345 6.4629C95.6518 6.57089 95.7107 6.66962 95.8005 6.74124C95.8903 6.81286 96.0051 6.85263 96.124 6.85337C96.243 6.8541 96.3584 6.81574 96.4492 6.74523C96.5401 6.67473 96.6004 6.57673 96.6193 6.46896C97.4654 6.35949 98.2399 5.97368 98.8008 5.38241C99.3616 4.79113 99.671 4.0341 99.6722 3.25036Z" fill="#F4F4F4"/>
<path d="M90.3061 3.25036C90.3 2.39195 89.924 1.5706 89.2601 0.965583C88.5962 0.360563 87.6983 0.0209961 86.7624 0.0209961C85.8266 0.0209961 84.9287 0.360563 84.2648 0.965583C83.6009 1.5706 83.2248 2.39195 83.2188 3.25036H83.5186C83.5185 2.67935 83.6975 2.12037 84.0343 1.64014C84.3711 1.15991 84.8514 0.778703 85.4179 0.542026C85.9845 0.305349 86.6133 0.223196 87.2293 0.30537C87.8454 0.387544 88.4226 0.630575 88.8922 1.00546C89.3618 1.38034 89.7038 1.87124 89.8775 2.41957C90.0513 2.96789 90.0493 3.55049 89.8719 4.09782C89.6945 4.64515 89.3491 5.13409 88.877 5.5063C88.4049 5.87851 87.826 6.11826 87.2095 6.19693C87.1575 6.09873 87.069 6.02081 86.9598 5.97729C86.8507 5.93377 86.7282 5.92751 86.6145 5.95964C86.5008 5.99178 86.4034 6.06019 86.3398 6.15249C86.2763 6.2448 86.2509 6.35491 86.2683 6.46289C86.2856 6.57088 86.3445 6.66961 86.4343 6.74123C86.5241 6.81285 86.6388 6.85262 86.7578 6.85336C86.8768 6.85409 86.9922 6.81573 87.083 6.74522C87.1739 6.67472 87.2342 6.57672 87.2531 6.46895C88.0992 6.35951 88.8738 5.97371 89.4347 5.38244C89.9955 4.79116 90.305 4.03411 90.3061 3.25036Z" fill="#F4F4F4"/>
<path d="M80.9399 3.25036C80.9338 2.39195 80.5578 1.5706 79.8939 0.965583C79.23 0.360563 78.3321 0.0209961 77.3962 0.0209961C76.4604 0.0209961 75.5625 0.360563 74.8986 0.965583C74.2347 1.5706 73.8586 2.39195 73.8525 3.25036H74.1524C74.1523 2.67938 74.3313 2.12044 74.6681 1.64024C75.0049 1.16003 75.4851 0.778844 76.0516 0.542164C76.6181 0.305483 77.2469 0.223305 77.8629 0.305437C78.4789 0.387568 79.0562 0.630539 79.5257 1.00536C79.9953 1.38017 80.3374 1.87101 80.5112 2.41928C80.685 2.96755 80.6831 3.55011 80.5058 4.09744C80.3285 4.64476 79.9833 5.13374 79.5113 5.50601C79.0393 5.87828 78.4605 6.11813 77.844 6.19693C77.7921 6.09873 77.7035 6.02081 77.5944 5.97729C77.4853 5.93377 77.3628 5.92751 77.249 5.95964C77.1353 5.99178 77.0379 6.06019 76.9744 6.15249C76.9109 6.2448 76.8855 6.35491 76.9028 6.46289C76.9201 6.57088 76.979 6.66961 77.0688 6.74123C77.1586 6.81285 77.2734 6.85262 77.3924 6.85336C77.5114 6.85409 77.6267 6.81573 77.7176 6.74522C77.8084 6.67472 77.8687 6.57672 77.8876 6.46895C78.7336 6.35936 79.508 5.9735 80.0687 5.38223C80.6294 4.79097 80.9388 4.03401 80.9399 3.25036Z" fill="#F4F4F4"/>
<path d="M71.5731 3.25036C71.5731 2.38831 71.1997 1.56157 70.5352 0.95201C69.8706 0.342448 68.9693 0 68.0294 0C67.0896 0 66.1883 0.342448 65.5237 0.95201C64.8592 1.56157 64.4858 2.38831 64.4858 3.25036H64.7857C64.7856 2.6794 64.9647 2.12047 65.3014 1.64028C65.6382 1.16009 66.1185 0.778932 66.685 0.542286C67.2515 0.305639 67.8803 0.223503 68.4963 0.305679C69.1123 0.387854 69.6895 0.630872 70.1591 1.00573C70.6286 1.38058 70.9706 1.87145 71.1443 2.41973C71.318 2.96802 71.3161 3.55057 71.1387 4.09787C70.9613 4.64517 70.616 5.13409 70.144 5.50629C69.6719 5.87849 69.0931 6.11824 68.4765 6.19694C68.4247 6.09867 68.3361 6.02068 68.227 5.97709C68.1179 5.93349 67.9953 5.92716 67.8815 5.95925C67.7678 5.99134 67.6703 6.05973 67.6067 6.15203C67.5431 6.24434 67.5176 6.35447 67.5349 6.46251C67.5522 6.57054 67.611 6.66933 67.7008 6.74101C67.7906 6.8127 67.9054 6.85253 68.0244 6.85331C68.1435 6.85409 68.2589 6.81576 68.3498 6.74527C68.4407 6.67477 68.5011 6.57676 68.52 6.46896C69.3661 6.35952 70.1407 5.97372 70.7016 5.38245C71.2625 4.79117 71.5719 4.03412 71.5731 3.25036Z" fill="#F4F4F4"/>
<path d="M62.207 3.25036C62.2009 2.39195 61.8249 1.5706 61.161 0.965583C60.4971 0.360563 59.5992 0.0209961 58.6633 0.0209961C57.7274 0.0209961 56.8296 0.360563 56.1657 0.965583C55.5017 1.5706 55.1257 2.39195 55.1196 3.25036H55.4195C55.4194 2.67935 55.5984 2.12037 55.9352 1.64014C56.272 1.15991 56.7523 0.778703 57.3188 0.542026C57.8854 0.305349 58.5142 0.223196 59.1302 0.30537C59.7463 0.387544 60.3235 0.630575 60.7931 1.00546C61.2627 1.38034 61.6047 1.87124 61.7784 2.41957C61.9521 2.96789 61.9502 3.55049 61.7728 4.09782C61.5954 4.64515 61.25 5.13409 60.7779 5.5063C60.3058 5.87851 59.7269 6.11826 59.1103 6.19693C59.0584 6.09873 58.9699 6.02081 58.8607 5.97729C58.7516 5.93377 58.6291 5.92751 58.5154 5.95964C58.4017 5.99178 58.3042 6.06019 58.2407 6.15249C58.1772 6.2448 58.1518 6.35491 58.1691 6.46289C58.1865 6.57088 58.2454 6.66961 58.3352 6.74123C58.4249 6.81285 58.5397 6.85262 58.6587 6.85336C58.7777 6.85409 58.8931 6.81573 58.9839 6.74522C59.0747 6.67472 59.1351 6.57672 59.154 6.46895C60 6.35951 60.7747 5.97371 61.3355 5.38244C61.8964 4.79116 62.2058 4.03411 62.207 3.25036Z" fill="#F4F4F4"/>
<path d="M52.8406 3.25036C52.8406 2.38831 52.4673 1.56157 51.8027 0.95201C51.1382 0.342448 50.2368 0 49.297 0C48.3572 0 47.4559 0.342448 46.7913 0.95201C46.1268 1.56157 45.7534 2.38831 45.7534 3.25036H46.0533C46.0532 2.6794 46.2322 2.12047 46.569 1.64028C46.9058 1.16009 47.3861 0.778932 47.9526 0.542285C48.5191 0.305639 49.1479 0.223503 49.7639 0.305678C50.3799 0.387854 50.9571 0.630872 51.4266 1.00573C51.8962 1.38058 52.2382 1.87145 52.4119 2.41973C52.5856 2.96802 52.5837 3.55057 52.4063 4.09787C52.2289 4.64517 51.8836 5.13409 51.4115 5.50629C50.9395 5.87849 50.3607 6.11824 49.7441 6.19694C49.6922 6.09867 49.6037 6.02068 49.4946 5.97709C49.3854 5.93349 49.2629 5.92716 49.1491 5.95925C49.0353 5.99134 48.9378 6.05973 48.8743 6.15203C48.8107 6.24434 48.7852 6.35447 48.8025 6.46251C48.8198 6.57054 48.8786 6.66933 48.9684 6.74101C49.0582 6.8127 49.173 6.85253 49.292 6.85331C49.4111 6.85409 49.5265 6.81576 49.6174 6.74527C49.7083 6.67477 49.7687 6.57676 49.7876 6.46896C50.6337 6.35952 51.4083 5.97372 51.9692 5.38245C52.53 4.79117 52.8395 4.03412 52.8406 3.25036Z" fill="#F4F4F4"/>
<path d="M43.4741 3.25036C43.468 2.39195 43.092 1.5706 42.4281 0.965583C41.7641 0.360563 40.8663 0.0209961 39.9304 0.0209961C38.9945 0.0209961 38.0967 0.360563 37.4327 0.965583C36.7688 1.5706 36.3928 2.39195 36.3867 3.25036H36.6866C36.6865 2.67935 36.8655 2.12037 37.2023 1.64014C37.5391 1.15991 38.0194 0.778703 38.5859 0.542026C39.1525 0.305349 39.7813 0.223196 40.3973 0.30537C41.0134 0.387544 41.5906 0.630575 42.0602 1.00546C42.5297 1.38034 42.8718 1.87124 43.0455 2.41957C43.2192 2.96789 43.2173 3.55049 43.0399 4.09782C42.8624 4.64515 42.5171 5.13409 42.045 5.5063C41.5729 5.87851 40.994 6.11826 40.3774 6.19693C40.3255 6.09873 40.2369 6.02081 40.1278 5.97729C40.0187 5.93377 39.8962 5.92751 39.7825 5.95964C39.6687 5.99178 39.5713 6.06019 39.5078 6.15249C39.4443 6.2448 39.4189 6.35491 39.4362 6.46289C39.4536 6.57088 39.5124 6.66961 39.6022 6.74123C39.692 6.81285 39.8068 6.85262 39.9258 6.85336C40.0448 6.85409 40.1602 6.81573 40.251 6.74522C40.3418 6.67472 40.4022 6.57672 40.421 6.46895C41.2671 6.35951 42.0418 5.97371 42.6026 5.38244C43.1635 4.79116 43.4729 4.03411 43.4741 3.25036Z" fill="#F4F4F4"/>
<g opacity="0.6">
<path d="M30.5641 8.20091e-08C29.6246 0.000982838 28.7239 0.343747 28.0596 0.953095C27.3953 1.56244 27.0216 2.38862 27.0205 3.25036H27.3204C27.3203 2.6794 27.4993 2.12047 27.8361 1.64028C28.1729 1.16009 28.6532 0.778932 29.2197 0.542286C29.7862 0.305639 30.415 0.223503 31.031 0.305679C31.647 0.387854 32.2242 0.630872 32.6937 1.00573C33.1633 1.38058 33.5053 1.87145 33.679 2.41973C33.8527 2.96802 33.8508 3.55057 33.6734 4.09787C33.496 4.64517 33.1507 5.13409 32.6786 5.50629C32.2066 5.87849 31.6277 6.11824 31.0112 6.19694C30.9593 6.09874 30.8707 6.02082 30.7616 5.9773C30.6525 5.93378 30.53 5.92752 30.4163 5.95965C30.3025 5.99179 30.2051 6.0602 30.1416 6.1525C30.0781 6.24481 30.0527 6.35491 30.07 6.4629C30.0873 6.57089 30.1462 6.66962 30.236 6.74124C30.3258 6.81286 30.4406 6.85263 30.5596 6.85337C30.6786 6.8541 30.7939 6.81574 30.8848 6.74523C30.9756 6.67473 31.0359 6.57673 31.0548 6.46896C31.9435 6.35516 32.752 5.93633 33.3172 5.29703C33.8823 4.65772 34.162 3.84556 34.0997 3.02449C34.0374 2.20343 33.6378 1.43461 32.9816 0.873258C32.3254 0.311902 31.4614 -0.000184701 30.5641 8.20091e-08Z" fill="#292A2E"/>
<path d="M99.6722 3.25036C99.6722 2.38831 99.2988 1.56157 98.6343 0.95201C97.9697 0.342448 97.0684 0 96.1286 0C95.1887 0 94.2874 0.342448 93.6229 0.95201C92.9583 1.56157 92.585 2.38831 92.585 3.25036H92.8848C92.8847 2.6794 93.0638 2.12047 93.4006 1.64028C93.7374 1.16009 94.2177 0.778932 94.7842 0.542286C95.3507 0.305639 95.9794 0.223503 96.5954 0.305679C97.2114 0.387854 97.7886 0.630872 98.2582 1.00573C98.7277 1.38058 99.0697 1.87145 99.2435 2.41973C99.4172 2.96802 99.4152 3.55057 99.2378 4.09787C99.0604 4.64517 98.7151 5.13409 98.2431 5.50629C97.771 5.87849 97.1922 6.11824 96.5757 6.19694C96.5237 6.09874 96.4352 6.02082 96.3261 5.9773C96.2169 5.93378 96.0944 5.92752 95.9807 5.95965C95.867 5.99179 95.7696 6.0602 95.7061 6.1525C95.6426 6.24481 95.6172 6.35491 95.6345 6.4629C95.6518 6.57089 95.7107 6.66962 95.8005 6.74124C95.8903 6.81286 96.0051 6.85263 96.124 6.85337C96.243 6.8541 96.3584 6.81574 96.4492 6.74523C96.5401 6.67473 96.6004 6.57673 96.6193 6.46896C97.4654 6.35949 98.2399 5.97368 98.8008 5.38241C99.3616 4.79113 99.671 4.0341 99.6722 3.25036Z" fill="#292A2E"/>
<path d="M90.3061 3.25036C90.3 2.39195 89.924 1.5706 89.2601 0.965583C88.5962 0.360563 87.6983 0.0209961 86.7624 0.0209961C85.8266 0.0209961 84.9287 0.360563 84.2648 0.965583C83.6009 1.5706 83.2248 2.39195 83.2188 3.25036H83.5186C83.5185 2.67935 83.6975 2.12037 84.0343 1.64014C84.3711 1.15991 84.8514 0.778703 85.4179 0.542026C85.9845 0.305349 86.6133 0.223196 87.2293 0.30537C87.8454 0.387544 88.4226 0.630575 88.8922 1.00546C89.3618 1.38034 89.7038 1.87124 89.8775 2.41957C90.0513 2.96789 90.0493 3.55049 89.8719 4.09782C89.6945 4.64515 89.3491 5.13409 88.877 5.5063C88.4049 5.87851 87.826 6.11826 87.2095 6.19693C87.1575 6.09873 87.069 6.02081 86.9598 5.97729C86.8507 5.93377 86.7282 5.92751 86.6145 5.95964C86.5008 5.99178 86.4034 6.06019 86.3398 6.15249C86.2763 6.2448 86.2509 6.35491 86.2683 6.46289C86.2856 6.57088 86.3445 6.66961 86.4343 6.74123C86.5241 6.81285 86.6388 6.85262 86.7578 6.85336C86.8768 6.85409 86.9922 6.81573 87.083 6.74522C87.1739 6.67472 87.2342 6.57672 87.2531 6.46895C88.0992 6.35951 88.8738 5.97371 89.4347 5.38244C89.9955 4.79116 90.305 4.03411 90.3061 3.25036Z" fill="#292A2E"/>
<path d="M80.9399 3.25036C80.9338 2.39195 80.5578 1.5706 79.8939 0.965583C79.23 0.360563 78.3321 0.0209961 77.3962 0.0209961C76.4604 0.0209961 75.5625 0.360563 74.8986 0.965583C74.2347 1.5706 73.8586 2.39195 73.8525 3.25036H74.1524C74.1523 2.67938 74.3313 2.12044 74.6681 1.64024C75.0049 1.16003 75.4851 0.778844 76.0516 0.542164C76.6181 0.305483 77.2469 0.223305 77.8629 0.305437C78.4789 0.387568 79.0562 0.630539 79.5257 1.00536C79.9953 1.38017 80.3374 1.87101 80.5112 2.41928C80.685 2.96755 80.6831 3.55011 80.5058 4.09744C80.3285 4.64476 79.9833 5.13374 79.5113 5.50601C79.0393 5.87828 78.4605 6.11813 77.844 6.19693C77.7921 6.09873 77.7035 6.02081 77.5944 5.97729C77.4853 5.93377 77.3628 5.92751 77.249 5.95964C77.1353 5.99178 77.0379 6.06019 76.9744 6.15249C76.9109 6.2448 76.8855 6.35491 76.9028 6.46289C76.9201 6.57088 76.979 6.66961 77.0688 6.74123C77.1586 6.81285 77.2734 6.85262 77.3924 6.85336C77.5114 6.85409 77.6267 6.81573 77.7176 6.74522C77.8084 6.67472 77.8687 6.57672 77.8876 6.46895C78.7336 6.35936 79.508 5.9735 80.0687 5.38223C80.6294 4.79097 80.9388 4.03401 80.9399 3.25036Z" fill="#292A2E"/>
<path d="M71.5731 3.25036C71.5731 2.38831 71.1997 1.56157 70.5352 0.95201C69.8706 0.342448 68.9693 0 68.0294 0C67.0896 0 66.1883 0.342448 65.5237 0.95201C64.8592 1.56157 64.4858 2.38831 64.4858 3.25036H64.7857C64.7856 2.6794 64.9647 2.12047 65.3014 1.64028C65.6382 1.16009 66.1185 0.778932 66.685 0.542286C67.2515 0.305639 67.8803 0.223503 68.4963 0.305679C69.1123 0.387854 69.6895 0.630872 70.1591 1.00573C70.6286 1.38058 70.9706 1.87145 71.1443 2.41973C71.318 2.96802 71.3161 3.55057 71.1387 4.09787C70.9613 4.64517 70.616 5.13409 70.144 5.50629C69.6719 5.87849 69.0931 6.11824 68.4765 6.19694C68.4247 6.09867 68.3361 6.02068 68.227 5.97709C68.1179 5.93349 67.9953 5.92716 67.8815 5.95925C67.7678 5.99134 67.6703 6.05973 67.6067 6.15203C67.5431 6.24434 67.5176 6.35447 67.5349 6.46251C67.5522 6.57054 67.611 6.66933 67.7008 6.74101C67.7906 6.8127 67.9054 6.85253 68.0244 6.85331C68.1435 6.85409 68.2589 6.81576 68.3498 6.74527C68.4407 6.67477 68.5011 6.57676 68.52 6.46896C69.3661 6.35952 70.1407 5.97372 70.7016 5.38245C71.2625 4.79117 71.5719 4.03412 71.5731 3.25036Z" fill="#292A2E"/>
<path d="M62.207 3.25036C62.2009 2.39195 61.8249 1.5706 61.161 0.965583C60.4971 0.360563 59.5992 0.0209961 58.6633 0.0209961C57.7274 0.0209961 56.8296 0.360563 56.1657 0.965583C55.5017 1.5706 55.1257 2.39195 55.1196 3.25036H55.4195C55.4194 2.67935 55.5984 2.12037 55.9352 1.64014C56.272 1.15991 56.7523 0.778703 57.3188 0.542026C57.8854 0.305349 58.5142 0.223196 59.1302 0.30537C59.7463 0.387544 60.3235 0.630575 60.7931 1.00546C61.2627 1.38034 61.6047 1.87124 61.7784 2.41957C61.9521 2.96789 61.9502 3.55049 61.7728 4.09782C61.5954 4.64515 61.25 5.13409 60.7779 5.5063C60.3058 5.87851 59.7269 6.11826 59.1103 6.19693C59.0584 6.09873 58.9699 6.02081 58.8607 5.97729C58.7516 5.93377 58.6291 5.92751 58.5154 5.95964C58.4017 5.99178 58.3042 6.06019 58.2407 6.15249C58.1772 6.2448 58.1518 6.35491 58.1691 6.46289C58.1865 6.57088 58.2454 6.66961 58.3352 6.74123C58.4249 6.81285 58.5397 6.85262 58.6587 6.85336C58.7777 6.85409 58.8931 6.81573 58.9839 6.74522C59.0747 6.67472 59.1351 6.57672 59.154 6.46895C60 6.35951 60.7747 5.97371 61.3355 5.38244C61.8964 4.79116 62.2058 4.03411 62.207 3.25036Z" fill="#292A2E"/>
<path d="M52.8406 3.25036C52.8406 2.38831 52.4673 1.56157 51.8027 0.95201C51.1382 0.342448 50.2368 0 49.297 0C48.3572 0 47.4559 0.342448 46.7913 0.95201C46.1268 1.56157 45.7534 2.38831 45.7534 3.25036H46.0533C46.0532 2.6794 46.2322 2.12047 46.569 1.64028C46.9058 1.16009 47.3861 0.778932 47.9526 0.542285C48.5191 0.305639 49.1479 0.223503 49.7639 0.305678C50.3799 0.387854 50.9571 0.630872 51.4266 1.00573C51.8962 1.38058 52.2382 1.87145 52.4119 2.41973C52.5856 2.96802 52.5837 3.55057 52.4063 4.09787C52.2289 4.64517 51.8836 5.13409 51.4115 5.50629C50.9395 5.87849 50.3607 6.11824 49.7441 6.19694C49.6922 6.09867 49.6037 6.02068 49.4946 5.97709C49.3854 5.93349 49.2629 5.92716 49.1491 5.95925C49.0353 5.99134 48.9378 6.05973 48.8743 6.15203C48.8107 6.24434 48.7852 6.35447 48.8025 6.46251C48.8198 6.57054 48.8786 6.66933 48.9684 6.74101C49.0582 6.8127 49.173 6.85253 49.292 6.85331C49.4111 6.85409 49.5265 6.81576 49.6174 6.74527C49.7083 6.67477 49.7687 6.57676 49.7876 6.46896C50.6337 6.35952 51.4083 5.97372 51.9692 5.38245C52.53 4.79117 52.8395 4.03412 52.8406 3.25036Z" fill="#292A2E"/>
<path d="M43.4741 3.25036C43.468 2.39195 43.092 1.5706 42.4281 0.965583C41.7641 0.360563 40.8663 0.0209961 39.9304 0.0209961C38.9945 0.0209961 38.0967 0.360563 37.4327 0.965583C36.7688 1.5706 36.3928 2.39195 36.3867 3.25036H36.6866C36.6865 2.67935 36.8655 2.12037 37.2023 1.64014C37.5391 1.15991 38.0194 0.778703 38.5859 0.542026C39.1525 0.305349 39.7813 0.223196 40.3973 0.30537C41.0134 0.387544 41.5906 0.630575 42.0602 1.00546C42.5297 1.38034 42.8718 1.87124 43.0455 2.41957C43.2192 2.96789 43.2173 3.55049 43.0399 4.09782C42.8624 4.64515 42.5171 5.13409 42.045 5.5063C41.5729 5.87851 40.994 6.11826 40.3774 6.19693C40.3255 6.09873 40.2369 6.02081 40.1278 5.97729C40.0187 5.93377 39.8962 5.92751 39.7825 5.95964C39.6687 5.99178 39.5713 6.06019 39.5078 6.15249C39.4443 6.2448 39.4189 6.35491 39.4362 6.46289C39.4536 6.57088 39.5124 6.66961 39.6022 6.74123C39.692 6.81285 39.8068 6.85262 39.9258 6.85336C40.0448 6.85409 40.1602 6.81573 40.251 6.74522C40.3418 6.67472 40.4022 6.57672 40.421 6.46895C41.2671 6.35951 42.0418 5.97371 42.6026 5.38244C43.1635 4.79116 43.4729 4.03411 43.4741 3.25036Z" fill="#292A2E"/>
</g>
<path d="M11.3647 99.6769C11.345 99.6769 11.3255 99.6734 11.3073 99.6665C11.2891 99.6596 11.2726 99.6494 11.2587 99.6366C11.0474 99.443 10.703 95.888 9.77556 85.3035C9.39609 80.9726 9.0376 76.8818 8.77598 74.3958C8.75738 74.2183 8.68227 74.1977 8.65768 74.1909C8.2995 74.0918 7.21055 74.8794 6.60258 75.5692C6.5902 75.5832 6.57492 75.5949 6.55761 75.6035C6.54031 75.6122 6.52132 75.6176 6.50173 75.6195C6.48215 75.6214 6.46234 75.6197 6.44345 75.6146C6.42456 75.6095 6.40695 75.601 6.39163 75.5897C6.37631 75.5783 6.36358 75.5643 6.35417 75.5484C6.34476 75.5325 6.33885 75.5151 6.33677 75.4972C6.3347 75.4792 6.3365 75.461 6.34208 75.4437C6.34766 75.4264 6.35691 75.4102 6.36929 75.3962C6.7714 74.9401 8.0818 73.7446 8.74389 73.9274C8.87733 73.9643 9.043 74.0707 9.07374 74.3694C9.33552 76.8576 9.69415 80.9495 10.0738 85.2815C10.6374 91.7135 11.2758 99.0003 11.4857 99.4592C11.5017 99.4797 11.5113 99.5038 11.5134 99.529C11.5154 99.5541 11.5099 99.5793 11.4974 99.6018C11.4849 99.6243 11.4659 99.6432 11.4425 99.6564C11.4191 99.6697 11.3922 99.6767 11.3647 99.6769Z" fill="#494949"/>
<path d="M8.39079 78.9573C10.8787 77.1281 11.7033 74.2809 10.2326 72.5979C8.76186 70.915 5.55275 71.0336 3.06483 72.8628C0.576913 74.692 -0.247683 77.5392 1.22304 79.2222C2.69377 80.9051 5.90288 80.7865 8.39079 78.9573Z" fill="#0CBC8B"/>
<path opacity="0.2" d="M8.39079 78.9573C10.8787 77.1281 11.7033 74.2809 10.2326 72.5979C8.76186 70.915 5.55275 71.0336 3.06483 72.8628C0.576913 74.692 -0.247683 77.5392 1.22304 79.2222C2.69377 80.9051 5.90288 80.7865 8.39079 78.9573Z" fill="white"/>
<path d="M1.92037 79.6499C1.90289 79.65 1.88595 79.6444 1.87254 79.6341C1.85741 79.6225 1.84789 79.6059 1.84603 79.5878C1.84418 79.5698 1.85015 79.5519 1.86265 79.5378L8.95301 71.695C8.9593 71.6881 8.96702 71.6823 8.97574 71.6781C8.98445 71.6739 8.99398 71.6713 9.00379 71.6705C9.0136 71.6696 9.02349 71.6706 9.0329 71.6732C9.04231 71.6759 9.05106 71.6803 9.05864 71.686C9.06622 71.6918 9.07249 71.6989 9.07708 71.7069C9.08168 71.7149 9.08451 71.7236 9.08542 71.7326C9.08634 71.7416 9.08531 71.7507 9.0824 71.7593C9.07949 71.7679 9.07475 71.776 9.06846 71.7829L1.97885 79.6252C1.97172 79.633 1.96277 79.6393 1.95265 79.6436C1.94254 79.6479 1.93151 79.6501 1.92037 79.6499Z" fill="white"/>
<path d="M12.9111 97.995C12.8872 97.995 12.8636 97.9897 12.8424 97.9797C12.8211 97.9696 12.8028 97.955 12.7889 97.9371C12.7751 97.9192 12.7661 97.8986 12.7627 97.8768C12.7594 97.8551 12.7617 97.833 12.7696 97.8122L15.4329 90.7866C15.5114 90.5802 15.645 90.3951 15.8216 90.2483C15.9982 90.1016 16.2121 89.9978 16.4438 89.9465C16.6754 89.8952 16.9174 89.8981 17.1475 89.9548C17.3777 90.0115 17.5886 90.1203 17.7611 90.2711L19.1692 91.5049C19.198 91.5301 19.2147 91.5647 19.2156 91.6012C19.2165 91.6377 19.2016 91.673 19.1741 91.6994C19.1466 91.7258 19.1088 91.7411 19.0691 91.7419C19.0293 91.7428 18.9908 91.7291 18.962 91.7039L17.554 90.47C17.4179 90.3509 17.2513 90.265 17.0696 90.2202C16.8879 90.1755 16.6969 90.1732 16.514 90.2137C16.3311 90.2542 16.1623 90.3361 16.0228 90.452C15.8834 90.5679 15.7779 90.714 15.716 90.8769L13.0528 97.9029C13.0425 97.9298 13.0234 97.9532 12.998 97.9697C12.9726 97.9862 12.9422 97.995 12.9111 97.995Z" fill="#494949"/>
<path d="M23.1025 95.3943C24.9463 94.0557 24.8367 91.1115 22.8578 88.8182C20.8788 86.525 17.7799 85.7512 15.9361 87.0898C14.0923 88.4285 14.2019 91.3727 16.1809 93.6659C18.1598 95.9592 21.2587 96.733 23.1025 95.3943Z" fill="#0CBC8B"/>
<path d="M10.1546 99.2282C10.1209 99.2282 10.0882 99.2178 10.0618 99.1986C10.0354 99.1795 10.0167 99.1527 10.0089 99.1226L5.53933 81.981C5.50876 81.8642 5.44366 81.7574 5.3512 81.6723C5.25875 81.5872 5.14251 81.5272 5.01526 81.4988C4.88801 81.4703 4.75468 81.4746 4.62992 81.5112C4.50517 81.5477 4.39382 81.6151 4.30811 81.706L2.93024 83.1665C2.91742 83.1803 2.90173 83.1917 2.88409 83.2C2.86644 83.2082 2.84718 83.2132 2.82743 83.2146C2.80768 83.216 2.78782 83.2138 2.769 83.2081C2.75019 83.2024 2.73279 83.1933 2.71781 83.1815C2.70283 83.1696 2.69057 83.1551 2.68174 83.1388C2.67291 83.1225 2.66768 83.1048 2.66635 83.0867C2.66503 83.0686 2.66763 83.0504 2.67401 83.0332C2.6804 83.016 2.69044 83.0001 2.70355 82.9865L4.08126 81.5261C4.2031 81.397 4.36141 81.3011 4.53879 81.2492C4.71616 81.1972 4.90572 81.1912 5.08661 81.2317C5.2675 81.2722 5.43271 81.3576 5.56406 81.4787C5.69541 81.5997 5.78781 81.7517 5.8311 81.9178L10.3001 99.0587C10.3093 99.0941 10.3028 99.1315 10.282 99.1626C10.2612 99.1937 10.2278 99.2159 10.1891 99.2244C10.1778 99.2269 10.1663 99.2282 10.1546 99.2282Z" fill="#494949"/>
<path d="M8.50555 86.9745C9.04888 84.0926 7.61096 81.4584 5.29387 81.0908C2.97678 80.7233 0.657959 82.7616 0.114635 85.6435C-0.428689 88.5254 1.00923 91.1596 3.32632 91.5272C5.64341 91.8947 7.96223 89.8564 8.50555 86.9745Z" fill="#0CBC8B"/>
<path d="M11.3645 99.6769C11.3584 99.6769 11.3522 99.6766 11.3461 99.6759C11.3265 99.6737 11.3076 99.668 11.2905 99.6591C11.2733 99.6502 11.2583 99.6383 11.2461 99.624C11.234 99.6098 11.2251 99.5935 11.2198 99.5761C11.2145 99.5587 11.2131 99.5405 11.2155 99.5226L14.0697 78.2667C14.1008 78.0351 14.2042 77.8167 14.3673 77.6378C14.5305 77.4588 14.7465 77.3269 14.9895 77.2579C15.2324 77.1888 15.492 77.1856 15.7368 77.2486C15.9817 77.3116 16.2016 77.4382 16.3699 77.613L19.6321 81.002C19.6452 81.0156 19.6552 81.0313 19.6616 81.0484C19.6679 81.0655 19.6706 81.0836 19.6694 81.1016C19.6682 81.1196 19.6631 81.1373 19.6544 81.1535C19.6458 81.1697 19.6337 81.1842 19.6189 81.1962C19.6042 81.2082 19.587 81.2173 19.5683 81.2232C19.5497 81.229 19.53 81.2315 19.5104 81.2304C19.4907 81.2292 19.4715 81.2246 19.4538 81.2166C19.4361 81.2087 19.4203 81.1976 19.4072 81.1841L16.145 77.7951C16.0149 77.6599 15.845 77.5621 15.6558 77.5134C15.4665 77.4647 15.2659 77.4672 15.0782 77.5205C14.8904 77.5739 14.7234 77.6758 14.5973 77.8142C14.4712 77.9525 14.3913 78.1213 14.3673 78.3002L11.5132 99.5554C11.509 99.5889 11.4914 99.6197 11.464 99.6421C11.4366 99.6644 11.4012 99.6768 11.3645 99.6769Z" fill="#494949"/>
<path d="M22.9778 82.8853C24.116 80.9979 22.7769 78.3203 19.9867 76.9047C17.1966 75.489 14.012 75.8715 12.8739 77.7589C11.7357 79.6462 13.0748 82.3239 15.865 83.7395C18.6551 85.1551 21.8397 84.7727 22.9778 82.8853Z" fill="#0CBC8B"/>
<path opacity="0.2" d="M23.1025 95.3943C24.9463 94.0557 24.8367 91.1115 22.8578 88.8182C20.8788 86.525 17.7799 85.7512 15.9361 87.0898C14.0923 88.4285 14.2019 91.3727 16.1809 93.6659C18.1598 95.9592 21.2587 96.733 23.1025 95.3943Z" fill="white"/>
<path opacity="0.5" d="M8.50555 86.9745C9.04888 84.0926 7.61096 81.4584 5.29387 81.0908C2.97678 80.7233 0.657959 82.7616 0.114635 85.6435C-0.428689 88.5254 1.00923 91.1596 3.32632 91.5272C5.64341 91.8947 7.96223 89.8564 8.50555 86.9745Z" fill="white"/>
<path opacity="0.5" d="M22.9778 82.8853C24.116 80.9979 22.7769 78.3203 19.9867 76.9047C17.1966 75.489 14.012 75.8715 12.8739 77.7589C11.7357 79.6462 13.0748 82.3239 15.865 83.7395C18.6551 85.1551 21.8397 84.7727 22.9778 82.8853Z" fill="white"/>
<path d="M15.0149 117.711H7.7137L6.50391 96.2847H16.2247L15.0149 117.711Z" fill="#292A2E"/>
<path opacity="0.3" d="M15.0149 117.711H7.7137L6.50391 96.2847H16.2247L15.0149 117.711Z" fill="white"/>
<path d="M23.103 95.4627C23.0917 95.4627 23.0805 95.4604 23.0703 95.4558C23.0602 95.4513 23.0512 95.4447 23.0442 95.4366L15.8775 87.1321C15.8714 87.125 15.8669 87.1169 15.8642 87.1082C15.8615 87.0995 15.8607 87.0905 15.8618 87.0815C15.863 87.0725 15.866 87.0638 15.8708 87.0559C15.8756 87.048 15.882 87.0411 15.8898 87.0355C15.8975 87.0299 15.9063 87.0257 15.9158 87.0233C15.9253 87.0208 15.9352 87.02 15.9449 87.0211C15.9547 87.0221 15.9642 87.0249 15.9728 87.0293C15.9814 87.0337 15.989 87.0396 15.9951 87.0467L23.1618 95.3512C23.1705 95.3613 23.176 95.3735 23.1776 95.3864C23.1791 95.3992 23.1767 95.4122 23.1705 95.4239C23.1644 95.4355 23.1548 95.4454 23.1429 95.4522C23.1309 95.4591 23.1171 95.4627 23.103 95.4627Z" fill="white"/>
<path d="M22.5015 83.5507C22.4853 83.5507 22.4695 83.5459 22.4565 83.537L13.2866 77.3955C13.2787 77.3901 13.2719 77.3834 13.2668 77.3757C13.2617 77.368 13.2583 77.3594 13.2568 77.3505C13.2552 77.3416 13.2557 77.3325 13.258 77.3237C13.2603 77.3149 13.2645 77.3066 13.2703 77.2993C13.2761 77.292 13.2834 77.2859 13.2918 77.2812C13.3002 77.2765 13.3096 77.2733 13.3193 77.2719C13.329 77.2705 13.339 77.2709 13.3485 77.2731C13.3581 77.2752 13.3671 77.279 13.3751 77.2844L22.5457 83.4266C22.5583 83.4352 22.5676 83.4472 22.5723 83.4609C22.577 83.4746 22.5769 83.4893 22.572 83.503C22.5671 83.5166 22.5577 83.5286 22.5451 83.5371C22.5324 83.5455 22.5172 83.5502 22.5015 83.5503V83.5507Z" fill="white"/>
<path d="M2.95337 91.4376C2.94684 91.4376 2.94034 91.4368 2.93403 91.4353C2.91483 91.4306 2.89845 91.4191 2.88849 91.4033C2.87854 91.3875 2.87583 91.3687 2.88095 91.3511L5.80025 81.3184C5.8058 81.3012 5.81842 81.2867 5.83544 81.278C5.85246 81.2692 5.87254 81.2669 5.8914 81.2715C5.91026 81.2761 5.92642 81.2872 5.93644 81.3026C5.94647 81.318 5.94957 81.3363 5.94508 81.3537L3.02654 91.3866C3.02224 91.4014 3.01272 91.4144 2.99948 91.4236C2.98623 91.4328 2.97001 91.4378 2.95337 91.4376Z" fill="white"/>
<path d="M126.292 40.8186L126.713 40.5001C126.846 40.3957 126.93 40.2491 126.949 40.0898C126.969 39.9306 126.921 39.7706 126.817 39.6421C126.761 39.5775 126.69 39.5241 126.611 39.4853C126.531 39.4464 126.444 39.4228 126.354 39.4159C126.264 39.4091 126.173 39.4191 126.088 39.4454C126.002 39.4716 125.923 39.5136 125.856 39.5688L120.853 43.6426L122.236 45.1465C122.666 45.6135 123.238 45.9522 123.878 46.1192C124.519 46.2861 125.2 46.2738 125.833 46.0837L128.699 45.218C128.849 45.1756 128.978 45.0871 129.065 44.9673C129.152 44.8476 129.191 44.7039 129.176 44.5607C129.137 44.2787 126.292 40.8186 126.292 40.8186Z" fill="#E98862"/>
<path d="M123.301 40.8501L109.499 44.7728L101.083 31.6953L93.8926 35.5519L104.503 51.28L104.57 51.3587C105.126 51.9916 105.884 52.4496 106.737 52.669C107.591 52.8884 108.498 52.8582 109.331 52.5826L125.783 47.1166L123.301 40.8501Z" fill="#367CFF"/>
<path d="M131.725 109.669L120.218 110.165L115.779 40.8657L127.287 40.3698L131.725 109.669Z" fill="#367CFF"/>
<path opacity="0.5" d="M131.725 109.669L120.218 110.165L115.779 40.8657L127.287 40.3698L131.725 109.669Z" fill="white"/>
<path d="M126.895 32.7336L115.388 33.2297L115.779 40.8649L127.287 40.3688L126.895 32.7336Z" fill="#262626"/>
<path d="M131.725 109.669C131.725 109.669 130.146 112.184 128.723 114.433C127.595 116.216 126.564 117.832 126.498 117.893C126.43 117.955 125.143 116.386 123.753 114.647C122.062 112.533 120.217 110.166 120.217 110.166L131.725 109.669Z" fill="#367CFF"/>
<path opacity="0.9" d="M131.725 109.669C131.725 109.669 130.146 112.184 128.723 114.433C127.595 116.216 126.564 117.832 126.498 117.893C126.43 117.955 125.143 116.386 123.753 114.647C122.062 112.533 120.217 110.166 120.217 110.166L131.725 109.669Z" fill="white"/>
<path d="M128.723 114.433C127.595 116.217 126.564 117.833 126.498 117.893C126.429 117.956 125.143 116.387 123.752 114.648L128.723 114.433Z" fill="#262626"/>
<path d="M128.14 109.804L123.5 40.5468L124.025 40.5226L128.665 109.779L128.14 109.804Z" fill="white"/>
<path d="M123.639 109.999L118.998 40.7425L119.523 40.7183L124.164 109.975L123.639 109.999Z" fill="white"/>
<path d="M125.556 44.05C125.555 43.917 125.603 43.7875 125.69 43.6813C125.777 43.5752 125.9 43.4981 126.04 43.4618C126.035 43.4521 126.015 43.4316 126.034 43.4247L125.488 43.3359C125.326 43.3129 125.179 43.237 125.073 43.1223C124.968 43.0075 124.911 42.8617 124.914 42.7116C124.922 42.5636 124.99 42.4235 125.104 42.3185C125.218 42.2135 125.371 42.1512 125.532 42.1435C125.528 42.1387 125.529 42.132 125.527 42.1262L125.302 42.0896C125.15 42.0674 125.011 41.9976 124.908 41.8921C124.806 41.7866 124.746 41.6518 124.739 41.5105C124.737 41.4219 124.757 41.3339 124.796 41.2529C124.835 41.1719 124.894 41.0999 124.967 41.0422C125.04 40.9844 125.127 40.9423 125.22 40.9189C125.313 40.8955 125.411 40.8914 125.506 40.9068L126.025 40.991C126.025 40.9883 126.023 40.9864 126.023 40.9838C126.023 40.9812 126.027 40.9786 126.028 40.9756C125.892 40.923 125.779 40.8295 125.708 40.7104C125.638 40.5914 125.613 40.4537 125.639 40.3201C125.68 39.9714 126.13 39.8415 126.465 39.896L127.506 40.1435C127.667 40.1817 127.815 40.2556 127.937 40.3588C128.059 40.4619 128.151 40.5911 128.205 40.7349C128.677 41.9795 129.823 45.2568 128.753 45.083L126.12 44.655C125.966 44.6259 125.827 44.5507 125.725 44.4412C125.622 44.3316 125.563 44.194 125.556 44.05Z" fill="#E98862"/>
<path d="M81.7932 18.8536C81.7932 18.8536 80.2414 17.6217 80.0267 14.9921C79.8605 12.9567 81.7932 14.387 81.7932 14.387C81.7932 14.387 81.689 12.9199 82.833 13.1355C83.977 13.3512 84.5122 14.9181 84.5122 14.9181" fill="#0C0C0C"/>
<path d="M88.7905 13.6727C88.7905 13.6727 94.4804 14.5885 91.8882 21.5843H90.3449" fill="#0C0C0C"/>
<path d="M92.8536 109.377C92.8536 109.377 94.6744 112.198 92.3453 114.331C90.0163 116.464 92.2854 117.827 92.2854 117.827L101.681 110.189L97.5208 105.883L92.8536 109.377Z" fill="#367CFF"/>
<path d="M76.8665 53.7778C76.8665 53.7778 75.8085 81.7597 75.943 83.1253C76.4518 88.2911 93.0258 111.699 93.0258 111.699L99.1973 106.866L91.3164 92.2232L86.3341 82.0189C86.3341 82.0189 87.1916 73.2429 89.5034 65.0935C90.6862 60.911 91.3981 56.6282 91.6278 52.3124L76.8665 53.7778Z" fill="#262626"/>
<path d="M92.5499 111.855C92.5499 111.855 91.8729 115.073 88.5875 115.253C85.3021 115.433 86.015 117.833 86.015 117.833H98.57V112.079L92.5499 111.855Z" fill="#367CFF"/>
<path d="M99.421 53.142C99.421 53.142 99.3816 52.1746 99.39 54.3693C99.421 62.5559 99.1237 113.909 99.1237 113.909L90.8736 113.846L85.876 52.809L99.421 53.142Z" fill="#262626"/>
<path d="M87.5703 73.6156L86.8937 64.1252C86.8937 64.1252 86.1987 68.0707 86.1987 71.4713C86.1987 73.1336 86.5721 79.7148 86.5721 79.7148L87.5703 73.6156Z" fill="#0A0A0A"/>
<path d="M88.671 86.8046L90.3871 107.901L88.7807 105.53L87.1387 83.6667L88.671 86.8046Z" fill="#0A0A0A"/>
<path d="M82.3828 28.8573C82.408 28.8543 82.6882 33.1193 88.0901 32.7476C91.8296 32.4905 93.163 28.8513 93.2487 28.8513C92.8456 28.7727 92.3472 28.6534 92.1491 28.6125C91.7176 28.5206 91.3267 28.3104 91.0286 28.0098C90.7305 27.7091 90.5392 27.3324 90.4803 26.9296C90.3708 26.3245 90.5564 23.2322 90.4993 22.6205L84.7591 23.7958C84.8391 25.0875 85.4006 28.0824 83.4331 28.6125C83.1056 28.7001 82.753 28.7807 82.3828 28.8573Z" fill="#E98862"/>
<path opacity="0.52" d="M84.6787 27.3886C84.7686 27.1228 84.8265 26.8488 84.8513 26.5714C84.9144 25.9385 84.9019 25.3012 84.8138 24.6707C85.9805 24.5263 87.0797 24.0845 87.9865 23.3958C88.0931 23.7569 88.6792 25.3348 88.5169 25.6777C88.2102 26.3264 86.7684 27.3886 84.6787 27.3886Z" fill="#0C0C0C"/>
<path d="M85.6973 26.3581C87.9706 26.3111 90.7705 25.1678 91.0151 22.3568L91.2358 19.8205C91.4803 17.0095 90.069 14.613 87.1836 14.4021C84.298 14.1908 81.9431 16.3117 81.6987 19.1227L81.6009 20.2456C81.5748 20.6316 81.5773 21.0189 81.6084 21.4046C81.6834 22.4248 81.8 23.9763 82.4722 25.0618C83.1065 26.0866 84.2451 26.3881 85.6973 26.3581Z" fill="#E98862"/>
<path opacity="0.52" d="M84.8367 23.7227C84.369 23.7134 83.9102 23.6034 83.4974 23.4016C83.4886 23.3977 83.4807 23.3923 83.4741 23.3857C83.4676 23.379 83.4627 23.3712 83.4595 23.3627C83.4563 23.3542 83.4551 23.3453 83.4557 23.3363C83.4564 23.3274 83.4591 23.3187 83.4635 23.3107C83.4679 23.3027 83.474 23.2956 83.4815 23.2898C83.489 23.2841 83.4976 23.2797 83.5069 23.2771C83.5163 23.2744 83.5261 23.2735 83.5358 23.2744C83.5455 23.2753 83.5549 23.2779 83.5635 23.2822C84.4544 23.6973 85.291 23.696 85.9828 23.2784C85.9967 23.2695 86.0112 23.2613 86.0261 23.2539C86.0435 23.2461 86.0636 23.2449 86.0819 23.2507C86.1003 23.2565 86.1154 23.2687 86.1239 23.2847C86.1324 23.3007 86.1336 23.3191 86.1273 23.3359C86.121 23.3527 86.1077 23.3665 86.0903 23.3743C86.0847 23.3771 86.0753 23.3827 86.0631 23.3903C85.6995 23.6106 85.2725 23.7263 84.8367 23.7227Z" fill="#0C0C0C"/>
<path opacity="0.52" d="M84.8124 24.3571C84.7281 24.3567 84.644 24.3496 84.561 24.3361C84.5419 24.333 84.5249 24.3231 84.5138 24.3086C84.5026 24.2941 84.4982 24.2761 84.5016 24.2586C84.5049 24.2411 84.5157 24.2255 84.5315 24.2153C84.5473 24.205 84.567 24.201 84.5861 24.204C85.0871 24.2844 85.3435 24.087 85.3543 24.0785C85.3689 24.0668 85.3879 24.0609 85.4072 24.062C85.4266 24.0632 85.4446 24.0714 85.4574 24.0847C85.4701 24.0981 85.4766 24.1156 85.4753 24.1333C85.474 24.151 85.4651 24.1676 85.4505 24.1793C85.2667 24.3045 85.0412 24.3673 84.8124 24.3571Z" fill="#0C0C0C"/>
<path d="M82.5543 20.434C82.7512 20.434 82.9108 20.2876 82.9108 20.1069C82.9108 19.9263 82.7512 19.7799 82.5543 19.7799C82.3574 19.7799 82.1978 19.9263 82.1978 20.1069C82.1978 20.2876 82.3574 20.434 82.5543 20.434Z" fill="#0C0C0C"/>
<path d="M85.8585 20.4546C86.0554 20.4546 86.215 20.3082 86.215 20.1276C86.215 19.947 86.0554 19.8005 85.8585 19.8005C85.6616 19.8005 85.502 19.947 85.502 20.1276C85.502 20.3082 85.6616 20.4546 85.8585 20.4546Z" fill="#0C0C0C"/>
<path d="M90.7612 23.2001C91.6381 23.2642 92.4238 22.4558 92.4938 21.6514C92.5638 20.8471 91.8915 20.3516 91.0146 20.2874L90.5159 20.7934L90.0073 23.1451L90.7612 23.2001Z" fill="#E98862"/>
<path d="M75.671 38.247C75.8412 40.0805 76.6689 51.5194 76.8324 53.7778H99.3779C99.5052 51.741 100.077 42.8343 100.56 38.8512C101.021 35.0503 101.926 33.0099 101.262 31.8862C100.179 30.0497 97.2187 29.1259 95.2001 28.8752C93.9673 28.7223 92.1133 28.6125 92.1133 28.6125C92.1133 28.6125 91.9565 31.5253 88.2133 31.6874C83.1178 31.9075 83.4581 28.6125 83.4328 28.6125C81.5829 28.6125 78.0816 29.0185 76.7381 29.8566C73.7167 31.7411 75.3098 34.3616 75.671 38.247Z" fill="#367CFF"/>
<path d="M89.9829 21.8524C89.9829 21.8524 89.9774 17.8534 88.6785 17.5266C87.814 17.3091 85.605 18.3188 83.6617 17.8534C82.8114 17.6497 81.9795 17.7951 81.869 18.1631C81.8253 18.3089 81.4439 16.1525 82.9104 14.6239C84.0779 13.407 87.6182 13.2607 89.1868 13.7797C93.5286 15.2167 91.1824 20.4735 91.1824 20.4735L90.8846 21.8339L89.9829 21.8524Z" fill="#0C0C0C"/>
<g opacity="0.52">
<path d="M84.3751 22.7501H84.3695C84.0869 22.7301 83.6152 22.6675 83.6313 22.4736C83.6451 22.313 84.2704 20.6124 84.3418 20.419C84.3448 20.4108 84.3496 20.4032 84.3558 20.3967C84.3621 20.3901 84.3696 20.3848 84.3781 20.3809C84.3866 20.377 84.3959 20.3748 84.4053 20.3742C84.4148 20.3736 84.4243 20.3747 84.4332 20.3775C84.4422 20.3803 84.4505 20.3847 84.4576 20.3904C84.4648 20.3961 84.4706 20.4031 84.4748 20.4108C84.479 20.4186 84.4815 20.4271 84.4821 20.4358C84.4828 20.4445 84.4815 20.4532 84.4785 20.4614C84.2008 21.2146 83.7846 22.3748 83.7753 22.4838C83.7992 22.5317 84.0879 22.5973 84.3805 22.618C84.3989 22.6196 84.416 22.6275 84.4282 22.6403C84.4405 22.653 84.4469 22.6696 84.4462 22.6865C84.4455 22.7035 84.4377 22.7196 84.4245 22.7314C84.4113 22.7433 84.3936 22.7501 84.3751 22.7503V22.7501Z" fill="#0C0C0C"/>
</g>
<path d="M83.5562 19.103C83.445 19.0602 83.328 19.0313 83.2084 19.0171C83.0844 19.0013 82.9587 19.0013 82.8348 19.0171C82.7101 19.0314 82.5885 19.063 82.4742 19.1107C82.3575 19.1589 82.2479 19.2202 82.1479 19.2934L82.14 19.2989C82.1141 19.3164 82.0819 19.3241 82.0501 19.3203C82.0182 19.3166 81.9891 19.3018 81.9688 19.2789C81.9486 19.256 81.9387 19.2269 81.9413 19.1975C81.9439 19.1681 81.9587 19.1408 81.9827 19.1212C82.0935 19.0267 82.2169 18.9455 82.3499 18.8794C82.4848 18.8117 82.6301 18.763 82.7808 18.7349C83.0884 18.6755 83.4079 18.6937 83.7051 18.7876C83.7284 18.7951 83.7498 18.8067 83.7681 18.8218C83.7865 18.8369 83.8014 18.8552 83.812 18.8756C83.8227 18.896 83.8289 18.9181 83.8302 18.9407C83.8315 18.9633 83.828 18.9859 83.8198 19.0072C83.8116 19.0285 83.7989 19.0482 83.7825 19.065C83.766 19.0818 83.7461 19.0955 83.7238 19.1053C83.7016 19.115 83.6775 19.1207 83.6529 19.1219C83.6283 19.1231 83.6036 19.1199 83.5804 19.1124C83.5759 19.1109 83.5715 19.1094 83.5672 19.1076L83.5562 19.103Z" fill="#0C0C0C"/>
<path d="M85.6491 18.8148C85.7988 18.7666 85.9554 18.7383 86.1139 18.7307C86.2679 18.7219 86.4225 18.7325 86.5734 18.7622C86.7241 18.7903 86.8693 18.839 87.0042 18.9067C87.1372 18.9729 87.2605 19.0542 87.3713 19.1487C87.3958 19.1682 87.4111 19.1956 87.414 19.2251C87.4169 19.2547 87.4071 19.2842 87.3867 19.3073C87.3664 19.3304 87.337 19.3453 87.3049 19.3489C87.2727 19.3525 87.2403 19.3445 87.2145 19.3265L87.2061 19.3208C87.1061 19.2476 86.9965 19.1863 86.8799 19.1381C86.7658 19.0904 86.6445 19.0587 86.52 19.0444C86.3961 19.0286 86.2705 19.0286 86.1466 19.0444C86.0269 19.0586 85.9098 19.0875 85.7986 19.1303L85.7881 19.1346C85.7655 19.1437 85.7412 19.1487 85.7166 19.1492C85.6919 19.1498 85.6674 19.1459 85.6444 19.1377C85.6214 19.1295 85.6004 19.1173 85.5826 19.1017C85.5647 19.0861 85.5504 19.0674 85.5405 19.0468C85.5305 19.0261 85.5251 19.0038 85.5245 18.9812C85.5239 18.9586 85.5282 18.9361 85.537 18.915C85.5459 18.8939 85.5593 18.8746 85.5763 18.8583C85.5933 18.8419 85.6136 18.8288 85.6362 18.8196C85.6402 18.818 85.6446 18.8162 85.6491 18.8148Z" fill="#0C0C0C"/>
<path d="M85.9538 14.8299C86.2177 13.9652 85.9124 13.1308 85.2719 12.9664C84.6314 12.802 83.8983 13.3698 83.6345 14.2345C83.3706 15.0993 83.6759 15.9336 84.3164 16.098C84.9569 16.2624 85.69 15.6947 85.9538 14.8299Z" fill="#0C0C0C"/>
<path d="M74.7932 56.7661C74.8862 56.7369 74.971 56.689 75.0415 56.6261C75.1119 56.5631 75.1663 56.4866 75.2006 56.402C75.2349 56.3175 75.2483 56.227 75.2399 56.1371C75.2314 56.0472 75.2013 55.9602 75.1518 55.8822L75.5866 56.5645C75.6716 56.7044 75.8114 56.8096 75.9777 56.8586C76.144 56.9077 76.3243 56.8971 76.4824 56.829C76.5627 56.7911 76.6337 56.7387 76.6911 56.6749C76.7485 56.611 76.7911 56.5372 76.8164 56.4577C76.8416 56.3783 76.849 56.2949 76.838 56.2128C76.8269 56.1307 76.7978 56.0515 76.7523 55.98L76.9489 56.2889C77.0256 56.4143 77.1472 56.5116 77.2931 56.5642C77.4391 56.6168 77.6003 56.6216 77.7496 56.5777C77.8427 56.5484 77.9275 56.5006 77.9979 56.4376C78.0684 56.3746 78.1227 56.2981 78.157 56.2136C78.1913 56.129 78.2048 56.0385 78.1963 55.9486C78.1879 55.8587 78.1578 55.7716 78.1083 55.6937L77.7634 55.1528C77.8522 55.2923 77.9978 55.3937 78.1682 55.4348C78.3385 55.4758 78.5196 55.4531 78.6717 55.3716C79.0201 55.2124 78.9971 54.7734 78.8225 54.499L78.1744 53.3918L78.6026 53.7028C78.7417 53.7997 78.9157 53.8445 79.0895 53.8283C79.2633 53.8121 79.4239 53.7359 79.5389 53.6153C79.5959 53.5511 79.638 53.477 79.6626 53.3974C79.6873 53.3178 79.6941 53.2344 79.6825 53.1524C79.6709 53.0703 79.6411 52.9913 79.5951 52.9201C79.5491 52.8489 79.4878 52.787 79.4149 52.7383L75.5193 50.4849L72.7084 50.6663C72.301 51.1497 72.0604 51.7338 72.0173 52.3435C71.9742 52.9533 72.1305 53.561 72.4664 54.0887L73.9924 56.4766C74.069 56.6021 74.1906 56.6995 74.3365 56.7523C74.4824 56.805 74.6437 56.8099 74.7932 56.7661Z" fill="#E98862"/>
<path d="M77.3246 54.4764C77.323 54.4631 77.3265 54.4498 77.3345 54.4386C77.3425 54.4275 77.3544 54.4192 77.3684 54.4153C77.3823 54.4114 77.3972 54.4121 77.4106 54.4173C77.4241 54.4224 77.4351 54.4317 77.4418 54.4435L77.8711 55.1934C77.8749 55.2001 77.8773 55.2074 77.878 55.2149C77.8787 55.2223 77.8779 55.2299 77.8754 55.2371C77.873 55.2442 77.869 55.2509 77.8638 55.2567C77.8585 55.2625 77.8521 55.2672 77.8449 55.2707C77.8376 55.2742 77.8297 55.2764 77.8215 55.277C77.8133 55.2777 77.8051 55.2769 77.7973 55.2747C77.7895 55.2725 77.7822 55.2688 77.7759 55.264C77.7696 55.2592 77.7644 55.2533 77.7606 55.2467L77.3313 54.4967C77.3278 54.4904 77.3256 54.4835 77.3246 54.4764Z" fill="#E98862"/>
<path d="M76.1688 55.0346C76.1673 55.0214 76.1709 55.0082 76.1788 54.9972C76.1868 54.9861 76.1987 54.9779 76.2125 54.974C76.2263 54.9701 76.2411 54.9707 76.2545 54.9756C76.2679 54.9806 76.279 54.9897 76.2859 55.0013L76.8835 56.026C76.8874 56.0327 76.8898 56.0399 76.8906 56.0474C76.8914 56.0549 76.8906 56.0624 76.8882 56.0696C76.8858 56.0768 76.882 56.0835 76.8768 56.0893C76.8716 56.0952 76.8652 56.1 76.8579 56.1035C76.8507 56.1071 76.8428 56.1093 76.8346 56.11C76.8265 56.1108 76.8182 56.11 76.8104 56.1079C76.8026 56.1057 76.7953 56.1021 76.7889 56.0973C76.7826 56.0926 76.7773 56.0867 76.7735 56.0801L76.1758 55.0554C76.1721 55.0489 76.1697 55.0419 76.1688 55.0346Z" fill="#E98862"/>
<path d="M74.913 55.6329C74.9114 55.6195 74.9149 55.6061 74.923 55.5949C74.9311 55.5837 74.9432 55.5755 74.9572 55.5717C74.9712 55.5679 74.9863 55.5687 74.9997 55.574C75.0131 55.5794 75.0241 55.5888 75.0307 55.6008L75.3006 56.0908C75.308 56.1044 75.3093 56.1201 75.3042 56.1345C75.299 56.1489 75.2878 56.1609 75.273 56.1677C75.2583 56.1746 75.2411 56.1758 75.2254 56.1711C75.2097 56.1663 75.1966 56.1561 75.1892 56.1425L74.9193 55.6524C74.9159 55.6463 74.9138 55.6397 74.913 55.6329Z" fill="#E98862"/>
<path opacity="0.2" d="M77.3246 54.4764C77.323 54.4631 77.3265 54.4498 77.3345 54.4386C77.3425 54.4275 77.3544 54.4192 77.3684 54.4153C77.3823 54.4114 77.3972 54.4121 77.4106 54.4173C77.4241 54.4224 77.4351 54.4317 77.4418 54.4435L77.8711 55.1934C77.8749 55.2001 77.8773 55.2074 77.878 55.2149C77.8787 55.2223 77.8779 55.2299 77.8754 55.2371C77.873 55.2442 77.869 55.2509 77.8638 55.2567C77.8585 55.2625 77.8521 55.2672 77.8449 55.2707C77.8376 55.2742 77.8297 55.2764 77.8215 55.277C77.8133 55.2777 77.8051 55.2769 77.7973 55.2747C77.7895 55.2725 77.7822 55.2688 77.7759 55.264C77.7696 55.2592 77.7644 55.2533 77.7606 55.2467L77.3313 54.4967C77.3278 54.4904 77.3256 54.4835 77.3246 54.4764Z" fill="#0C0C0C"/>
<path opacity="0.2" d="M76.1688 55.0346C76.1673 55.0214 76.1709 55.0082 76.1788 54.9972C76.1868 54.9861 76.1987 54.9779 76.2125 54.974C76.2263 54.9701 76.2411 54.9707 76.2545 54.9756C76.2679 54.9806 76.279 54.9897 76.2859 55.0013L76.8835 56.026C76.8874 56.0327 76.8898 56.0399 76.8906 56.0474C76.8914 56.0549 76.8906 56.0624 76.8882 56.0696C76.8858 56.0768 76.882 56.0835 76.8768 56.0893C76.8716 56.0952 76.8652 56.1 76.8579 56.1035C76.8507 56.1071 76.8428 56.1093 76.8346 56.11C76.8265 56.1108 76.8182 56.11 76.8104 56.1079C76.8026 56.1057 76.7953 56.1021 76.7889 56.0973C76.7826 56.0926 76.7773 56.0867 76.7735 56.0801L76.1758 55.0554C76.1721 55.0489 76.1697 55.0419 76.1688 55.0346Z" fill="#0C0C0C"/>
<path opacity="0.2" d="M74.913 55.6329C74.9114 55.6195 74.9149 55.6061 74.923 55.5949C74.9311 55.5837 74.9432 55.5755 74.9572 55.5717C74.9712 55.5679 74.9863 55.5687 74.9997 55.574C75.0131 55.5794 75.0241 55.5888 75.0307 55.6008L75.3006 56.0908C75.308 56.1044 75.3093 56.1201 75.3042 56.1345C75.299 56.1489 75.2878 56.1609 75.273 56.1677C75.2583 56.1746 75.2411 56.1758 75.2254 56.1711C75.2097 56.1663 75.1966 56.1561 75.1892 56.1425L74.9193 55.6524C74.9159 55.6463 74.9138 55.6397 74.913 55.6329Z" fill="#0C0C0C"/>
<path d="M80.7278 36.9174C80.7278 36.9174 78.9183 29.1359 76.8654 29.7839C75.2364 30.298 62.9988 39.5481 62.6274 39.8835C61.8094 40.6221 61.3447 41.6285 61.3356 42.6813C61.3265 43.7342 61.7737 44.7472 62.5789 45.4976L72.1039 55.4942L77.6011 50.7678L70.3726 43.6028L80.7278 36.9174Z" fill="#367CFF"/>
<path d="M75.796 40.2878C75.7814 40.2877 75.7673 40.2826 75.7566 40.2735C75.7459 40.2644 75.7394 40.2519 75.7382 40.2385L75.4963 37.162C75.4957 37.1551 75.4966 37.1481 75.499 37.1414C75.5014 37.1348 75.5051 37.1287 75.5101 37.1234C75.515 37.1181 75.5211 37.1138 75.5279 37.1106C75.5347 37.1075 75.5421 37.1056 75.5496 37.1051C75.5573 37.1044 75.5649 37.1052 75.5722 37.1073C75.5795 37.1095 75.5863 37.1129 75.5921 37.1175C75.5979 37.122 75.6027 37.1276 75.6061 37.1339C75.6095 37.1402 75.6115 37.147 75.612 37.154L75.8538 40.2306C75.8544 40.2375 75.8535 40.2445 75.8512 40.2512C75.8488 40.2578 75.845 40.2639 75.8401 40.2692C75.8351 40.2745 75.8291 40.2789 75.8223 40.282C75.8155 40.2851 75.8081 40.287 75.8005 40.2875L75.796 40.2878Z" fill="#0C0C0C"/>
<path d="M100.05 44.9789H100.045C100.03 44.9783 100.016 44.9721 100.005 44.9618C99.9952 44.9515 99.9897 44.9379 99.9903 44.9239L100.39 37.5557C100.392 37.5418 100.399 37.5289 100.41 37.5195C100.421 37.5102 100.436 37.5051 100.451 37.5054C100.459 37.5057 100.466 37.5074 100.473 37.5104C100.48 37.5134 100.486 37.5176 100.491 37.5228C100.497 37.5279 100.5 37.534 100.503 37.5406C100.506 37.5471 100.507 37.5541 100.506 37.5611L100.106 44.9289C100.105 44.9422 100.099 44.9548 100.089 44.9641C100.078 44.9734 100.064 44.9787 100.05 44.9789Z" fill="#0C0C0C"/>
<path d="M132.425 118H3.26433C3.2336 118 3.20412 117.989 3.18238 117.969C3.16065 117.949 3.14844 117.922 3.14844 117.894C3.14844 117.865 3.16065 117.838 3.18238 117.818C3.20412 117.799 3.2336 117.787 3.26433 117.787H132.425C132.456 117.787 132.485 117.799 132.507 117.818C132.528 117.838 132.541 117.865 132.541 117.894C132.541 117.922 132.528 117.949 132.507 117.969C132.485 117.989 132.456 118 132.425 118Z" fill="#3F3F3F"/>
</g>
<defs>
<clipPath id="clip0_301_7814">
<rect width="136" height="118" fill="white"/>
</clipPath>
</defs>
</svg>
