<svg width="18" height="7" viewBox="0 0 18 7" fill="none" xmlns="http://www.w3.org/2000/svg">
<path d="M1.36163 6.26443C1.66589 6.44346 2.07748 6.54394 2.50649 6.54394C2.93551 6.54394 3.3471 6.44346 3.65136 6.26443L9.48124 2.86173L15.2299 6.26443C15.5342 6.44346 15.9458 6.54395 16.3748 6.54395C16.8038 6.54395 17.2154 6.44346 17.5196 6.26443C17.6719 6.17507 17.7927 6.06876 17.8751 5.95163C17.9576 5.8345 18 5.70886 18 5.58197C18 5.45508 17.9576 5.32944 17.8751 5.21231C17.7927 5.09517 17.6719 4.98886 17.5196 4.89951L10.6342 0.823953C10.4833 0.73386 10.3036 0.662351 10.1058 0.613552C9.90787 0.564752 9.69561 0.539628 9.48124 0.539628C9.26686 0.539628 9.0546 0.564752 8.85671 0.613552C8.65882 0.662351 8.47922 0.73386 8.32825 0.823953L1.36163 4.8995C1.20942 4.98886 1.08861 5.09517 1.00617 5.21231C0.923721 5.32944 0.881273 5.45508 0.881273 5.58197C0.881273 5.70886 0.923721 5.8345 1.00617 5.95163C1.08861 6.06876 1.20942 6.17507 1.36163 6.26443Z" fill="white"/>
</svg>
