<svg width="24" height="22" viewBox="0 0 24 22" fill="none" xmlns="http://www.w3.org/2000/svg">
<path d="M0.655273 2.51304C0.655273 1.78528 0.913435 1.18489 1.42974 0.711871C1.94604 0.238829 2.61725 0.00231934 3.44334 0.00231934C4.25469 0.00231934 4.91112 0.235183 5.41269 0.700955C5.92899 1.18127 6.18715 1.80711 6.18715 2.57854C6.18715 3.27717 5.93638 3.85936 5.43481 4.32513C4.91851 4.80544 4.23993 5.0456 3.39908 5.0456H3.37696C2.56561 5.0456 1.90917 4.80544 1.40761 4.32513C0.906044 3.84482 0.655273 3.24078 0.655273 2.51304ZM0.942931 21.6164V7.03234H5.85524V21.6164H0.942931ZM8.57692 21.6164H13.4892V13.4729C13.4892 12.9635 13.5482 12.5705 13.6662 12.2939C13.8728 11.7991 14.1862 11.3806 14.6067 11.0386C15.0271 10.6965 15.5545 10.5255 16.1888 10.5255C17.841 10.5255 18.6671 11.6244 18.6671 13.8222V21.6164H23.5794V13.2546C23.5794 11.1004 23.0631 9.46665 22.0304 8.3532C20.9978 7.23975 19.6333 6.68302 17.9369 6.68302C16.0339 6.68302 14.5513 7.49082 13.4892 9.10642V9.15008H13.4671L13.4892 9.10642V7.03234H8.57692C8.60642 7.49809 8.62117 8.9463 8.62117 11.377C8.62117 13.8076 8.60642 17.2208 8.57692 21.6164Z" fill="white"/>
</svg>
