<svg width="24" height="13" viewBox="0 0 24 13" fill="none" xmlns="http://www.w3.org/2000/svg">
<path d="M0.655273 2.32775C0.655273 1.92548 0.913435 1.59361 1.42974 1.33215C1.94604 1.07067 2.61725 0.939941 3.44334 0.939941C4.25469 0.939941 4.91112 1.06866 5.41269 1.32612C5.92899 1.59161 6.18715 1.93755 6.18715 2.36396C6.18715 2.75013 5.93638 3.07193 5.43481 3.32939C4.91851 3.59489 4.23993 3.72763 3.39908 3.72763H3.37696C2.56561 3.72763 1.90917 3.59489 1.40761 3.32939C0.906044 3.0639 0.655273 2.73001 0.655273 2.32775ZM0.942931 12.8872V4.82581H5.85524V12.8872H0.942931ZM8.57692 12.8872H13.4892V8.38585C13.4892 8.10426 13.5482 7.88704 13.6662 7.73418C13.8728 7.46064 14.1862 7.22933 14.6067 7.04028C15.0271 6.85121 15.5545 6.75668 16.1888 6.75668C17.841 6.75668 18.6671 7.3641 18.6671 8.57894V12.8872H23.5794V8.26517C23.5794 7.07447 23.0631 6.17139 22.0304 5.55592C20.9978 4.94046 19.6333 4.63273 17.9369 4.63273C16.0339 4.63273 14.5513 5.07924 13.4892 5.97227V5.9964H13.4671L13.4892 5.97227V4.82581H8.57692C8.60642 5.08326 8.62117 5.88376 8.62117 7.22733C8.62117 8.57089 8.60642 10.4575 8.57692 12.8872Z" fill="white"/>
</svg>
