<svg width="27" height="21" viewBox="0 0 27 21" fill="none" xmlns="http://www.w3.org/2000/svg">
<path d="M26.4116 2.47412C25.4377 2.88735 24.4077 3.16052 23.3538 3.28513C24.4657 2.63546 25.299 1.61342 25.699 0.408584C24.6541 1.01692 23.5102 1.44553 22.3172 1.67579C21.5197 0.83002 20.4578 0.267033 19.2979 0.0751222C18.1381 -0.116789 16.9459 0.0732303 15.9083 0.615378C14.8708 1.15753 14.0466 2.02114 13.565 3.07077C13.0834 4.1204 12.9716 5.29667 13.2472 6.41512C11.1345 6.31061 9.06783 5.77259 7.18155 4.83601C5.29528 3.89943 3.63156 2.58525 2.29847 0.978824C1.8309 1.77737 1.58521 2.68172 1.58583 3.60193C1.58417 4.45651 1.79861 5.29823 2.21005 6.05215C2.62148 6.80606 3.21715 7.44879 3.94402 7.92309C3.09919 7.90061 2.27241 7.67889 1.534 7.27681V7.34017C1.54034 8.53754 1.96936 9.69602 2.74849 10.6196C3.52763 11.5433 4.60905 12.1754 5.80985 12.409C5.34761 12.5466 4.8677 12.6191 4.38457 12.6244C4.05013 12.6206 3.71653 12.5909 3.38687 12.5357C3.72882 13.5657 4.39056 14.4658 5.28 15.1109C6.16944 15.7559 7.24235 16.1137 8.34944 16.1345C6.47999 17.5732 4.17192 18.3583 1.79315 18.3648C1.36004 18.3662 0.92727 18.3408 0.497437 18.2888C2.92615 19.8224 5.75648 20.6366 8.64745 20.6331C10.6424 20.6534 12.6216 20.2847 14.4692 19.5485C16.3169 18.8123 17.996 17.7235 19.4086 16.3455C20.8211 14.9676 21.9388 13.3282 22.6963 11.5231C23.4537 9.71798 23.8358 7.78335 23.8202 5.8322C23.8202 5.61678 23.8202 5.38868 23.8202 5.16059C24.8369 4.41904 25.7139 3.50996 26.4116 2.47412Z" fill="white"/>
</svg>
