<svg width="24" height="14" viewBox="0 0 24 14" fill="none" xmlns="http://www.w3.org/2000/svg">
<path d="M18.4031 2.4023C18.1311 2.4023 17.8651 2.4509 17.6389 2.54195C17.4127 2.63299 17.2365 2.7624 17.1323 2.91381C17.0282 3.06521 17.001 3.23182 17.0541 3.39255C17.1071 3.55328 17.2381 3.70092 17.4305 3.8168C17.6229 3.93268 17.8679 4.0116 18.1348 4.04357C18.4016 4.07554 18.6781 4.05913 18.9295 3.99642C19.1808 3.93371 19.3956 3.8275 19.5467 3.69124C19.6979 3.55498 19.7785 3.39478 19.7785 3.2309C19.7785 3.01114 19.6336 2.80038 19.3757 2.64499C19.1177 2.4896 18.7679 2.4023 18.4031 2.4023ZM23.6756 4.0733C23.6533 3.5004 23.4752 2.93357 23.1484 2.3954C22.8569 1.93493 22.4033 1.51797 21.8188 1.17322C21.2512 0.819287 20.5575 0.54775 19.79 0.379147C18.899 0.176252 17.957 0.0664968 17.0047 0.0546133C15.7897 0.0131836 15.4 0.0131836 12.2824 0.0131836C9.16468 0.0131836 8.77497 0.0131836 7.56 0.0546133C6.60768 0.0664968 5.66571 0.176252 4.77472 0.379147C4.00868 0.549457 3.31552 0.820761 2.74594 1.17322C2.15842 1.51514 1.70768 1.93307 1.4278 2.3954C1.091 2.93215 0.908811 3.49961 0.889085 4.0733C0.820312 4.80523 0.820312 5.04 0.820312 6.91815C0.820312 8.7963 0.820312 9.03107 0.889085 9.76299C0.908811 10.3367 1.091 10.9041 1.4278 11.4409C1.70768 11.9032 2.15842 12.3212 2.74594 12.6631C3.31552 13.0155 4.00868 13.2868 4.77472 13.4572C5.66571 13.66 6.60768 13.7698 7.56 13.7817C8.77497 13.8231 9.16468 13.8231 12.2824 13.8231C15.4 13.8231 15.7897 13.8231 17.0047 13.7817C17.957 13.7698 18.899 13.66 19.79 13.4572C20.5575 13.2885 21.2512 13.017 21.8188 12.6631C22.4059 12.3196 22.8599 11.9023 23.1484 11.4409C23.4752 10.9027 23.6533 10.3359 23.6756 9.76299C23.6756 9.03107 23.7444 8.7963 23.7444 6.91815C23.7444 5.04 23.7444 4.80523 23.6756 4.0733ZM21.6125 9.68013C21.6041 10.1184 21.4723 10.5527 21.2228 10.9645C21.0397 11.265 20.7458 11.5365 20.3631 11.7585C19.9913 11.9867 19.5415 12.1635 19.045 12.2764C18.3615 12.4268 17.6406 12.5061 16.913 12.5112C15.7668 12.5457 15.3427 12.5526 12.3282 12.5526C9.31369 12.5526 8.88959 12.5526 7.74339 12.5112C6.98791 12.5197 6.23567 12.4496 5.51975 12.304C5.04497 12.1853 4.6158 12.009 4.25893 11.7861C3.87849 11.5643 3.58822 11.2926 3.41074 10.9921C3.1309 10.5744 2.97569 10.1303 2.95225 9.68013C2.95225 8.98964 2.88348 8.73415 2.88348 6.91815C2.88348 5.10214 2.88348 4.84666 2.95225 4.15616C2.95739 3.70807 3.09318 3.264 3.35343 2.84422C3.55521 2.55277 3.86494 2.29297 4.25893 2.08467C4.60716 1.84726 5.03753 1.6587 5.51975 1.53228C6.21842 1.3804 6.9548 1.30101 7.69754 1.29751C8.84375 1.29751 9.26784 1.25608 12.2824 1.25608C15.2969 1.25608 15.721 1.25608 16.8672 1.29751C17.5948 1.30253 18.3156 1.38192 18.9991 1.53228C19.52 1.64873 19.9875 1.83806 20.3631 2.08467C20.7387 2.29678 21.0322 2.5561 21.2228 2.84422C21.4775 3.26469 21.6094 3.70857 21.6125 4.15616C21.6698 4.84666 21.6812 5.10214 21.6812 6.91815C21.6812 8.73415 21.6698 8.98964 21.6125 9.68013ZM12.2824 3.3759C11.1199 3.37727 9.98418 3.58618 9.01872 3.97623C8.05326 4.36629 7.30139 4.91999 6.8581 5.56737C6.41481 6.21475 6.3 6.92676 6.52818 7.61343C6.75635 8.3001 7.31727 8.93062 8.14006 9.42533C8.96285 9.92003 10.0106 10.2567 11.1509 10.3928C12.2912 10.5289 13.4729 10.4584 14.5467 10.1901C15.6204 9.92179 16.5381 9.46776 17.1837 8.8854C17.8293 8.30303 18.1738 7.61844 18.1739 6.91815C18.1754 6.45214 18.0239 5.99054 17.7283 5.55991C17.4326 5.12928 16.9985 4.73812 16.451 4.40892C15.9034 4.07972 15.2533 3.81898 14.5379 3.64169C13.8225 3.46441 13.0559 3.37408 12.2824 3.3759ZM12.2824 9.2175C11.5275 9.2175 10.7895 9.08265 10.1618 8.82999C9.53415 8.57734 9.04493 8.21822 8.75604 7.79807C8.46715 7.37792 8.39156 6.9156 8.53884 6.46957C8.68611 6.02354 9.04963 5.61383 9.58343 5.29226C10.1172 4.97069 10.7973 4.7517 11.5377 4.66298C12.2781 4.57426 13.0456 4.61979 13.743 4.79382C14.4404 4.96786 15.0366 5.26257 15.456 5.6407C15.8754 6.01882 16.0992 6.46338 16.0992 6.91815C16.0992 7.2201 16.0005 7.5191 15.8087 7.79807C15.6169 8.07704 15.3357 8.33052 14.9813 8.54404C14.6269 8.75755 14.2061 8.92692 13.743 9.04247C13.2799 9.15803 12.7836 9.2175 12.2824 9.2175Z" fill="white"/>
</svg>
