<svg width="18" height="6" viewBox="0 0 18 6" fill="none" xmlns="http://www.w3.org/2000/svg">
<path d="M1.36138 5.23328C1.66565 5.3952 2.07723 5.48608 2.50625 5.48608C2.93527 5.48608 3.34685 5.3952 3.65111 5.23328L9.48099 2.15573L15.2297 5.23328C15.5339 5.3952 15.9455 5.48608 16.3745 5.48608C16.8036 5.48608 17.2151 5.3952 17.5194 5.23328C17.6716 5.15246 17.7924 5.05631 17.8749 4.95037C17.9573 4.84443 17.9998 4.7308 17.9998 4.61603C17.9998 4.50126 17.9573 4.38763 17.8749 4.28169C17.7924 4.17575 17.6716 4.0796 17.5194 3.99878L10.634 0.312674C10.483 0.23119 10.3034 0.166514 10.1055 0.122378C9.90763 0.078241 9.69537 0.0555173 9.48099 0.0555173C9.26662 0.0555173 9.05436 0.0782409 8.85647 0.122377C8.65858 0.166514 8.47897 0.23119 8.32801 0.312674L1.36138 3.99878C1.20918 4.0796 1.08837 4.17575 1.00592 4.28169C0.923477 4.38763 0.881029 4.50126 0.881029 4.61603C0.881029 4.7308 0.923477 4.84443 1.00592 4.95037C1.08837 5.05631 1.20918 5.15246 1.36138 5.23328Z" fill="white"/>
</svg>
