<svg width="18" height="11" viewBox="0 0 18 11" fill="none" xmlns="http://www.w3.org/2000/svg">
<path d="M1.36163 10.2974C1.66589 10.6048 2.07748 10.7773 2.50649 10.7773C2.93551 10.7773 3.3471 10.6048 3.65136 10.2974L9.48124 4.45538L15.2299 10.2974C15.5342 10.6048 15.9458 10.7773 16.3748 10.7773C16.8038 10.7773 17.2154 10.6048 17.5196 10.2974C17.6719 10.144 17.7927 9.96151 17.8751 9.7604C17.9576 9.5593 18 9.34359 18 9.12573C18 8.90787 17.9576 8.69217 17.8751 8.49106C17.7927 8.28996 17.6719 8.10743 17.5196 7.95402L10.6342 0.956733C10.4833 0.802053 10.3036 0.679281 10.1058 0.595496C9.90787 0.511713 9.69561 0.468577 9.48124 0.468577C9.26686 0.468577 9.0546 0.511713 8.85671 0.595496C8.65882 0.67928 8.47922 0.802053 8.32825 0.956733L1.36163 7.95402C1.20942 8.10743 1.08861 8.28996 1.00617 8.49106C0.923721 8.69217 0.881273 8.90787 0.881273 9.12573C0.881273 9.34359 0.923721 9.55929 1.00617 9.7604C1.08861 9.9615 1.20942 10.144 1.36163 10.2974Z" fill="white"/>
</svg>
