<svg width="27" height="14" viewBox="0 0 27 14" fill="none" xmlns="http://www.w3.org/2000/svg">
<path d="M26.4113 2.12344C25.4373 2.37599 24.4074 2.54294 23.3534 2.61909C24.4653 2.22205 25.2986 1.59742 25.6986 0.861083C24.6537 1.23287 23.5099 1.49482 22.3168 1.63554C21.5194 1.11865 20.4574 0.774574 19.2976 0.657287C18.1377 0.54 16.9455 0.65613 15.908 0.987466C14.8704 1.3188 14.0462 1.8466 13.5646 2.48809C13.083 3.12957 12.9712 3.84846 13.2469 4.532C11.1341 4.46812 9.06747 4.13931 7.18119 3.56692C5.29491 2.99453 3.63119 2.19136 2.29811 1.20959C1.83053 1.69762 1.58484 2.25032 1.58547 2.81271C1.58381 3.33499 1.79824 3.84941 2.20968 4.31017C2.62112 4.77093 3.21679 5.16373 3.94366 5.4536C3.09883 5.43986 2.27204 5.30436 1.53364 5.05863V5.09735C1.53997 5.82912 1.96899 6.53713 2.74813 7.10161C3.52726 7.66609 4.60869 8.05239 5.80948 8.19517C5.34724 8.27925 4.86734 8.32358 4.3842 8.32682C4.04976 8.32449 3.71616 8.30636 3.3865 8.27261C3.72845 8.9021 4.39019 9.45222 5.27963 9.84643C6.16907 10.2406 7.24198 10.4593 8.34907 10.4721C6.47962 11.3513 4.17155 11.8311 1.79278 11.8351C1.35967 11.836 0.926903 11.8204 0.49707 11.7886C2.92579 12.7259 5.75611 13.2235 8.64708 13.2214C10.6421 13.2338 12.6212 13.0084 14.4689 12.5585C16.3165 12.1086 17.9957 11.4431 19.4082 10.601C20.8208 9.75887 21.9384 8.75695 22.6959 7.65375C23.4534 6.55055 23.8354 5.3682 23.8198 4.17575C23.8198 4.04409 23.8198 3.90469 23.8198 3.76529C24.8366 3.31208 25.7135 2.7565 26.4113 2.12344Z" fill="white"/>
</svg>
