<svg width="111" height="132" viewBox="0 0 111 132" fill="none" xmlns="http://www.w3.org/2000/svg">
<path opacity="0.5" fill-rule="evenodd" clip-rule="evenodd" d="M106.824 37.1597C109.771 24.533 105.716 10.926 100.99 2.23026C100.594 1.5024 100.864 0.591646 101.591 0.196032C102.319 -0.199582 103.23 0.0697575 103.626 0.797618C108.555 9.86637 112.919 24.2452 109.745 37.8417C108.15 44.6753 104.652 51.2896 98.4086 56.876C92.9178 61.7889 85.3568 65.8596 75.2143 68.6187C74.2134 73.4474 72.5542 78.3109 70.2833 83.0219C60.0182 104.316 37.092 122.811 5.01555 121.253L11.3954 128.939C11.9245 129.576 11.8367 130.522 11.1993 131.051C10.5619 131.58 9.61621 131.492 9.08706 130.855L0.464256 120.467C-0.0648804 119.83 0.0229011 118.884 0.660317 118.355L11.0477 109.732C11.6851 109.203 12.6308 109.291 13.1599 109.928C13.6891 110.566 13.6013 111.511 12.9639 112.041L5.45923 118.27C36.0277 119.631 57.8003 102.009 67.5809 81.7192C69.5299 77.6759 70.9964 73.539 71.9611 69.4375C71.6301 69.5143 71.2965 69.5899 70.9604 69.6641C55.5433 73.0691 44.1618 71.1335 36.4584 66.3241C28.7467 61.5095 24.9099 53.9264 24.4194 46.473C23.9312 39.0529 26.76 31.6521 32.5055 27.2574C38.3151 22.8137 46.806 21.6644 57.1447 26.1814C67.6125 30.7548 73.5914 39.5111 75.5804 49.8484C76.5225 54.7446 76.5721 59.9942 75.7934 65.3393C84.8801 62.6945 91.5713 58.9681 96.4082 54.6403C102.159 49.4944 105.358 43.4377 106.824 37.1597ZM72.6207 66.1937C73.5616 60.703 73.5818 55.3383 72.6345 50.4152C70.8068 40.9163 65.3894 33.0573 55.9436 28.9305C46.3686 24.7471 39.0845 26.0021 34.3281 29.6403C29.5076 33.3275 26.9793 39.686 27.413 46.276C27.8444 52.8325 31.2086 59.5099 38.0471 63.7793C44.8939 68.0539 55.4118 70.0258 70.3134 66.7347C71.0977 66.5615 71.8668 66.3811 72.6207 66.1937Z" fill="#D26D60"/>
</svg>
