<svg width="24" height="25" viewBox="0 0 24 25" fill="none" xmlns="http://www.w3.org/2000/svg">
<path d="M18.4031 4.49248C18.1311 4.49248 17.8651 4.57592 17.6389 4.73224C17.4127 4.88855 17.2365 5.11074 17.1323 5.37068C17.0282 5.63063 17.001 5.91667 17.0541 6.19263C17.1071 6.46859 17.2381 6.72207 17.4305 6.92103C17.6229 7.11999 17.8679 7.25548 18.1348 7.31037C18.4016 7.36526 18.6781 7.33709 18.9295 7.22941C19.1808 7.12174 19.3956 6.9394 19.5467 6.70545C19.6979 6.47151 19.7785 6.19646 19.7785 5.91509C19.7785 5.53779 19.6336 5.17595 19.3757 4.90916C19.1177 4.64236 18.7679 4.49248 18.4031 4.49248ZM23.6756 7.36141C23.6533 6.37779 23.4752 5.40462 23.1484 4.48063C22.8569 3.69005 22.4033 2.97418 21.8188 2.38228C21.2512 1.77462 20.5575 1.30842 19.79 1.01894C18.899 0.670596 17.957 0.482158 17.0047 0.461755C15.7897 0.390625 15.4 0.390625 12.2824 0.390625C9.16468 0.390625 8.77497 0.390625 7.56 0.461755C6.60768 0.482158 5.66571 0.670596 4.77472 1.01894C4.00868 1.31135 3.31552 1.77715 2.74594 2.38228C2.15842 2.96932 1.70768 3.68686 1.4278 4.48063C1.091 5.40217 0.908811 6.37644 0.889085 7.36141C0.820312 8.61805 0.820312 9.02112 0.820312 12.2457C0.820312 15.4703 0.820312 15.8734 0.889085 17.13C0.908811 18.115 1.091 19.0892 1.4278 20.0108C1.70768 20.8046 2.15842 21.5221 2.74594 22.1091C3.31552 22.7143 4.00868 23.1801 4.77472 23.4725C5.66571 23.8208 6.60768 24.0093 7.56 24.0297C8.77497 24.1008 9.16468 24.1008 12.2824 24.1008C15.4 24.1008 15.7897 24.1008 17.0047 24.0297C17.957 24.0093 18.899 23.8208 19.79 23.4725C20.5575 23.183 21.2512 22.7168 21.8188 22.1091C22.4059 21.5194 22.8599 20.8029 23.1484 20.0108C23.4752 19.0868 23.6533 18.1136 23.6756 17.13C23.6756 15.8734 23.7444 15.4703 23.7444 12.2457C23.7444 9.02112 23.7444 8.61805 23.6756 7.36141ZM21.6125 16.9877C21.6041 17.7403 21.4723 18.4859 21.2228 19.1928C21.0397 19.7087 20.7458 20.1749 20.3631 20.5561C19.9913 20.9479 19.5415 21.2513 19.045 21.4452C18.3615 21.7034 17.6406 21.8397 16.913 21.8483C15.7668 21.9076 15.3427 21.9195 12.3282 21.9195C9.31369 21.9195 8.88959 21.9195 7.74339 21.8483C6.98791 21.863 6.23567 21.7426 5.51975 21.4927C5.04497 21.2889 4.6158 20.9862 4.25893 20.6035C3.87849 20.2227 3.58822 19.7561 3.41074 19.2402C3.1309 18.5232 2.97569 17.7606 2.95225 16.9877C2.95225 15.8022 2.88348 15.3636 2.88348 12.2457C2.88348 9.12782 2.88348 8.68918 2.95225 7.50367C2.95739 6.73434 3.09318 5.97193 3.35343 5.25121C3.55521 4.75082 3.86494 4.30477 4.25893 3.94715C4.60716 3.53953 5.03753 3.2158 5.51975 2.99874C6.21842 2.73798 6.9548 2.60169 7.69754 2.59567C8.84375 2.59567 9.26784 2.52454 12.2824 2.52454C15.2969 2.52454 15.721 2.52454 16.8672 2.59567C17.5948 2.6043 18.3156 2.74059 18.9991 2.99874C19.52 3.19868 19.9875 3.52374 20.3631 3.94715C20.7387 4.31131 21.0322 4.75653 21.2228 5.25121C21.4775 5.9731 21.6094 6.7352 21.6125 7.50367C21.6698 8.68918 21.6812 9.12782 21.6812 12.2457C21.6812 15.3636 21.6698 15.8022 21.6125 16.9877ZM12.2824 6.16405C11.1199 6.16639 9.98418 6.52507 9.01872 7.19475C8.05326 7.86444 7.30139 8.81508 6.8581 9.92656C6.41481 11.038 6.3 12.2605 6.52818 13.4394C6.75635 14.6184 7.31727 15.7009 8.14006 16.5503C8.96285 17.3996 10.0106 17.9777 11.1509 18.2114C12.2912 18.4451 13.4729 18.3239 14.5467 17.8633C15.6204 17.4026 16.5381 16.6231 17.1837 15.6233C17.8293 14.6234 18.1738 13.448 18.1739 12.2457C18.1754 11.4456 18.0239 10.6531 17.7283 9.91376C17.4326 9.17442 16.9985 8.50283 16.451 7.93763C15.9034 7.37243 15.2533 6.92476 14.5379 6.62039C13.8225 6.31601 13.0559 6.16092 12.2824 6.16405ZM12.2824 16.1934C11.5275 16.1934 10.7895 15.9619 10.1618 15.5281C9.53415 15.0944 9.04493 14.4778 8.75604 13.7564C8.46715 13.0351 8.39156 12.2413 8.53884 11.4755C8.68611 10.7098 9.04963 10.0063 9.58343 9.45423C10.1172 8.90213 10.7973 8.52614 11.5377 8.37382C12.2781 8.22149 13.0456 8.29967 13.743 8.59847C14.4404 8.89726 15.0366 9.40326 15.456 10.0525C15.8754 10.7017 16.0992 11.4649 16.0992 12.2457C16.0992 12.7641 16.0005 13.2775 15.8087 13.7564C15.6169 14.2354 15.3357 14.6706 14.9813 15.0372C14.6269 15.4038 14.2061 15.6946 13.743 15.8929C13.2799 16.0913 12.7836 16.1934 12.2824 16.1934Z" fill="white"/>
</svg>
