<svg width="111" height="132" viewBox="0 0 111 132" fill="none" xmlns="http://www.w3.org/2000/svg">
<path opacity="0.5" fill-rule="evenodd" clip-rule="evenodd" d="M106.824 37.1597C109.771 24.533 105.716 10.9259 100.99 2.23023C100.594 1.50237 100.864 0.591611 101.591 0.195997C100.99 2.23026 103.23 0.0697223 103.626 0.797583C108.555 9.86634 112.919 24.2452 109.745 37.8417C108.15 44.6753 104.652 51.2896 98.4086 56.8759C92.9177 61.7889 85.3568 65.8595 75.2143 68.6186C74.2134 73.4474 72.5542 78.3108 70.2832 83.0218C60.0182 104.316 37.092 122.811 5.0155 121.253L11.3953 128.938C11.9245 129.576 11.8367 130.522 11.1993 131.051C10.5618 131.58 9.61616 131.492 9.08701 130.855L0.464206 120.467C-0.0649303 119.83 0.0228512 118.884 0.660267 118.355L11.0476 109.732C11.685 109.203 12.6307 109.291 13.1599 109.928C13.689 110.566 13.6012 111.511 12.9638 112.041L5.45918 118.27C36.0276 119.631 57.8002 102.009 67.5808 81.7191C69.5299 77.6759 70.9963 73.539 71.961 69.4374C71.63 69.5143 71.2964 69.5899 70.9603 69.6641C55.5432 73.069 44.1617 71.1334 36.4583 66.324C28.7466 61.5095 24.9099 53.9264 24.4194 46.4729C23.9311 39.0529 26.76 31.652 32.5054 27.2574C38.3151 22.8136 46.8059 21.6644 57.1446 26.1813C67.6125 30.7548 73.5914 39.511 75.5804 49.8483C76.5225 54.7445 76.5721 59.9941 75.7934 65.3393C84.8801 62.6944 91.5713 58.968 96.4082 54.6402C102.159 49.4944 105.358 43.4377 106.824 37.1597ZM72.6207 66.1937C73.5615 60.703 73.5817 55.3383 72.6344 50.4152C70.8067 40.9163 65.3893 33.0573 55.9435 28.9304C46.3685 24.7471 39.0845 26.0021 34.3281 29.6402C29.5075 33.3274 26.9793 39.686 27.4129 46.2759C27.8444 52.8324 31.2086 59.5098 38.0471 63.7793C44.8938 68.0538 55.4117 70.0258 70.3134 66.7347C71.0977 66.5615 71.8667 66.3811 72.6207 66.1937Z" fill="#E57300"/>
</svg>
