<svg width="27" height="23" viewBox="0 0 27 23" fill="none" xmlns="http://www.w3.org/2000/svg">
<path d="M26.4113 3.01501C25.4373 3.44861 24.4074 3.73524 23.3534 3.86599C24.4653 3.1843 25.2986 2.11189 25.6986 0.847674C24.6537 1.48599 23.5099 1.93573 22.3168 2.17733C21.5194 1.28988 20.4574 0.699147 19.2976 0.497778C18.1377 0.296408 16.9455 0.495793 15.908 1.06466C14.8704 1.63353 14.0462 2.5397 13.5646 3.64106C13.083 4.74242 12.9712 5.97667 13.2469 7.15024C11.1341 7.04058 9.06747 6.47604 7.18119 5.4933C5.29491 4.51057 3.63119 3.13161 2.29811 1.44602C1.83053 2.28393 1.58484 3.23284 1.58547 4.1984C1.58381 5.0951 1.79824 5.9783 2.20968 6.76938C2.62112 7.56045 3.21679 8.23485 3.94366 8.73253C3.09883 8.70894 2.27204 8.4763 1.53364 8.0544V8.12089C1.53997 9.37726 1.96899 10.5928 2.74813 11.562C3.52726 12.5311 4.60869 13.1944 5.80948 13.4395C5.34724 13.5839 4.86734 13.66 4.3842 13.6655C4.04976 13.6615 3.71616 13.6304 3.3865 13.5725C3.72845 14.6532 4.39019 15.5977 5.27963 16.2745C6.16907 16.9514 7.24198 17.3268 8.34907 17.3487C6.47962 18.8582 4.17155 19.682 1.79278 19.6889C1.35967 19.6903 0.926903 19.6637 0.49707 19.6091C2.92579 21.2183 5.75611 22.0726 8.64708 22.069C10.6421 22.0902 12.6212 21.7033 14.4689 20.9309C16.3165 20.1584 17.9957 19.0159 19.4082 17.5701C20.8208 16.1242 21.9384 14.404 22.6959 12.51C23.4534 10.6159 23.8354 8.5859 23.8198 6.5386C23.8198 6.31255 23.8198 6.07322 23.8198 5.83388C24.8366 5.05578 25.7135 4.1019 26.4113 3.01501Z" fill="white"/>
</svg>
