<svg width="24" height="14" viewBox="0 0 24 14" fill="none" xmlns="http://www.w3.org/2000/svg">
<path d="M0.655273 2.14723C0.655273 1.70246 0.913435 1.33553 1.42974 1.04644C1.94604 0.757337 2.61725 0.612793 3.44334 0.612793C4.25469 0.612793 4.91112 0.755109 5.41269 1.03977C5.92899 1.33331 6.18715 1.7158 6.18715 2.18726C6.18715 2.61423 5.93638 2.97003 5.43481 3.25469C4.91851 3.54824 4.23993 3.69501 3.39908 3.69501H3.37696C2.56561 3.69501 1.90917 3.54824 1.40761 3.25469C0.906044 2.96115 0.655273 2.59199 0.655273 2.14723ZM0.942931 13.8223V4.90922H5.85524V13.8223H0.942931ZM8.57692 13.8223H13.4892V8.84538C13.4892 8.53404 13.5482 8.29386 13.6662 8.12486C13.8728 7.82242 14.1862 7.56667 14.6067 7.35764C15.0271 7.1486 15.5545 7.04408 16.1888 7.04408C17.841 7.04408 18.6671 7.71567 18.6671 9.05887V13.8223H23.5794V8.71195C23.5794 7.39544 23.0631 6.39695 22.0304 5.71646C20.9978 5.03597 19.6333 4.69573 17.9369 4.69573C16.0339 4.69573 14.5513 5.18942 13.4892 6.17679V6.20348H13.4671L13.4892 6.17679V4.90922H8.57692C8.60642 5.19386 8.62117 6.07894 8.62117 7.56446C8.62117 9.04997 8.60642 11.1359 8.57692 13.8223Z" fill="white"/>
</svg>
