<svg width="24" height="13" viewBox="0 0 24 13" fill="none" xmlns="http://www.w3.org/2000/svg">
<path d="M18.4031 2.5578C18.1311 2.5578 17.8651 2.60175 17.6389 2.6841C17.4127 2.76644 17.2365 2.88349 17.1323 3.02042C17.0282 3.15736 17.001 3.30804 17.0541 3.45342C17.1071 3.59879 17.2381 3.73232 17.4305 3.83713C17.6229 3.94194 17.8679 4.01332 18.1348 4.04223C18.4016 4.07115 18.6781 4.05631 18.9295 3.99959C19.1808 3.94286 19.3956 3.84681 19.5467 3.72357C19.6979 3.60033 19.7785 3.45543 19.7785 3.30721C19.7785 3.10846 19.6336 2.91784 19.3757 2.77729C19.1177 2.63675 18.7679 2.5578 18.4031 2.5578ZM23.6756 4.06912C23.6533 3.55096 23.4752 3.0383 23.1484 2.55155C22.8569 2.13508 22.4033 1.75797 21.8188 1.44616C21.2512 1.12605 20.5575 0.880458 19.79 0.727966C18.899 0.544459 17.957 0.445191 17.0047 0.434444C15.7897 0.396973 15.4 0.396973 12.2824 0.396973C9.16468 0.396973 8.77497 0.396973 7.56 0.434444C6.60768 0.445191 5.66571 0.544459 4.77472 0.727966C4.00868 0.882001 3.31552 1.12738 2.74594 1.44616C2.15842 1.7554 1.70768 2.1334 1.4278 2.55155C1.091 3.03701 0.908811 3.55025 0.889085 4.06912C0.820312 4.73111 0.820312 4.94344 0.820312 6.64212C0.820312 8.34081 0.820312 8.55314 0.889085 9.21513C0.908811 9.734 1.091 10.2472 1.4278 10.7327C1.70768 11.1508 2.15842 11.5288 2.74594 11.8381C3.31552 12.1569 4.00868 12.4022 4.77472 12.5563C5.66571 12.7398 6.60768 12.8391 7.56 12.8498C8.77497 12.8873 9.16468 12.8873 12.2824 12.8873C15.4 12.8873 15.7897 12.8873 17.0047 12.8498C17.957 12.8391 18.899 12.7398 19.79 12.5563C20.5575 12.4038 21.2512 12.1582 21.8188 11.8381C22.4059 11.5274 22.8599 11.15 23.1484 10.7327C23.4752 10.2459 23.6533 9.73329 23.6756 9.21513C23.6756 8.55314 23.7444 8.34081 23.7444 6.64212C23.7444 4.94344 23.7444 4.73111 23.6756 4.06912ZM21.6125 9.14019C21.6041 9.53661 21.4723 9.92939 21.2228 10.3018C21.0397 10.5736 20.7458 10.8191 20.3631 11.02C19.9913 11.2264 19.5415 11.3862 19.045 11.4884C18.3615 11.6244 17.6406 11.6962 16.913 11.7007C15.7668 11.7319 15.3427 11.7382 12.3282 11.7382C9.31369 11.7382 8.88959 11.7382 7.74339 11.7007C6.98791 11.7084 6.23567 11.645 5.51975 11.5133C5.04497 11.406 4.6158 11.2465 4.25893 11.045C3.87849 10.8443 3.58822 10.5985 3.41074 10.3268C3.1309 9.94903 2.97569 9.54733 2.95225 9.14019C2.95225 8.51567 2.88348 8.2846 2.88348 6.64212C2.88348 4.99965 2.88348 4.76858 2.95225 4.14406C2.95739 3.73879 3.09318 3.33716 3.35343 2.95748C3.55521 2.69388 3.86494 2.45891 4.25893 2.27052C4.60716 2.05579 5.03753 1.88525 5.51975 1.77091C6.21842 1.63354 6.9548 1.56174 7.69754 1.55857C8.84375 1.55857 9.26784 1.5211 12.2824 1.5211C15.2969 1.5211 15.721 1.5211 16.8672 1.55857C17.5948 1.56312 18.3156 1.63492 18.9991 1.77091C19.52 1.87623 19.9875 2.04747 20.3631 2.27052C20.7387 2.46236 21.0322 2.6969 21.2228 2.95748C21.4775 3.33777 21.6094 3.73924 21.6125 4.14406C21.6698 4.76858 21.6812 4.99965 21.6812 6.64212C21.6812 8.2846 21.6698 8.51567 21.6125 9.14019ZM12.2824 3.43836C11.1199 3.4396 9.98418 3.62854 9.01872 3.98133C8.05326 4.33411 7.30139 4.8349 6.8581 5.42042C6.41481 6.00594 6.3 6.64991 6.52818 7.27097C6.75635 7.89202 7.31727 8.4623 8.14006 8.90973C8.96285 9.35716 10.0106 9.66166 11.1509 9.78478C12.2912 9.90789 13.4729 9.84408 14.5467 9.60141C15.6204 9.35874 16.5381 8.94811 17.1837 8.42139C17.8293 7.89467 18.1738 7.2755 18.1739 6.64212C18.1754 6.22064 18.0239 5.80315 17.7283 5.41368C17.4326 5.0242 16.9985 4.67041 16.451 4.37267C15.9034 4.07492 15.2533 3.8391 14.5379 3.67876C13.8225 3.51841 13.0559 3.43671 12.2824 3.43836ZM12.2824 8.72176C11.5275 8.72176 10.7895 8.59979 10.1618 8.37128C9.53415 8.14277 9.04493 7.81797 8.75604 7.43797C8.46715 7.05796 8.39156 6.63982 8.53884 6.23641C8.68611 5.833 9.04963 5.46244 9.58343 5.1716C10.1172 4.88076 10.7973 4.68269 11.5377 4.60245C12.2781 4.52221 13.0456 4.56339 13.743 4.72079C14.4404 4.87819 15.0366 5.14475 15.456 5.48674C15.8754 5.82873 16.0992 6.23081 16.0992 6.64212C16.0992 6.91523 16.0005 7.18565 15.8087 7.43797C15.6169 7.69028 15.3357 7.91954 14.9813 8.11265C14.6269 8.30576 14.2061 8.45895 13.743 8.56346C13.2799 8.66797 12.7836 8.72176 12.2824 8.72176Z" fill="white"/>
</svg>
