<svg width="24" height="24" viewBox="0 0 24 24" fill="none" xmlns="http://www.w3.org/2000/svg">
<path d="M0.655273 3.05585C0.655273 2.29222 0.913435 1.66224 1.42974 1.16591C1.94604 0.669553 2.61725 0.421387 3.44334 0.421387C4.25469 0.421387 4.91112 0.665727 5.41269 1.15445C5.92899 1.65844 6.18715 2.31513 6.18715 3.12457C6.18715 3.85764 5.93638 4.46852 5.43481 4.95724C4.91851 5.46123 4.23993 5.71322 3.39908 5.71322H3.37696C2.56561 5.71322 1.90917 5.46123 1.40761 4.95724C0.906044 4.45326 0.655273 3.81945 0.655273 3.05585ZM0.942931 23.1007V7.79788H5.85524V23.1007H0.942931ZM8.57692 23.1007H13.4892V14.5559C13.4892 14.0213 13.5482 13.609 13.6662 13.3188C13.8728 12.7995 14.1862 12.3605 14.6067 12.0016C15.0271 11.6427 15.5545 11.4632 16.1888 11.4632C17.841 11.4632 18.6671 12.6163 18.6671 14.9224V23.1007H23.5794V14.3268C23.5794 12.0665 23.0631 10.3522 22.0304 9.18384C20.9978 8.01551 19.6333 7.43135 17.9369 7.43135C16.0339 7.43135 14.5513 8.27896 13.4892 9.97418V10.02H13.4671L13.4892 9.97418V7.79788H8.57692C8.60642 8.28659 8.62117 9.80617 8.62117 12.3566C8.62117 14.9071 8.60642 18.4884 8.57692 23.1007Z" fill="white"/>
</svg>
