<svg width="24" height="23" viewBox="0 0 24 23" fill="none" xmlns="http://www.w3.org/2000/svg">
<path d="M18.4031 3.9294C18.1311 3.9294 17.8651 4.00891 17.6389 4.15789C17.4127 4.30686 17.2365 4.51861 17.1323 4.76635C17.0282 5.01409 17.001 5.28669 17.0541 5.54969C17.1071 5.81269 17.2381 6.05426 17.4305 6.24388C17.6229 6.43349 17.8679 6.56261 18.1348 6.61492C18.4016 6.66724 18.6781 6.64039 18.9295 6.53777C19.1808 6.43516 19.3956 6.26138 19.5467 6.03842C19.6979 5.81546 19.7785 5.55334 19.7785 5.28519C19.7785 4.92561 19.6336 4.58076 19.3757 4.3265C19.1177 4.07224 18.7679 3.9294 18.4031 3.9294ZM23.6756 6.66357C23.6533 5.72616 23.4752 4.79869 23.1484 3.9181C22.8569 3.16465 22.4033 2.48241 21.8188 1.91831C21.2512 1.33919 20.5575 0.894886 19.79 0.61901C18.899 0.287023 17.957 0.107436 17.0047 0.0879921C15.7897 0.0202026 15.4 0.0202026 12.2824 0.0202026C9.16468 0.0202026 8.77497 0.0202026 7.56 0.0879921C6.60768 0.107436 5.66571 0.287023 4.77472 0.61901C4.00868 0.897679 3.31552 1.3416 2.74594 1.91831C2.15842 2.47777 1.70768 3.16161 1.4278 3.9181C1.091 4.79636 0.908811 5.72486 0.889085 6.66357C0.820312 7.86119 0.820312 8.24533 0.820312 11.3185C0.820312 14.3916 0.820312 14.7757 0.889085 15.9733C0.908811 16.912 1.091 17.8405 1.4278 18.7188C1.70768 19.4753 2.15842 20.1591 2.74594 20.7186C3.31552 21.2953 4.00868 21.7392 4.77472 22.0179C5.66571 22.3499 6.60768 22.5295 7.56 22.5489C8.77497 22.6167 9.16468 22.6167 12.2824 22.6167C15.4 22.6167 15.7897 22.6167 17.0047 22.5489C17.957 22.5295 18.899 22.3499 19.79 22.0179C20.5575 21.742 21.2512 21.2977 21.8188 20.7186C22.4059 20.1566 22.8599 19.4737 23.1484 18.7188C23.4752 17.8382 23.6533 16.9107 23.6756 15.9733C23.6756 14.7757 23.7444 14.3916 23.7444 11.3185C23.7444 8.24533 23.7444 7.86119 23.6756 6.66357ZM21.6125 15.8378C21.6041 16.5549 21.4723 17.2655 21.2228 17.9392C21.0397 18.4309 20.7458 18.8752 20.3631 19.2385C19.9913 19.6119 19.5415 19.9011 19.045 20.0859C18.3615 20.3319 17.6406 20.4618 16.913 20.47C15.7668 20.5265 15.3427 20.5378 12.3282 20.5378C9.31369 20.5378 8.88959 20.5378 7.74339 20.47C6.98791 20.484 6.23567 20.3693 5.51975 20.1311C5.04497 19.9368 4.6158 19.6484 4.25893 19.2837C3.87849 18.9208 3.58822 18.4761 3.41074 17.9844C3.1309 17.301 2.97569 16.5743 2.95225 15.8378C2.95225 14.7079 2.88348 14.2899 2.88348 11.3185C2.88348 8.34701 2.88348 7.92898 2.95225 6.79915C2.95739 6.06596 3.09318 5.33936 3.35343 4.65248C3.55521 4.1756 3.86494 3.7505 4.25893 3.40968C4.60716 3.02121 5.03753 2.71268 5.51975 2.50582C6.21842 2.25731 6.9548 2.12742 7.69754 2.12168C8.84375 2.12168 9.26784 2.05389 12.2824 2.05389C15.2969 2.05389 15.721 2.05389 16.8672 2.12168C17.5948 2.1299 18.3156 2.25979 18.9991 2.50582C19.52 2.69636 19.9875 3.00616 20.3631 3.40968C20.7387 3.75674 21.0322 4.18105 21.2228 4.65248C21.4775 5.34047 21.6094 6.06678 21.6125 6.79915C21.6698 7.92898 21.6812 8.34701 21.6812 11.3185C21.6812 14.2899 21.6698 14.7079 21.6125 15.8378ZM12.2824 5.52245C11.1199 5.52468 9.98418 5.86651 9.01872 6.50474C8.05326 7.14297 7.30139 8.04896 6.8581 9.10824C6.41481 10.1675 6.3 11.3325 6.52818 12.4561C6.75635 13.5797 7.31727 14.6114 8.14006 15.4208C8.96285 16.2303 10.0106 16.7812 11.1509 17.0039C12.2912 17.2266 13.4729 17.1112 14.5467 16.6722C15.6204 16.2332 16.5381 15.4903 17.1837 14.5374C17.8293 13.5845 18.1738 12.4643 18.1739 11.3185C18.1754 10.5559 18.0239 9.80065 17.7283 9.09604C17.4326 8.39142 16.9985 7.75138 16.451 7.21273C15.9034 6.67407 15.2533 6.24743 14.5379 5.95735C13.8225 5.66727 13.0559 5.51947 12.2824 5.52245ZM12.2824 15.0808C11.5275 15.0808 10.7895 14.8601 10.1618 14.4467C9.53415 14.0333 9.04493 13.4457 8.75604 12.7582C8.46715 12.0708 8.39156 11.3143 8.53884 10.5845C8.68611 9.85464 9.04963 9.18426 9.58343 8.65809C10.1172 8.13192 10.7973 7.7736 11.5377 7.62843C12.2781 7.48326 13.0456 7.55776 13.743 7.84252C14.4404 8.12729 15.0366 8.60951 15.456 9.22822C15.8754 9.84693 16.0992 10.5743 16.0992 11.3185C16.0992 11.8125 16.0005 12.3018 15.8087 12.7582C15.6169 13.2147 15.3357 13.6294 14.9813 13.9788C14.6269 14.3282 14.2061 14.6053 13.743 14.7944C13.2799 14.9835 12.7836 15.0808 12.2824 15.0808Z" fill="white"/>
</svg>
