<svg width="56" height="56" viewBox="0 0 56 56" fill="none" xmlns="http://www.w3.org/2000/svg">
<path d="M54.7657 38.4437C55.0449 38.895 55.1208 39.4308 54.9769 39.934C54.8331 40.4372 54.4811 40.867 53.9979 41.1295L28.5811 54.928C28.261 55.106 27.895 55.2 27.5221 55.2C27.1491 55.2 26.7832 55.106 26.463 54.928L1.04621 41.1295C0.607257 40.8479 0.298553 40.4227 0.18171 39.9386C0.0648667 39.4545 0.148479 38.9472 0.415857 38.5179C0.683236 38.0887 1.11471 37.769 1.62417 37.6228C2.13362 37.4766 2.68358 37.5146 3.16427 37.7292L27.5221 50.9363L51.8799 37.7292C52.3648 37.4694 52.9404 37.3987 53.4811 37.5326C54.0218 37.6665 54.4836 37.9941 54.7657 38.4437ZM51.8799 25.9019L27.5221 39.109L3.16427 25.9019C2.68358 25.6873 2.13362 25.6493 1.62417 25.7955C1.11471 25.9417 0.683236 26.2614 0.415857 26.6906C0.148479 27.1199 0.0648667 27.6272 0.18171 28.1113C0.298553 28.5954 0.607257 29.0206 1.04621 29.3022L26.463 43.1007C26.7832 43.2787 27.1491 43.3727 27.5221 43.3727C27.895 43.3727 28.261 43.2787 28.5811 43.1007L53.9979 29.3022C54.2613 29.1847 54.4957 29.0177 54.6864 28.8118C54.877 28.6059 55.0199 28.3655 55.106 28.1057C55.192 27.846 55.2194 27.5725 55.1865 27.3024C55.1535 27.0323 55.0609 26.7714 54.9144 26.5363C54.7679 26.3011 54.5707 26.0967 54.3352 25.9358C54.0998 25.775 53.8311 25.6612 53.5461 25.6016C53.2612 25.542 52.966 25.5379 52.6793 25.5896C52.3925 25.6413 52.1203 25.7476 51.8799 25.9019ZM1.04621 17.4749L26.463 31.2734C26.7832 31.4514 27.1491 31.5454 27.5221 31.5454C27.895 31.5454 28.261 31.4514 28.5811 31.2734L53.9979 17.4749C54.3164 17.301 54.5805 17.0526 54.7641 16.7544C54.9476 16.4562 55.0441 16.1184 55.0441 15.7748C55.0441 15.4311 54.9476 15.0934 54.7641 14.7951C54.5805 14.4969 54.3164 14.2485 53.9979 14.0746L28.5811 0.27609C28.2619 0.0955056 27.8956 0 27.5221 0C27.1485 0 26.7822 0.0955056 26.463 0.27609L1.04621 14.0746C0.727699 14.2485 0.463587 14.4969 0.280068 14.7951C0.0965485 15.0934 0 15.4311 0 15.7748C0 16.1184 0.0965485 16.4562 0.280068 16.7544C0.463587 17.0526 0.727699 17.301 1.04621 17.4749Z" fill="#E57300"/>
</svg>
