<svg width="105" height="122" viewBox="0 0 105 122" fill="none" xmlns="http://www.w3.org/2000/svg">
<path opacity="0.5" fill-rule="evenodd" clip-rule="evenodd" d="M100.962 34.8506C103.745 23.2721 99.9073 10.7925 95.4366 2.81678C95.0624 2.14918 95.3167 1.31405 96.0047 0.951458C95.4366 2.81681 97.5538 0.836123 97.928 1.50372C102.59 9.82164 106.721 23.009 103.724 35.4768C102.217 41.7431 98.9128 47.8077 93.0118 52.929C87.8223 57.4328 80.6756 61.1637 71.0879 63.691C70.143 68.119 68.5758 72.5785 66.4303 76.8981C56.732 96.4234 35.0634 113.377 4.73867 111.94L10.7722 118.989C11.2726 119.574 11.1899 120.441 10.5874 120.926C9.98497 121.411 9.09093 121.331 8.59051 120.746L0.435769 111.218C-0.0646514 110.633 0.0180697 109.766 0.620518 109.281L10.438 101.376C11.0405 100.891 11.9345 100.972 12.4349 101.556C12.9353 102.141 12.8526 103.008 12.2502 103.493L5.15726 109.204C34.0563 110.461 54.6346 94.3064 63.8751 75.7027C65.7165 71.9954 67.1017 68.2021 68.0126 64.441C67.6996 64.5114 67.3843 64.5806 67.0666 64.6485C52.4926 67.7667 41.7323 65.9884 34.4483 61.5757C27.1565 57.1583 23.5272 50.2032 23.0614 43.3678C22.5976 36.5631 25.2699 29.777 30.7002 25.7485C36.1912 21.675 44.218 20.6235 53.9932 24.7687C63.8906 28.9658 69.5453 36.9974 71.4287 46.4778C72.3207 50.9681 72.3691 55.7823 71.6344 60.6838C80.224 58.261 86.5486 54.8456 91.1201 50.8781C96.5557 46.1608 99.5779 40.6074 100.962 34.8506ZM68.6353 61.4665C69.5231 56.4315 69.5407 51.5118 68.6438 46.9968C66.9132 38.2853 61.7895 31.0767 52.8585 27.2894C43.8053 23.4504 36.9195 24.5992 32.424 27.9342C27.8678 31.3142 25.4795 37.1446 25.8913 43.188C26.3011 49.2008 29.4834 55.3253 35.9495 59.2425C42.4235 63.1645 52.3674 64.9758 66.4541 61.962C67.1956 61.8033 67.9225 61.6381 68.6353 61.4665Z" fill="#E57300"/>
</svg>
