<svg width="27" height="13" viewBox="0 0 27 13" fill="none" xmlns="http://www.w3.org/2000/svg">
<path d="M26.4113 2.30624C25.4373 2.53465 24.4074 2.68565 23.3534 2.75453C24.4653 2.39542 25.2986 1.83048 25.6986 1.16451C24.6537 1.50077 23.5099 1.73768 22.3168 1.86496C21.5194 1.39746 20.4574 1.08626 19.2976 0.980183C18.1377 0.874104 16.9455 0.979138 15.908 1.27881C14.8704 1.57849 14.0462 2.05585 13.5646 2.63604C13.083 3.21622 12.9712 3.86642 13.2469 4.48464C11.1341 4.42687 9.06747 4.12948 7.18119 3.61178C5.29491 3.09409 3.63119 2.36766 2.29811 1.47971C1.83053 1.92111 1.58484 2.42099 1.58547 2.92964C1.58381 3.40201 1.79824 3.86728 2.20968 4.28401C2.62112 4.70074 3.21679 5.05601 3.94366 5.31818C3.09883 5.30575 2.27204 5.1832 1.53364 4.96095V4.99597C1.53997 5.65782 1.96899 6.29817 2.74813 6.80871C3.52726 7.31925 4.60869 7.66864 5.80948 7.79777C5.34724 7.87382 4.86734 7.91391 4.3842 7.91685C4.04976 7.91474 3.71616 7.89834 3.3865 7.86782C3.72845 8.43715 4.39019 8.9347 5.27963 9.29124C6.16907 9.64778 7.24198 9.84557 8.34907 9.85709C6.47962 10.6523 4.17155 11.0863 1.79278 11.0899C1.35967 11.0907 0.926903 11.0766 0.49707 11.0479C2.92579 11.8956 5.75611 12.3456 8.64708 12.3437C10.6421 12.3549 12.6212 12.1511 14.4689 11.7442C16.3165 11.3372 17.9957 10.7354 19.4082 9.97372C20.8208 9.21206 21.9384 8.30587 22.6959 7.30809C23.4534 6.31031 23.8354 5.24094 23.8198 4.16243C23.8198 4.04336 23.8198 3.91728 23.8198 3.79119C24.8366 3.3813 25.7135 2.87881 26.4113 2.30624Z" fill="white"/>
</svg>
