<svg width="404" height="476" viewBox="0 0 404 476" fill="none" xmlns="http://www.w3.org/2000/svg">
<path d="M401.202 21.219L404 17.5374L403.864 14.575L402.12 12.1769L398.064 10.0258L386.674 7.11427L365.676 4.33121L336.075 2.35432L302.144 1.01286L227.237 0L118.057 0.587951L87.5564 0.320117L85.5645 0.977337L84.1956 2.87003V5.21684L85.5645 7.11792L87.5768 7.77425L140.623 5.97174L209.302 5.39433L273.931 6.03822L327.624 7.75476L358.762 9.61694L381.639 12.2163L395.321 15.2492L397.34 16.3283L393.649 18.6825L384.036 22.1622L354.112 29.2371L320.313 35.8876L166.386 63.7077L104.923 76.1866L71.3113 83.8182L36.3137 93.534L15.7959 100.892L10.8385 103.263L4.04371 107.915L1.38454 111.125L0.174541 113.698L0 117.283L0.848959 119.862L3.13027 122.997L5.70213 125.291L13.164 129.609L31.9524 136.012L74.4989 146.799L143.696 161.549L192.103 173.035L192.132 173.042L228.698 182.523L249.218 188.992L277.477 199.764L293.67 207.356L300.362 211.251L305.891 215.209L310.05 219.19L312.435 222.503L314.317 226.608L315.21 230.734L315.182 234.118L314.226 238.485L312.343 242.978L309.701 247.311L306.372 251.53L301.5 256.318L295.29 261.237L279.665 271.406L242.429 292.033L221.866 302.315L166.153 327.923L138.987 342.359L122.725 351.644L108.983 360.661L103.369 365.106L98.8195 369.497L94.8047 374.561L92.248 378.837L90.5779 383.078L89.7629 387.275L89.7574 392.322L90.5204 396.428L93.9687 404.23L97.5139 408.913L101.575 412.789L111.819 420.217L134.975 433.519L146.433 439.13L208.995 464.397L222.776 470.611L233.168 476H236.293L237.379 472.641L236.21 471.025L225.75 465.595L206.147 456.948L149.328 434.083L138.05 428.555L115.113 415.378L105.152 408.155L101.402 404.581L99.193 401.683L96.0939 394.649L95.448 391.147V388.464L96.1575 384.81L97.64 381.045L99.7986 377.443L102.687 373.851L106.998 369.686L112.397 365.416L125.957 356.515L142.101 347.295L169.156 332.919L235.574 302.148L273.906 281.49L291.228 271.112L305.115 260.909L310.256 255.866L314.705 250.171L317.714 245.224L319.786 240.281L320.87 235.354L320.908 230.492L319.879 224.791L317.734 220.111L313.972 214.892L309.464 210.571L303.654 206.412L296.746 202.397L288.9 198.486L271.168 190.989L240.705 180.125L205.34 170.35L144.351 155.765L75.1576 141.01L32.7625 130.267L21.053 126.558L12.1613 122.551L7.07921 118.673L5.77208 116.04L5.82127 115.343L6.50276 113.894L7.75745 112.445L10.3475 110.372L13.9466 108.215L24.301 103.67L45.0833 96.8756L82.518 87.0845L117.659 79.4328L117.681 79.4281L166.902 69.526L166.93 69.5207L330.231 39.9999L361.856 33.5892L380.004 29.3393L393.628 25.0647L401.202 21.219Z" fill="#F1BA82"/>
</svg>
