<svg width="475" height="527" viewBox="0 0 475 527" fill="none" xmlns="http://www.w3.org/2000/svg">
<path d="M471.711 23.4924L475 19.4164L474.84 16.1366L472.79 13.4815L468.021 11.1L454.629 7.87652L429.941 4.79527L395.137 2.60656L355.244 1.12138L267.172 0L138.804 0.650946L102.944 0.354415L100.602 1.08205L98.9923 3.17753V5.77578L100.602 7.88055L102.968 8.60721L165.337 6.61156L246.086 5.97229L322.072 6.68517L385.202 8.58563L421.812 10.6473L448.709 13.5252L464.796 16.8831L467.17 18.0778L462.83 20.6842L451.527 24.5367L416.345 32.3697L376.606 39.7327L195.627 70.5335L123.363 84.3495L83.8438 92.7987L42.6955 103.555L18.5719 111.702L12.7433 114.327L4.75436 119.477L1.62787 123.031L0.205215 125.88L0 129.849L0.998157 132.705L3.68039 136.175L6.70424 138.715L15.4775 143.495L37.5678 150.585L87.5915 162.527L168.949 178.858L225.863 191.575L225.898 191.583L268.89 202.08L293.016 209.241L326.241 221.167L345.28 229.573L353.148 233.884L359.649 238.267L364.539 242.675L367.344 246.342L369.556 250.888L370.606 255.456L370.573 259.202L369.449 264.037L367.235 269.011L364.129 273.809L360.214 278.479L354.487 283.78L347.185 289.227L328.814 300.485L285.034 323.323L260.857 334.706L195.353 363.057L163.413 379.04L144.294 389.32L128.135 399.303L121.536 404.225L116.186 409.086L111.466 414.693L108.46 419.427L106.496 424.122L105.538 428.768L105.532 434.356L106.429 438.902L110.483 447.54L114.651 452.725L119.426 457.016L131.471 465.24L158.695 479.968L172.167 486.18L245.724 514.154L261.928 521.033L274.145 527H277.82L279.096 523.281L277.722 521.492L265.424 515.48L242.376 505.907L175.572 480.592L162.311 474.472L135.343 459.882L123.631 451.886L119.223 447.929L116.625 444.721L112.982 436.933L112.222 433.056V430.085L113.057 426.039L114.8 421.872L117.337 417.883L120.734 413.906L125.802 409.295L132.15 404.567L148.093 394.713L167.074 384.506L198.884 368.588L276.975 334.521L322.043 311.65L342.41 300.16L358.736 288.863L364.781 283.28L370.012 276.975L373.55 271.498L375.986 266.026L377.26 260.571L377.305 255.188L376.096 248.876L373.573 243.694L369.15 237.916L363.85 233.132L357.018 228.527L348.897 224.082L339.672 219.752L318.823 211.452L283.008 199.424L241.427 188.602L169.72 172.454L88.366 156.118L38.5202 144.224L24.753 140.117L14.2986 135.682L8.32333 131.388L6.78649 128.473L6.84431 127.702L7.64557 126.097L9.12077 124.493L12.166 122.197L16.3976 119.809L28.5717 114.777L53.0063 107.255L97.02 96.415L138.337 87.9434L138.363 87.9382L196.233 76.9752L196.266 76.9693L388.267 44.2856L425.45 37.1881L446.787 32.4828L462.805 27.7502L471.711 23.4924Z" fill="#F1BA82"/>
</svg>
