<svg width="414" height="476" viewBox="0 0 414 476" fill="none" xmlns="http://www.w3.org/2000/svg">
<path d="M411.133 21.219L414 17.5374L413.86 14.575L412.074 12.1769L407.917 10.0258L396.245 7.11427L374.728 4.33121L344.393 2.35432L309.623 1.01286L232.861 0L120.979 0.587951L89.7236 0.320117L87.6825 0.977337L86.2796 2.87003V5.21684L87.6825 7.11792L89.7445 7.77425L144.104 5.97174L214.483 5.39433L280.711 6.03822L335.734 7.75476L367.643 9.61694L391.086 12.2163L405.106 15.2492L407.175 16.3283L403.393 18.6825L393.542 22.1622L362.877 29.2371L328.242 35.8876L170.504 63.7077L107.52 76.1866L73.0765 83.8182L37.2125 93.534L16.1868 100.892L11.1068 103.263L4.1438 107.915L1.41882 111.125L0.178861 113.698L0 117.283L0.869973 119.862L3.20775 122.997L5.84328 125.291L13.4898 129.609L32.7433 136.012L76.3429 146.799L147.252 161.549L196.858 173.035L196.888 173.042L234.359 182.523L255.387 188.992L284.345 199.764L300.939 207.356L307.797 211.251L313.462 215.209L317.725 219.19L320.169 222.503L322.097 226.608L323.012 230.734L322.983 234.118L322.004 238.485L320.075 242.978L317.367 247.311L313.955 251.53L308.963 256.318L302.599 261.237L286.587 271.406L248.43 292.033L227.358 302.315L170.265 327.923L142.427 342.359L125.763 351.644L111.68 360.661L105.928 365.106L101.265 369.497L97.1514 374.561L94.5313 378.837L92.8199 383.078L91.9847 387.275L91.9791 392.322L92.761 396.428L96.2946 404.23L99.9277 408.913L104.089 412.789L114.587 420.217L138.316 433.519L150.057 439.13L214.168 464.397L228.291 470.611L238.939 476H242.142L243.254 472.641L242.057 471.025L231.338 465.595L211.25 456.948L153.025 434.083L141.467 428.555L117.962 415.378L107.754 408.155L103.912 404.581L101.648 401.683L98.4725 394.649L97.8106 391.147V388.464L98.5377 384.81L100.057 381.045L102.269 377.443L105.229 373.851L109.646 369.686L115.179 365.416L129.074 356.515L145.618 347.295L173.343 332.919L241.405 302.148L280.686 281.49L298.437 271.112L312.667 260.909L317.935 255.866L322.494 250.171L325.579 245.224L327.702 240.281L328.812 235.354L328.851 230.492L327.797 224.791L325.598 220.111L321.744 214.892L317.124 210.571L311.17 206.412L304.091 202.397L296.051 198.486L277.88 190.989L246.663 180.125L210.423 170.35L147.924 155.765L77.018 141.01L33.5734 130.267L21.5742 126.558L12.4623 122.551L7.25444 118.673L5.91496 116.04L5.96536 115.343L6.66372 113.894L7.94947 112.445L10.6036 110.372L14.2918 108.215L24.9025 103.67L46.1992 96.8756L84.5605 87.0845L120.571 79.4328L120.594 79.4281L171.033 69.526L171.062 69.5207L338.406 39.9999L370.813 33.5892L389.41 29.3393L403.371 25.0647L411.133 21.219Z" fill="#F1BA82"/>
</svg>
